<?xml version="1.0" standalone="no"?>
<!DOCTYPE svg PUBLIC "-//W3C//DTD SVG 20010904//EN"
 "http://www.w3.org/TR/2001/REC-SVG-20010904/DTD/svg10.dtd">
<svg version="1.0" xmlns="http://www.w3.org/2000/svg"
 width="512.000000pt" height="512.000000pt" viewBox="0 0 512.000000 512.000000"
 preserveAspectRatio="xMidYMid meet">
<metadata>
Created by potrace 1.16, written by Peter Selinger 2001-2019
</metadata>
<g transform="translate(0.000000,512.000000) scale(0.100000,-0.100000)"
fill="#000000" stroke="none">
<path d="M2786 4589 c-3 -17 -6 -56 -6 -85 0 -47 -2 -54 -20 -54 -25 0 -26
-16 -2 -22 16 -5 17 -13 10 -94 -4 -49 -6 -111 -3 -139 3 -39 2 -44 -5 -25 -7
18 -8 0 -5 -60 2 -63 1 -75 -5 -45 -6 28 -7 5 -5 -75 2 -80 1 -101 -5 -70 -7
42 -8 41 -6 -22 0 -36 -1 -65 -3 -62 -3 2 -35 -53 -71 -123 -68 -129 -139
-250 -444 -758 -160 -268 -234 -384 -481 -758 -60 -91 -164 -250 -229 -352
-66 -102 -123 -185 -126 -185 -4 0 -13 -14 -20 -30 -11 -27 -17 -30 -41 -25
-43 10 -69 -9 -69 -50 l0 -35 -627 -3 -628 -2 631 -3 c584 -2 632 -3 638 -19
4 -10 -1 -27 -14 -43 -33 -41 -80 -124 -80 -141 0 -9 18 -43 39 -75 22 -33 43
-73 47 -89 9 -38 49 -118 84 -170 28 -41 106 -192 130 -253 11 -29 11 -35 -1
-43 -11 -7 -12 -12 -1 -29 16 -27 16 -27 -20 -60 -27 -25 -30 -31 -18 -46 15
-17 15 -17 -37 -51 -17 -11 -17 -12 5 -19 41 -12 22 -38 -36 -48 -76 -13 -67
-46 13 -46 19 0 37 -4 40 -10 4 -6 -8 -10 -28 -10 -36 0 -64 -21 -52 -40 3 -5
21 -10 39 -10 19 0 39 -6 45 -14 10 -12 7 -17 -15 -29 l-28 -14 37 -24 c20
-13 37 -27 37 -30 0 -11 -29 -19 -101 -25 -37 -4 -66 -10 -64 -14 2 -4 34 -10
70 -13 74 -7 165 6 180 26 6 8 19 19 30 25 19 11 18 11 -7 12 -18 0 -28 5 -28
15 0 8 5 15 12 15 24 0 168 43 168 50 0 4 -36 10 -80 12 -77 5 -100 11 -87 24
3 4 66 10 139 15 142 9 158 12 158 29 0 7 -53 9 -170 6 -93 -2 -170 0 -170 4
0 17 56 31 84 20 48 -18 276 -9 276 11 0 5 -18 9 -39 9 -75 0 -51 17 40 29
180 23 287 30 449 31 172 0 277 11 345 34 22 8 105 19 185 25 202 15 367 39
415 61 35 16 37 18 15 19 -23 1 -105 -11 -265 -38 -181 -30 -465 -52 -725 -56
-74 -1 -155 -6 -180 -13 -38 -9 -59 -8 -132 9 -82 19 -91 20 -135 5 -82 -26
-165 -37 -248 -34 -71 3 -77 4 -58 16 13 7 64 17 115 22 51 5 118 16 148 24
74 21 113 20 159 -4 61 -31 114 -35 181 -15 52 16 69 16 131 6 71 -12 165 -6
175 11 3 5 -14 6 -38 3 -38 -5 -40 -4 -18 6 30 14 170 14 251 -1 65 -12 110
-7 182 21 26 11 64 19 85 19 20 0 80 5 132 10 52 6 154 17 225 25 72 7 207 28
300 45 94 18 222 35 285 39 63 3 125 12 137 19 12 6 45 12 74 12 43 0 50 -2
40 -14 -18 -22 -96 -38 -221 -46 -188 -13 -316 -29 -352 -45 -42 -18 -37 -18
54 -1 40 7 140 14 222 15 151 2 209 9 273 36 20 8 54 15 77 15 l41 0 -40 35
c-28 25 -49 35 -73 35 -20 0 -31 4 -27 10 10 16 -5 50 -22 50 -8 0 -45 -9 -81
-19 -118 -34 -315 -73 -382 -76 -113 -5 -487 -67 -546 -91 -17 -7 -67 -18
-110 -23 -43 -6 -90 -13 -104 -16 -18 -4 -15 -2 9 9 18 9 53 16 77 16 26 0 67
11 101 26 32 15 95 32 143 39 69 9 80 13 58 19 -17 5 -77 1 -146 -9 -126 -18
-233 -17 -392 4 -196 26 -535 85 -819 142 -162 32 -296 57 -299 55 -6 -6 41
-18 288 -71 118 -25 238 -52 265 -60 l50 -15 -70 5 c-151 11 -508 45 -512 49
-5 4 -60 195 -72 249 -7 28 -6 37 4 37 7 0 172 -45 366 -101 554 -158 794
-211 1099 -244 85 -9 185 -20 222 -26 95 -13 150 -11 253 8 50 9 113 16 141
15 70 -3 429 75 461 100 6 5 32 39 58 76 26 37 60 85 76 107 49 67 71 116 73
165 1 42 3 46 26 44 17 -1 19 0 5 3 -11 3 -24 9 -29 14 -6 5 -32 9 -58 9 -47
0 -48 0 -48 33 0 17 -3 69 -7 114 l-6 83 504 3 504 2 -503 3 -504 2 2 48 c4
77 2 82 -25 82 -18 0 -25 -5 -25 -20 0 -16 -7 -20 -32 -20 -18 0 -56 -3 -84
-6 l-51 -6 -85 118 c-105 147 -232 347 -259 410 -23 50 -47 170 -50 244 -2 34
-3 38 -6 15 -7 -42 15 -180 38 -240 22 -60 147 -263 260 -421 43 -62 79 -115
79 -119 0 -12 -225 5 -279 21 l-50 14 6 38 c10 63 9 67 -19 70 -36 4 -44 35
-64 239 -15 162 -31 256 -64 378 -43 160 -90 344 -90 354 0 5 24 17 53 27 28
9 57 21 64 26 6 5 13 5 16 1 16 -27 31 -115 37 -228 l7 -130 1 105 c1 66 -4
131 -14 175 -9 39 -18 82 -19 98 -4 42 -5 43 -15 27 -8 -13 -10 -13 -10 2 0
10 -17 46 -38 80 -41 68 -179 320 -337 618 -55 102 -102 186 -106 188 -4 2 -5
10 -2 18 3 7 -1 16 -9 19 -8 3 -15 11 -15 18 0 7 -25 59 -56 116 l-55 103 -11
-51 c-6 -29 -11 -68 -11 -87 0 -21 -4 -33 -10 -29 -6 3 -10 50 -10 105 l0 98
30 7 c20 4 30 13 30 26 0 15 -5 17 -30 12 l-30 -6 5 139 c2 77 5 159 5 183 l0
44 43 -6 c42 -5 42 -5 12 9 -16 7 -36 13 -43 14 -11 0 -12 19 -6 90 7 90 2
118 -10 59z m148 -964 c14 -33 41 -103 61 -155 21 -52 70 -223 110 -380 41
-157 74 -279 74 -271 1 7 -35 156 -79 330 -105 418 -102 404 -110 391 -4 -6
-31 54 -60 135 -53 149 -62 195 -20 105 13 -27 27 -47 31 -44 5 3 6 -2 3 -10
-3 -9 1 -22 9 -30 8 -8 58 -97 112 -198 164 -307 286 -530 326 -595 21 -36 33
-65 28 -69 -6 -3 -4 -15 5 -29 18 -28 18 -28 -54 -49 -35 -10 -56 -13 -58 -6
-2 5 -8 10 -13 10 -6 0 -7 -4 -4 -10 3 -5 -6 -12 -21 -16 -20 -5 -31 -2 -42
12 -14 18 -14 18 -9 -6 51 -248 148 -647 198 -814 17 -56 32 -110 33 -121 0
-11 5 -26 9 -32 6 -9 2 -13 -10 -13 -22 1 -143 26 -147 31 -2 2 -13 67 -25
144 -12 77 -25 151 -28 164 -4 16 -2 22 5 17 6 -3 -1 21 -16 53 -14 33 -27 59
-29 58 -1 -2 4 -24 12 -49 12 -41 65 -339 65 -368 0 -14 -42 -6 -116 21 l-51
19 -16 78 c-9 42 -20 111 -24 152 -5 58 -8 69 -14 50 -5 -16 -7 -5 -4 30 4 47
3 51 -6 25 -11 -32 -1 -108 32 -245 10 -41 16 -76 14 -78 -5 -6 -76 18 -102
34 -13 8 -20 20 -17 29 4 8 10 12 16 9 5 -3 4 3 -3 15 -11 17 -11 29 0 68 8
26 13 56 13 66 0 10 4 15 10 11 6 -4 8 1 3 15 -3 11 -2 21 3 21 5 0 7 11 4 25
-2 14 0 25 6 25 6 0 13 23 17 51 4 28 22 84 40 126 37 86 34 88 80 -40 15 -42
30 -76 32 -73 2 2 -14 53 -37 114 -45 124 -45 123 -26 116 10 -4 13 0 11 13
-2 10 -4 27 -5 38 -1 18 -2 18 -14 -4 l-13 -24 -7 26 c-3 14 -9 33 -12 42 -5
11 12 5 52 -20 33 -19 64 -35 69 -35 6 0 27 -66 49 -148 21 -81 58 -213 82
-293 48 -161 49 -163 33 -153 -7 4 3 -21 21 -55 18 -34 35 -59 37 -57 3 2 -4
19 -13 38 -10 18 -17 39 -15 47 1 8 -2 10 -9 6 -8 -5 -10 -1 -6 12 3 10 -20
110 -53 224 -33 113 -62 227 -66 252 -4 26 -12 47 -17 47 -5 0 -7 9 -3 19 3
11 1 28 -5 38 -5 10 -24 83 -40 162 -17 79 -32 147 -35 149 -9 9 -6 -11 20
-123 14 -61 25 -120 25 -132 0 -20 -3 -21 -29 -12 -16 6 -46 25 -66 42 -30 27
-39 43 -50 97 -8 36 -15 81 -15 100 0 40 -8 54 -32 63 -11 4 -18 17 -18 32 0
14 -4 25 -8 25 -5 0 -6 14 -4 31 3 23 1 30 -7 25 -8 -5 -10 -1 -6 16 7 31 -28
241 -39 231 -5 -4 -5 12 -1 36 5 32 4 42 -4 36 -8 -4 -10 1 -7 17 3 12 -1 64
-8 113 l-14 90 4 -85 c3 -73 2 -79 -7 -45 -23 92 -48 289 -38 301 12 14 1 87
-11 79 -5 -3 -6 5 -3 17 4 19 3 20 -7 8 -9 -12 -10 -8 -5 19 4 18 3 31 -1 28
-5 -3 -10 14 -11 37 -2 34 3 25 33 -59 19 -55 45 -127 58 -160z m-74 9 c39
-262 61 -363 72 -338 7 15 7 14 3 -6 -6 -27 25 -231 34 -225 3 1 7 -20 8 -49
1 -28 12 -94 23 -146 22 -103 27 -155 34 -385 l4 -150 -18 80 c-25 110 -24 73
1 -55 l20 -105 -27 -112 c-15 -62 -32 -113 -37 -113 -5 0 -6 -21 -2 -49 7 -54
5 -57 -55 -78 l-35 -13 43 4 c47 5 56 -4 50 -46 l-3 -23 -24 25 c-13 14 -21
19 -17 13 8 -15 -10 -18 -18 -4 -3 5 -37 17 -76 26 -78 19 -91 40 -45 71 45
29 21 68 -41 66 -29 -1 -34 2 -30 16 15 47 36 167 35 195 l-2 32 -4 -30 c-14
-105 -52 -255 -53 -205 0 8 7 46 15 85 18 82 17 75 7 75 -6 0 -32 -141 -49
-272 -3 -27 -9 -48 -14 -48 -4 0 -14 -3 -23 -6 -13 -5 -16 1 -18 27 l-1 34 -4
-32 c-2 -17 -11 -34 -19 -37 -11 -4 -13 2 -9 32 3 20 7 66 9 102 3 36 8 80 12
99 5 25 4 32 -4 27 -8 -5 -12 1 -12 16 0 36 11 68 21 62 5 -3 6 2 3 10 -3 8 1
73 10 143 25 196 24 191 52 185 17 -3 23 -9 20 -21 -9 -28 -37 -264 -32 -268
2 -2 9 36 15 84 7 48 15 108 20 133 l8 45 12 -30 c9 -21 12 -66 8 -153 -3 -68
-4 -122 -2 -120 2 2 9 48 15 103 11 94 10 105 -10 164 -17 51 -20 78 -16 154
5 99 1 92 -9 -14 -6 -60 -8 -66 -26 -62 -13 4 -19 14 -19 34 0 34 35 303 54
414 l13 80 5 -75 c4 -60 5 -54 4 30 l-1 105 38 3 37 3 2 -163 2 -163 6 170 c3
119 1 179 -7 201 -7 19 -12 96 -12 205 -1 96 -3 219 -5 274 -3 69 -2 84 3 50
l8 -50 1 72 c2 67 9 109 18 100 2 -2 18 -93 34 -203z m-140 -40 c-11 -99 -27
-217 -35 -264 -8 -47 -15 -100 -15 -118 0 -25 -5 -35 -22 -41 -13 -5 -25 -7
-27 -5 -3 2 4 40 15 84 13 56 21 75 26 63 4 -10 5 5 2 32 -3 29 -2 45 3 38 5
-8 9 17 10 61 2 104 45 347 59 333 3 -3 -4 -85 -16 -183z m72 -247 l3 -187
-24 0 c-24 0 -24 0 -17 83 3 45 10 186 13 312 l7 230 7 -125 c4 -69 9 -209 11
-313z m-85 403 c-1 -11 -5 -20 -10 -20 -4 0 -6 -4 -3 -9 4 -5 -1 -40 -9 -77
-9 -37 -14 -73 -11 -81 3 -8 2 -12 -2 -9 -11 6 -50 -131 -101 -346 l-38 -167
-78 -73 c-43 -40 -103 -104 -133 -143 -72 -92 -158 -165 -251 -215 -22 -11
-23 -11 -18 6 5 13 1 12 -10 -5 -10 -13 -18 -30 -19 -38 -4 -24 -65 -120 -107
-165 -38 -42 -38 -43 -19 -8 37 67 145 235 160 250 8 8 12 9 8 3 -4 -7 -5 -13
-2 -13 3 0 10 10 17 21 8 16 8 20 -1 14 -17 -11 -8 6 163 292 82 139 154 250
158 247 5 -3 2 -16 -7 -30 -23 -35 -12 -30 15 7 13 18 19 29 13 25 -17 -10
-22 21 -6 41 9 10 12 12 8 4 -5 -10 -3 -12 5 -7 7 5 10 15 7 23 -4 9 -2 11 6
7 8 -5 9 -2 5 10 -4 9 -3 15 2 11 13 -7 37 28 121 182 42 77 69 137 64 144 -5
8 -3 9 6 4 10 -6 12 -4 7 9 -5 11 -3 15 5 10 8 -5 9 -2 5 9 -3 9 -1 19 5 23 7
5 8 2 3 -6 -6 -9 -4 -11 4 -6 7 5 10 15 7 23 -4 8 -1 11 5 8 6 -4 9 -1 8 6 -3
14 9 59 16 59 2 0 3 -9 2 -20z m173 -66 c0 -8 -4 -12 -10 -9 -5 3 -10 13 -10
21 0 8 5 12 10 9 6 -3 10 -13 10 -21z m-275 -114 c-9 -16 -18 -30 -21 -30 -2
0 2 14 11 30 9 17 18 30 21 30 2 0 -2 -13 -11 -30z m142 -12 c-3 -8 -6 -5 -6
6 -1 11 2 17 5 13 3 -3 4 -12 1 -19z m-209 -108 c-24 -44 -53 -92 -66 -108
-12 -15 5 21 39 81 33 59 63 107 65 107 3 0 -14 -36 -38 -80z m113 -65 c-36
-185 -43 -210 -57 -226 -13 -15 -13 -19 1 -32 12 -13 22 -14 43 -7 23 9 21 5
-15 -28 -24 -21 -43 -47 -43 -58 0 -11 -7 -47 -16 -79 -9 -33 -18 -77 -20 -98
-5 -48 -59 -173 -69 -158 -4 7 9 46 29 88 20 42 34 78 32 80 -2 3 -9 -5 -16
-16 -13 -25 -30 -28 -30 -4 0 9 -3 13 -7 10 -3 -4 0 -18 7 -32 12 -23 0 -51
-189 -428 -139 -280 -214 -419 -242 -451 -42 -48 -169 -160 -174 -154 -5 4
136 352 163 405 38 74 52 149 53 288 l0 130 79 57 c49 35 98 82 127 120 56 75
216 233 221 219 3 -9 -8 -50 -34 -131 -3 -8 2 -2 11 13 9 16 34 113 56 215 44
212 102 427 107 397 1 -11 -6 -65 -17 -120z m86 88 c-3 -10 -5 -4 -5 12 0 17
2 24 5 18 2 -7 2 -21 0 -30z m-10 -55 c-3 -7 -5 -2 -5 12 0 14 2 19 5 13 2 -7
2 -19 0 -25z m-5 -47 c2 -17 1 -28 -3 -26 -4 3 -10 -25 -14 -62 -6 -61 -23
-125 -24 -95 -1 16 31 212 34 212 2 0 5 -13 7 -29z m5 -148 c-2 -16 -4 -3 -4
27 0 30 2 43 4 28 2 -16 2 -40 0 -55z m-38 -260 c-12 -86 -24 -152 -26 -146
-3 7 5 76 16 153 12 78 21 146 21 152 0 6 3 9 6 5 4 -3 -4 -77 -17 -164z m-73
-182 c-23 -162 -45 -288 -48 -279 -3 8 -2 34 3 59 4 24 8 60 7 79 0 21 -6 3
-14 -45 -10 -58 -11 -88 -3 -110 8 -23 4 -78 -21 -250 -17 -121 -32 -238 -34
-260 -6 -82 -30 -235 -36 -235 -4 0 -5 -14 -2 -30 2 -17 0 -30 -6 -30 -15 0
-25 18 -17 30 3 6 8 45 10 88 2 60 1 68 -5 37 -5 -22 -9 -57 -9 -77 -1 -20 -5
-40 -11 -43 -6 -4 -8 17 -5 57 l4 63 -9 -59 c-5 -33 -14 -64 -18 -68 -5 -5
-32 -11 -60 -15 -50 -6 -51 -7 -66 -51 -9 -25 -14 -47 -12 -49 2 -2 10 15 18
39 14 42 15 43 73 51 46 7 61 5 73 -6 12 -13 8 -17 -40 -31 -79 -23 -114 -71
-69 -95 10 -6 21 -18 25 -27 7 -17 -31 -234 -43 -247 -4 -4 -31 -2 -60 4 -47
10 -52 13 -47 33 3 11 7 41 10 66 l6 45 -10 -40 c-6 -22 -12 -51 -15 -63 -6
-26 -4 -26 -97 -1 l-38 10 0 89 0 90 89 0 c87 0 89 -1 85 -22 l-5 -23 10 23
c9 19 18 22 62 22 29 0 49 3 45 7 -4 4 -25 6 -46 4 -33 -2 -40 1 -41 16 -1 16
-2 17 -6 1 -4 -15 -17 -18 -89 -18 -64 0 -83 3 -78 12 20 32 55 65 120 113 59
44 77 64 99 112 15 32 36 75 47 97 11 21 14 35 7 30 -9 -5 -10 -2 -6 10 13 33
38 138 34 142 -7 7 -48 -156 -42 -166 3 -6 1 -10 -4 -10 -6 0 -11 -6 -11 -12
0 -30 -60 -136 -94 -166 -64 -56 -86 -68 -97 -51 -6 11 -9 8 -9 -10 0 -15 -15
-39 -40 -63 l-41 -38 -160 0 -161 0 30 38 c16 20 49 73 73 118 34 62 59 93
109 135 147 121 156 134 345 513 97 193 180 355 185 360 16 16 21 0 10 -29 -6
-15 -9 -29 -7 -31 11 -11 91 215 111 314 13 65 25 103 25 86 1 -17 3 -47 6
-65 4 -28 3 -30 -5 -14 -8 16 -9 8 -7 -33 1 -28 -1 -53 -5 -55 -8 -2 -47 -245
-68 -417 -31 -263 -42 -314 -77 -383 -19 -38 -30 -66 -25 -63 5 3 15 20 23 37
11 29 14 30 21 13 6 -15 7 -13 4 9 -2 15 1 30 5 33 5 3 9 -8 9 -25 0 -16 5
-33 10 -36 7 -5 9 11 5 47 -4 37 -2 47 4 33 8 -18 10 -16 10 10 1 17 -5 37
-11 44 -8 9 -9 12 -1 7 17 -9 50 181 34 205 -16 27 -14 34 6 18 15 -13 16 -11
9 11 -3 14 -9 39 -12 55 l-5 30 15 -30 c17 -36 20 -26 5 24 -8 28 -6 62 10
151 11 69 20 101 21 80 2 -32 28 141 46 300 4 36 12 68 18 72 6 4 12 4 13 0 1
-4 -17 -139 -41 -301z m445 -35 c4 -30 10 -69 13 -88 3 -19 -3 -9 -13 22 -23
69 -34 147 -19 132 6 -6 15 -36 19 -66z m-474 27 c-3 -10 -5 -4 -5 12 0 17 2
24 5 18 2 -7 2 -21 0 -30z m69 -71 c-12 -11 -14 4 -8 53 l7 50 3 -49 c2 -26 1
-51 -2 -54z m703 -180 c68 -265 89 -367 101 -503 16 -187 14 -197 -21 -94 -42
124 -121 427 -164 623 -19 90 -35 165 -35 168 0 2 15 4 34 4 l33 0 52 -198z
m-724 96 c-5 -35 -10 -57 -13 -50 -5 17 8 125 15 118 3 -2 2 -33 -2 -68z m476
-120 c14 -50 2 -95 -43 -170 l-23 -37 -2 192 -3 192 30 -65 c16 -36 34 -87 41
-112z m-1031 -182 c-6 -27 -26 -81 -44 -120 -38 -80 -161 -386 -161 -401 0
-21 -60 -54 -188 -105 -133 -53 -165 -70 -225 -122 -38 -32 -47 -34 -56 -12
-4 10 29 62 97 152 57 76 106 144 111 152 12 23 -21 -18 -119 -149 -49 -66
-93 -120 -97 -121 -8 0 141 232 155 241 5 3 8 9 8 13 -3 19 0 26 11 23 6 -1
26 19 44 45 20 30 35 43 38 35 4 -6 4 -2 2 11 -2 12 0 22 4 22 4 0 12 13 18
28 15 44 201 343 237 382 35 38 111 151 120 180 3 9 15 22 28 27 l22 10 3
-121 c1 -66 -2 -143 -8 -170z m515 59 c-16 -103 -23 -133 -19 -85 7 101 34
273 40 255 2 -5 -7 -82 -21 -170z m-68 -52 c-3 -10 -5 -2 -5 17 0 19 2 27 5
18 2 -10 2 -26 0 -35z m-677 -3 c-6 -11 -36 -61 -68 -112 -32 -51 -82 -136
-112 -188 -74 -132 -91 -155 -101 -139 -9 15 18 72 31 64 5 -3 12 0 16 6 5 8
3 9 -6 4 -8 -5 -11 -3 -8 6 3 8 10 14 15 14 6 0 15 4 20 9 5 5 3 6 -4 2 -7 -4
-13 -3 -13 3 0 16 18 22 23 9 3 -7 6 -1 6 13 1 25 94 181 168 282 36 49 52 62
33 27z m667 -57 c-3 -10 -5 -4 -5 12 0 17 2 24 5 18 2 -7 2 -21 0 -30z m-10
-55 c-3 -7 -5 -2 -5 12 0 14 2 19 5 13 2 -7 2 -19 0 -25z m60 -60 c-2 -13 -4
-3 -4 22 0 25 2 35 4 23 2 -13 2 -33 0 -45z m-2 -47 c3 -5 1 -12 -5 -16 -5 -3
-10 1 -10 9 0 18 6 21 15 7z m170 -110 l-30 -7 23 -14 c14 -9 22 -25 22 -41 0
-22 -5 -28 -32 -32 -18 -2 -34 -4 -35 -3 -1 1 0 25 3 52 6 50 7 50 43 51 35 1
35 1 6 -6z m65 -11 c0 -5 -10 -10 -22 -10 -19 0 -20 2 -8 10 19 13 30 13 30 0z
m-233 -74 c-1 -35 -5 -59 -8 -54 -13 20 -19 -75 -8 -107 16 -42 6 -65 -26 -65
-23 0 -25 3 -19 23 4 12 11 25 17 28 5 4 7 11 4 16 -5 8 18 185 28 210 10 27
14 10 12 -51z m-1018 -48 c-24 -45 -159 -247 -170 -254 -11 -7 0 12 105 174
36 56 68 102 71 102 3 0 0 -10 -6 -22z m1518 -3 c33 -12 53 -25 57 -38 3 -12
0 -17 -7 -14 -7 2 -38 10 -69 17 -51 12 -58 16 -58 38 0 15 5 22 13 20 6 -3
35 -13 64 -23z m-197 6 c14 -4 -20 -6 -75 -4 -55 3 -104 6 -110 8 -20 7 161 3
185 -4z m38 -30 c73 -14 75 -33 2 -22 l-45 7 3 -38 c4 -32 8 -38 27 -38 17 0
25 7 28 23 2 12 2 -5 -1 -38 -2 -33 -6 -61 -7 -63 -2 -2 -41 3 -87 10 l-83 14
-3 36 -3 36 43 -9 c67 -13 68 -13 68 31 l0 40 -55 0 c-37 0 -55 -4 -55 -12 0
-9 -3 -9 -9 1 -7 11 -25 13 -75 9 -62 -5 -93 5 -43 15 40 8 251 6 295 -2z
m-320 -53 c7 1 13 -12 14 -33 0 -19 1 -41 2 -47 1 -7 -8 -14 -19 -16 -18 -2
-20 4 -22 75 -1 49 2 67 6 48 4 -16 12 -29 19 -27z m637 24 l60 -18 3 -48 3
-48 -35 6 c-34 7 -36 5 -37 -21 0 -15 -4 -37 -9 -48 -6 -14 -9 3 -9 53 -1 61
2 72 16 72 15 0 15 2 -1 19 -9 10 -30 21 -45 24 -16 3 -31 13 -35 22 -4 12 -1
15 12 11 9 -3 44 -14 77 -24z m-132 -5 c49 -12 88 -27 89 -32 0 -16 -93 -44
-147 -44 -71 -1 -95 7 -95 33 0 17 2 18 10 6 5 -8 10 -12 11 -7 8 40 20 67 32
67 7 0 52 -11 100 -23z m-422 -47 c48 0 49 -1 49 -30 0 -29 -1 -30 -50 -30
-45 0 -50 2 -50 23 0 12 -2 31 -4 42 -2 11 -1 14 1 8 3 -8 23 -13 54 -13z
m758 0 c14 -3 26 -13 29 -21 3 -12 2 -11 -8 1 -9 12 -10 8 -5 -20 6 -34 6
-142 1 -148 -14 -13 -55 36 -103 123 -12 22 -22 37 -23 33 -1 -15 25 -65 53
-101 34 -44 30 -56 -10 -31 -37 24 -44 35 -39 58 3 11 0 26 -6 34 -14 16 -19
49 -11 75 4 15 11 17 51 11 26 -4 58 -10 71 -14z m-1620 -72 c-17 -35 -47 -84
-66 -110 l-35 -48 -145 0 -146 0 39 30 c21 16 51 39 65 50 18 15 282 131 317
139 1 1 -12 -27 -29 -61z m1381 -8 c0 -63 -2 -70 -19 -70 -12 0 -25 11 -33 28
-15 32 -49 40 -72 17 -11 -12 -25 -14 -53 -9 -58 10 -73 21 -73 53 l0 28 50
-8 c37 -6 67 -3 117 10 38 10 71 19 76 20 4 0 7 -30 7 -69z m315 3 c4 -27 11
-53 17 -60 5 -6 8 -24 6 -40 -4 -27 -4 -27 -22 15 -10 23 -22 42 -27 42 -10 0
-12 83 -3 93 13 13 22 -3 29 -50z m42 51 c-3 -3 -12 -4 -19 -1 -8 3 -5 6 6 6
11 1 17 -2 13 -5z m-8 -56 c-1 -37 -2 -39 -9 -18 -12 36 -12 60 0 60 6 0 10
-19 9 -42z m-289 -63 c-7 -8 -20 -15 -29 -15 -11 0 -12 3 -4 8 6 4 15 25 19
47 l8 40 9 -32 c7 -24 6 -37 -3 -48z m52 53 c6 -17 -1 -38 -13 -38 -5 0 -9 11
-9 25 0 26 14 34 22 13z m-415 -42 c153 -30 305 -53 531 -81 35 -5 52 -11 52
-21 0 -18 -16 -17 -165 1 -157 19 -285 40 -474 76 -147 28 -160 29 -265 19
-61 -6 -138 -17 -171 -25 -75 -18 -80 -18 -66 -1 23 27 194 62 323 65 31 0
137 -14 235 -33z m233 8 c0 -17 -22 -14 -28 4 -2 7 3 12 12 12 9 0 16 -7 16
-16z m473 -8 c18 -7 54 -16 80 -20 74 -11 54 -30 -39 -37 l-79 -5 78 -2 c69
-2 78 -4 73 -19 -2 -10 -8 -37 -11 -61 l-7 -43 -40 3 c-36 3 -42 7 -56 42 -12
29 -12 40 -3 46 9 5 8 9 -4 13 -11 5 -14 3 -9 -6 5 -9 4 -9 -5 -1 -7 6 -14 25
-16 41 -3 27 -1 30 18 27 22 -5 22 -4 0 5 -13 6 -23 15 -23 21 0 13 4 13 43
-4z m511 -64 c-4 -18 -10 -32 -15 -32 -10 0 -11 25 -3 58 10 35 25 11 18 -26z
m-2749 19 c46 -22 34 -26 -30 -10 -25 6 -42 15 -39 20 8 13 24 11 69 -10z
m2485 8 c-20 -7 -17 -8 15 -4 22 2 47 0 55 -5 10 -7 -15 -10 -82 -9 -67 1 -95
5 -92 13 2 6 31 12 67 13 47 1 56 -1 37 -8z m218 -26 c3 -28 0 -33 -17 -33
-25 0 -26 3 -4 38 14 21 14 24 2 15 -23 -19 -95 -27 -104 -13 -12 19 16 30 70
28 48 -3 50 -4 53 -35z m-561 -5 c-3 -7 -5 -2 -5 12 0 14 2 19 5 13 2 -7 2
-19 0 -25z m-785 -23 c-1 -22 -8 -62 -15 -90 -10 -43 -16 -51 -42 -56 l-30 -7
28 -1 c28 -1 32 -7 21 -35 -5 -13 -25 -16 -110 -16 -97 0 -104 1 -104 20 0 18
7 20 68 22 l67 2 -63 3 -63 4 5 32 c3 18 10 59 16 91 5 33 10 61 10 62 0 8 46
12 125 11 l90 -2 -3 -40z m160 28 l78 -16 0 -85 0 -85 -62 7 c-35 4 -81 10
-103 13 -27 4 -37 2 -30 -5 12 -12 173 -35 186 -26 5 3 9 -16 9 -43 0 -26 4
-53 8 -59 4 -7 34 -15 67 -19 103 -11 115 -15 115 -37 0 -18 -4 -19 -57 -13
-117 14 -385 54 -389 58 -5 5 1 44 34 221 16 88 19 96 29 75 l12 -24 0 28 c1
32 2 32 103 10z m-403 -10 c0 -10 -8 -65 -18 -123 l-17 -105 -45 -6 c-24 -4
-46 -5 -49 -2 -8 7 33 228 44 235 16 11 56 10 56 -1 0 -5 -12 -11 -27 -13 -25
-3 -28 -8 -43 -90 -18 -94 -16 -98 33 -79 22 9 26 19 37 105 8 53 17 96 22 96
4 0 8 -8 7 -17z m1421 -4 c0 -6 -7 -9 -15 -5 -8 3 -15 1 -15 -4 0 -6 -22 -10
-50 -10 -38 0 -50 4 -50 15 0 12 14 15 65 15 41 0 65 -4 65 -11z m50 1 c12 -8
9 -10 -13 -10 -16 0 -26 4 -22 10 8 12 16 12 35 0z m-191 -12 c-1 -7 -1 -20 0
-28 1 -12 3 -12 10 -2 5 9 24 12 52 10 l44 -3 -47 -32 c-26 -18 -49 -33 -52
-33 -2 0 -7 10 -9 23 -4 19 -4 18 -6 -6 -1 -30 -39 -112 -47 -104 -3 3 2 46
11 96 12 65 21 91 31 91 8 0 14 -6 13 -12z m230 -40 c-17 -29 -39 -63 -50 -76
l-18 -23 -16 28 c-9 15 -13 19 -9 8 19 -55 14 -60 -66 -66 l-75 -5 73 -2 c43
-1 72 -6 72 -13 0 -21 -21 -49 -37 -49 -9 0 -13 -3 -9 -7 4 -4 23 -6 44 -5 25
1 32 -1 22 -7 -20 -11 -209 -35 -217 -27 -12 11 5 17 74 26 l68 9 -71 -4 -71
-4 3 27 c4 36 25 73 37 65 6 -3 7 -1 3 5 -12 20 15 57 66 90 27 18 51 32 52
30 2 -2 9 -12 15 -23 12 -19 10 -9 -4 28 -6 15 0 17 50 17 47 0 56 3 51 15 -4
11 1 15 19 15 l24 0 -30 -52z m-886 26 l47 -6 0 -130 0 -131 -72 8 c-40 3 -76
9 -80 11 -10 6 -11 248 -1 258 4 4 19 4 33 2 14 -3 46 -8 73 -12z m417 -3 c0
-5 3 -23 6 -40 6 -28 4 -31 -20 -31 -29 0 -31 4 -15 49 10 28 29 43 29 22z
m-1837 -26 c-26 -36 -40 -37 -123 -14 -119 33 -117 38 18 39 l123 0 -18 -25z
m313 1 c-16 -13 -56 -40 -88 -59 l-60 -35 -86 24 c-48 13 -91 24 -96 24 -6 0
5 16 24 35 l34 35 150 0 151 -1 -29 -23z m46 -138 c-6 -6 -43 0 -92 15 l-83
24 89 61 89 61 3 -76 c2 -42 -1 -80 -6 -85z m1535 125 c13 -32 12 -33 -12 -33
-14 0 -25 6 -25 13 0 6 -3 23 -7 36 -10 37 28 23 44 -16z m492 -74 c-1 -74 -5
-112 -12 -114 -7 -2 -35 -5 -63 -8 -49 -4 -50 -3 -46 20 2 13 -1 23 -7 23 -6
0 -11 -7 -11 -15 0 -8 -7 -15 -15 -15 -21 0 -19 23 4 49 11 13 18 28 16 34 -3
7 5 23 16 37 l21 25 -6 -27 c-13 -59 -16 -83 -10 -70 3 6 13 12 22 12 12 0 13
3 5 8 -11 7 -14 82 -3 92 3 3 11 17 17 33 10 21 19 27 43 27 l30 0 -1 -111z
m51 26 c0 -78 -2 -85 -20 -85 -18 0 -20 7 -20 85 0 78 2 85 20 85 18 0 20 -7
20 -85z m-767 59 c15 -5 17 -20 17 -141 l0 -136 -91 6 c-50 4 -95 9 -100 13
-10 6 -13 233 -3 259 6 14 17 16 83 10 42 -4 84 -9 94 -11z m109 -29 c-4 -21
-8 -24 -31 -19 -37 9 -41 13 -34 29 3 9 18 15 38 15 29 0 32 -2 27 -25z
m-1842 -84 c96 -22 218 -49 270 -61 121 -26 342 -81 535 -132 114 -30 475
-108 499 -108 2 0 6 -9 9 -20 6 -25 13 -25 -145 6 -245 47 -744 177 -810 211
-16 7 -28 9 -28 4 0 -16 25 -29 88 -47 34 -9 60 -19 58 -21 -2 -3 -37 5 -78
17 -85 25 -499 135 -543 144 -49 10 -7 -10 55 -27 30 -8 154 -42 275 -75 121
-33 267 -72 325 -85 58 -14 169 -46 247 -71 127 -40 343 -94 504 -126 44 -8
59 -16 67 -35 14 -31 72 -37 72 -7 0 17 14 18 219 14 337 -7 554 22 756 97 61
23 136 57 168 76 61 36 70 34 36 -9 -29 -36 -151 -96 -284 -139 -229 -73 -575
-109 -867 -89 -275 19 -505 70 -1018 225 -275 83 -560 160 -567 154 -3 -3 15
-11 38 -17 121 -32 453 -127 623 -179 506 -156 753 -201 1089 -201 365 0 670
56 881 162 l80 40 -25 -33 c-110 -144 -549 -240 -1029 -226 -350 11 -638 67
-1422 279 -260 70 -228 45 -268 208 -12 47 -24 93 -27 103 -4 14 0 17 19 13
13 -3 102 -23 198 -45z m1825 -56 l0 -105 -27 0 c-27 0 -28 2 -28 55 0 50 2
55 23 56 l22 0 -22 11 c-18 9 -23 20 -23 50 0 35 2 38 28 38 l28 0 -1 -105z
m75 68 c0 -21 -3 -62 -6 -90 -6 -43 -10 -53 -25 -53 -14 0 -19 7 -19 28 0 15
-2 52 -5 82 -3 39 -2 48 4 30 9 -24 9 -24 10 8 1 25 5 32 21 32 16 0 20 -7 20
-37z m162 -45 c-6 -100 -25 -109 -33 -15 l-5 72 -2 -72 c-2 -64 -4 -73 -21
-73 -10 0 -33 -3 -50 -6 l-31 -6 0 86 0 86 73 0 73 0 -4 -72z m-2382 54 c0 -5
-12 -19 -26 -33 -15 -13 -35 -37 -45 -54 -16 -26 -19 -27 -19 -9 0 27 56 104
75 104 8 0 15 -4 15 -8z m2820 -82 c0 -13 -7 -20 -20 -20 -13 0 -20 7 -20 20
0 13 7 20 20 20 13 0 20 -7 20 -20z m-2840 -25 c-19 -19 -38 -35 -44 -35 -5 0
5 16 24 35 19 19 38 35 44 35 5 0 -5 -16 -24 -35z m1400 -11 l0 -36 -81 7
c-103 9 -133 17 -137 38 -3 17 22 21 161 25 l57 2 0 -36z m-240 16 c0 -11 -63
-24 -82 -17 -7 2 7 9 32 15 25 5 46 10 48 11 1 1 2 -3 2 -9z m1578 -37 c-10
-2 -26 -2 -35 0 -10 3 -2 5 17 5 19 0 27 -2 18 -5z m208 -48 c-7 -29 -76 -67
-219 -121 -86 -33 -127 -38 -111 -13 9 15 -13 28 -37 22 -13 -4 -19 -14 -19
-33 0 -27 -1 -28 -87 -39 -49 -6 -174 -14 -278 -17 l-190 -7 -12 26 -13 27
145 0 c269 0 542 58 747 159 40 20 75 33 76 28 2 -4 1 -19 -2 -32z m-546 -14
c0 -39 -4 -52 -22 -64 l-23 -16 23 0 c43 -1 225 40 331 74 58 19 107 33 109
30 2 -2 -52 -21 -120 -43 -123 -40 -264 -72 -319 -72 -38 0 -119 72 -119 106
0 20 6 23 43 27 105 9 97 13 97 -42z m460 39 c-8 -5 -19 -10 -25 -10 -5 0 -3
5 5 10 8 5 20 10 25 10 6 0 3 -5 -5 -10z m-1504 -10 c20 0 34 -6 38 -16 5 -14
1 -16 -23 -11 -16 3 -44 13 -62 22 -26 11 -28 14 -9 10 14 -2 39 -5 56 -5z
m202 -21 l102 -13 0 -39 0 -39 -37 7 c-87 15 -142 37 -179 71 -35 32 -37 35
-14 30 14 -2 71 -10 128 -17z m672 11 c0 -5 -9 -10 -20 -10 -11 0 -20 5 -20
10 0 6 9 10 20 10 11 0 20 -4 20 -10z m-171 -16 c17 -4 31 -13 31 -20 0 -11
-17 -13 -87 -8 -100 6 -113 9 -113 24 0 11 118 14 169 4z m111 -19 c0 -10 -11
-15 -35 -15 -33 0 -43 8 -28 23 13 14 63 7 63 -8z m60 6 c0 -10 -26 -9 -36 2
-4 4 2 7 14 7 12 0 22 -4 22 -9z m-392 -18 c29 -5 32 -9 32 -40 l0 -36 -86 7
c-110 9 -114 11 -114 53 l0 35 68 -6 c37 -4 82 -10 100 -13z m239 -17 c2 -2 6
-17 9 -34 l7 -32 -97 0 c-95 0 -96 0 -96 24 0 13 -3 32 -6 41 -6 15 2 16 87
10 52 -4 95 -8 96 -9z m89 -10 c1 -1 4 -13 8 -28 6 -27 5 -28 -34 -28 -39 0
-40 1 -40 35 0 34 1 34 33 28 17 -3 32 -6 33 -7z m98 -11 c16 -24 15 -24 -20
-31 -41 -7 -40 -8 -49 29 -7 25 -5 27 23 27 21 0 35 -8 46 -25z m-1097 -21
c-3 -3 -12 -4 -19 -1 -8 3 -5 6 6 6 11 1 17 -2 13 -5z m160 -38 c76 -18 182
-41 236 -51 54 -10 96 -20 93 -22 -10 -10 -460 87 -475 103 -8 7 5 5 146 -30z
m530 -13 c57 -3 103 -9 103 -12 0 -3 -4 -12 -9 -20 -13 -21 -217 -8 -243 16
-28 25 -22 36 14 29 18 -4 79 -9 135 -13z m-34 -80 c-13 -2 -35 -2 -50 0 -16
2 -5 4 22 4 28 0 40 -2 28 -4z m300 -10 c-45 -2 -122 -2 -170 0 -48 1 -11 3
82 3 94 0 133 -2 88 -3z m-708 -262 c28 -7 -103 -15 -380 -25 -204 -7 -461
-25 -495 -34 -52 -15 -267 -26 -255 -13 6 5 57 12 115 16 58 3 128 10 155 15
65 13 369 32 564 36 84 2 156 6 159 9 7 7 100 4 137 -4z m772 3 c-3 -3 -12 -4
-19 -1 -8 3 -5 6 6 6 11 1 17 -2 13 -5z m-729 -112 c-42 -13 -128 -8 -128 7 0
4 39 7 86 7 l86 -1 -44 -13z"/>
<path d="M2892 3630 c0 -14 2 -19 5 -12 2 6 2 18 0 25 -3 6 -5 1 -5 -13z"/>
<path d="M2960 3634 c0 -7 7 -27 15 -45 8 -19 14 -29 15 -23 0 7 -7 27 -15 45
-8 19 -14 29 -15 23z"/>
<path d="M2902 3585 c-1 -11 3 -38 7 -60 7 -34 9 -35 9 -10 0 35 -15 101 -16
70z"/>
<path d="M3290 2068 c11 -18 35 -57 51 -85 34 -58 49 -72 23 -21 -22 42 -85
138 -91 138 -3 0 5 -15 17 -32z"/>
<path d="M2813 3605 c0 -33 2 -45 4 -27 2 18 2 45 0 60 -2 15 -4 0 -4 -33z"/>
<path d="M2828 3390 c3 -69 6 -144 6 -167 0 -23 3 -40 7 -37 9 5 37 -177 54
-356 10 -113 13 -128 9 -55 -2 55 -6 123 -9 150 -4 39 2 27 24 -55 36 -129 40
-115 7 18 -59 232 -86 387 -100 577 -2 28 -1 -6 2 -75z"/>
<path d="M2816 3245 c8 -37 14 -45 14 -19 0 10 -5 26 -10 34 -8 11 -9 7 -4
-15z"/>
<path d="M2724 2815 c0 -55 1 -76 3 -47 2 29 2 74 0 100 -2 26 -3 2 -3 -53z"/>
<path d="M2803 2745 c0 -33 2 -45 4 -27 2 18 2 45 0 60 -2 15 -4 0 -4 -33z"/>
<path d="M2952 2750 c-1 -8 5 -42 12 -75 8 -33 14 -49 14 -35 0 28 -25 133
-26 110z"/>
<path d="M2793 2630 c0 -30 2 -43 4 -27 2 15 2 39 0 55 -2 15 -4 2 -4 -28z"/>
<path d="M2913 2620 c0 -30 2 -43 4 -27 2 15 2 39 0 55 -2 15 -4 2 -4 -28z"/>
<path d="M2982 2585 c0 -16 2 -22 5 -12 2 9 2 23 0 30 -3 6 -5 -1 -5 -18z"/>
<path d="M2775 2470 c-4 -56 -5 -103 -2 -106 2 -3 8 41 12 96 3 56 5 104 2
106 -3 3 -8 -40 -12 -96z"/>
<path d="M2923 2500 c0 -36 2 -50 4 -32 2 17 2 47 0 65 -2 17 -4 3 -4 -33z"/>
<path d="M2992 2525 c0 -16 2 -22 5 -12 2 9 2 23 0 30 -3 6 -5 -1 -5 -18z"/>
<path d="M2933 2375 c0 -33 2 -45 4 -27 2 18 2 45 0 60 -2 15 -4 0 -4 -33z"/>
<path d="M2763 2310 c0 -25 2 -35 4 -22 2 12 2 32 0 45 -2 12 -4 2 -4 -23z"/>
<path d="M2943 2265 c0 -27 2 -38 4 -22 2 15 2 37 0 50 -2 12 -4 0 -4 -28z"/>
<path d="M2652 2210 c0 -14 2 -19 5 -12 2 6 2 18 0 25 -3 6 -5 1 -5 -13z"/>
<path d="M2953 2170 c0 -25 2 -35 4 -22 2 12 2 32 0 45 -2 12 -4 2 -4 -23z"/>
<path d="M2635 2127 c-4 -31 -5 -62 -3 -69 3 -7 8 16 12 51 4 35 5 65 2 68 -2
3 -7 -20 -11 -50z"/>
<path d="M2962 2080 c0 -19 2 -27 5 -17 2 9 2 25 0 35 -3 9 -5 1 -5 -18z"/>
<path d="M2623 1990 c0 -30 2 -43 4 -27 2 15 2 39 0 55 -2 15 -4 2 -4 -28z"/>
<path d="M2653 3220 c0 -25 2 -35 4 -22 2 12 2 32 0 45 -2 12 -4 2 -4 -23z"/>
<path d="M2302 3038 c-38 -62 -75 -124 -82 -138 -25 -50 8 -3 70 100 35 58 70
115 78 128 8 12 12 22 9 22 -3 0 -36 -51 -75 -112z"/>
<path d="M2165 2800 c-9 -16 -13 -30 -11 -30 3 0 12 14 21 30 9 17 13 30 11
30 -3 0 -12 -13 -21 -30z"/>
<path d="M2109 2713 l-24 -28 28 24 c25 23 32 31 24 31 -2 0 -14 -12 -28 -27z"/>
<path d="M2532 2730 c0 -14 2 -19 5 -12 2 6 2 18 0 25 -3 6 -5 1 -5 -13z"/>
<path d="M2522 2670 c0 -14 2 -19 5 -12 2 6 2 18 0 25 -3 6 -5 1 -5 -13z"/>
<path d="M2512 2615 c0 -16 2 -22 5 -12 2 9 2 23 0 30 -3 6 -5 -1 -5 -18z"/>
<path d="M2446 2595 c-9 -26 -7 -32 5 -12 6 10 9 21 6 23 -2 3 -7 -2 -11 -11z"/>
<path d="M2502 2560 c0 -14 2 -19 5 -12 2 6 2 18 0 25 -3 6 -5 1 -5 -13z"/>
<path d="M2401 2468 c-17 -51 -31 -98 -30 -103 0 -6 16 35 35 89 18 55 32 101
30 103 -2 3 -18 -38 -35 -89z"/>
<path d="M2492 2510 c0 -14 2 -19 5 -12 2 6 2 18 0 25 -3 6 -5 1 -5 -13z"/>
<path d="M2466 2404 c-10 -41 -16 -77 -14 -80 3 -2 12 30 22 72 10 41 16 77
14 80 -3 2 -12 -30 -22 -72z"/>
<path d="M2301 2132 c-68 -231 -115 -365 -150 -422 -11 -19 -21 -39 -21 -45 0
-18 51 78 81 153 23 58 115 349 133 422 2 8 9 35 16 59 6 23 10 45 8 47 -2 2
-32 -95 -67 -214z"/>
<path d="M2432 2258 c-7 -28 -11 -53 -8 -55 2 -2 9 19 16 47 7 28 10 53 8 55
-3 3 -10 -18 -16 -47z"/>
<path d="M2411 2174 c0 -11 3 -14 6 -6 3 7 2 16 -1 19 -3 4 -6 -2 -5 -13z"/>
<path d="M2401 2134 c0 -11 3 -14 6 -6 3 7 2 16 -1 19 -3 4 -6 -2 -5 -13z"/>
<path d="M2386 2084 c-4 -14 -5 -28 -3 -31 3 -2 8 8 11 23 4 14 5 28 3 31 -3
2 -8 -8 -11 -23z"/>
<path d="M2445 1970 c-4 -28 -5 -53 -2 -56 2 -3 7 19 11 47 4 28 5 53 3 56 -3
2 -8 -19 -12 -47z"/>
<path d="M2466 1954 c-4 -37 -5 -69 -2 -71 2 -3 7 25 11 62 4 36 5 68 3 71 -3
2 -8 -25 -12 -62z"/>
<path d="M2380 1940 c-11 -22 -18 -40 -15 -40 2 0 14 18 25 40 11 22 18 40 15
40 -2 0 -14 -18 -25 -40z"/>
<path d="M2432 1870 c0 -19 2 -27 5 -17 2 9 2 25 0 35 -3 9 -5 1 -5 -18z"/>
<path d="M2211 1444 c0 -11 3 -14 6 -6 3 7 2 16 -1 19 -3 4 -6 -2 -5 -13z"/>
<path d="M1631 1903 c-10 -26 -10 -27 4 -9 8 11 15 23 15 28 0 15 -7 8 -19
-19z"/>
<path d="M1580 1910 c-6 -11 -8 -20 -6 -20 3 0 10 9 16 20 6 11 8 20 6 20 -3
0 -10 -9 -16 -20z"/>
<path d="M3250 1740 c8 -5 20 -10 25 -10 6 0 3 5 -5 10 -8 5 -19 10 -25 10 -5
0 -3 -5 5 -10z"/>
<path d="M3000 1775 c13 -14 26 -25 28 -25 3 0 -5 11 -18 25 -13 14 -26 25
-28 25 -3 0 5 -11 18 -25z"/>
<path d="M2524 1542 c-9 -5 -34 -122 -34 -157 0 -3 17 -5 38 -3 36 3 37 4 49
58 19 94 17 110 -14 110 -16 0 -33 -4 -39 -8z"/>
<path d="M2606 1533 c-5 -19 -26 -132 -26 -143 0 -9 79 1 86 11 7 12 34 117
34 134 0 23 -87 21 -94 -2z"/>
<path d="M2807 1503 c-4 -21 -7 -53 -7 -70 0 -28 4 -33 24 -33 13 0 31 -3 40
-6 14 -5 16 4 16 65 0 63 -2 71 -19 71 -11 0 -26 2 -34 6 -10 4 -16 -5 -20
-33z"/>
<path d="M2890 1456 c0 -64 1 -66 25 -66 25 0 26 1 23 63 -3 56 -5 62 -25 65
-22 3 -23 0 -23 -62z"/>
<path d="M3006 1485 c-3 -9 -6 -39 -6 -65 0 -39 4 -52 19 -60 36 -19 41 -12
41 60 0 39 -4 70 -9 70 -5 0 -16 3 -24 6 -8 3 -17 -2 -21 -11z"/>
<path d="M3070 1421 c0 -62 2 -69 22 -74 33 -9 38 -1 38 62 0 59 -11 81 -42
81 -16 0 -18 -9 -18 -69z"/>
<path d="M4008 1343 c7 -3 16 -2 19 1 4 3 -2 6 -13 5 -11 0 -14 -3 -6 -6z"/>
<path d="M3192 1388 c3 -71 4 -73 31 -76 l27 -3 0 75 0 76 -30 0 -31 0 3 -72z"/>
<path d="M3270 1386 c0 -65 2 -74 19 -79 28 -7 31 -1 31 74 0 52 -4 68 -16 73
-31 12 -34 5 -34 -68z"/>
<path d="M3555 1331 c0 -58 15 -81 40 -61 10 8 15 29 15 61 0 47 -1 49 -27 49
-27 0 -28 -2 -28 -49z"/>
<path d="M4908 1433 c6 -2 18 -2 25 0 6 3 1 5 -13 5 -14 0 -19 -2 -12 -5z"/>
<path d="M4998 1433 c7 -3 16 -2 19 1 4 3 -2 6 -13 5 -11 0 -14 -3 -6 -6z"/>
<path d="M5098 1433 c7 -3 16 -2 19 1 4 3 -2 6 -13 5 -11 0 -14 -3 -6 -6z"/>
<path d="M5008 1353 c12 -2 30 -2 40 0 9 3 -1 5 -23 4 -22 0 -30 -2 -17 -4z"/>
<path d="M4923 1343 c9 -2 25 -2 35 0 9 3 1 5 -18 5 -19 0 -27 -2 -17 -5z"/>
<path d="M515 1249 c-27 -5 -129 -13 -225 -17 l-175 -9 132 -1 c73 -1 181 5
240 13 59 8 124 16 143 18 24 3 20 4 -15 4 -27 0 -72 -4 -100 -8z"/>
<path d="M4360 1250 l-65 -7 55 -1 c30 0 75 3 100 7 40 8 41 8 10 8 -19 0 -64
-3 -100 -7z"/>
<path d="M943 1233 c26 -2 68 -2 95 0 26 2 4 3 -48 3 -52 0 -74 -1 -47 -3z"/>
<path d="M63 1213 c9 -2 25 -2 35 0 9 3 1 5 -18 5 -19 0 -27 -2 -17 -5z"/>
<path d="M498 1173 c18 -2 45 -2 60 0 15 2 0 4 -33 4 -33 0 -45 -2 -27 -4z"/>
<path d="M156 1111 c-6 -9 85 -19 239 -26 128 -5 105 0 -60 15 -71 6 -140 13
-152 16 -12 2 -24 0 -27 -5z"/>
<path d="M5085 1113 c-16 -2 -86 -8 -155 -13 l-125 -9 150 5 c82 2 154 9 159
14 6 6 8 9 6 8 -3 0 -18 -3 -35 -5z"/>
<path d="M830 1099 c-40 -4 -25 -6 55 -6 107 -1 122 3 40 9 -22 2 -65 0 -95
-3z"/>
<path d="M610 1041 c-31 -5 -9 -7 70 -7 63 1 174 -2 245 -6 77 -4 106 -3 70 2
-89 12 -334 19 -385 11z"/>
<path d="M1535 1009 c21 -10 489 -123 678 -163 154 -34 338 -64 422 -70 81 -6
77 -5 -156 34 -177 30 -344 66 -734 160 -209 50 -248 57 -210 39z"/>
<path d="M58 1003 c34 -2 90 -2 125 0 34 2 6 3 -63 3 -69 0 -97 -1 -62 -3z"/>
<path d="M4948 993 c12 -2 30 -2 40 0 9 3 -1 5 -23 4 -22 0 -30 -2 -17 -4z"/>
<path d="M5038 983 c18 -2 45 -2 60 0 15 2 0 4 -33 4 -33 0 -45 -2 -27 -4z"/>
<path d="M355 969 c40 -8 222 -12 214 -5 -2 2 -60 5 -129 8 -74 3 -109 2 -85
-3z"/>
<path d="M945 940 l-60 -7 50 0 c28 -1 73 2 100 7 47 7 48 7 10 7 -22 0 -67
-3 -100 -7z"/>
<path d="M2728 763 c12 -2 30 -2 40 0 9 3 -1 5 -23 4 -22 0 -30 -2 -17 -4z"/>
<path d="M3930 649 c-184 -13 -170 -18 35 -12 l190 5 24 -25 c12 -14 20 -30
16 -36 -3 -6 -36 -11 -73 -12 -37 0 -76 -4 -87 -9 -26 -11 -15 -13 64 -10 57
2 66 -1 82 -21 10 -13 21 -21 25 -17 4 4 1 15 -6 23 -11 13 -11 20 0 40 11 20
10 27 -9 54 -21 29 -26 31 -84 30 -34 -1 -114 -6 -177 -10z"/>
<path d="M3920 610 l-55 -7 75 -1 c41 0 93 3 115 7 38 8 37 9 -20 8 -33 0 -85
-3 -115 -7z"/>
<path d="M3618 545 c-3 -3 -74 -7 -158 -9 -88 -3 -157 -9 -163 -15 -14 -14 16
-14 122 0 45 6 85 9 88 6 11 -11 -79 -28 -204 -37 -128 -10 -279 -35 -304 -51
-27 -17 0 -18 87 -4 49 7 143 18 209 24 113 10 136 15 228 48 20 7 55 13 76
13 37 0 40 -2 57 -45 l17 -45 106 0 c58 0 152 -3 207 -7 56 -3 113 -3 127 1
24 6 25 8 14 41 -9 30 -15 35 -41 35 -36 0 -307 -27 -364 -36 -34 -5 -39 -3
-50 21 -11 24 -10 29 10 45 l23 19 -41 1 c-22 0 -43 -2 -46 -5z m492 -69 c0
-2 3 -11 6 -20 5 -13 -20 -15 -207 -16 -117 0 -210 3 -207 6 12 12 408 41 408
30z"/>
<path d="M2645 495 c-69 -16 -209 -30 -444 -46 -114 -8 -158 -15 -146 -21 27
-16 433 8 545 32 52 11 128 23 168 26 39 4 72 11 72 15 0 13 -126 9 -195 -6z"/>
<path d="M2710 450 c25 -4 56 -4 70 1 17 5 2 7 -45 7 -64 0 -66 -1 -25 -8z"/>
<path d="M3415 439 c-44 -3 -66 -6 -50 -7 47 -3 59 -15 51 -52 -6 -31 -5 -32
20 -26 18 5 32 2 45 -10 31 -28 23 -34 -46 -34 -50 0 -66 4 -74 17 -12 22 -24
12 -15 -11 4 -9 19 -19 33 -22 23 -5 27 -10 23 -34 -3 -18 -14 -33 -35 -44
-18 -9 -24 -14 -14 -11 10 3 27 5 37 5 13 0 19 11 24 40 5 35 9 40 34 40 15 0
37 3 50 6 l22 6 -20 34 -21 33 21 11 c23 12 26 30 8 51 -10 11 -30 13 -93 8z
m85 -19 c13 -9 12 -12 -4 -25 -29 -22 -66 -19 -66 4 0 17 14 27 45 30 6 0 17
-4 25 -9z"/>
<path d="M3182 428 c-18 -18 -14 -66 8 -88 22 -22 63 -35 86 -26 26 10 5 26
-35 26 -47 0 -71 34 -53 75 13 28 12 31 -6 13z"/>
<path d="M2755 411 c-17 -15 -219 -41 -322 -41 -95 -1 -119 -4 -230 -32 -55
-14 -90 -36 -38 -24 17 4 65 10 108 13 67 5 77 3 77 -11 0 -9 -7 -16 -15 -16
-8 0 -15 -4 -15 -10 0 -5 6 -10 14 -10 18 0 26 -22 26 -70 0 -39 0 -39 43 -42
23 -2 -37 -7 -133 -11 -219 -10 -290 -17 -290 -29 0 -12 458 -1 507 12 47 12
75 3 63 -21 -9 -16 -5 -20 28 -30 42 -12 241 6 384 36 65 13 235 34 280 35 47
0 64 70 27 111 -18 21 -20 21 -13 4 4 -11 9 -36 12 -57 l4 -36 -89 -6 c-48 -3
-144 -15 -213 -26 -181 -28 -275 -40 -328 -40 l-47 0 25 25 c26 25 37 27 338
54 40 3 72 11 72 16 0 12 -34 12 -147 2 l-83 -7 0 37 c0 21 4 53 9 71 6 18 6
32 1 32 -18 0 -30 -39 -30 -93 l0 -54 -81 -7 c-45 -4 -83 -5 -84 -4 -1 2 -5
23 -9 47 l-7 44 31 -7 c28 -5 31 -3 28 17 -3 21 -7 22 -141 25 -143 3 -179
-10 -66 -23 68 -8 104 -33 115 -78 l6 -27 -93 4 -94 4 -6 33 c-4 19 -9 51 -12
72 l-6 37 117 0 c65 0 133 5 152 11 19 6 117 14 217 19 100 4 186 11 192 15
29 17 -12 25 -135 25 -88 0 -133 4 -129 10 8 12 -7 13 -20 1z"/>
<path d="M3210 396 c0 -14 5 -26 10 -26 6 0 10 9 10 19 0 11 -4 23 -10 26 -6
4 -10 -5 -10 -19z"/>
<path d="M1960 387 c-22 -10 -11 -12 84 -15 99 -2 127 0 115 12 -12 12 -176
15 -199 3z"/>
<path d="M3030 300 c0 -38 2 -40 30 -40 28 0 30 2 30 40 0 38 -2 40 -30 40
-28 0 -30 -2 -30 -40z"/>
<path d="M2828 289 c-2 -25 1 -44 9 -51 10 -8 13 0 13 41 0 61 -16 69 -22 10z"/>
<path d="M2990 313 c0 -10 -3 -28 -6 -40 -5 -17 -2 -23 10 -23 12 0 16 10 16
40 0 22 -4 40 -10 40 -5 0 -10 -8 -10 -17z"/>
<path d="M2387 273 c-15 -15 -5 -23 30 -23 22 0 33 4 28 9 -15 13 -50 22 -58
14z"/>
<path d="M2700 243 c-74 -24 -78 -26 -50 -31 34 -6 100 16 100 33 0 8 -1 14
-2 14 -2 -1 -23 -8 -48 -16z"/>
<path d="M2400 220 c0 -5 14 -10 31 -10 17 0 28 4 24 10 -3 6 -17 10 -31 10
-13 0 -24 -4 -24 -10z"/>
<path d="M3185 221 c-42 -5 -46 -7 -22 -12 32 -7 77 0 77 12 0 5 -1 8 -2 7 -2
0 -25 -4 -53 -7z"/>
<path d="M4928 203 c7 -3 16 -2 19 1 4 3 -2 6 -13 5 -11 0 -14 -3 -6 -6z"/>
<path d="M1694 181 c-22 -10 -55 -22 -72 -26 -33 -7 -54 -25 -29 -25 27 0 112
30 142 50 37 25 14 25 -41 1z"/>
<path d="M4838 193 c7 -3 16 -2 19 1 4 3 -2 6 -13 5 -11 0 -14 -3 -6 -6z"/>
<path d="M4728 183 c6 -2 18 -2 25 0 6 3 1 5 -13 5 -14 0 -19 -2 -12 -5z"/>
<path d="M118 173 c7 -3 16 -2 19 1 4 3 -2 6 -13 5 -11 0 -14 -3 -6 -6z"/>
<path d="M4618 173 c7 -3 16 -2 19 1 4 3 -2 6 -13 5 -11 0 -14 -3 -6 -6z"/>
<path d="M5033 143 c9 -2 25 -2 35 0 9 3 1 5 -18 5 -19 0 -27 -2 -17 -5z"/>
<path d="M4018 133 c7 -3 16 -2 19 1 4 3 -2 6 -13 5 -11 0 -14 -3 -6 -6z"/>
<path d="M4077 133 c18 -2 50 -2 70 0 21 2 7 4 -32 4 -38 0 -55 -2 -38 -4z"/>
<path d="M4968 133 c7 -3 16 -2 19 1 4 3 -2 6 -13 5 -11 0 -14 -3 -6 -6z"/>
<path d="M4898 123 c7 -3 16 -2 19 1 4 3 -2 6 -13 5 -11 0 -14 -3 -6 -6z"/>
<path d="M1432 104 c-33 -23 -27 -34 21 -34 47 0 84 20 73 38 -10 17 -68 15
-94 -4z"/>
<path d="M3131 103 c-1 -12 4 -25 9 -28 6 -3 10 -11 10 -16 0 -6 -12 -1 -26
10 -27 21 -54 28 -54 14 0 -5 26 -25 58 -45 42 -27 69 -38 93 -37 30 2 31 2 6
6 -29 5 -77 56 -89 95 l-6 23 -1 -22z"/>
<path d="M5028 113 c6 -2 18 -2 25 0 6 3 1 5 -13 5 -14 0 -19 -2 -12 -5z"/>
<path d="M2267 104 c-3 -4 -46 -7 -94 -7 l-88 0 75 -6 c95 -8 67 -19 -80 -30
l-105 -8 117 -2 117 -1 4 -27 4 -28 2 27 c1 25 3 26 44 21 26 -3 49 -14 60
-27 l18 -21 -6 23 c-8 28 4 28 109 2 68 -17 112 -20 329 -20 138 0 248 2 246
5 -12 11 -159 26 -359 36 -416 21 -438 23 -407 37 15 6 27 16 27 22 0 12 -4
13 -13 4z"/>
<path d="M4673 103 c15 -2 39 -2 55 0 15 2 2 4 -28 4 -30 0 -43 -2 -27 -4z"/>
<path d="M1013 93 c9 -2 25 -2 35 0 9 3 1 5 -18 5 -19 0 -27 -2 -17 -5z"/>
<path d="M4448 93 c7 -3 16 -2 19 1 4 3 -2 6 -13 5 -11 0 -14 -3 -6 -6z"/>
<path d="M4898 93 c7 -3 16 -2 19 1 4 3 -2 6 -13 5 -11 0 -14 -3 -6 -6z"/>
<path d="M4358 83 c6 -2 18 -2 25 0 6 3 1 5 -13 5 -14 0 -19 -2 -12 -5z"/>
<path d="M4263 73 c9 -2 23 -2 30 0 6 3 -1 5 -18 5 -16 0 -22 -2 -12 -5z"/>
<path d="M4770 76 c0 -2 7 -6 15 -10 8 -3 15 -1 15 4 0 6 -7 10 -15 10 -8 0
-15 -2 -15 -4z"/>
<path d="M1023 63 c9 -2 23 -2 30 0 6 3 -1 5 -18 5 -16 0 -22 -2 -12 -5z"/>
<path d="M1602 63 c48 -2 129 -2 180 0 51 1 12 3 -87 3 -99 0 -141 -2 -93 -3z"/>
<path d="M4153 63 c9 -2 23 -2 30 0 6 3 -1 5 -18 5 -16 0 -22 -2 -12 -5z"/>
<path d="M4685 60 c6 -10 -23 -13 -100 -11 -27 1 -36 -1 -26 -7 9 -7 6 -9 -14
-9 -20 0 -23 2 -14 9 9 6 1 7 -24 3 -26 -3 -36 -2 -32 6 5 7 1 8 -11 1 -11 -5
-32 -15 -47 -21 -61 -24 -14 -31 201 -30 119 0 235 4 257 8 l40 9 -40 1 c-22
0 -50 8 -63 16 -17 13 -26 13 -43 5 -24 -13 -49 -7 -49 12 0 9 3 8 10 -2 8
-13 10 -12 10 3 0 12 -8 17 -31 17 -17 0 -28 -4 -24 -10z"/>
<path d="M913 53 c9 -2 23 -2 30 0 6 3 -1 5 -18 5 -16 0 -22 -2 -12 -5z"/>
<path d="M3868 47 c-32 -5 -58 -13 -58 -18 0 -11 -4 -11 85 5 82 14 57 26 -27
13z"/>
<path d="M4048 53 c7 -3 16 -2 19 1 4 3 -2 6 -13 5 -11 0 -14 -3 -6 -6z"/>
<path d="M4358 53 c18 -2 45 -2 60 0 15 2 0 4 -33 4 -33 0 -45 -2 -27 -4z"/>
<path d="M803 43 c9 -2 25 -2 35 0 9 3 1 5 -18 5 -19 0 -27 -2 -17 -5z"/>
<path d="M3698 43 c7 -3 16 -2 19 1 4 3 -2 6 -13 5 -11 0 -14 -3 -6 -6z"/>
<path d="M4238 43 c6 -2 18 -2 25 0 6 3 1 5 -13 5 -14 0 -19 -2 -12 -5z"/>
<path d="M4123 33 c9 -2 23 -2 30 0 6 3 -1 5 -18 5 -16 0 -22 -2 -12 -5z"/>
<path d="M3980 23 c-73 -7 -72 -23 2 -23 49 0 67 4 72 15 3 10 0 14 -12 13 -9
-1 -37 -3 -62 -5z"/>
<path d="M4966 11 c-3 -4 28 -9 69 -10 44 -1 75 2 75 8 0 12 -137 14 -144 2z"/>
</g>
</svg>