<?xml version="1.0" standalone="no"?>
<!DOCTYPE svg PUBLIC "-//W3C//DTD SVG 20010904//EN"
 "http://www.w3.org/TR/2001/REC-SVG-20010904/DTD/svg10.dtd">
<svg version="1.0" xmlns="http://www.w3.org/2000/svg"
 width="512.000000pt" height="512.000000pt" viewBox="0 0 512.000000 512.000000"
 preserveAspectRatio="xMidYMid meet">
<metadata>
Created by potrace 1.16, written by Peter Selinger 2001-2019
</metadata>
<g transform="translate(0.000000,512.000000) scale(0.100000,-0.100000)"
fill="#000000" stroke="none">
<path d="M2919 4737 c-21 -13 -46 -46 -64 -81 -16 -33 -36 -62 -43 -64 -7 -2
-41 23 -76 56 -81 78 -127 94 -193 66 -62 -26 -88 -62 -90 -127 0 -29 -2 -55
-2 -59 -1 -4 -12 -15 -25 -23 -22 -15 -28 -15 -61 -1 -105 44 -214 -7 -246
-114 -7 -22 -16 -40 -20 -40 -4 0 -24 10 -44 21 -55 33 -155 24 -225 -19 -47
-29 -54 -31 -69 -18 -25 23 -86 46 -121 46 -42 0 -100 -32 -131 -72 -16 -21
-42 -39 -66 -46 -52 -15 -82 -49 -91 -102 -6 -38 -12 -45 -42 -56 -19 -7 -69
-13 -111 -13 -62 -1 -81 -5 -104 -23 -42 -33 -57 -80 -50 -153 9 -82 -5 -93
-92 -70 -89 23 -154 5 -210 -59 -45 -50 -58 -97 -43 -154 10 -41 9 -48 -7 -59
-65 -46 -83 -92 -65 -165 6 -23 9 -45 6 -50 -3 -4 -26 -17 -52 -28 -25 -11
-55 -28 -66 -38 -59 -53 -75 -184 -30 -260 22 -38 24 -48 14 -67 -7 -13 -29
-30 -50 -38 -71 -27 -93 -102 -71 -233 14 -81 32 -117 79 -166 l35 -37 -15
-47 c-11 -34 -12 -59 -6 -88 15 -72 17 -70 -35 -77 -58 -9 -108 -45 -131 -94
-30 -62 -30 -97 -2 -192 42 -137 52 -154 120 -186 l59 -29 -6 -54 c-19 -181
116 -302 283 -254 29 8 37 7 48 -7 20 -27 14 -60 -18 -96 -31 -36 -50 -76 -50
-108 0 -23 16 -57 73 -159 53 -93 84 -113 172 -112 l64 1 7 -32 c11 -52 40
-101 84 -141 50 -45 77 -56 160 -64 60 -6 65 -9 68 -32 6 -53 13 -71 44 -106
59 -67 129 -80 233 -44 64 22 79 18 88 -28 16 -79 89 -136 170 -133 108 4 143
4 185 -4 32 -6 52 -3 82 10 32 14 45 15 71 6 49 -17 125 -13 167 8 48 24 78
57 122 132 l35 61 55 2 c30 2 69 10 86 19 l32 16 22 -62 c29 -79 57 -123 108
-169 92 -83 257 -56 312 52 14 28 20 59 20 106 0 73 -3 71 66 43 59 -23 126 7
176 80 16 22 23 24 120 25 94 1 108 4 155 30 66 37 86 58 126 137 l32 64 65 6
c76 7 90 12 147 51 45 31 83 83 92 131 6 28 12 33 46 38 44 7 75 39 75 76 0
13 5 33 11 44 9 18 17 19 68 13 52 -6 60 -4 89 21 50 42 56 61 58 185 2 120
-4 147 -45 184 -15 13 -19 26 -14 47 3 15 0 42 -6 60 -14 41 2 62 66 79 55 16
101 53 119 97 31 74 6 178 -56 238 l-29 28 64 69 c36 38 65 75 65 83 0 8 16
25 35 37 52 34 78 95 73 170 -4 56 -8 64 -44 98 -22 20 -45 39 -52 41 -9 3 -7
15 8 44 12 23 20 59 20 87 0 39 -6 54 -31 83 -17 19 -42 38 -54 41 -14 3 -28
19 -36 37 -7 18 -27 48 -45 67 l-34 36 71 69 c84 83 99 109 99 170 0 50 -9 74
-46 118 -13 15 -32 48 -43 72 -23 53 -61 75 -129 75 l-49 0 -7 39 c-19 123
-169 160 -233 58 -22 -36 -27 -38 -35 -22 -17 29 0 102 39 173 83 148 24 256
-153 281 -37 6 -70 14 -74 18 -4 4 -12 27 -19 51 -17 59 -74 115 -136 132 -60
17 -123 3 -177 -41 -47 -37 -62 -37 -88 5 -24 39 -66 68 -125 85 -81 25 -84
28 -78 86 7 66 -20 131 -71 170 -30 23 -51 29 -114 35 -42 4 -87 12 -99 18
-36 20 -106 15 -144 -11z m143 -68 c28 -11 66 -19 82 -19 84 5 108 -16 108
-94 0 -118 -58 -218 -152 -266 -114 -57 -168 -130 -191 -255 -6 -33 -26 -99
-44 -147 -19 -48 -39 -121 -44 -163 -6 -42 -21 -100 -33 -128 -24 -55 -121
-234 -181 -330 -72 -118 -75 -229 -7 -355 49 -91 80 -178 80 -229 1 -21 -14
-86 -32 -145 -31 -101 -48 -132 -48 -90 0 9 -7 69 -14 133 -23 188 -67 262
-164 278 -76 12 -116 55 -162 176 -17 47 -24 92 -30 205 -7 136 -10 151 -46
240 -37 92 -39 99 -38 214 0 145 -12 116 -26 -59 -5 -66 -16 -156 -24 -200
-23 -124 -13 -165 71 -279 45 -61 79 -126 103 -201 7 -22 41 -97 76 -167 42
-85 68 -153 79 -205 26 -129 35 -155 70 -216 19 -31 43 -87 54 -125 17 -55 30
-76 72 -117 77 -75 98 -136 59 -175 -29 -29 -44 -25 -68 19 -12 21 -42 61 -66
88 -48 54 -66 84 -90 160 -28 85 -65 126 -152 169 -67 33 -84 47 -123 102 -25
36 -74 100 -109 144 -84 108 -130 194 -154 285 -24 96 -36 118 -88 168 -23 22
-63 69 -88 105 -25 36 -68 90 -94 121 -55 64 -74 111 -87 223 -9 76 -11 81
-55 123 -52 49 -60 87 -25 119 19 17 22 18 50 2 16 -10 29 -14 29 -10 0 4 -16
33 -36 65 -30 49 -38 73 -45 140 -5 45 -16 98 -25 118 -9 20 -14 49 -12 65 2
24 9 31 42 39 29 7 47 20 69 52 37 52 76 70 115 54 26 -11 36 -26 118 -181 13
-25 28 -75 34 -112 13 -83 26 -113 57 -134 23 -14 26 -14 43 1 32 29 72 16 98
-33 13 -23 28 -40 33 -37 21 13 8 111 -25 200 -35 92 -43 101 -136 169 -38 27
-45 37 -45 65 0 60 65 70 73 12 2 -12 20 -32 41 -45 55 -35 89 -80 133 -173
21 -46 41 -83 46 -83 12 0 73 212 72 255 0 22 -5 60 -11 84 -19 85 22 161 88
161 44 0 92 -28 100 -58 9 -38 -5 -108 -32 -162 -14 -27 -23 -50 -20 -50 3 0
27 11 53 24 55 28 68 50 77 132 10 94 13 101 45 113 39 13 45 30 31 98 -9 47
-8 60 4 79 34 52 78 39 147 -46 53 -66 102 -96 141 -86 40 10 63 37 88 106 21
58 48 90 76 90 7 0 36 -9 65 -21z m366 -305 c44 -31 14 -94 -45 -94 -16 0 -27
-8 -33 -24 -5 -14 -24 -42 -43 -63 -67 -76 -67 -76 -67 -223 l-1 -135 -37 -26
c-34 -24 -76 -95 -130 -219 -9 -22 -11 -19 -11 29 -1 43 8 73 43 150 24 53 48
112 54 131 16 51 32 159 26 175 -14 35 -117 -53 -158 -133 -37 -74 -40 -89
-17 -97 44 -14 36 -58 -22 -124 l-30 -35 7 -100 c9 -122 19 -139 64 -101 30
25 39 42 116 208 45 95 75 118 146 110 46 -5 49 -4 107 50 66 60 117 82 168
73 80 -15 88 -120 11 -161 -37 -20 -75 -17 -90 7 -8 13 -5 23 14 43 49 52 -31
21 -108 -42 l-43 -35 30 -19 c39 -23 47 -55 27 -111 -8 -25 -12 -55 -9 -67 5
-21 7 -21 30 -6 29 20 67 16 71 -7 2 -9 -17 -39 -41 -66 -65 -73 -152 -234
-171 -315 -18 -76 -63 -171 -104 -219 -16 -18 -54 -67 -84 -109 -64 -88 -113
-130 -218 -188 -77 -44 -125 -81 -85 -67 23 9 100 23 166 31 26 3 67 19 92 35
36 23 52 42 80 102 19 40 42 94 52 120 22 62 45 90 112 134 86 58 105 94 114
223 10 130 27 178 101 286 40 59 58 97 67 140 7 33 29 94 49 135 32 65 43 78
79 94 31 14 47 30 62 61 37 80 76 83 76 6 0 -51 -26 -86 -84 -115 -55 -28 -73
-52 -95 -125 -15 -51 -10 -91 12 -91 18 0 41 27 52 62 15 49 45 71 114 87 70
16 109 53 130 124 8 28 27 68 41 87 15 20 25 46 24 60 -4 38 9 66 35 78 52 24
104 -43 72 -93 -20 -31 -33 -32 -39 -2 -4 20 -4 19 -6 -4 0 -15 -17 -61 -36
-103 -19 -43 -35 -81 -35 -85 0 -5 9 -11 20 -14 12 -3 20 -14 20 -27 0 -22
-44 -70 -65 -70 -7 0 -24 -9 -39 -21 -21 -17 -26 -29 -26 -67 0 -71 -26 -177
-57 -235 -44 -82 -144 -176 -243 -226 -47 -24 -93 -51 -102 -59 -17 -14 -18
-11 -18 46 l0 60 66 22 c155 52 249 181 261 363 5 62 3 77 -8 77 -20 0 -31
-10 -62 -57 -17 -27 -48 -54 -82 -74 -67 -38 -114 -89 -149 -163 -22 -47 -29
-80 -37 -179 -5 -67 -14 -141 -20 -165 -15 -54 -73 -119 -158 -175 -64 -41
-130 -111 -118 -123 3 -4 20 6 38 20 50 42 103 65 187 81 42 9 102 20 132 26
119 24 364 181 442 283 38 51 78 156 78 205 0 33 32 66 56 57 16 -6 16 -39 -1
-79 -7 -17 -6 -17 31 0 75 33 104 62 139 138 40 87 89 128 158 129 40 1 43 -1
67 -45 14 -25 35 -61 47 -80 13 -19 23 -40 23 -47 0 -26 -32 -67 -87 -112 -98
-80 -163 -152 -163 -182 0 -27 1 -28 58 -28 73 0 102 -18 102 -65 0 -39 -43
-82 -115 -116 -57 -27 -63 -35 -76 -105 -18 -95 -56 -160 -149 -256 -67 -68
-101 -94 -160 -122 -84 -40 -116 -46 -105 -18 3 9 9 30 12 45 5 23 19 35 76
64 130 65 223 179 240 296 7 42 -2 46 -42 18 -15 -11 -61 -36 -103 -55 -78
-38 -82 -42 -117 -132 -7 -17 -28 -46 -47 -65 -29 -29 -34 -39 -34 -81 0 -58
-33 -129 -82 -174 -18 -17 -78 -62 -133 -100 l-100 -69 -83 -4 -83 -3 28 40
c26 37 32 40 89 45 34 3 77 13 95 22 19 8 25 13 15 10 -35 -10 -134 -18 -150
-12 -14 5 -14 11 0 51 17 49 30 56 109 56 75 0 125 18 167 59 40 41 57 85 41
110 -6 10 -27 17 -53 19 -33 3 -48 -2 -66 -19 -13 -12 -24 -30 -24 -39 0 -8
-7 -26 -16 -38 -12 -18 -25 -22 -64 -22 -61 0 -92 -14 -114 -51 -63 -106 -98
-122 -281 -125 -215 -3 -308 -32 -344 -108 -35 -71 -21 -140 42 -212 81 -92
127 -96 207 -19 32 30 83 65 114 79 30 14 76 39 101 56 110 76 175 86 290 45
39 -14 79 -25 90 -25 11 0 44 15 75 34 34 21 79 39 120 46 84 15 295 111 338
154 24 24 35 45 39 77 6 40 5 43 -10 30 -9 -7 -22 -31 -27 -52 -7 -24 -23 -48
-44 -64 -51 -39 -210 -101 -330 -129 -154 -37 -168 -34 -126 24 16 23 41 35
123 60 211 66 312 130 443 280 109 126 156 189 226 303 54 88 63 98 87 95 38
-4 39 -39 1 -98 -43 -67 -39 -98 16 -125 59 -28 84 -54 84 -85 0 -41 -34 -77
-93 -95 -28 -10 -79 -34 -112 -55 -72 -46 -108 -59 -99 -36 9 23 94 74 143 85
54 12 101 54 86 77 -6 9 -32 25 -59 35 l-50 18 -15 -22 c-8 -12 -37 -44 -64
-71 -53 -53 -78 -101 -96 -184 -24 -112 -75 -170 -188 -212 -30 -11 -76 -35
-101 -52 -59 -41 -105 -57 -163 -58 -49 0 -66 -10 -92 -52 -11 -17 -32 -31
-57 -38 -80 -22 -74 -96 10 -121 105 -32 250 54 250 148 0 28 3 32 23 29 30
-5 26 -46 -9 -94 l-27 -37 27 25 c38 34 58 75 54 112 -2 23 3 35 24 51 34 26
55 17 64 -28 23 -125 -68 -232 -252 -295 -110 -38 -225 -20 -284 44 -21 24
-25 37 -25 93 0 63 -1 65 -42 104 -36 34 -49 39 -88 39 -61 0 -113 -28 -151
-82 -18 -25 -48 -52 -70 -62 -51 -24 -74 -45 -74 -67 0 -47 85 -51 166 -8 90
47 144 106 144 159 0 35 44 18 68 -27 28 -52 7 -110 -59 -167 -57 -48 -116
-76 -193 -89 -76 -13 -159 2 -202 36 -17 13 -50 24 -90 29 -81 9 -128 34 -186
96 -88 94 -115 188 -84 294 28 97 92 154 237 212 30 12 44 27 75 88 53 99 132
179 207 207 74 27 113 27 127 1 9 -17 6 -24 -16 -45 -15 -14 -44 -28 -65 -31
-65 -11 -95 -37 -138 -122 l-39 -78 66 -2 c99 -1 129 12 177 83 42 62 41 62
145 82 14 2 43 25 65 50 134 150 175 180 214 156 46 -29 5 -109 -51 -100 -16
2 -28 0 -28 -5 0 -4 20 -8 44 -8 82 0 136 58 177 194 30 100 93 155 119 106
11 -21 2 -48 -29 -84 -15 -18 -15 -18 9 -11 75 22 165 96 201 166 21 43 58
194 59 243 0 26 -2 28 -27 21 -77 -19 -108 -41 -140 -101 -61 -114 -135 -186
-309 -300 -123 -81 -193 -110 -292 -124 -172 -23 -301 -74 -392 -155 -69 -62
-97 -74 -193 -85 -157 -19 -207 -55 -207 -147 0 -26 4 -64 9 -84 6 -28 3 -52
-14 -103 -12 -37 -25 -69 -27 -71 -5 -6 -43 86 -57 140 -21 79 -14 197 19 290
37 109 54 132 149 204 86 66 125 111 146 172 19 52 19 84 0 156 -21 82 -19
140 11 233 14 45 23 84 21 86 -2 3 -12 -8 -22 -23 -10 -15 -38 -52 -63 -82
-25 -31 -53 -74 -63 -96 -22 -49 -24 -134 -4 -225 15 -69 19 -138 9 -164 -5
-14 -97 -86 -109 -86 -3 0 -2 33 1 73 7 88 -11 181 -62 315 -56 148 -54 164
45 360 83 165 111 245 111 315 0 29 7 44 29 65 16 15 34 45 41 67 48 151 116
224 292 313 46 23 57 35 83 88 17 34 36 69 44 78 17 20 70 21 99 0z m-226 -86
c-4 -53 -6 -57 -34 -67 -43 -15 -45 -14 -51 17 -5 23 2 33 41 68 26 23 47 41
47 40 1 0 -1 -27 -3 -58z m-1169 30 c9 -7 23 -32 31 -56 9 -23 27 -57 41 -76
28 -37 30 -51 11 -85 -13 -24 -14 -24 -60 39 -25 35 -50 78 -56 96 -6 19 -14
33 -18 33 -38 -6 -62 22 -41 47 14 17 70 18 92 2z m1802 -10 c39 -35 46 -75
24 -139 -11 -29 -19 -56 -19 -59 0 -3 17 -5 37 -5 36 0 38 -1 35 -30 -2 -16
-13 -44 -25 -62 -20 -29 -23 -31 -39 -16 -28 26 -60 9 -93 -48 -33 -58 -95
-104 -95 -71 0 10 13 56 29 102 46 131 60 250 30 250 -24 0 -105 -115 -153
-218 -21 -44 -35 -62 -48 -62 -11 0 -28 -5 -40 -11 -28 -15 -30 -9 -14 44 23
78 179 291 240 328 43 26 98 25 131 -3z m-336 -64 c16 -36 6 -61 -44 -115 -24
-25 -53 -65 -64 -87 -26 -52 -76 -81 -98 -59 -22 22 -8 53 53 117 34 36 60 75
74 113 17 46 26 57 44 57 15 0 27 -9 35 -26z m545 -97 c11 -8 17 -19 15 -24
-6 -17 -102 -93 -116 -93 -14 0 -17 13 -5 24 4 4 12 24 17 44 7 22 20 42 35
49 31 16 32 16 54 0z m-2135 -61 c27 -28 35 -45 39 -85 4 -47 3 -49 -16 -44
-29 7 -37 19 -56 85 -26 91 -20 99 33 44z m-524 -102 c0 -60 5 -77 33 -128 21
-37 33 -69 31 -90 -4 -55 0 -66 42 -111 39 -43 43 -52 62 -153 10 -59 22 -170
26 -247 5 -90 13 -153 23 -176 33 -76 110 -139 170 -139 32 0 107 -39 119 -62
6 -10 7 -32 4 -49 -9 -41 -47 -50 -81 -18 -38 36 -30 0 11 -48 24 -29 64 -56
131 -88 82 -40 102 -55 137 -102 104 -137 124 -159 182 -190 33 -18 63 -34 67
-35 4 -2 11 -18 14 -37 l7 -33 -34 7 c-122 24 -138 33 -243 134 -55 54 -117
107 -136 117 -46 24 -164 24 -244 0 -60 -18 -61 -20 -41 -68 11 -27 -28 -41
-83 -29 -62 13 -203 22 -177 11 11 -5 32 -9 47 -9 44 -1 201 -41 227 -58 23
-15 24 -16 6 -29 -41 -30 -103 -17 -232 47 -132 66 -165 95 -209 182 -44 87
-72 117 -143 151 -59 27 -76 31 -159 31 l-94 0 -15 30 c-9 17 -46 62 -83 100
-132 137 -159 212 -101 277 24 27 36 33 71 33 39 0 47 -5 97 -60 l55 -60 -45
60 c-61 83 -73 109 -93 206 -29 143 -29 156 -4 169 13 7 38 10 56 7 23 -4 34
-1 38 10 12 29 6 57 -19 89 -36 47 -34 94 6 133 41 41 97 43 147 4 20 -15 59
-42 86 -61 49 -33 52 -34 78 -19 l26 15 22 -53 c26 -65 46 -84 94 -92 l37 -6
-26 68 c-14 38 -24 70 -22 72 14 13 41 -50 59 -136 12 -55 23 -99 26 -97 7 7
-19 159 -33 193 -8 17 -31 43 -52 56 -34 22 -45 39 -82 128 -50 123 -57 150
-42 178 10 18 21 21 76 21 45 0 76 6 101 19 25 13 43 17 58 12 19 -8 21 -16
21 -77z m2005 -63 c0 -51 -31 -91 -71 -91 -27 0 -29 2 -29 40 0 48 35 90 75
90 22 0 25 -4 25 -39z m-2242 -133 c19 -19 14 -37 -15 -69 -31 -33 -45 -36
-63 -14 -36 43 39 122 78 83z m3189 -54 c3 -8 2 -34 -3 -57 -8 -38 -16 -46
-103 -104 -52 -35 -100 -63 -106 -63 -23 0 -54 -46 -70 -105 -42 -145 -109
-226 -282 -342 -81 -53 -126 -92 -159 -133 -48 -61 -54 -64 -148 -76 l-60 -7
24 29 c12 16 43 55 68 86 46 59 91 93 222 168 91 53 184 145 227 225 17 33 43
105 58 160 35 135 42 151 71 164 38 17 47 5 41 -50 l-6 -49 34 15 c55 22 105
65 105 89 0 51 71 92 87 50z m-3656 -476 c22 -28 24 -38 5 -38 -8 0 -28 -11
-44 -25 -36 -30 -58 -32 -72 -6 -15 29 -13 39 15 66 30 31 71 32 96 3z m-61
-327 c14 -26 13 -64 -2 -79 -29 -29 -70 -3 -70 43 0 50 51 75 72 36z m-87
-116 c6 -11 13 -27 17 -35 5 -9 19 -14 37 -13 22 2 37 -5 58 -27 16 -17 34
-30 41 -30 16 0 26 45 19 84 -6 31 -6 31 8 7 9 -15 17 -20 21 -12 4 6 16 11
26 11 44 0 75 -73 58 -139 -23 -91 61 -216 140 -209 l37 3 -4 54 c-1 29 -11
72 -22 95 -23 50 -24 75 -3 104 21 31 60 28 95 -7 33 -33 37 -66 12 -108 -14
-26 -15 -33 -1 -73 22 -66 48 -80 159 -86 109 -7 166 -23 267 -76 92 -48 126
-48 238 -3 63 25 95 45 119 72 30 35 37 38 82 37 79 -3 146 -49 157 -106 6
-33 -7 -35 -62 -13 -43 19 -77 48 -103 90 -11 17 -19 23 -19 15 0 -24 55 -112
90 -145 l31 -30 119 3 c130 3 185 -7 242 -44 39 -25 72 -83 61 -110 -5 -12
-12 -10 -37 15 -65 63 -149 78 -210 36 -71 -48 -95 -57 -139 -50 -34 6 -53 19
-103 71 -61 63 -62 64 -115 64 -30 0 -85 -7 -124 -15 -115 -25 -151 -20 -246
28 l-84 42 -165 1 c-184 0 -300 13 -348 38 -18 9 -49 39 -69 66 -33 45 -105
90 -143 90 -6 0 -40 14 -76 32 -77 38 -114 77 -114 121 0 18 -7 50 -15 72 -19
53 -18 62 6 86 24 24 48 22 62 -6z m148 -341 c18 -16 18 -18 -6 -46 -30 -36
-31 -48 -5 -81 32 -40 98 -61 170 -53 33 4 65 4 70 1 5 -3 1 -20 -10 -38 -11
-18 -20 -41 -20 -51 0 -17 -6 -18 -52 -13 -68 8 -168 59 -224 114 -36 34 -44
49 -44 78 0 46 13 71 48 89 35 20 51 20 73 0z m3919 1 c0 -44 -157 -165 -213
-165 -17 0 -19 5 -14 36 3 20 7 37 9 38 2 1 23 11 48 24 25 12 69 35 99 52 61
34 71 36 71 15z m-3837 -110 c4 -8 21 -24 39 -35 l33 -20 -30 0 c-49 0 -103
19 -120 42 -13 20 -13 24 1 40 15 15 19 16 44 3 15 -8 30 -21 33 -30z m237
-111 c-22 -42 -14 -78 26 -115 29 -28 31 -17 3 22 -39 55 -15 100 46 85 20 -5
23 -10 18 -44 -5 -34 -1 -42 28 -66 31 -27 38 -28 96 -23 80 8 100 19 112 63
12 42 36 63 71 64 14 0 71 -16 128 -35 56 -19 111 -35 122 -35 10 0 21 -4 24
-9 3 -4 31 5 62 20 70 35 132 38 180 8 19 -11 34 -23 34 -26 0 -3 -37 -2 -82
2 -46 3 -88 2 -95 -2 -31 -22 32 -160 86 -188 58 -30 80 -23 195 60 26 19 54
35 61 35 20 0 39 -65 25 -89 -24 -46 -110 -139 -143 -154 -52 -25 -116 -22
-155 7 -47 34 -132 135 -149 174 -8 19 -14 56 -15 83 l0 48 -26 -19 c-26 -19
-30 -19 -77 -4 -75 23 -121 14 -192 -38 -73 -54 -147 -73 -257 -66 -123 8
-202 71 -213 172 -4 35 -1 47 22 74 18 22 36 32 55 32 l28 0 -18 -36z m3491
-47 c42 -28 79 -82 79 -114 0 -41 -18 -62 -83 -94 -34 -18 -76 -42 -93 -55
-43 -33 -111 -61 -168 -70 -48 -7 -49 -6 -43 17 4 13 7 27 7 32 0 4 8 7 18 7
27 1 85 24 137 54 64 38 51 43 -16 7 -30 -16 -71 -33 -91 -36 -36 -7 -38 -6
-38 18 0 20 8 27 43 41 62 23 82 46 107 120 32 96 74 118 141 73z m-3872 2
c17 -6 31 -15 31 -20 0 -14 -56 -35 -112 -43 -119 -17 -70 -93 77 -117 l71
-12 2 -35 3 -35 -73 7 c-40 4 -82 9 -93 12 -18 4 -18 4 -3 -6 9 -6 52 -15 95
-20 43 -6 80 -15 82 -21 2 -7 19 -29 37 -49 25 -27 45 -39 75 -44 22 -4 60
-16 82 -28 l42 -21 -50 -13 c-54 -15 -157 -19 -169 -7 -4 4 8 20 26 36 l33 29
-33 -18 c-85 -48 -111 -95 -71 -135 20 -20 28 -21 103 -15 44 3 93 9 108 12
21 5 29 2 35 -12 16 -45 60 -97 105 -126 46 -30 48 -33 27 -40 -47 -18 -132
12 -169 59 -22 28 -24 28 -132 28 l-109 0 -35 37 c-28 31 -34 45 -34 83 0 47
26 111 54 134 25 21 20 26 -46 40 -107 22 -158 58 -158 111 0 11 -9 38 -20 60
-37 73 -20 138 44 166 38 16 132 18 175 3z m554 -47 c21 -19 22 -32 2 -32 -26
0 -65 31 -65 52 0 16 3 17 23 7 12 -6 30 -18 40 -27z m2215 6 c4 -23 -61 -93
-117 -126 -38 -22 -56 -26 -115 -25 -117 3 -159 -28 -130 -96 18 -43 19 -41
-15 -41 -17 0 -42 11 -60 26 -40 33 -42 83 -6 136 27 39 31 53 15 43 -5 -3
-10 2 -10 13 0 20 34 62 51 62 6 0 39 -16 73 -35 66 -37 119 -45 159 -24 30
16 77 60 77 73 0 6 17 11 37 11 27 0 39 -5 41 -17z m-2610 -27 c15 -9 6 -19
-46 -45 -36 -19 -62 -15 -62 7 0 33 75 59 108 38z m1501 -30 c53 -53 70 -61
147 -68 49 -5 73 -12 95 -30 27 -23 29 -29 29 -96 -1 -123 -41 -193 -138 -245
-31 -17 -70 -45 -87 -63 -16 -17 -48 -44 -69 -60 -35 -26 -47 -29 -114 -29
-70 0 -82 -4 -169 -47 -117 -58 -187 -67 -257 -33 -55 26 -108 85 -125 138
-15 45 -9 70 26 112 25 30 132 117 149 122 5 1 24 -7 43 -19 l33 -21 -71 -69
c-44 -42 -71 -77 -71 -90 0 -11 16 -35 35 -52 73 -64 155 -30 155 66 0 62 24
71 127 50 128 -27 191 -1 229 93 12 30 36 67 53 82 l32 28 34 -26 c19 -14 35
-29 35 -32 0 -3 -10 -16 -22 -29 -36 -38 0 -26 42 15 47 45 59 89 33 120 -13
16 -37 24 -91 31 -40 5 -87 18 -105 28 -64 38 -100 129 -59 152 28 17 40 13
81 -28z m957 14 c-12 -9 -39 -15 -65 -14 l-46 1 40 13 c22 8 51 14 65 14 24 0
24 0 6 -14z m-2356 -23 c0 -5 15 -24 34 -44 l33 -34 -58 4 c-49 4 -60 2 -65
-13 -14 -34 21 -45 147 -45 64 0 153 -7 196 -15 145 -28 250 -18 451 41 16 5
22 2 22 -10 0 -16 4 -25 28 -72 9 -19 5 -23 -56 -44 -151 -52 -191 -76 -276
-165 l-82 -85 -54 0 c-44 -1 -51 -3 -36 -11 10 -6 33 -9 52 -6 l33 6 -22 -34
c-28 -44 -39 -48 -104 -35 -84 18 -153 89 -153 158 0 34 15 55 54 75 29 14 30
14 45 -17 11 -22 29 -35 58 -45 56 -20 83 -6 128 63 32 50 41 57 112 85 88 34
80 41 -15 11 -76 -24 -112 -25 -171 -4 -33 11 -80 14 -200 12 -134 -2 -161 0
-188 15 -67 36 -88 114 -44 161 32 34 131 70 131 48z m1303 -231 c9 -9 -31
-64 -67 -92 -30 -24 -101 -32 -101 -12 0 6 19 25 42 42 23 17 50 42 59 56 16
25 43 27 67 6z m596 -107 c61 -127 119 -180 187 -172 39 4 42 31 9 74 l-26 34
35 -4 c47 -6 53 -10 87 -64 58 -92 20 -193 -73 -192 -70 1 -195 102 -247 200
-25 46 -81 189 -81 206 0 6 56 9 62 4 5 -3 25 -42 47 -86z m1586 31 c0 -26 -5
-32 -40 -43 -48 -16 -106 -8 -137 19 -23 19 -23 19 -3 32 24 15 85 25 140 23
37 -1 40 -3 40 -31z m-2707 13 c7 -7 12 -17 12 -24 0 -18 -88 -83 -181 -134
-125 -68 -168 -124 -124 -160 25 -21 118 -8 164 23 45 30 51 32 51 16 0 -6 10
-25 22 -42 l22 -30 -35 -29 c-120 -100 -261 -104 -326 -8 -27 39 -30 97 -8
144 24 51 127 152 186 181 65 34 168 74 190 75 8 0 20 -5 27 -12z m2501 -74
c31 -39 29 -113 -4 -152 -68 -81 -241 -91 -364 -21 -55 32 -64 54 -31 81 18
16 23 16 88 -6 75 -26 179 -41 210 -32 26 9 46 58 37 93 -3 16 -16 39 -28 52
-12 13 -17 22 -12 19 6 -3 19 -2 30 2 25 9 47 -2 74 -36z m-1484 -49 l30 -24
-1 -113 c0 -130 -17 -199 -71 -297 -48 -87 -158 -201 -227 -234 -116 -57 -246
-16 -246 78 0 52 11 60 64 46 26 -6 51 -9 55 -7 4 3 6 -5 4 -18 -4 -20 0 -25
25 -31 41 -9 105 10 139 40 l28 25 -45 -25 c-30 -16 -60 -25 -90 -25 l-45 1
30 25 c17 14 71 45 122 69 106 50 133 82 157 180 16 67 29 282 16 268 -5 -4
-20 -64 -34 -132 -20 -99 -30 -131 -54 -160 -27 -35 -128 -98 -138 -88 -3 3 3
22 14 44 11 21 25 55 31 76 8 23 23 43 40 52 40 20 60 57 77 138 8 40 19 91
25 114 11 39 12 41 38 32 14 -6 39 -21 56 -34z m908 12 c11 -4 26 1 39 13 29
27 33 26 57 -14 55 -89 5 -160 -132 -185 -93 -17 -188 10 -241 68 -17 19 -17
20 20 43 l37 24 45 -23 c25 -13 58 -23 74 -23 37 0 89 22 108 45 14 17 14 17
-7 7 -31 -17 -64 -14 -92 7 l-24 19 31 16 c18 9 32 22 32 28 0 7 7 5 18 -4 9
-8 25 -18 35 -21z m486 9 c16 -19 10 -66 -10 -79 -9 -6 -39 -7 -74 -2 l-59 7
45 22 c34 18 43 28 41 44 -3 17 2 22 21 22 14 0 30 -6 36 -14z m341 -28 c25
-41 25 -45 0 -58 -39 -21 -90 32 -68 73 14 27 46 20 68 -15z m-90 -113 c5 -51
-2 -77 -32 -111 -71 -81 -204 -108 -309 -63 -69 30 -50 43 66 46 64 1 105 7
130 19 61 29 82 79 49 115 -13 14 -15 29 -9 65 l7 47 48 -49 c27 -27 49 -58
50 -69z m-1864 29 c-4 -14 -16 -71 -27 -126 -24 -119 -36 -151 -74 -196 -41
-49 -99 -74 -181 -80 -86 -5 -134 9 -169 49 -40 48 -29 118 32 197 24 32 28
34 72 27 25 -4 48 -9 51 -11 2 -3 -15 -22 -39 -44 -71 -65 -41 -111 62 -96 87
13 139 67 178 184 30 94 48 122 77 122 21 0 23 -3 18 -26z m-711 6 c3 -5 28
-10 56 -10 53 0 54 -1 38 -32 -9 -16 -17 -19 -42 -14 -30 6 -77 41 -77 58 0
11 18 10 25 -2z m1581 -196 c53 -90 33 -174 -51 -218 -55 -28 -171 -25 -235 7
-52 26 -106 92 -116 143 -8 42 -6 45 46 54 40 7 40 7 66 -41 39 -70 98 -94
173 -68 32 11 51 35 51 63 0 8 -27 44 -60 79 -33 36 -60 71 -60 79 0 9 10 28
22 43 l22 28 57 -61 c32 -34 70 -82 85 -108z m1114 113 c0 -23 -18 -57 -29
-57 -17 0 -21 32 -8 71 11 35 13 37 24 22 7 -9 13 -25 13 -36z m-222 7 c-6
-31 -55 -57 -115 -61 l-58 -5 75 40 c84 45 103 49 98 26z m-394 -35 c14 -17
26 -39 26 -50 0 -51 -64 -122 -121 -134 -52 -12 -95 3 -151 51 -29 25 -63 51
-76 57 -22 10 -20 12 30 32 50 21 54 21 73 5 49 -42 95 -51 133 -24 23 16 30
58 11 70 -8 4 -7 9 2 15 25 16 47 9 73 -22z m-963 -53 c12 -19 18 -45 17 -66
-3 -31 -6 -35 -32 -35 -37 0 -62 34 -70 96 l-7 45 37 -4 c27 -3 40 -12 55 -36z
m-1701 -1 l35 -18 -94 -44 c-110 -50 -161 -86 -161 -112 0 -10 10 -31 22 -46
33 -42 78 -31 197 49 54 36 104 66 113 66 8 0 24 -11 37 -24 l22 -23 -58 -53
c-74 -68 -117 -94 -194 -120 -43 -15 -74 -19 -98 -15 -38 7 -71 30 -71 50 0 6
-16 34 -35 61 -43 60 -44 83 -5 127 34 40 239 143 250 127 3 -4 21 -15 40 -25z
m2580 19 c0 -2 -8 -7 -17 -12 -20 -11 -67 3 -59 16 4 8 76 4 76 -4z m-259
-142 c42 -70 50 -142 19 -190 -46 -74 -201 -106 -299 -62 l-44 20 47 25 c30
16 63 25 92 25 25 0 62 9 84 20 71 36 77 77 25 175 -34 63 -35 68 -18 80 16
12 21 10 40 -13 12 -15 36 -51 54 -80z m423 67 c-11 -23 -13 -34 -5 -42 6 -6
11 -28 11 -49 0 -68 -70 -114 -128 -84 -43 22 -49 36 -24 55 77 57 112 87 112
94 0 5 -5 5 -11 1 -6 -3 -3 8 5 25 10 19 24 31 37 31 19 0 19 -1 3 -31z
m-2071 -41 c-4 -7 -25 -39 -47 -72 -48 -73 -53 -116 -14 -130 34 -12 79 7 136
58 l39 35 28 -29 29 -30 -40 -41 c-67 -69 -121 -99 -176 -99 -122 0 -179 95
-127 210 11 25 34 60 52 78 26 27 38 32 79 32 37 0 47 -3 41 -12z m1294 -8
c14 -11 36 -20 49 -20 13 0 24 -4 24 -10 0 -5 -20 -10 -43 -10 -46 0 -86 28
-72 49 9 15 13 14 42 -9z m-370 0 c29 -11 30 -13 36 -89 7 -93 37 -177 75
-214 50 -48 114 -58 126 -19 3 9 -3 51 -14 92 -10 41 -17 76 -16 78 2 2 22 -6
43 -16 33 -17 41 -29 56 -75 21 -67 22 -126 1 -155 -39 -56 -145 -72 -220 -34
-95 48 -135 139 -142 320 -5 134 -5 133 55 112z m1435 -16 c-3 -17 -9 -23 -19
-20 -8 3 -20 6 -26 6 -7 0 2 9 18 19 17 11 31 20 31 20 1 1 -1 -11 -4 -25z
m-151 -32 c42 -39 52 -54 52 -81 0 -42 -29 -80 -84 -110 -41 -22 -51 -23 -141
-16 -85 6 -100 10 -123 32 -48 49 -24 67 67 51 29 -6 74 -8 101 -4 47 5 107
33 107 48 0 5 -16 18 -35 29 -29 17 -35 27 -35 53 0 62 22 61 91 -2z m-2472 1
c-62 -35 -79 -52 -101 -100 -14 -32 -25 -43 -41 -43 -39 0 -51 17 -48 62 1 22
54 74 97 96 22 11 50 16 85 13 l51 -3 -43 -25z m2103 -69 c20 -20 25 -31 18
-43 -6 -12 4 -36 37 -86 39 -61 44 -75 39 -110 -3 -30 -15 -49 -44 -77 -57
-53 -124 -70 -237 -62 l-90 6 -32 -31 c-18 -17 -43 -33 -57 -37 -48 -12 -107
42 -152 139 -18 37 -18 38 5 60 22 22 22 22 33 2 6 -11 28 -37 49 -58 29 -30
45 -38 66 -35 26 3 28 6 28 45 0 42 1 43 48 58 l48 16 40 -35 c49 -41 79 -48
137 -31 79 24 101 64 65 115 -10 14 -36 59 -59 102 -40 74 -41 77 -20 81 43 8
50 7 78 -19z m-252 3 c0 -14 -21 -36 -50 -53 -13 -7 -13 -5 1 16 8 14 19 31
23 38 10 16 26 15 26 -1z m-2090 -46 c0 -10 -15 -38 -33 -62 -19 -24 -39 -54
-45 -66 -17 -31 -15 -79 4 -97 36 -37 74 -9 119 87 36 75 59 77 62 5 3 -59
-26 -120 -73 -157 -36 -29 -112 -29 -148 0 -45 35 -59 75 -52 143 6 58 9 64
68 123 51 51 65 60 80 52 10 -5 18 -18 18 -28z m217 23 c8 -21 -21 -44 -54
-44 -27 0 -30 16 -6 42 20 22 52 23 60 2z m69 -20 c-10 -27 13 -92 46 -130 25
-28 30 -39 21 -52 -16 -25 -44 -16 -79 25 -30 34 -32 35 -82 28 -44 -6 -53 -4
-59 10 -9 25 7 46 58 73 24 12 53 32 64 42 24 24 39 26 31 4z m2017 -211 c-9
-7 -36 -13 -59 -13 -32 0 -49 7 -73 29 l-31 29 38 38 37 39 52 -55 c46 -49 50
-56 36 -67z m-1048 58 c-37 -74 -33 -151 9 -151 30 0 40 8 79 69 l35 53 16
-30 c15 -29 15 -32 -17 -79 -22 -33 -42 -51 -64 -58 -18 -5 -33 -13 -33 -17 0
-26 67 10 109 58 29 33 34 35 48 21 30 -30 -17 -112 -86 -147 -13 -6 -43 -12
-68 -13 -55 0 -90 23 -121 84 -20 37 -23 54 -18 108 8 97 42 137 128 150 4 1
-4 -21 -17 -48z m-517 24 c6 -5 -76 -159 -127 -239 -28 -44 -54 -94 -57 -112
-8 -45 14 -89 46 -89 21 0 32 13 65 72 22 40 55 94 73 120 17 25 40 70 49 99
l16 53 28 -16 c31 -19 31 -38 -2 -127 -25 -66 -4 -44 25 27 20 49 23 53 34 36
9 -14 8 -36 -3 -96 -8 -43 -14 -91 -14 -108 2 -27 2 -28 6 -5 3 14 15 69 29
122 13 53 24 105 24 116 0 15 6 18 31 14 31 -4 31 -6 26 -49 -6 -54 13 -44 31
15 11 34 15 39 37 34 38 -7 31 -32 -30 -113 -61 -81 -81 -132 -65 -173 20 -53
55 -29 101 71 22 48 43 82 49 78 6 -3 17 -19 25 -34 13 -25 12 -34 -6 -82 -42
-110 -104 -159 -178 -139 -20 5 -48 21 -60 34 -19 20 -28 23 -48 15 -13 -5
-27 -9 -30 -9 -3 0 -2 36 1 80 5 50 4 80 -2 80 -6 0 -25 -24 -43 -52 -83 -129
-152 -174 -223 -144 -44 18 -76 69 -76 119 0 45 -28 77 -67 77 -16 -1 -53 -14
-83 -30 -71 -39 -130 -40 -165 -5 -21 20 -25 34 -25 79 0 73 11 97 71 161 l51
54 33 -16 33 -16 -38 -49 c-40 -53 -67 -119 -56 -137 13 -21 43 -11 116 40 47
32 76 46 78 39 7 -20 41 -50 57 -50 24 0 63 49 127 163 l61 107 36 -6 c20 -4
37 -8 39 -9z m1092 -270 c0 -2 -11 -21 -25 -41 -21 -32 -25 -48 -25 -116 0
-70 -3 -82 -24 -103 -92 -92 -222 14 -252 205 -6 34 -4 38 19 42 22 4 26 0 37
-36 25 -83 94 -174 123 -163 11 4 14 29 14 108 1 56 -3 115 -8 131 -7 25 -5
30 14 37 12 5 31 18 42 28 20 20 20 19 53 -34 17 -30 32 -56 32 -58z m-182
-50 c-2 -33 -7 -41 -25 -43 -27 -4 -46 34 -41 82 2 23 9 32 28 36 31 8 42 -15
38 -75z"/>
<path d="M2975 4509 c-68 -103 -76 -121 -70 -159 9 -48 30 -69 53 -52 9 6 43
25 74 42 31 16 68 45 83 64 23 30 56 139 44 149 -2 2 -35 7 -74 10 l-70 6 -40
-60z"/>
<path d="M2620 4491 c0 -51 -6 -75 -35 -134 -33 -67 -36 -82 -45 -212 -5 -77
-14 -157 -20 -178 -6 -21 -10 -43 -8 -49 2 -6 15 24 27 68 13 43 41 112 62
152 26 50 39 87 39 113 0 27 5 42 16 46 28 11 49 -11 49 -51 0 -35 8 -46 20
-26 12 20 25 10 25 -20 0 -21 -13 -44 -45 -80 -84 -95 -121 -199 -111 -319 3
-42 9 -113 12 -158 6 -75 0 -128 -22 -189 -4 -11 14 8 41 41 69 88 98 155 103
245 4 66 1 85 -24 145 -29 74 -34 126 -14 150 21 26 37 17 55 -32 24 -65 32
-72 45 -37 35 89 49 271 29 363 -11 52 -21 64 -96 109 -21 13 -53 44 -71 70
l-32 46 0 -63z"/>
<path d="M2286 4349 c-18 -26 -21 -76 -6 -99 10 -16 8 -20 30 59 14 52 1 75
-24 40z"/>
<path d="M1591 4140 l-34 -29 7 -81 c4 -44 19 -113 33 -153 20 -56 27 -102 33
-207 7 -144 23 -197 75 -266 14 -18 44 -69 66 -114 30 -58 55 -92 91 -123 64
-54 91 -96 123 -195 30 -91 72 -156 118 -180 93 -49 128 -132 91 -214 -18 -40
-18 -40 5 -59 28 -23 64 -25 81 -4 21 25 6 83 -58 215 -33 69 -72 165 -87 213
-35 115 -63 146 -179 201 -101 48 -132 75 -173 156 -27 55 -27 57 -29 261 -1
114 -5 221 -9 238 -4 18 -24 52 -46 77 -21 25 -39 53 -39 63 0 29 24 53 51 49
19 -2 32 -19 61 -77 20 -40 43 -80 51 -88 8 -8 0 14 -17 49 -17 35 -37 78 -45
96 -9 23 -22 35 -40 38 -24 5 -26 9 -23 40 4 37 -39 124 -61 124 -7 -1 -27
-14 -46 -30z"/>
<path d="M2353 4100 c-53 -24 -88 -83 -109 -181 -22 -105 -7 -273 31 -366 13
-31 17 -34 32 -22 24 20 70 126 83 195 12 56 11 61 -13 107 -32 60 -25 90 22
95 30 3 31 2 31 -37 0 -22 10 -66 21 -97 35 -92 25 -146 -54 -307 -49 -99 -69
-152 -76 -199 -21 -155 47 -318 133 -318 13 0 15 11 10 73 -8 84 7 185 36 252
11 25 15 43 9 39 -16 -10 -45 -83 -59 -150 -19 -86 -30 -88 -30 -5 0 63 6 88
47 189 42 107 46 124 46 202 1 72 -5 101 -37 194 -36 105 -37 111 -34 230 l3
121 -25 2 c-14 1 -44 -6 -67 -17z"/>
<path d="M1923 3824 c9 -17 23 -36 31 -43 8 -7 18 -32 22 -56 6 -46 35 -82 55
-70 7 5 9 22 6 49 -4 30 -15 49 -39 70 -18 15 -46 40 -62 54 l-29 26 16 -30z"/>
<path d="M1862 3731 c-21 -49 -24 -71 -22 -181 1 -146 17 -215 61 -265 24 -27
39 -35 65 -35 l34 0 0 58 c0 33 3 99 6 148 l6 89 -33 43 c-75 96 -79 104 -79
148 0 24 -3 45 -7 47 -5 3 -19 -20 -31 -52z"/>
<path d="M3257 3669 c-26 -22 -54 -64 -95 -150 -32 -65 -58 -119 -57 -119 1 0
16 5 34 11 39 14 61 -1 61 -41 0 -31 -18 -49 -78 -75 -55 -24 -72 -56 -72
-138 0 -74 25 -167 44 -167 18 0 69 58 85 98 12 29 12 37 -4 66 -24 44 -14 77
32 107 43 28 77 83 94 153 9 38 9 67 -1 133 -10 61 -10 92 -3 118 6 19 8 35 4
35 -3 0 -23 -14 -44 -31z"/>
<path d="M2851 3640 c-7 -25 -33 -83 -58 -130 -25 -47 -52 -98 -61 -114 -20
-39 -27 -145 -12 -190 6 -20 15 -36 18 -36 4 0 17 22 29 48 12 26 38 72 57
102 45 70 57 136 48 265 l-8 100 -13 -45z"/>
<path d="M4421 3456 c-12 -14 -43 -158 -36 -165 8 -8 67 22 95 49 36 33 38 60
8 100 -23 32 -49 38 -67 16z"/>
<path d="M4327 2978 c-41 -40 -25 -45 45 -14 73 32 81 46 28 46 -33 0 -48 -6
-73 -32z"/>
<path d="M3793 4125 c0 -38 2 -53 4 -32 2 20 2 52 0 70 -2 17 -4 1 -4 -38z"/>
<path d="M1227 3943 c-13 -3 -16 -10 -12 -21 4 -10 16 -41 27 -69 17 -47 48
-83 70 -83 5 0 8 30 8 68 0 97 -23 123 -93 105z"/>
<path d="M1360 3697 c0 -8 7 -31 15 -50 8 -20 15 -61 15 -92 0 -61 26 -147 71
-236 30 -61 42 -71 53 -43 15 39 5 118 -23 182 -16 37 -32 83 -36 103 -10 52
-58 143 -78 147 -10 2 -17 -3 -17 -11z"/>
<path d="M863 3674 c-3 -9 4 -33 16 -54 38 -67 24 -137 -37 -192 -29 -25 -30
-29 -20 -70 5 -24 13 -75 17 -115 9 -72 23 -101 90 -177 26 -28 26 -28 3 -16
-13 6 -26 10 -28 7 -4 -4 88 -47 102 -47 7 0 -72 96 -118 143 -16 16 -29 36
-29 45 -4 58 21 95 60 90 28 -3 43 -27 61 -96 20 -78 118 -157 237 -193 31 -9
48 -22 63 -46 11 -18 42 -48 70 -65 27 -17 50 -33 50 -36 0 -12 -121 9 -190
33 -41 14 -109 30 -150 36 -110 15 -169 47 -230 125 -63 80 -112 105 -125 64
-12 -38 15 -86 88 -157 91 -88 116 -101 234 -118 161 -25 233 -75 301 -212 38
-74 62 -93 120 -93 54 0 94 20 110 55 9 20 17 25 30 20 28 -11 162 -35 190
-34 15 0 -15 9 -66 19 -122 25 -148 41 -199 126 -83 139 -95 154 -148 191 -67
47 -82 76 -60 110 13 20 22 24 43 19 43 -10 174 -155 220 -244 53 -101 78
-124 142 -130 27 -2 50 -1 50 3 0 4 -9 19 -19 34 -11 15 -31 54 -46 86 -15 35
-47 81 -75 110 -28 28 -69 80 -92 115 -24 36 -54 70 -68 77 -14 7 -56 13 -93
13 -98 0 -150 16 -202 62 -74 66 -51 122 27 66 24 -17 52 -23 123 -28 50 -4
102 -13 114 -20 37 -19 -52 105 -97 135 -20 14 -77 37 -125 52 -104 31 -143
66 -178 162 -18 50 -33 71 -79 111 -61 53 -77 59 -87 34z m115 -269 c-2 -52
40 -146 77 -171 15 -11 54 -45 87 -76 l59 -58 -52 0 c-83 0 -133 40 -160 128
-14 48 -42 82 -68 82 -10 0 -23 6 -28 13 -13 16 -23 68 -12 61 5 -3 9 4 9 16
0 12 17 41 38 65 l37 43 7 -31 c4 -18 7 -50 6 -72z"/>
<path d="M1116 3595 c12 -78 26 -94 127 -142 69 -32 54 -8 -18 30 -59 31 -67
41 -104 127 -10 22 -11 20 -5 -15z"/>
<path d="M580 2657 c0 -20 36 -55 80 -77 56 -29 72 -27 64 8 -9 34 -13 39 -22
25 -9 -14 -53 5 -88 38 -24 22 -34 24 -34 6z"/>
<path d="M4428 2135 c34 -15 42 -39 17 -49 -8 -3 -15 -10 -15 -15 0 -16 55 4
58 22 5 23 -34 57 -65 57 l-28 -1 33 -14z"/>
<path d="M1458 1883 c7 -3 16 -2 19 1 4 3 -2 6 -13 5 -11 0 -14 -3 -6 -6z"/>
</g>
</svg>