<?xml version="1.0" standalone="no"?>
<!DOCTYPE svg PUBLIC "-//W3C//DTD SVG 20010904//EN"
 "http://www.w3.org/TR/2001/REC-SVG-20010904/DTD/svg10.dtd">
<svg version="1.0" xmlns="http://www.w3.org/2000/svg"
 width="512.000000pt" height="512.000000pt" viewBox="0 0 512.000000 512.000000"
 preserveAspectRatio="xMidYMid meet">
<metadata>
Created by potrace 1.16, written by Peter Selinger 2001-2019
</metadata>
<g transform="translate(0.000000,512.000000) scale(0.100000,-0.100000)"
fill="#000000" stroke="none">
<path d="M2353 4728 c-4 -7 -8 -51 -8 -98 -1 -101 -16 -140 -54 -140 l-26 0
27 -25 c15 -14 30 -36 32 -48 13 -57 15 -57 11 1 -4 47 0 75 16 115 19 47 19
58 9 109 -12 56 -9 88 8 88 13 0 52 -124 46 -147 -3 -11 -1 -35 4 -54 7 -29 8
-24 7 31 -1 36 -5 72 -8 80 -4 8 -12 33 -19 54 -14 42 -31 55 -45 34z"/>
<path d="M2278 4696 c-15 -19 -36 -61 -47 -94 -10 -34 -35 -83 -55 -110 -32
-44 -36 -57 -36 -108 0 -43 -7 -72 -25 -108 -28 -55 -30 -88 -11 -161 14 -54
11 -106 -7 -117 -7 -5 -1 -8 15 -8 34 0 78 -51 78 -91 0 -59 54 -140 82 -123
4 3 8 37 8 76 0 63 -4 79 -35 134 -19 34 -35 69 -35 78 0 8 11 32 25 52 30 45
26 67 -20 111 -52 49 -59 69 -36 92 10 10 33 22 51 26 19 4 35 16 42 31 10 22
8 29 -26 61 -48 46 -47 81 2 98 19 6 37 17 42 25 6 12 22 172 17 169 -1 0 -14
-15 -29 -33z"/>
<path d="M2375 4496 c-6 -20 0 -58 18 -120 14 -50 30 -122 36 -161 6 -38 20
-126 30 -195 11 -69 23 -168 26 -220 5 -67 17 -126 41 -199 28 -84 34 -119 34
-187 0 -99 -5 -114 -37 -114 -21 0 -23 -3 -17 -22 19 -62 56 -109 69 -88 7 12
25 307 23 390 -1 43 -1 44 -7 10 -6 -35 -6 -34 -24 28 -17 63 -33 152 -61 347
-35 249 -60 377 -91 465 -30 86 -34 92 -40 66z"/>
<path d="M1516 4441 c-24 -25 -30 -41 -37 -111 -4 -47 -15 -93 -25 -108 -18
-27 -19 -45 -12 -214 4 -105 5 -109 42 -162 31 -45 37 -60 31 -85 -13 -59 21
-114 180 -295 15 -18 25 -41 25 -60 0 -51 24 -73 103 -97 73 -21 189 -86 240
-134 28 -27 34 -54 17 -84 -8 -17 -13 -15 -50 20 -24 23 -86 60 -148 90 -59
27 -115 54 -124 60 -37 20 -15 -1 47 -46 98 -70 216 -176 208 -188 -11 -18
127 0 148 19 25 23 25 79 -1 172 -31 110 -36 182 -16 220 9 18 20 32 24 32 4
0 15 7 25 15 18 13 17 17 -20 92 -73 144 -174 304 -216 341 -23 20 -86 82
-140 137 -85 86 -98 96 -92 70 9 -41 97 -160 161 -218 30 -27 93 -107 145
-185 51 -75 108 -152 128 -171 l36 -34 -34 -26 c-19 -14 -53 -43 -76 -63 -52
-47 -85 -50 -85 -10 0 15 6 34 13 42 6 7 -5 1 -26 -15 -35 -26 -37 -29 -24
-49 8 -12 40 -36 71 -54 51 -30 56 -36 56 -67 0 -19 -3 -35 -6 -35 -3 0 -33
14 -65 31 -107 58 -148 123 -150 239 0 30 -3 73 -7 94 -7 41 -13 45 -84 60
-21 5 -28 12 -28 29 0 43 -24 62 -77 62 -26 0 -54 4 -60 8 -24 16 -13 53 27
92 30 29 39 44 34 60 -8 29 -42 55 -73 55 -31 0 -71 25 -71 45 0 8 14 28 30
45 39 40 39 75 0 120 -36 43 -38 78 -5 105 23 19 24 23 14 60 -6 22 -14 59
-18 83 l-6 43 -29 -30z"/>
<path d="M1590 4455 c-10 -12 -10 -24 -2 -48 l10 -32 -2 40 c-2 56 20 54 72
-6 23 -27 42 -47 42 -44 0 12 -85 105 -96 105 -6 0 -17 -7 -24 -15z"/>
<path d="M3395 4393 c-53 -50 -59 -58 -25 -33 25 18 57 46 72 63 l27 30 10
-24 c5 -13 10 -19 10 -12 1 16 -10 43 -18 43 -3 -1 -37 -31 -76 -67z"/>
<path d="M2456 4427 c3 -10 9 -15 12 -12 3 3 0 11 -7 18 -10 9 -11 8 -5 -6z"/>
<path d="M2496 4403 c-3 -21 -6 -60 -6 -88 0 -61 66 -324 86 -345 13 -13 13
-9 -1 29 -24 69 -20 87 33 143 l47 51 -31 -7 c-71 -16 -130 91 -105 190 6 25
9 49 6 55 -12 19 -23 8 -29 -28z"/>
<path d="M3329 4404 c-31 -34 -32 -35 -6 -19 23 15 56 55 44 55 -2 0 -19 -16
-38 -36z"/>
<path d="M1636 4363 c7 -21 13 -48 14 -59 0 -12 7 -27 16 -35 8 -7 24 -29 34
-48 10 -20 32 -46 49 -59 30 -22 30 -22 -11 43 -23 35 -53 92 -67 126 -29 70
-58 96 -35 32z"/>
<path d="M3422 4357 c-12 -14 -42 -122 -41 -147 0 -8 8 12 18 45 9 33 23 71
30 83 14 27 10 39 -7 19z"/>
<path d="M3367 4322 c-18 -20 -22 -32 -9 -32 10 1 45 50 34 50 -5 0 -16 -8
-25 -18z"/>
<path d="M3244 4305 c-10 -16 -31 -57 -45 -90 l-26 -61 26 -12 c40 -19 50 -15
73 32 20 41 20 47 6 102 l-14 59 -20 -30z"/>
<path d="M3460 4311 c0 -10 -9 -38 -20 -62 -11 -24 -20 -58 -20 -75 0 -18 -8
-38 -20 -49 -10 -9 -25 -33 -31 -53 -6 -19 -26 -67 -44 -106 -17 -39 -56 -145
-85 -235 -37 -114 -77 -211 -132 -319 -43 -85 -77 -156 -74 -159 5 -5 126 206
178 312 19 39 52 126 73 195 45 148 118 343 141 377 12 20 22 24 44 20 l27 -6
-19 37 c-15 29 -18 48 -13 90 4 28 4 52 1 52 -3 0 -6 -9 -6 -19z"/>
<path d="M2240 4269 c15 -26 40 -36 51 -18 10 16 -15 39 -43 39 -16 0 -17 -3
-8 -21z"/>
<path d="M2309 4245 c0 -17 0 -53 1 -81 1 -29 -3 -55 -9 -59 -19 -11 -12 -25
13 -25 24 0 24 0 19 88 -5 84 -22 139 -24 77z"/>
<path d="M1772 4235 c15 -17 36 -50 47 -75 17 -39 20 -42 20 -18 1 38 -16 77
-36 85 -10 3 -27 13 -38 22 -11 9 -8 2 7 -14z"/>
<path d="M1590 4232 c0 -5 18 -35 41 -67 22 -31 39 -65 37 -74 -2 -9 -17 -23
-35 -32 l-32 -16 38 -12 c48 -14 56 -24 81 -96 18 -54 19 -60 4 -82 -8 -13
-22 -27 -31 -30 -12 -5 -6 -10 21 -19 67 -24 86 8 45 76 -30 48 -57 131 -70
208 -11 75 -27 111 -39 92 -5 -9 -12 -6 -24 11 -9 13 -16 29 -16 36 0 7 -4 13
-10 13 -5 0 -10 -4 -10 -8z"/>
<path d="M3338 4213 c-4 -18 -19 -51 -33 -73 -22 -35 -23 -40 -7 -31 26 14 54
75 50 109 -3 27 -3 27 -10 -5z"/>
<path d="M3026 4039 c-66 -69 -105 -134 -106 -173 0 -10 -13 -47 -29 -80 -16
-34 -41 -90 -56 -125 -14 -35 -33 -75 -42 -87 -30 -47 -121 -84 -124 -51 -3
35 -18 -78 -18 -143 l-1 -75 33 49 c17 27 41 75 52 105 18 49 26 59 70 83 28
15 61 28 75 28 54 1 71 35 75 154 3 77 7 93 25 108 11 9 26 18 33 21 9 3 9 13
0 50 -17 62 -16 82 3 98 13 11 23 9 61 -12 l44 -24 20 24 c18 22 18 25 3 50
-9 15 -24 37 -33 50 l-17 22 -68 -72z"/>
<path d="M3440 4078 c-28 -45 -24 -123 5 -123 16 0 21 8 23 40 2 22 11 49 21
60 41 48 42 50 5 53 -29 2 -37 -3 -54 -30z"/>
<path d="M1877 4055 c17 -22 46 -53 64 -70 20 -17 13 -7 -15 25 -69 77 -85 92
-49 45z"/>
<path d="M1921 4081 c-7 -5 -10 -14 -7 -20 11 -18 33 -13 39 9 5 21 -8 26 -32
11z"/>
<path d="M3283 4041 c-44 -43 -73 -111 -73 -170 l1 -36 13 36 c7 20 34 75 59
123 26 47 46 86 44 86 -2 0 -21 -18 -44 -39z"/>
<path d="M2326 4040 c-17 -29 -36 -40 -36 -20 0 6 -4 10 -10 10 -5 0 3 -23 18
-52 24 -46 27 -65 29 -158 2 -109 24 -204 39 -167 11 30 -3 238 -21 295 -13
42 -14 61 -6 85 15 40 9 43 -13 7z"/>
<path d="M3186 3987 c-26 -44 -32 -67 -18 -67 8 1 54 101 48 107 -2 3 -16 -15
-30 -40z"/>
<path d="M3360 3868 c-17 -57 -36 -116 -41 -132 -5 -16 -9 -42 -9 -57 0 -34
21 -38 78 -13 l37 16 -42 19 c-47 20 -53 40 -32 96 20 53 48 73 103 73 l51 1
-30 25 c-16 13 -42 36 -57 49 l-27 26 -31 -103z"/>
<path d="M2011 3926 c33 -34 38 -36 62 -25 38 17 33 29 -11 29 -21 0 -49 7
-62 16 -17 12 -14 5 11 -20z"/>
<path d="M3066 3915 c4 -11 8 -22 10 -24 5 -6 74 32 74 40 0 4 -20 6 -45 5
-40 -1 -44 -3 -39 -21z"/>
<path d="M2555 3879 c10 -70 23 -117 24 -92 1 13 20 43 44 68 24 25 41 45 38
46 -3 1 -23 0 -44 -1 -21 -1 -45 4 -53 11 -14 11 -15 8 -9 -32z"/>
<path d="M2103 3873 c-18 -7 -33 -16 -33 -19 0 -26 182 -299 200 -299 8 0 21
12 29 27 23 40 5 75 -62 126 -63 48 -75 65 -91 133 l-11 46 -32 -14z"/>
<path d="M3118 3861 c-36 -31 -37 -34 -36 -99 1 -48 -6 -87 -24 -137 -14 -38
-28 -79 -32 -90 -3 -11 25 43 64 120 64 126 71 146 68 190 l-3 49 -37 -33z"/>
<path d="M2662 3792 c-18 -15 -32 -36 -32 -49 0 -41 16 -32 43 23 15 29 26 54
24 54 -1 0 -17 -13 -35 -28z"/>
<path d="M3480 3793 c-74 -11 -90 -26 -52 -50 15 -9 25 -5 58 23 21 18 35 33
29 32 -5 0 -21 -2 -35 -5z"/>
<path d="M3022 3781 c-8 -5 -12 -21 -10 -37 l3 -29 19 28 c20 29 12 53 -12 38z"/>
<path d="M4195 3780 c-11 -4 -31 -20 -44 -34 -26 -27 -62 -40 -146 -51 -43 -5
-55 -3 -78 15 -21 17 -27 18 -27 7 0 -53 28 -58 152 -28 61 14 86 26 119 56
27 24 45 33 51 27 12 -12 -1 -39 -29 -63 -10 -9 -74 -37 -143 -63 -118 -45
-160 -71 -160 -102 0 -9 11 -6 37 12 40 27 119 53 177 58 24 2 48 13 66 31 38
36 75 108 67 128 -7 19 -13 20 -42 7z"/>
<path d="M1811 3747 c-14 -17 -2 -29 48 -45 33 -12 33 -11 19 10 -8 12 -24 28
-35 35 -17 11 -22 11 -32 0z"/>
<path d="M3065 3731 c-3 -12 -17 -34 -30 -50 -13 -15 -32 -50 -42 -77 -15 -39
-31 -59 -80 -95 -34 -26 -67 -49 -75 -52 -10 -3 -8 -10 9 -27 l21 -23 52 49
c52 49 86 104 110 178 7 22 22 55 33 73 11 19 17 36 14 39 -3 3 -8 -4 -12 -15z"/>
<path d="M3798 3695 c-27 -24 -48 -46 -48 -49 0 -13 58 -5 70 9 9 11 33 86 26
85 0 -1 -22 -20 -48 -45z"/>
<path d="M2582 3660 c0 -14 2 -19 5 -12 2 6 2 18 0 25 -3 6 -5 1 -5 -13z"/>
<path d="M3849 3629 c-28 -30 -43 -39 -70 -39 l-34 0 24 -19 c29 -22 23 -46
-14 -63 -19 -8 -31 -9 -43 -2 -14 9 -20 3 -37 -34 -15 -32 -37 -57 -80 -86
-79 -56 -83 -77 -7 -36 41 22 93 65 155 129 86 89 156 177 146 185 -2 2 -20
-14 -40 -35z"/>
<path d="M3595 3591 l-50 -47 30 -15 c19 -9 30 -22 30 -34 0 -17 -7 -20 -49
-20 -48 0 -48 0 -65 -45 -14 -37 -28 -53 -86 -91 -39 -26 -87 -53 -109 -60
-49 -16 -53 -30 -24 -72 l23 -35 25 20 c14 11 45 30 70 43 54 27 86 69 99 125
11 50 9 48 74 80 67 33 89 70 85 144 l-3 55 -50 -48z"/>
<path d="M1936 3610 c10 -31 11 -63 1 -115 l-8 -40 25 40 c33 52 33 85 0 116
l-26 24 8 -25z"/>
<path d="M4184 3599 c-16 -18 -63 -54 -104 -80 -81 -53 -82 -69 -2 -19 27 17
57 30 66 30 9 0 16 7 16 15 0 8 14 30 31 50 38 43 33 46 -7 4z"/>
<path d="M720 3610 c-9 -6 -10 -10 -3 -10 6 0 15 5 18 10 8 12 4 12 -15 0z"/>
<path d="M3380 3606 c-57 -12 -74 -32 -46 -55 13 -11 23 -6 61 25 38 32 54 48
43 43 -2 -1 -28 -6 -58 -13z"/>
<path d="M776 3583 c-17 -23 -22 -24 -70 -18 -28 4 -62 12 -75 16 -44 17 -82
-13 -62 -48 5 -9 33 -32 62 -52 30 -20 58 -46 64 -58 5 -13 17 -23 25 -23 8 0
26 -14 40 -30 25 -31 26 -31 60 -16 20 9 27 15 17 16 -24 0 -110 45 -128 66
-8 9 -37 32 -64 50 -69 44 -83 61 -64 79 12 13 21 13 68 0 29 -8 79 -17 110
-20 31 -4 64 -9 75 -12 18 -5 18 -4 0 27 -28 47 -37 51 -58 23z"/>
<path d="M4224 3578 l-19 -23 23 19 c12 11 22 21 22 23 0 8 -8 2 -26 -19z"/>
<path d="M995 3580 c-16 -4 -41 -12 -55 -18 -24 -10 -24 -11 10 -10 47 0 83
11 88 26 4 13 1 13 -43 2z"/>
<path d="M3712 3563 c2 -10 11 -19 21 -21 24 -5 21 15 -4 28 -18 10 -20 9 -17
-7z"/>
<path d="M487 3532 c-55 -58 -25 -145 93 -262 41 -42 93 -85 115 -96 22 -11
65 -36 95 -56 30 -19 80 -46 110 -59 76 -32 254 -132 320 -180 30 -22 98 -62
151 -89 67 -34 106 -61 127 -88 69 -87 62 -137 -23 -155 -13 -3 -9 -5 11 -6
16 0 70 13 120 30 73 25 110 32 208 36 117 6 119 6 114 -15 -5 -17 1 -23 29
-33 48 -15 98 -15 117 0 20 17 21 80 2 124 -7 18 -37 58 -65 90 -82 94 -107
158 -80 208 10 19 9 19 -10 9 -11 -6 -24 -22 -27 -37 -6 -23 4 -86 20 -123 4
-11 0 -15 -16 -16 -13 0 -40 -4 -60 -8 -34 -7 -41 -5 -67 23 -21 22 -32 47
-37 79 -3 26 -12 57 -20 69 -34 55 -468 270 -666 331 l-97 30 17 -24 c9 -13
24 -24 32 -24 25 0 64 -31 51 -40 -7 -3 9 -7 34 -7 35 0 56 -7 91 -31 25 -18
57 -32 73 -32 34 0 270 -114 361 -175 71 -48 81 -60 111 -140 27 -71 71 -110
145 -125 43 -9 63 -9 76 -1 10 6 18 9 18 7 0 -2 6 -19 14 -37 l14 -34 -86 0
c-74 0 -94 4 -132 25 -44 25 -55 41 -94 132 -29 69 -155 121 -215 89 -48 -26
-83 16 -61 73 7 21 7 35 -2 54 -27 56 -145 83 -183 42 -38 -42 -93 -15 -82 40
10 47 -25 65 -114 56 -96 -9 -109 0 -109 70 0 61 -15 76 -53 52 -28 -19 -87
-28 -108 -17 -9 5 -19 19 -23 32 -4 17 -15 26 -34 30 -20 4 -33 15 -42 37 -7
17 -25 37 -39 44 -34 18 -57 44 -79 90 l-18 36 -27 -28z m855 -459 c31 -28 16
-93 -22 -93 -20 0 -50 35 -50 57 0 14 35 53 47 53 3 0 15 -7 25 -17z"/>
<path d="M1085 3540 c-10 -11 -29 -20 -43 -20 -41 0 -21 -7 40 -14 l57 -7 -12
30 c-13 36 -18 38 -42 11z"/>
<path d="M2338 3539 c-24 -14 -23 -24 7 -43 l25 -16 0 35 c0 37 -5 41 -32 24z"/>
<path d="M3230 3503 c-14 -27 -26 -51 -28 -54 -5 -11 103 3 116 15 10 9 5 20
-22 49 -18 20 -36 37 -38 37 -2 0 -15 -21 -28 -47z"/>
<path d="M621 3536 c20 -20 232 -92 317 -107 172 -31 271 -62 443 -140 185
-84 403 -228 415 -274 6 -23 24 -36 24 -17 0 4 14 16 30 25 17 10 30 22 30 27
0 12 -173 145 -245 189 -80 49 -352 158 -465 187 -52 14 -154 33 -226 44 -73
10 -171 30 -220 44 -85 25 -112 31 -103 22z"/>
<path d="M1313 3509 c-6 -6 -27 -16 -48 -23 l-38 -13 54 -21 c79 -30 260 -107
286 -120 36 -20 37 -14 4 23 -17 20 -31 40 -31 45 0 6 -16 8 -38 4 -47 -7
-116 10 -143 37 -10 10 -19 33 -19 49 0 31 -9 37 -27 19z"/>
<path d="M3441 3496 c-6 -8 -24 -19 -40 -26 -16 -6 -34 -22 -41 -35 -16 -30
-67 -55 -113 -55 -56 0 -65 -8 -128 -102 -44 -66 -59 -98 -59 -124 0 -19 -9
-53 -20 -74 l-20 -40 36 25 c34 23 121 55 150 55 26 0 26 23 -1 77 l-28 54 20
27 c11 15 48 42 83 60 107 55 142 84 161 130 19 44 19 51 0 28z"/>
<path d="M4108 3462 c-27 -31 -47 -102 -28 -102 27 0 130 80 130 101 0 7 -54
29 -70 29 -4 0 -18 -13 -32 -28z"/>
<path d="M3778 3396 c-68 -67 -82 -76 -164 -104 -49 -17 -79 -31 -66 -31 27
-1 28 -11 1 -45 -32 -41 -75 -59 -123 -52 -38 6 -45 3 -71 -25 -40 -42 -98
-74 -170 -94 -33 -9 -96 -36 -141 -61 -45 -24 -84 -41 -87 -38 -13 13 -37 -59
-37 -111 0 -66 15 -78 66 -50 27 14 31 21 24 36 -29 52 20 104 159 170 58 28
127 66 153 84 25 19 64 37 85 41 60 11 96 30 149 77 27 24 74 57 104 75 30 17
75 51 100 76 40 42 80 60 80 37 0 -5 -16 -33 -35 -62 -35 -54 -35 -54 -4 -19
45 51 119 151 119 161 0 5 -15 9 -34 9 -28 0 -45 -11 -108 -74z"/>
<path d="M2211 3434 c-41 -34 -41 -72 0 -190 19 -54 31 -112 32 -147 2 -54 0
-61 -31 -88 -19 -17 -44 -29 -59 -29 -39 0 -16 -17 33 -25 37 -6 44 -3 63 21
34 43 28 116 -19 255 -22 65 -40 131 -40 147 0 33 22 57 61 67 23 6 34 -1 72
-37 43 -41 45 -46 40 -86 -5 -41 -4 -43 51 -93 31 -29 72 -80 91 -115 45 -80
75 -104 130 -104 38 0 52 7 114 58 38 31 85 76 103 100 30 40 36 43 67 38 39
-6 71 -32 71 -57 0 -9 -20 -41 -43 -71 -55 -66 -74 -104 -98 -187 -21 -73 -24
-133 -9 -161 16 -30 74 -60 196 -99 110 -35 136 -31 35 5 -104 38 -163 69
-188 98 -23 28 -25 36 -21 101 5 83 35 156 97 238 51 67 52 95 6 136 -51 44
-76 41 -121 -16 -77 -99 -139 -143 -201 -143 -35 0 -50 7 -82 36 -36 32 -59
68 -156 238 -15 28 -46 69 -68 93 -47 51 -80 56 -126 17z"/>
<path d="M3963 3428 c-11 -13 -39 -50 -63 -83 -23 -33 -62 -80 -86 -105 -42
-43 -43 -46 -24 -58 18 -11 20 -10 20 13 0 26 25 45 59 45 13 0 26 12 36 30
19 36 57 53 97 45 33 -8 33 -8 13 33 l-16 30 -47 -26 c-40 -22 -45 -23 -32 -7
32 45 56 68 78 76 13 5 20 13 17 19 -10 16 -30 11 -52 -12z"/>
<path d="M1633 3423 c-19 -7 -16 -27 7 -48 20 -18 20 -17 20 18 0 37 -3 40
-27 30z"/>
<path d="M2774 3404 c-8 -33 -37 -86 -71 -127 -37 -46 -77 -137 -65 -149 27
-27 116 33 147 99 10 20 28 45 42 57 21 18 23 25 14 49 -6 15 -22 44 -35 64
l-25 36 -7 -29z"/>
<path d="M2230 3367 c0 -10 7 -34 16 -55 27 -63 74 -252 74 -299 0 -36 -6 -50
-31 -75 -29 -30 -32 -31 -100 -25 -71 6 -78 2 -59 -33 10 -19 11 -19 31 1 17
17 28 19 62 14 23 -4 50 -14 59 -22 25 -22 66 -9 74 23 12 47 -4 167 -35 265
-34 106 -90 234 -91 206z m97 -463 c3 -8 1 -20 -6 -27 -14 -14 -47 15 -37 32
10 16 36 13 43 -5z"/>
<path d="M2910 3340 c-9 -6 -10 -10 -3 -10 6 0 15 5 18 10 8 12 4 12 -15 0z"/>
<path d="M964 3259 c-8 -14 10 -32 28 -27 11 2 10 7 -4 20 -11 11 -20 14 -24
7z"/>
<path d="M3936 3226 c-15 -20 -36 -36 -46 -36 -26 0 -32 -14 -19 -43 l11 -25
66 28 c59 25 142 84 131 94 -2 2 -29 7 -60 10 -55 7 -56 7 -83 -28z"/>
<path d="M3672 3145 c-17 -14 -45 -44 -62 -65 l-31 -39 42 -31 c38 -27 108
-43 95 -22 -3 5 16 19 42 31 26 12 58 30 71 40 l24 19 -24 12 c-13 7 -37 25
-54 40 -45 42 -68 45 -103 15z m23 -79 c0 -39 -28 -57 -52 -34 -14 14 -15 22
-5 43 17 38 57 31 57 -9z"/>
<path d="M2937 3137 c-3 -9 -21 -26 -39 -37 -27 -16 -29 -20 -12 -20 24 0 68
43 62 61 -3 9 -6 8 -11 -4z"/>
<path d="M2420 3128 c0 -17 72 -164 89 -181 5 -5 18 -3 29 4 19 12 18 14 -24
73 -66 94 -93 124 -94 104z"/>
<path d="M2375 3075 c33 -154 32 -200 -3 -233 -26 -24 -51 -82 -37 -82 3 0 23
11 43 25 36 25 37 25 40 5 5 -29 -13 -48 -57 -61 -36 -11 -42 -8 -160 57 -68
38 -141 86 -162 107 -21 22 -39 34 -39 27 0 -22 80 -87 174 -141 151 -86 249
-140 271 -149 l21 -8 -19 127 c-28 194 -43 273 -61 311 -9 19 -14 26 -11 15z
m49 -343 c2 -4 8 -25 12 -46 l7 -40 -44 26 c-53 32 -57 41 -22 55 36 14 41 15
47 5z"/>
<path d="M2770 3032 c-19 -16 -45 -34 -58 -41 l-22 -12 27 -23 c15 -14 31 -22
36 -19 6 3 49 80 65 116 7 15 -15 6 -48 -21z"/>
<path d="M1470 3005 c0 -10 10 -15 31 -15 27 0 30 2 19 15 -7 8 -21 15 -31 15
-11 0 -19 -7 -19 -15z"/>
<path d="M2801 2916 c-33 -103 -36 -116 -22 -116 4 0 14 28 21 63 7 34 19 80
27 101 7 22 11 41 9 43 -3 3 -18 -38 -35 -91z"/>
<path d="M3415 2937 c-66 -34 -145 -81 -175 -103 -67 -51 -122 -79 -184 -95
-53 -13 -59 -25 -18 -34 54 -11 302 71 302 101 0 7 10 18 22 25 18 10 20 9 15
-5 -5 -13 -2 -15 20 -10 14 4 69 1 122 -5 53 -7 134 -11 181 -9 l85 3 -115 23
c-63 12 -139 21 -169 20 -71 -4 -78 15 -16 43 56 25 92 22 233 -22 116 -36
236 -40 272 -11 25 20 20 42 -9 42 -10 0 -31 10 -46 22 -25 20 -29 20 -40 5
-8 -11 -23 -15 -46 -13 -126 12 -168 22 -231 53 -37 18 -71 33 -75 32 -5 0
-62 -28 -128 -62z"/>
<path d="M3805 2970 l-30 -8 32 -1 c17 0 35 4 38 9 7 11 3 11 -40 0z"/>
<path d="M2596 2945 c4 -11 -1 -15 -17 -15 -13 0 -30 -4 -38 -9 -19 -12 54
-33 87 -24 22 5 23 4 12 -16 -10 -20 -18 -22 -70 -19 l-58 3 14 -27 c19 -37
44 -59 57 -51 6 4 1 10 -12 15 -33 12 -16 28 29 28 65 0 123 63 89 97 -9 9
-15 8 -26 -3 -8 -8 -21 -14 -29 -14 -17 0 -19 36 -1 43 6 3 0 6 -15 6 -20 1
-26 -3 -22 -14z"/>
<path d="M1799 2944 c-3 -27 4 -61 17 -74 12 -12 14 -10 14 22 0 19 -7 41 -15
48 -8 7 -15 9 -16 4z"/>
<path d="M1980 2885 c0 -3 31 -39 70 -80 71 -75 78 -88 89 -178 5 -44 9 -52
29 -55 29 -4 68 21 77 49 8 25 -12 69 -32 69 -10 0 -12 -9 -8 -37 l6 -38 -21
25 c-15 16 -20 34 -18 52 4 24 -3 34 -51 70 -31 23 -75 62 -98 86 -24 24 -43
41 -43 37z m208 -282 c-5 -26 -38 -29 -38 -4 0 15 6 21 21 21 14 0 19 -5 17
-17z"/>
<path d="M4028 2883 c7 -3 16 -2 19 1 4 3 -2 6 -13 5 -11 0 -14 -3 -6 -6z"/>
<path d="M2227 2873 c-5 -7 -19 -13 -33 -13 -33 0 -30 -15 6 -30 37 -15 43
-11 38 27 -2 18 -6 24 -11 16z"/>
<path d="M4066 2867 c3 -10 9 -15 12 -12 3 3 0 11 -7 18 -10 9 -11 8 -5 -6z"/>
<path d="M2677 2789 l-56 -61 16 -42 c9 -22 21 -47 27 -54 16 -22 24 15 12 60
-7 28 -7 41 2 50 9 9 15 3 27 -25 8 -19 20 -39 26 -43 7 -4 9 -2 6 7 -28 69
-30 90 -13 126 9 19 15 37 13 40 -3 2 -30 -24 -60 -58z"/>
<path d="M3991 2820 c-36 -24 -55 -30 -100 -30 -40 0 -52 -3 -41 -10 16 -11
88 -11 134 -1 19 4 37 18 49 39 23 40 14 40 -42 2z"/>
<path d="M2470 2838 c1 -2 9 -50 19 -108 l18 -105 16 31 c9 18 27 45 41 61
l25 29 -29 -4 c-26 -4 -31 1 -54 47 -15 28 -29 51 -31 51 -3 0 -5 -1 -5 -2z"/>
<path d="M2260 2815 c0 -18 24 -30 40 -20 8 5 8 11 -1 21 -15 19 -39 18 -39
-1z"/>
<path d="M3808 2793 c7 -3 16 -2 19 1 4 3 -2 6 -13 5 -11 0 -14 -3 -6 -6z"/>
<path d="M2740 2753 c0 -20 62 -81 67 -66 2 6 -3 25 -11 41 -17 32 -56 50 -56
25z"/>
<path d="M3655 2754 c-39 -11 -65 -12 -117 -4 -106 16 -141 13 -179 -15 -19
-14 -63 -39 -98 -56 -62 -30 -63 -30 -45 -50 25 -27 57 -18 112 33 66 61 101
72 207 64 88 -6 179 8 224 34 25 14 -44 10 -104 -6z"/>
<path d="M4040 2750 c-6 -11 -8 -20 -6 -20 3 0 10 9 16 20 6 11 8 20 6 20 -3
0 -10 -9 -16 -20z"/>
<path d="M3970 2742 c-8 -2 -23 -12 -33 -20 -16 -14 -27 -14 -89 -4 -39 7 -73
10 -76 7 -3 -3 2 -5 10 -5 9 0 35 -9 59 -20 56 -25 74 -25 100 1 11 11 30 24
41 28 24 9 12 21 -12 13z"/>
<path d="M2293 2652 c28 -32 37 -51 37 -77 0 -24 -5 -35 -15 -35 -10 0 -15 10
-15 28 0 16 -3 31 -6 34 -3 4 -35 -22 -70 -57 -58 -56 -64 -66 -58 -92 10 -41
14 -45 30 -32 7 6 21 9 29 5 19 -7 19 -35 0 -42 -8 -4 -15 -19 -15 -35 0 -41
-84 -256 -129 -329 -23 -39 -26 -50 -11 -50 5 0 19 19 31 43 12 23 33 55 46
71 46 55 120 226 107 247 -6 10 32 95 46 104 4 3 12 -1 18 -8 8 -9 4 -26 -12
-60 -13 -26 -20 -50 -15 -52 15 -10 57 80 64 138 6 55 5 58 -12 49 -10 -6 -18
-19 -18 -29 0 -20 -34 -31 -45 -13 -4 6 -16 13 -26 14 -33 5 -22 31 16 34 20
2 48 16 68 33 56 50 79 28 59 -56 -5 -21 3 -13 28 30 19 33 35 63 35 67 0 4
-18 11 -41 14 -22 4 -53 17 -67 29 -15 11 -43 32 -62 45 l-35 24 38 -42z m-63
-181 c0 -13 -26 -32 -33 -24 -14 13 -6 33 13 33 11 0 20 -4 20 -9z"/>
<path d="M4012 2673 c-19 -3 -48 -13 -65 -24 -39 -23 -68 -24 -123 -3 -39 15
-48 15 -106 0 -35 -9 -101 -16 -146 -16 -66 0 -95 -5 -155 -29 -40 -16 -91
-34 -114 -40 -40 -11 -41 -13 -45 -57 -4 -50 -8 -46 87 -63 27 -5 52 -7 54 -5
2 2 -2 4 -9 4 -7 0 -2 9 12 19 44 35 180 65 343 76 167 11 185 17 260 94 27
28 47 50 45 49 -3 0 -20 -3 -38 -5z"/>
<path d="M2731 2637 c-24 -14 -23 -15 34 -36 73 -27 98 -30 102 -11 10 44 -85
76 -136 47z"/>
<path d="M2914 2596 c-13 -35 23 -44 111 -27 l40 8 -40 10 c-86 24 -105 25
-111 9z"/>
<path d="M2510 2584 c0 -2 20 -36 44 -76 24 -40 62 -105 84 -143 22 -39 50
-82 62 -95 14 -17 11 -7 -10 30 -17 30 -47 87 -67 125 -20 39 -49 89 -65 113
-27 39 -27 42 -9 42 35 0 73 -20 78 -41 l6 -20 19 21 c10 11 31 20 46 20 26 1
26 1 7 16 -15 11 -43 14 -107 13 -49 -1 -88 -3 -88 -5z"/>
<path d="M1313 2555 c-10 -15 -28 -39 -41 -55 -19 -24 -21 -33 -12 -50 14 -26
25 -25 98 8 l60 27 -43 48 -44 47 -18 -25z"/>
<path d="M3080 2556 c0 -9 7 -16 16 -16 9 0 14 5 12 12 -6 18 -28 21 -28 4z"/>
<path d="M3170 2541 c0 -17 5 -31 10 -31 6 0 10 11 10 24 0 14 -4 28 -10 31
-6 4 -10 -7 -10 -24z"/>
<path d="M2468 2520 c-17 -30 -17 -30 6 -30 13 0 29 -7 36 -15 25 -30 31 -14
9 23 -32 54 -33 54 -51 22z"/>
<path d="M1740 2523 c-14 -3 -82 -29 -152 -59 -70 -30 -140 -54 -157 -54 -16
0 -63 -18 -103 -41 -40 -22 -64 -38 -53 -34 11 4 54 12 95 19 41 6 80 14 85
17 22 15 186 79 200 79 8 0 15 -4 15 -9 0 -5 33 4 73 20 45 18 92 29 127 29
l55 2 -65 19 c-66 19 -75 20 -120 12z"/>
<path d="M2677 2513 c-19 -18 -4 -86 37 -170 57 -117 92 -146 46 -38 -22 51
-27 90 -15 120 7 16 6 18 -6 8 -19 -18 -29 -16 -29 6 0 29 21 40 86 46 96 10
124 15 124 25 0 11 -233 14 -243 3z"/>
<path d="M2960 2493 c-155 -36 -169 -42 -176 -69 -4 -15 1 -51 10 -83 10 -31
27 -94 39 -140 18 -66 27 -86 45 -92 32 -12 29 14 -16 124 -21 50 -42 105 -46
121 -15 61 47 104 182 126 39 6 72 16 72 21 0 12 -33 10 -110 -8z"/>
<path d="M1925 2451 c-193 -47 -291 -94 -385 -185 -73 -71 -127 -105 -230
-146 -27 -11 -138 -62 -245 -114 -135 -66 -214 -110 -256 -145 -62 -52 -74
-58 -83 -42 -14 22 22 73 136 194 81 86 109 120 82 102 -28 -19 -47 -25 -66
-21 -26 5 -27 4 -22 -24 8 -36 -17 -79 -84 -141 -31 -30 -51 -58 -55 -79 -14
-69 17 -67 111 8 71 56 118 81 267 137 39 15 99 42 135 60 36 18 94 41 130 51
92 25 142 48 181 82 41 35 82 57 129 67 19 5 30 10 25 12 -6 1 -35 -3 -65 -11
-30 -8 -57 -12 -60 -9 -9 9 64 63 100 74 53 15 127 22 147 15 17 -7 17 -8 -2
-23 -19 -15 -19 -15 10 -8 51 12 139 25 168 25 24 0 27 -4 27 -33 l0 -34 -102
-18 c-136 -23 -181 -43 -197 -86 -32 -85 -45 -109 -62 -114 -20 -7 -68 15 -88
39 -18 22 -58 20 -88 -4 -14 -11 -36 -20 -49 -20 -23 0 -64 -42 -64 -65 0 -19
-34 -45 -59 -45 -12 0 -36 7 -52 16 -17 8 -45 14 -62 12 -30 -3 -33 -6 -40
-53 -18 -111 -57 -132 -130 -70 -34 29 -48 35 -71 31 -47 -10 -57 -22 -41 -53
26 -51 -24 -85 -66 -47 -17 15 -21 14 -54 -15 -42 -37 -53 -38 -89 -10 -21 17
-26 29 -26 67 0 83 15 118 59 135 51 21 66 57 50 121 -15 59 -24 52 -69 -51
-18 -43 -39 -85 -46 -93 -17 -21 -65 -119 -75 -152 -12 -44 7 -96 43 -114 38
-20 84 -15 201 20 45 14 109 28 142 32 46 5 67 13 90 34 17 17 59 37 100 50
39 12 93 29 120 39 53 18 85 17 85 -2 0 -8 23 -13 63 -15 l63 -2 68 75 c37 42
96 94 129 117 34 22 81 59 105 81 23 23 42 36 42 30 0 -13 -136 -167 -167
-188 -12 -8 -54 -56 -93 -106 -40 -50 -81 -94 -91 -96 -12 -4 -34 -35 -56 -82
-26 -54 -54 -92 -96 -132 -42 -40 -55 -59 -46 -64 14 -10 68 50 144 161 86
125 201 269 248 310 42 37 208 137 215 129 2 -1 -2 -21 -8 -43 -9 -37 -18 -44
-87 -82 -42 -22 -89 -51 -104 -64 -56 -48 -139 -150 -250 -308 -68 -98 -140
-188 -179 -224 -160 -150 -174 -165 -150 -153 28 14 160 120 202 162 15 15 75
96 135 179 105 147 194 243 255 274 27 14 31 14 49 -2 10 -9 19 -28 19 -41 0
-30 6 -29 59 11 l45 34 13 -25 c10 -20 11 -29 1 -42 -10 -13 -10 -14 2 -3 16
14 50 16 50 3 0 -4 -17 -20 -37 -35 -187 -131 -211 -160 -199 -239 6 -42 9
-46 26 -37 10 5 39 10 64 10 l45 0 0 -102 c1 -57 2 -126 3 -155 1 -29 -6 -78
-16 -110 -17 -55 -17 -60 0 -103 12 -30 17 -67 16 -113 -2 -49 3 -81 16 -111
11 -23 25 -66 32 -96 24 -102 131 -263 194 -291 61 -28 77 -24 119 26 l38 45
-30 -6 c-39 -8 -77 29 -86 82 -3 22 -8 55 -11 74 -4 24 -19 46 -50 74 -24 22
-44 46 -44 55 0 8 9 34 21 58 19 40 20 45 6 67 -9 13 -30 26 -48 30 -64 13
-78 50 -31 86 32 26 51 57 52 87 0 17 -11 27 -45 42 -64 28 -63 60 5 122 63
57 67 90 16 114 -54 26 -83 107 -53 145 7 9 30 29 52 45 52 38 63 52 75 96 7
25 6 53 -1 90 -6 30 -12 62 -12 71 -1 14 -10 17 -37 16 -64 -2 -127 45 -136
102 -7 42 12 123 41 180 12 25 28 62 35 83 7 23 31 56 57 80 95 89 112 196 36
225 -51 19 -77 20 -148 3z m-40 -857 c0 -38 -36 -46 -59 -12 -16 22 -15 23 11
35 38 16 48 12 48 -23z"/>
<path d="M1076 2409 c-48 -54 -49 -74 -5 -67 19 2 28 14 42 57 10 29 16 55 14
58 -3 2 -25 -20 -51 -48z"/>
<path d="M2505 2442 c-52 -4 -87 -38 -176 -169 -38 -57 -92 -132 -120 -168
-28 -36 -49 -65 -46 -65 9 0 112 72 119 83 4 7 8 23 8 37 0 28 82 160 123 198
36 34 120 36 166 3 19 -14 31 -18 26 -10 -57 93 -58 94 -100 91z"/>
<path d="M1180 2427 c0 -7 -11 -35 -25 -63 -27 -55 -67 -84 -114 -84 -32 0
-36 -7 -25 -47 6 -21 9 -19 65 27 32 27 79 63 103 80 l45 31 -16 34 c-17 35
-33 46 -33 22z"/>
<path d="M3105 2428 c-126 -31 -175 -50 -177 -66 -3 -41 6 -69 47 -146 24 -44
63 -130 86 -191 23 -60 47 -113 54 -117 23 -14 191 -190 205 -216 20 -36 86
-44 115 -12 19 21 8 29 -12 9 -12 -12 -9 -16 -90 88 -26 34 -74 92 -106 130
-66 77 -116 171 -124 232 -4 32 -2 41 10 41 23 0 53 -31 67 -70 20 -52 90
-158 143 -215 39 -42 44 -45 32 -20 -14 30 -37 117 -49 184 -9 53 17 22 45
-52 36 -100 77 -175 105 -193 21 -15 31 -15 58 -6 43 16 62 15 80 -4 22 -22
20 -60 -6 -103 l-22 -36 27 28 c27 28 46 34 63 18 28 -26 113 -41 195 -35 66
4 94 2 129 -11 25 -10 81 -19 125 -21 44 -1 112 -6 151 -9 83 -8 115 3 196 63
51 39 148 134 118 116 -8 -5 -35 -11 -59 -14 -39 -4 -45 -8 -55 -40 -7 -23
-20 -38 -38 -44 -24 -9 -32 -5 -77 37 -28 26 -57 47 -65 47 -8 0 -32 -11 -52
-25 -54 -36 -77 -32 -137 24 -75 70 -87 72 -141 17 -72 -75 -130 -54 -156 55
-7 30 -17 60 -23 67 -14 18 -51 15 -81 -9 -15 -12 -45 -23 -67 -26 -50 -7 -79
17 -116 99 -34 76 -49 88 -130 101 -41 7 -80 21 -96 34 -16 12 -57 31 -93 43
-61 21 -142 68 -191 113 -17 15 -20 23 -12 34 13 15 65 18 74 3 3 -5 20 -19
38 -32 21 -15 27 -17 18 -5 -12 15 -10 17 29 17 23 0 77 -9 121 -20 44 -12
133 -27 198 -35 124 -16 254 -49 356 -91 33 -14 98 -36 144 -50 46 -13 95 -31
110 -40 l26 -15 -28 6 c-148 31 -179 36 -190 32 -15 -5 43 -22 148 -43 49 -10
118 -34 180 -64 55 -26 134 -56 175 -65 41 -9 84 -19 95 -21 11 -3 -20 15 -70
39 -49 24 -135 71 -190 104 -132 80 -164 95 -335 166 -189 77 -219 85 -374 97
-72 6 -149 15 -171 21 -37 9 -195 67 -204 75 -2 2 2 10 9 19 7 8 11 15 9 14
-2 -1 -22 -6 -44 -11z"/>
<path d="M2857 2384 c-4 -4 -7 -16 -7 -26 0 -21 71 -200 77 -194 2 2 -6 28
-17 57 -12 30 -27 80 -34 112 -6 32 -15 55 -19 51z"/>
<path d="M3779 2360 c30 -26 49 -26 26 0 -10 11 -25 20 -34 20 -12 -1 -10 -5
8 -20z"/>
<path d="M2172 2340 c0 -14 2 -19 5 -12 2 6 2 18 0 25 -3 6 -5 1 -5 -13z"/>
<path d="M2440 2325 c-5 -14 -16 -25 -24 -25 -8 0 -17 -4 -20 -9 -4 -5 3 -7
15 -4 19 5 20 4 10 -15 -6 -12 -22 -24 -35 -28 -28 -7 -42 -38 -51 -109 -4
-35 -12 -54 -25 -60 -50 -26 -189 -127 -225 -164 -57 -60 -105 -53 -105 15 0
22 14 54 44 97 24 35 47 75 51 88 4 13 25 51 46 85 21 33 39 64 39 69 0 5 -13
-11 -29 -36 -15 -24 -42 -57 -60 -73 -17 -17 -31 -35 -31 -41 0 -6 -16 -43
-35 -83 -48 -96 -53 -124 -26 -151 34 -34 72 -27 127 22 27 24 76 61 109 81
61 39 135 103 135 119 0 4 9 27 19 50 20 44 50 76 90 97 33 17 111 15 147 -3
30 -15 104 -90 136 -137 15 -21 14 -17 -2 23 -11 27 -41 77 -67 113 -38 50
-49 60 -56 48 -7 -11 -18 -14 -41 -10 -17 3 -47 2 -66 -4 -23 -7 -38 -6 -45 1
-17 17 17 30 68 25 48 -5 61 6 35 32 -17 17 -48 15 -48 -3 0 -8 -6 -15 -14
-15 -8 0 -16 7 -20 15 -9 23 -35 18 -46 -10z"/>
<path d="M3917 2319 c-15 -12 -39 -24 -54 -28 -24 -6 -22 -8 30 -28 31 -11 55
-17 52 -13 -2 4 2 16 10 26 18 24 19 64 3 64 -7 0 -25 -10 -41 -21z"/>
<path d="M886 2240 c-31 -38 -63 -71 -69 -71 -7 -1 11 -5 38 -10 66 -11 78 2
85 86 3 36 5 65 5 65 -1 0 -27 -31 -59 -70z"/>
<path d="M2161 2294 c0 -11 3 -14 6 -6 3 7 2 16 -1 19 -3 4 -6 -2 -5 -13z"/>
<path d="M1293 2285 c-123 -34 -192 -83 -382 -275 -85 -85 -137 -139 -115
-119 21 19 59 51 84 69 25 19 79 66 121 105 147 136 314 207 400 171 16 -7 79
37 79 55 0 14 -128 9 -187 -6z"/>
<path d="M3990 2289 c0 -3 5 -19 10 -35 10 -29 19 -36 125 -87 l50 -25 1 33
c0 32 -1 33 -31 28 -39 -6 -104 25 -134 64 -11 15 -21 25 -21 22z"/>
<path d="M2750 2200 c0 -46 91 -182 156 -235 l49 -40 -56 64 c-31 35 -75 99
-98 142 -41 77 -51 90 -51 69z"/>
<path d="M2472 2179 c-22 -15 -45 -46 -69 -93 -42 -85 -70 -117 -143 -161 -30
-19 -80 -60 -110 -92 -30 -32 -47 -52 -37 -44 9 8 21 11 25 7 4 -4 10 -51 13
-104 5 -83 6 -88 7 -32 1 36 5 89 8 118 6 43 10 52 27 52 19 0 20 -4 13 -132
-10 -187 -15 -267 -21 -313 -4 -22 -10 -93 -14 -157 -5 -71 -13 -123 -21 -133
-10 -12 -10 -19 -1 -28 8 -8 16 -7 30 8 13 15 23 61 40 183 12 90 42 243 67
340 24 97 50 222 58 278 9 67 23 118 40 152 25 50 28 52 67 52 22 0 39 -3 37
-7 -25 -50 -39 -92 -48 -149 -5 -38 -12 -79 -15 -91 -4 -17 -1 -21 9 -17 45
17 45 -115 0 -231 -18 -50 -28 -99 -34 -170 -8 -111 -46 -265 -110 -439 -60
-164 -56 -162 51 29 15 28 41 63 58 79 l29 28 -24 46 c-28 53 -29 64 -8 126
18 51 41 69 56 43 15 -27 25 -20 24 18 -1 19 -6 35 -12 35 -19 0 -44 35 -44
61 0 14 15 61 34 106 43 101 87 275 94 369 4 62 7 71 22 67 11 -3 20 -17 23
-36 5 -32 -10 -183 -19 -199 -3 -4 -9 -48 -14 -97 -7 -64 -17 -100 -35 -132
-30 -53 -31 -80 -5 -104 16 -14 19 -26 13 -58 -5 -36 -4 -39 14 -33 34 11 48
-17 36 -70 -9 -40 -7 -51 18 -105 41 -86 136 -178 214 -208 33 -13 74 -30 92
-37 52 -23 85 -18 123 21 32 33 33 35 11 35 -29 0 -58 15 -103 56 -36 32 -54
40 -107 46 -38 5 -48 31 -29 71 16 33 16 36 0 50 -9 8 -29 17 -44 21 -74 17
-90 92 -33 155 19 21 35 47 35 57 0 23 -30 73 -80 133 -21 25 -48 66 -60 90
-20 41 -21 49 -10 103 7 32 18 58 25 58 6 0 18 -26 25 -57 17 -73 33 -107 96
-213 55 -92 92 -177 121 -279 13 -47 29 -76 61 -110 24 -25 39 -37 33 -25 -5
11 -17 27 -26 34 -23 19 -45 65 -45 92 1 21 2 20 15 -7 l14 -30 -6 30 c-10 53
-73 198 -118 270 -81 132 -128 242 -184 427 l-29 97 24 -9 c57 -22 72 -40 88
-107 27 -105 81 -237 118 -285 20 -26 42 -72 52 -109 39 -144 66 -197 66 -130
0 35 -24 168 -50 271 -10 41 -21 92 -25 113 l-6 38 24 -16 c18 -11 27 -29 32
-61 11 -73 34 -142 48 -140 6 1 18 5 25 10 18 11 108 -77 115 -113 6 -29 -8
-52 -27 -45 -16 6 -26 -67 -25 -166 1 -60 2 -62 11 -32 20 61 66 37 165 -88
57 -72 67 -81 138 -130 28 -18 72 -53 100 -78 27 -24 72 -55 99 -69 28 -14 71
-43 96 -63 63 -53 105 -75 182 -94 102 -25 132 -20 173 30 42 50 43 57 10 44
-31 -12 -48 -6 -105 37 -32 25 -51 32 -67 28 -41 -10 -60 9 -65 65 -4 38 -12
58 -33 80 -34 35 -42 36 -75 10 -32 -25 -55 -25 -80 0 -24 24 -26 67 -4 91 15
17 15 20 0 44 -9 14 -33 33 -52 42 l-34 17 -34 -33 c-55 -54 -93 -23 -61 49
10 21 18 57 19 80 1 38 -4 45 -84 123 -47 45 -63 59 -37 32 l47 -51 -54 -2
c-48 -2 -57 1 -74 23 -11 14 -23 45 -27 68 -15 90 -102 210 -197 272 -98 65
-235 193 -268 250 -33 57 -63 88 -139 139 -61 41 -83 44 -129 15z m933 -839
c14 -45 -55 -99 -90 -70 -21 18 -19 30 12 62 32 33 69 37 78 8z"/>
<path d="M1632 2178 c-15 -15 -16 -64 -2 -73 11 -7 30 35 30 66 0 22 -11 24
-28 7z"/>
<path d="M4230 2096 c0 -10 59 -36 80 -36 11 0 20 7 20 15 0 11 -7 13 -29 9
-16 -3 -38 -1 -50 5 -11 7 -21 9 -21 7z"/>
<path d="M3550 2077 c0 -23 53 -117 69 -122 23 -7 41 0 41 18 0 8 -3 8 -12 -1
-20 -20 -29 -13 -26 21 4 44 25 45 126 6 78 -29 84 -34 108 -80 13 -27 28 -49
33 -49 4 0 16 9 27 21 16 18 28 20 83 17 60 -4 66 -7 98 -43 19 -23 33 -32 33
-23 0 32 40 68 78 70 20 1 -15 4 -78 8 -92 5 -132 13 -200 37 -274 99 -380
133 -380 120z"/>
<path d="M1296 2041 c-7 -11 18 -33 27 -24 4 3 7 12 7 20 0 15 -26 18 -34 4z"/>
<path d="M3003 1959 c21 -97 17 -112 -26 -101 -13 3 -18 1 -13 -6 8 -13 94
-47 102 -40 5 6 -64 219 -75 231 -4 4 1 -33 12 -84z"/>
<path d="M2820 1985 c13 -14 26 -25 28 -25 3 0 -5 11 -18 25 -13 14 -26 25
-28 25 -3 0 5 -11 18 -25z"/>
<path d="M4470 1959 c25 -11 55 -32 68 -47 15 -18 20 -20 13 -7 -16 33 -54 62
-91 68 -34 6 -34 5 10 -14z"/>
<path d="M1054 1925 c-4 -9 -2 -21 4 -27 15 -15 44 -1 40 19 -4 23 -36 29 -44
8z"/>
<path d="M4271 1906 c8 -8 217 -56 245 -56 11 0 28 6 38 13 16 12 14 13 -16 9
-30 -3 -107 8 -243 34 -16 4 -27 3 -24 0z"/>
<path d="M4203 1863 c-13 -5 -19 -53 -7 -53 3 0 17 9 31 20 14 11 37 20 50 20
28 0 94 -32 112 -54 19 -23 31 -20 31 9 0 19 -7 26 -27 31 -16 4 -53 13 -83
20 -55 14 -85 16 -107 7z"/>
<path d="M1296 1727 c-22 -33 -44 -74 -50 -91 -6 -17 -14 -36 -18 -42 -13 -20
49 -25 92 -8 55 22 63 53 36 135 l-21 65 -39 -59z"/>
<path d="M1405 1770 c-3 -5 -3 -15 0 -20 7 -12 45 5 45 20 0 13 -37 13 -45 0z"/>
<path d="M3485 1740 c-3 -5 2 -24 11 -41 15 -30 16 -31 27 -12 7 12 18 30 25
42 12 20 11 21 -22 21 -19 0 -38 -4 -41 -10z"/>
<path d="M3300 1594 c0 -56 18 -69 90 -66 l57 3 94 -107 c52 -60 113 -132 136
-162 23 -29 64 -77 91 -107 l50 -54 -20 51 c-23 60 -48 98 -186 281 -129 171
-134 174 -201 150 -57 -20 -77 -14 -98 28 -12 23 -13 22 -13 -17z"/>
<path d="M1119 1503 c-25 -27 -40 -57 -47 -90 -15 -68 -45 -135 -96 -212 -50
-77 -58 -102 -47 -154 18 -77 93 -102 207 -69 110 32 255 94 283 122 14 14 38
41 53 60 20 27 29 32 39 23 9 -9 8 -18 -6 -40 l-17 -28 27 27 c26 24 27 28 12
42 -8 9 -18 16 -22 16 -3 0 -22 12 -41 27 -42 31 -49 26 -75 -49 -21 -62 -40
-79 -69 -60 -30 18 -43 15 -97 -22 -41 -28 -58 -33 -107 -34 -49 0 -63 4 -82
23 -20 21 -23 31 -18 72 9 81 13 92 42 107 27 14 52 53 52 80 0 7 14 25 30 39
31 28 33 40 22 116 l-7 44 -36 -40z"/>
<path d="M1240 1521 c0 -5 6 -14 14 -20 11 -9 16 -9 21 0 4 6 1 15 -6 20 -18
11 -29 11 -29 0z"/>
<path d="M1558 1447 c-48 -45 -115 -103 -150 -130 -216 -163 -243 -181 -291
-189 -27 -5 -52 -7 -55 -3 -3 3 -1 20 6 38 10 29 10 30 -4 12 -8 -11 -13 -29
-12 -40 3 -18 9 -20 68 -17 59 4 68 7 97 38 28 31 36 34 66 29 29 -6 36 -3 51
22 10 15 86 94 170 175 83 81 149 147 146 147 -3 0 -44 -37 -92 -82z"/>
<path d="M3010 1521 c0 -5 5 -13 10 -16 6 -3 10 -13 10 -22 0 -14 -3 -14 -25
1 -13 9 -26 16 -28 16 -2 0 -3 -37 -3 -82 -1 -46 -4 -115 -9 -154 -6 -57 -4
-82 10 -125 10 -30 22 -58 28 -64 7 -7 8 -5 5 5 -36 104 -33 235 8 325 32 69
37 118 12 123 -10 2 -18 -1 -18 -7z"/>
<path d="M3619 1507 c5 -5 19 -7 32 -5 20 3 19 5 -9 9 -20 3 -29 2 -23 -4z"/>
<path d="M2328 1470 c-26 -68 -37 -126 -31 -168 8 -60 -67 -321 -103 -356 -10
-11 -14 -40 -13 -113 l1 -98 13 80 c7 44 36 142 64 218 80 214 102 310 93 404
l-7 78 -17 -45z"/>
<path d="M1646 1473 c-3 -10 -9 -24 -12 -30 -3 -8 1 -13 10 -13 11 0 16 9 16
30 0 34 -5 38 -14 13z"/>
<path d="M2077 1463 c-49 -31 -57 -51 -28 -75 61 -48 112 -1 78 73 l-12 27
-38 -25z"/>
<path d="M3713 1483 c-21 -8 -15 -50 10 -79 19 -22 29 -26 51 -20 l28 7 -25
20 c-14 10 -28 33 -32 49 -7 30 -10 33 -32 23z"/>
<path d="M1208 1431 c-3 -39 -2 -41 24 -41 36 0 38 28 4 59 l-24 22 -4 -40z"/>
<path d="M1573 1368 c-7 -8 -8 -37 -4 -76 l6 -63 61 68 c51 57 57 68 40 69
-12 0 -37 4 -57 8 -25 5 -38 4 -46 -6z"/>
<path d="M1220 1360 c-8 -5 -22 -11 -31 -13 -9 -3 -25 -24 -36 -46 l-21 -41
47 42 c25 23 50 48 54 55 9 15 8 15 -13 3z"/>
<path d="M1990 1366 c0 -2 8 -10 18 -17 15 -13 16 -12 3 4 -13 16 -21 21 -21
13z"/>
<path d="M3816 1344 c-15 -9 -39 -14 -52 -11 -20 3 -22 2 -12 -10 6 -8 18 -11
26 -8 8 3 21 0 29 -7 12 -10 18 -7 34 12 32 42 24 50 -25 24z"/>
<path d="M2764 1315 c-23 -35 -15 -58 24 -66 27 -5 30 -4 21 7 -10 13 -6 18
13 15 4 0 0 15 -9 34 -20 41 -27 43 -49 10z"/>
<path d="M1496 1308 c-11 -16 -13 -25 -4 -35 19 -23 38 -15 38 16 0 39 -15 47
-34 19z"/>
<path d="M2078 1314 c17 -12 22 -25 22 -62 0 -53 -19 -88 -56 -102 -33 -13
-30 -26 7 -34 45 -9 46 -9 57 22 17 46 23 93 16 144 -6 46 -8 48 -38 48 -30 0
-30 0 -8 -16z"/>
<path d="M3486 1288 c-10 -39 -8 -54 6 -40 31 31 60 13 190 -115 71 -70 139
-143 151 -161 44 -66 197 -154 197 -113 0 5 -9 7 -19 4 -12 -3 -33 7 -57 29
-22 19 -48 41 -60 49 -11 8 -50 48 -87 90 -61 70 -164 163 -272 247 -42 32
-43 32 -49 10z"/>
<path d="M3871 1276 c-9 -11 -10 -20 -1 -35 14 -28 15 -27 15 14 0 40 1 39
-14 21z"/>
<path d="M2476 1237 c-25 -21 -27 -26 -17 -46 12 -22 12 -22 42 15 16 20 29
41 29 45 0 16 -24 9 -54 -14z"/>
<path d="M2830 1250 c0 -8 5 -22 10 -30 9 -13 10 -13 10 0 0 8 -5 22 -10 30
-9 13 -10 13 -10 0z"/>
<path d="M3012 1235 c0 -16 2 -22 5 -12 2 9 2 23 0 30 -3 6 -5 -1 -5 -18z"/>
<path d="M1099 1223 l-24 -28 28 24 c15 14 27 26 27 28 0 8 -8 1 -31 -24z"/>
<path d="M3816 1195 c15 -27 52 -88 83 -135 50 -76 56 -82 59 -58 2 14 -7 49
-18 77 -12 27 -19 54 -16 60 4 5 -15 19 -41 31 -27 12 -59 33 -71 48 -22 25
-21 23 4 -23z"/>
<path d="M3030 1175 c22 -30 50 -57 50 -47 0 4 -14 21 -32 38 -18 16 -26 20
-18 9z"/>
<path d="M1160 1170 c-9 -6 -10 -10 -3 -10 6 0 15 5 18 10 8 12 4 12 -15 0z"/>
<path d="M2840 1111 c0 -5 15 -12 34 -15 20 -4 57 -27 90 -56 72 -63 84 -64
26 -4 -56 57 -150 105 -150 75z"/>
<path d="M3982 1106 c1 -10 8 -17 13 -17 15 1 12 24 -3 29 -9 3 -13 -2 -10
-12z"/>
<path d="M3640 1070 c-15 -28 -10 -32 14 -14 15 10 17 17 9 25 -8 8 -14 5 -23
-11z"/>
<path d="M3061 1054 c0 -11 3 -14 6 -6 3 7 2 16 -1 19 -3 4 -6 -2 -5 -13z"/>
<path d="M2077 1013 c3 -24 -1 -45 -10 -57 -13 -17 -11 -22 16 -46 18 -16 33
-42 38 -66 6 -29 7 -16 5 51 -1 61 -8 100 -19 123 -23 43 -36 41 -30 -5z"/>
<path d="M3046 1013 c-6 -14 -5 -15 5 -6 7 7 10 15 7 18 -3 3 -9 -2 -12 -12z"/>
<path d="M2457 1003 c-47 -5 -66 -37 -47 -74 l13 -23 29 34 c25 30 54 73 46
68 -2 -1 -20 -3 -41 -5z"/>
<path d="M3991 994 c0 -11 3 -14 6 -6 3 7 2 16 -1 19 -3 4 -6 -2 -5 -13z"/>
<path d="M3880 996 c0 -2 8 -10 18 -17 15 -13 16 -12 3 4 -13 16 -21 21 -21
13z"/>
<path d="M4001 955 c0 -21 28 -78 29 -59 0 7 -7 27 -15 45 -10 24 -14 28 -14
14z"/>
<path d="M2331 906 c-16 -19 -14 -21 17 -30 25 -8 28 2 9 28 -12 16 -14 16
-26 2z"/>
<path d="M2265 810 c-14 -16 -22 -42 -26 -94 -3 -39 -5 -72 -4 -73 2 -3 10 14
34 67 6 14 16 32 23 41 8 12 9 27 2 49 l-9 32 -20 -22z"/>
<path d="M2340 822 c0 -5 9 -17 20 -27 19 -17 21 -17 41 1 19 17 19 19 2 25
-25 11 -63 11 -63 1z"/>
<path d="M2120 771 c0 -12 6 -21 15 -21 8 0 15 4 15 9 0 5 -7 14 -15 21 -13
10 -15 9 -15 -9z"/>
<path d="M2192 710 c0 -14 2 -19 5 -12 2 6 2 18 0 25 -3 6 -5 1 -5 -13z"/>
<path d="M2347 698 c-31 -23 -51 -54 -42 -68 3 -6 22 11 41 36 20 25 34 47 32
49 -2 2 -15 -6 -31 -17z"/>
<path d="M2117 701 c-17 -6 -16 -8 7 -19 16 -7 35 -30 46 -54 l20 -43 -6 35
c-7 40 -31 90 -42 89 -4 0 -15 -4 -25 -8z"/>
<path d="M2212 575 c0 -16 2 -22 5 -12 2 9 2 23 0 30 -3 6 -5 -1 -5 -18z"/>
<path d="M2171 562 c-1 -26 35 -102 48 -102 15 0 62 61 55 72 -4 5 -13 -4 -21
-21 -9 -17 -21 -31 -27 -31 -12 0 -42 51 -49 85 -4 18 -5 17 -6 -3z"/>
</g>
</svg>