<?xml version="1.0" standalone="no"?>
<!DOCTYPE svg PUBLIC "-//W3C//DTD SVG 20010904//EN"
 "http://www.w3.org/TR/2001/REC-SVG-20010904/DTD/svg10.dtd">
<svg version="1.0" xmlns="http://www.w3.org/2000/svg"
 width="512.000000pt" height="512.000000pt" viewBox="0 0 512.000000 512.000000"
 preserveAspectRatio="xMidYMid meet">
<metadata>
Created by potrace 1.16, written by Peter Selinger 2001-2019
</metadata>
<g transform="translate(0.000000,512.000000) scale(0.100000,-0.100000)"
fill="#B7DBE5" stroke="none">
<path d="M2866 5053 c-6 -14 -5 -15 5 -6 7 7 10 15 7 18 -3 3 -9 -2 -12 -12z"/>
<path d="M2722 4650 c0 -14 2 -19 5 -12 2 6 2 18 0 25 -3 6 -5 1 -5 -13z"/>
<path d="M2705 4538 c-4 -46 -5 -95 -3 -108 2 -14 7 21 12 78 4 57 6 106 3
109 -3 2 -8 -33 -12 -79z"/>
<path d="M2681 4309 c0 -86 -3 -239 -5 -340 -2 -101 -2 -166 0 -144 10 101 20
536 14 585 -5 40 -8 11 -9 -101z"/>
<path d="M2734 4265 c0 -99 2 -138 3 -87 2 51 2 132 0 180 -1 48 -3 6 -3 -93z"/>
<path d="M2520 4320 c0 -5 5 -10 11 -10 5 0 7 5 4 10 -3 6 -8 10 -11 10 -2 0
-4 -4 -4 -10z"/>
<path d="M2356 4225 c-29 -44 4 -87 48 -63 27 15 18 24 -19 20 -38 -5 -48 15
-20 38 13 10 19 9 37 -6 l22 -19 -15 24 c-22 35 -34 36 -53 6z"/>
<path d="M2924 4100 c0 -69 1 -97 3 -62 2 34 2 90 0 125 -2 34 -3 6 -3 -63z"/>
<path d="M2303 4088 c-50 -55 -60 -139 -20 -176 39 -37 72 -38 107 -4 30 30
39 65 20 77 -5 3 -6 13 -3 23 4 12 3 14 -5 7 -6 -5 -12 -23 -14 -40 -2 -24 -9
-30 -38 -36 -19 -4 -42 -3 -52 2 -38 21 -31 95 13 135 19 17 21 16 49 -11 16
-15 27 -33 23 -38 -3 -6 -1 -7 5 -3 7 4 12 9 12 11 0 8 -62 75 -69 75 -4 0
-17 -10 -28 -22z m-12 -165 c13 -16 12 -17 -3 -4 -10 7 -18 15 -18 17 0 8 8 3
21 -13z"/>
<path d="M2743 3920 c0 -47 2 -66 4 -42 2 23 2 61 0 85 -2 23 -4 4 -4 -43z"/>
<path d="M3487 3971 c-44 -75 13 -155 78 -107 37 27 7 127 -41 134 -12 2 -25
-8 -37 -27z m60 -3 c28 -26 29 -49 4 -72 -23 -21 -49 -18 -65 6 -8 14 -6 26 8
53 11 19 22 35 24 35 3 0 16 -10 29 -22z"/>
<path d="M2710 3915 c-1 -177 63 -494 92 -453 7 9 8 6 5 -10 -3 -12 -2 -20 2
-17 4 2 15 -14 25 -35 30 -68 195 -280 218 -280 6 0 -7 17 -28 38 -115 111
-189 239 -235 407 -18 63 -20 32 -3 -35 5 -17 4 -22 -4 -15 -17 16 -43 171
-49 295 -5 112 -22 189 -23 105z"/>
<path d="M2863 3907 c-18 -22 -18 -22 3 -4 21 18 22 17 43 -9 25 -32 26 -38 6
-54 -22 -18 -63 -4 -68 23 -3 17 -5 15 -6 -8 -1 -36 14 -55 44 -55 23 0 55 28
55 49 0 18 -32 69 -46 75 -7 3 -20 -5 -31 -17z"/>
<path d="M2446 3778 c-22 -31 -20 -45 2 -18 21 26 42 20 42 -11 0 -15 -7 -19
-32 -19 -24 0 -29 -3 -21 -11 7 -7 23 -9 37 -5 32 8 35 45 7 70 -18 16 -20 16
-35 -6z"/>
<path d="M2753 3745 c0 -22 2 -30 4 -17 2 12 2 30 0 40 -3 9 -5 -1 -4 -23z"/>
<path d="M2674 3680 c0 -52 1 -74 3 -47 2 26 2 68 0 95 -2 26 -3 4 -3 -48z"/>
<path d="M2762 3665 c0 -16 2 -22 5 -12 2 9 2 23 0 30 -3 6 -5 -1 -5 -18z"/>
<path d="M2682 3550 c0 -19 2 -27 5 -17 2 9 2 25 0 35 -3 9 -5 1 -5 -18z"/>
<path d="M2466 3545 c-9 -26 -7 -32 5 -12 6 10 9 21 6 23 -2 3 -7 -2 -11 -11z"/>
<path d="M3085 3540 c-15 -16 -15 -22 -5 -35 14 -17 36 -20 44 -6 4 5 -2 7
-13 4 -10 -3 -22 0 -26 7 -8 14 14 42 27 34 6 -4 5 -10 -3 -15 -11 -7 -10 -9
4 -9 20 0 22 13 4 29 -11 8 -18 6 -32 -9z"/>
<path d="M2368 3513 c7 -3 16 -2 19 1 4 3 -2 6 -13 5 -11 0 -14 -3 -6 -6z"/>
<path d="M2196 3501 c-3 -5 2 -8 11 -7 9 0 18 -5 20 -11 3 -8 -4 -13 -17 -13
-12 0 -18 -4 -15 -10 15 -24 49 0 40 29 -6 21 -29 28 -39 12z"/>
<path d="M2446 3495 c-9 -26 -7 -32 5 -12 6 10 9 21 6 23 -2 3 -7 -2 -11 -11z"/>
<path d="M2691 3497 c-2 -37 31 -160 40 -146 4 7 4 16 0 19 -5 3 -16 37 -24
75 -8 39 -15 62 -16 52z"/>
<path d="M2912 3461 c2 -7 7 -12 11 -12 12 1 9 15 -3 20 -7 2 -11 -2 -8 -8z"/>
<path d="M2398 3387 c-15 -29 -39 -72 -53 -97 -18 -31 -20 -37 -6 -20 25 30
95 160 89 165 -2 3 -16 -19 -30 -48z"/>
<path d="M2401 3272 c-35 -70 -78 -149 -95 -177 -18 -27 -63 -96 -100 -153
-83 -130 -128 -217 -157 -312 -47 -149 -23 -326 64 -480 45 -80 158 -189 242
-232 247 -128 477 -100 667 80 122 115 167 206 174 347 2 65 1 83 -6 65 -8
-20 -9 -16 -6 23 2 26 0 49 -4 52 -4 2 -6 17 -4 32 2 16 1 22 -2 14 -4 -8 -17
15 -34 57 -32 83 -95 200 -160 297 -82 124 -79 130 7 10 59 -83 133 -205 133
-219 0 -5 3 -7 6 -4 3 4 -1 19 -10 36 -8 16 -12 32 -9 36 4 3 1 6 -6 6 -7 0
-9 5 -5 12 4 7 3 8 -4 4 -11 -7 -17 6 -13 27 1 5 -4 5 -10 1 -9 -5 -10 -2 -6
10 4 10 1 19 -8 22 -8 4 -12 10 -9 15 3 5 -2 12 -10 15 -9 3 -13 11 -9 17 3 6
1 7 -5 3 -11 -7 -17 6 -13 27 1 5 -3 6 -9 2 -9 -6 -14 8 -11 28 1 5 -3 6 -9 2
-9 -6 -14 8 -11 28 1 5 -3 6 -9 2 -9 -6 -14 8 -11 28 1 5 -3 6 -8 3 -9 -6 -26
22 -22 37 1 5 -3 6 -9 2 -6 -3 -7 -11 -4 -17 5 -7 2 -8 -5 -4 -7 5 -10 14 -7
22 3 8 -3 23 -13 33 -11 11 -17 22 -13 25 3 3 0 6 -7 6 -7 0 -9 5 -6 10 3 6 1
10 -5 10 -6 0 -8 5 -5 10 3 6 1 10 -5 10 -6 0 -8 5 -5 10 3 6 2 10 -3 10 -5 0
-17 18 -27 40 -10 22 -22 37 -28 33 -6 -4 -8 0 -4 10 8 22 -2 49 -16 40 -7 -4
-8 0 -3 13 5 14 4 16 -4 8 -14 -14 17 -97 32 -88 6 4 8 -2 3 -17 -3 -14 -3
-19 2 -12 6 8 34 -38 81 -130 40 -78 106 -204 146 -279 40 -76 87 -182 105
-236 29 -86 33 -109 29 -178 -4 -80 -31 -160 -72 -209 -15 -18 -15 -16 1 15
12 26 18 64 19 145 l3 110 -14 -96 c-21 -147 -51 -210 -143 -301 -100 -99
-164 -131 -277 -134 l-80 -3 70 9 c63 7 185 50 185 65 0 3 -15 -2 -32 -12 -49
-25 -190 -30 -264 -8 -151 44 -282 142 -376 280 -54 81 -80 157 -82 244 -1 48
-6 76 -14 79 -19 6 -14 21 6 15 15 -3 19 1 19 24 0 36 21 88 100 238 125 239
279 563 271 571 -2 1 -32 -54 -67 -124z m-324 -754 c-3 -8 -6 -5 -6 6 -1 11 2
17 5 13 3 -3 4 -12 1 -19z m-7 -46 c0 -13 -4 -20 -10 -17 -5 3 -10 21 -10 38
0 24 3 28 10 17 5 -8 10 -25 10 -38z m-13 -94 c-3 -7 -5 -2 -5 12 0 14 2 19 5
13 2 -7 2 -19 0 -25z m10 -50 c-3 -8 -6 -5 -6 6 -1 11 2 17 5 13 3 -3 4 -12 1
-19z"/>
<path d="M2735 3329 c-4 -6 -5 -12 -2 -15 2 -3 7 2 10 11 7 17 1 20 -8 4z"/>
<path d="M2250 3320 c13 -8 12 -10 -2 -10 -10 0 -18 -4 -18 -10 0 -14 16 -12
29 3 11 14 5 27 -13 27 -6 0 -4 -5 4 -10z"/>
<path d="M3110 3298 c-27 -45 -27 -104 1 -118 11 -7 31 -9 44 -6 61 15 74 79
26 127 -37 37 -47 36 -71 -3z m63 -6 c27 -23 20 -47 -18 -65 -20 -9 -40 -17
-45 -17 -16 0 -11 49 7 80 17 29 24 29 56 2z"/>
<path d="M2254 3245 c-7 -17 4 -37 17 -30 12 8 12 45 -1 45 -6 0 -13 -7 -16
-15z"/>
<path d="M2164 3134 c0 -9 -5 -19 -13 -22 -10 -3 -12 0 -8 12 4 10 3 15 -3 11
-15 -9 -12 -32 4 -38 7 -3 19 0 25 6 13 13 15 47 2 47 -5 0 -8 -7 -7 -16z"/>
<path d="M3103 3110 c0 -25 2 -35 4 -22 2 12 2 32 0 45 -2 12 -4 2 -4 -23z"/>
<path d="M3139 3005 c5 -11 17 -29 26 -40 l16 -20 -10 20 c-5 11 -17 29 -26
40 l-16 20 10 -20z"/>
<path d="M3130 2655 c0 -5 5 -17 10 -25 5 -8 10 -10 10 -5 0 6 -5 17 -10 25
-5 8 -10 11 -10 5z"/>
<path d="M3151 2594 c0 -11 3 -14 6 -6 3 7 2 16 -1 19 -3 4 -6 -2 -5 -13z"/>
<path d="M3081 2464 c0 -11 3 -14 6 -6 3 7 2 16 -1 19 -3 4 -6 -2 -5 -13z"/>
<path d="M2889 2003 c-13 -16 -12 -17 4 -4 16 13 21 21 13 21 -2 0 -10 -8 -17
-17z"/>
<path d="M2405 1729 c-32 -39 -32 -74 0 -95 53 -35 100 17 70 79 -22 48 -39
52 -70 16z m55 -10 c17 -32 5 -49 -35 -49 -39 0 -44 13 -19 48 19 28 40 28 54
1z m-8 -81 c-17 -8 -26 -8 -34 0 -9 9 -4 12 23 11 32 0 33 -1 11 -11z"/>
<path d="M2598 1615 c-24 -33 -23 -43 2 -14 l20 24 20 -24 c24 -28 26 -20 4
14 -20 31 -24 31 -46 0z"/>
<path d="M2570 1553 c0 -13 10 -29 25 -39 23 -15 27 -15 50 0 15 10 25 25 24
39 -1 17 -2 18 -6 5 -3 -13 -14 -18 -38 -18 -22 0 -38 6 -44 18 -9 15 -10 15
-11 -5z m41 -31 c-7 -2 -18 1 -23 6 -8 8 -4 9 13 5 13 -4 18 -8 10 -11z"/>
<path d="M2691 859 c-32 -43 -48 -111 -37 -155 4 -15 20 -39 36 -55 70 -71
182 -6 163 93 -13 71 -76 158 -113 158 -12 0 -32 -17 -49 -41z m94 -14 c19
-19 36 -49 40 -66 10 -43 -22 -68 -86 -69 -59 0 -74 16 -66 71 5 39 48 99 70
99 5 0 24 -16 42 -35z m-30 -185 c15 0 35 5 46 10 23 13 25 3 2 -22 -21 -24
-64 -23 -97 3 -33 26 -34 47 -1 25 13 -9 36 -16 50 -16z"/>
</g>
</svg>