<?xml version="1.0" encoding="UTF-8" standalone="no"?>
<svg
   version="1.0"
   width="512pt"
   height="412.59122pt"
   viewBox="0 0 512 412.59122"
   preserveAspectRatio="xMidYMid"
   id="svg44"
   xmlns="http://www.w3.org/2000/svg"
   xmlns:svg="http://www.w3.org/2000/svg">
  <defs
     id="defs44" />
  <metadata
     id="metadata1">
Created by potrace 1.16, written by Peter Selinger 2001-2019
</metadata>
  <g
     transform="matrix(0.1,0,0,-0.1,0,463.59125)"
     fill="#fffafa"
     stroke="none"
     id="g44">
    <path
       d="m 3447,4626 c -74,-27 -117,-90 -117,-170 0,-27 -5,-46 -11,-46 -22,0 -67,-41 -84,-77 -10,-21 -18,-58 -17,-84 1,-46 0,-47 -33,-53 -47,-9 -81,-39 -101,-91 -24,-63 -14,-122 25,-157 l 30,-27 -46,-7 c -58,-8 -110,-52 -119,-100 -3,-19 -10,-37 -15,-40 -5,-3 -9,-26 -9,-52 0,-49 27,-108 55,-118 11,-5 12,-11 5,-24 -14,-26 -12,-63 4,-85 12,-16 12,-22 -1,-42 -8,-12 -13,-33 -11,-46 1,-13 -5,-32 -15,-41 -21,-21 -21,-30 -2,-50 17,-17 22,-161 5,-171 -5,-3 -10,-17 -10,-30 0,-13 5,-27 10,-30 6,-3 10,-53 10,-113 v -107 l -18,35 c -16,32 -21,35 -59,34 -29,0 -43,4 -43,12 0,7 -8,17 -17,23 -15,8 -15,13 -5,36 20,44 14,64 -34,110 -48,48 -77,55 -110,30 -18,-14 -17,-14 9,-4 36,16 82,-3 74,-31 -3,-11 0,-17 7,-14 6,2 20,-2 30,-9 24,-17 25,-62 4,-105 -15,-29 -15,-31 5,-34 42,-6 28,-25 -24,-32 -40,-6 -56,-4 -67,8 -12,12 -13,18 -3,29 9,12 8,15 -6,13 -10,0 -22,9 -28,22 -5,12 -19,22 -30,22 -43,0 -58,39 -28,72 13,15 14,18 1,18 -45,0 -76,90 -42,124 21,22 33,20 44,-6 5,-13 9,-18 9,-12 1,7 -6,27 -14,45 -8,19 -14,28 -15,21 0,-7 -12,-23 -27,-36 -36,-31 -37,-85 -3,-121 18,-19 24,-35 21,-61 -2,-30 1,-36 28,-47 17,-7 44,-31 61,-53 23,-31 28,-46 24,-71 -4,-23 -2,-33 6,-33 10,0 11,-17 7,-69 -3,-39 -3,-71 1,-73 4,-2 5,-81 4,-175 l -4,-173 h -33 c -29,0 -34,-4 -37,-27 -3,-26 -7,-28 -78,-38 -59,-8 -76,-14 -78,-28 -2,-9 4,-20 12,-23 14,-5 16,-28 16,-144 v -139 l -27,-3 c -38,-4 -45,-38 -9,-38 21,0 26,-5 26,-25 0,-24 -2,-25 -42,-19 -24,3 -48,7 -54,9 -13,4 -20,95 -33,405 -8,185 -8,195 10,208 31,22 19,122 -16,122 -13,0 -15,30 -15,228 0,161 3,231 12,240 9,9 8,16 -5,30 -21,23 -22,65 -1,82 25,22 13,63 -23,80 -24,11 -33,22 -33,40 0,35 -26,128 -40,145 -8,10 -5,22 15,51 22,32 25,45 20,88 -7,75 -8,76 -16,76 -4,0 6,13 22,29 16,16 29,36 29,45 0,25 -21,64 -38,71 -13,5 -13,3 1,-13 32,-36 11,-112 -31,-112 -16,0 -15,-11 3,-34 23,-30 19,-118 -6,-150 -26,-33 -43,-34 -35,-2 8,33 -5,64 -47,107 -27,28 -34,42 -30,62 3,16 -3,43 -16,68 -25,48 -21,86 12,117 32,30 71,37 107,19 31,-16 43,-5 13,12 -16,9 -15,13 15,44 24,25 32,41 29,58 -4,24 -4,24 -6,-2 -1,-34 -59,-89 -94,-89 -61,0 -107,-46 -107,-107 v -27 l -30,34 c -20,25 -29,46 -30,71 0,22 -9,48 -22,64 -20,25 -25,27 -72,21 -28,-3 -56,-2 -62,2 -6,4 -15,25 -18,48 -8,45 -47,94 -75,94 -10,0 -26,9 -35,19 -27,30 -83,53 -130,53 -59,0 -113,-25 -158,-74 l -38,-42 6,32 c 9,47 -20,117 -63,149 -26,20 -50,28 -91,31 -75,5 -112,-20 -159,-108 -28,-53 -33,-72 -29,-102 7,-43 8,-43 -30,-23 -43,22 -119,19 -165,-7 -80,-45 -118,-151 -91,-251 9,-32 8,-37 -9,-42 -10,-3 -34,-24 -53,-47 -37,-43 -52,-97 -41,-148 9,-40 65,-98 102,-106 20,-4 33,-15 40,-35 6,-16 25,-37 42,-46 20,-12 31,-26 31,-41 0,-12 7,-39 15,-59 14,-33 14,-38 0,-45 -24,-14 -18,-45 15,-80 l 30,-31 -2,-136 -2,-136 -6,110 -6,110 -2,-150 c -3,-187 -15,-464 -44,-982 l -22,-402 -55,-6 c -31,-3 -71,-7 -89,-10 l -32,-4 v 55 54 h 43 c 24,0 52,6 62,14 18,13 18,14 -3,25 -11,6 -39,11 -61,11 -33,0 -40,4 -44,23 l -4,22 -2,-22 c -1,-22 -5,-23 -96,-23 h -95 v 119 c 0,74 4,122 11,126 6,4 8,13 5,21 -3,7 4,19 15,24 11,6 24,22 29,36 7,18 17,24 40,24 38,0 80,39 80,75 0,18 5,25 19,25 24,0 61,45 61,75 0,27 -36,75 -56,75 -8,0 -19,12 -24,26 -9,22 -6,31 20,60 31,35 39,68 19,79 -6,4 -7,19 -4,36 6,24 1,34 -23,58 -38,34 -46,87 -18,115 14,14 17,27 13,54 -7,39 -51,92 -79,92 -9,0 -22,9 -28,20 -15,29 -57,25 -113,-10 -33,-21 -49,-39 -53,-58 -4,-21 -14,-31 -37,-38 -43,-12 -63,-53 -45,-91 7,-15 26,-34 41,-41 22,-11 26,-18 21,-38 -3,-13 -1,-31 5,-38 10,-11 8,-16 -7,-20 -27,-9 -45,-52 -32,-76 13,-24 41,-40 72,-40 31,0 59,-50 51,-90 -3,-19 -12,-30 -23,-30 -9,0 -27,-11 -40,-25 -18,-19 -23,-35 -22,-68 2,-43 2,-43 -28,-39 -39,6 -60,-12 -60,-51 0,-22 11,-40 42,-70 l 43,-41 3,-137 4,-137 -48,-7 c -63,-10 -84,-21 -84,-45 0,-24 30,-44 90,-61 40,-12 42,-14 18,-17 -24,-3 -27,-8 -30,-45 l -3,-42 -70,-6 -70,-5 68,-2 67,-2 v -50 -50 l -43,1 c -24,1 -49,-1 -55,-5 -9,-5 -12,-65 -12,-202 V 930 h -33 c -32,0 -32,1 -29,41 3,22 -1,46 -7,52 -7,7 -12,62 -13,142 -2,98 -3,110 -5,47 -3,-60 -7,-82 -16,-79 -8,2 -13,43 -15,135 l -3,131 26,7 c 14,3 25,10 25,14 0,16 -31,40 -52,40 -16,0 -19,5 -16,24 3,16 0,27 -10,31 -9,3 -13,14 -10,30 3,13 0,26 -7,28 -13,6 -8,-50 6,-59 17,-10 9,-46 -13,-64 -18,-14 -20,-21 -10,-32 12,-15 17,-244 5,-274 -3,-8 -14,-14 -24,-14 -21,0 -24,-11 -8,-27 9,-9 -2,-18 -40,-37 -28,-15 -51,-31 -51,-36 0,-14 5,-13 50,10 22,11 42,20 45,20 3,0 5,-79 5,-175 V 710 H 50 0 V 610 510 h 2555 c 1697,0 2555,3 2555,10 0,7 -740,10 -2201,10 -2145,0 -2203,0 -2277,19 -43,11 -117,27 -167,36 -49,10 -96,20 -103,24 -32,18 320,21 2457,23 1264,1 2128,5 1966,9 -159,4 -1243,7 -2407,7 H 261 l -27,21 -27,21 h 2457 c 2176,0 2456,2 2456,15 0,8 -5,15 -11,15 -7,0 -10,42 -8,127 l 2,128 -54,16 -54,16 -3,54 c -2,29 -8,56 -13,60 -5,3 -12,94 -16,206 l -6,201 24,5 c 13,2 4,4 -21,4 -25,1 -37,-1 -27,-4 16,-4 17,-25 17,-259 v -254 l -27,6 c -43,10 -43,11 -43,79 0,59 -1,63 -21,58 -17,-5 -20,-2 -17,13 2,10 10,18 16,17 21,-5 13,19 -8,24 -18,5 -20,14 -20,79 0,68 -2,74 -21,74 -20,0 -20,2 -18,287 l 3,288 -35,3 c -19,2 -43,-4 -54,-11 -17,-13 -18,-18 -7,-41 17,-38 17,-345 0,-351 -7,-2 -53,-7 -103,-12 l -90,-8 60,-6 c 55,-5 53,-6 -30,-6 -49,-1 -164,-8 -255,-16 -188,-18 -299,-21 -285,-8 6,4 118,16 250,26 249,17 372,36 217,32 l -82,-2 v 150 c 0,117 3,155 15,172 13,19 13,21 -8,27 -42,11 -102,6 -143,-13 -48,-22 -60,-36 -39,-45 12,-4 15,-31 15,-154 v -149 l -37,-6 c -20,-4 -38,-5 -40,-4 -1,2 -5,117 -9,257 -6,230 -5,256 9,269 19,15 22,46 7,56 -6,4 2,21 20,41 16,19 30,45 30,57 0,16 9,26 30,34 17,6 32,21 35,35 3,13 16,28 28,33 29,13 48,52 37,80 -6,16 -4,27 8,39 10,9 17,32 17,55 0,34 -7,46 -53,91 -52,51 -135,89 -168,76 -9,-3 -14,1 -14,13 0,10 -9,26 -20,36 -24,21 -26,51 -5,71 32,33 31,98 -3,132 -9,9 -22,29 -29,44 -25,55 -102,46 -128,-15 -14,-33 -41,-62 -87,-90 -16,-10 -28,-24 -28,-32 0,-7 -9,-17 -20,-20 -34,-11 -50,-35 -50,-77 0,-32 6,-46 31,-69 17,-16 35,-29 41,-29 5,0 0,-12 -11,-26 -25,-31 -26,-55 -7,-93 16,-29 53,-51 90,-51 18,0 25,-7 30,-30 3,-18 15,-34 29,-41 12,-6 24,-20 24,-32 1,-12 10,-28 20,-35 17,-12 17,-14 1,-23 -21,-11 -24,-49 -6,-67 10,-10 9,-18 -4,-40 -20,-33 -20,-118 -1,-133 9,-8 13,-41 13,-119 0,-104 -1,-107 -25,-118 -15,-7 -25,-20 -25,-32 0,-18 -6,-20 -60,-20 h -60 v 290 c 0,187 4,290 10,290 27,0 3,22 -66,60 -70,38 -79,41 -128,35 l -53,-7 -6,114 c -4,62 -7,240 -7,394 0,238 2,283 15,294 8,7 15,21 15,32 0,10 -7,21 -15,24 -28,11 -14,140 16,149 11,4 22,17 25,31 4,14 13,24 24,24 9,0 25,9 35,20 18,19 18,19 46,-4 67,-57 171,-59 247,-6 33,23 53,30 90,30 103,0 213,89 227,183 7,45 4,43 117,112 71,44 105,88 117,149 15,80 -9,142 -65,172 -18,10 -37,28 -43,40 -5,13 -21,30 -34,39 -18,11 -27,29 -32,60 -14,98 -113,179 -217,180 -64,0 -99,-19 -133,-73 -16,-25 -26,-31 -52,-29 -25,2 -35,8 -44,29 -28,68 -121,119 -187,104 -53,-13 -56,-12 -63,23 -20,94 -129,151 -222,117 z m 104,-16 c 47,-13 86,-55 103,-113 12,-40 12,-48 0,-58 -33,-27 -10,-26 28,1 48,35 92,39 146,11 40,-20 78,-77 85,-126 3,-17 10,-29 17,-27 27,6 98,-48 119,-90 11,-24 21,-36 21,-28 -1,35 -46,95 -87,115 -23,11 -42,23 -43,28 0,7 49,12 79,7 9,-1 12,4 7,15 -9,25 11,53 54,75 66,34 137,20 202,-38 46,-41 68,-85 68,-134 0,-27 6,-36 33,-48 25,-12 34,-24 44,-60 6,-25 12,-37 12,-27 1,24 18,21 46,-7 25,-25 46,-84 40,-113 -2,-10 -6,-30 -10,-45 -11,-55 -95,-128 -146,-128 -11,0 -30,-11 -41,-25 -11,-14 -24,-23 -29,-20 -5,4 -9,-12 -9,-35 0,-74 -57,-153 -132,-184 -45,-19 -118,-21 -118,-4 0,7 -12,0 -26,-16 -72,-77 -196,-86 -266,-19 -33,32 -37,51 -6,29 12,-9 27,-16 32,-16 6,0 -1,7 -14,16 -14,10 -30,23 -36,31 -9,11 -13,7 -17,-16 -6,-30 -51,-70 -64,-57 -4,4 2,9 13,12 14,4 20,14 21,37 2,26 0,28 -7,12 -4,-11 -18,-28 -29,-37 -12,-10 -21,-26 -21,-36 0,-25 -28,-62 -44,-56 -9,3 -11,-3 -8,-25 3,-26 0,-30 -27,-36 -26,-5 -31,-11 -31,-35 v -28 l -92,-4 c -61,-3 -96,-1 -101,6 -4,6 -4,40 -1,76 4,36 8,94 9,130 2,36 3,70 4,77 0,6 15,26 33,43 26,27 32,39 29,70 -1,21 4,52 13,68 16,31 48,50 54,33 6,-17 22,-2 22,19 0,22 61,77 96,86 14,4 43,4 65,1 47,-6 43,10 -6,19 -23,4 -35,13 -38,27 -7,26 5,94 20,122 33,60 105,89 163,65 l 30,-12 -20,-25 c -29,-37 -24,-50 5,-14 56,65 145,65 221,-2 49,-43 47,-22 -3,25 -39,37 -103,54 -149,40 -27,-8 -43,-7 -69,4 -91,37 -191,-8 -210,-95 -6,-27 -8,-27 -58,-23 -47,4 -57,1 -86,-24 -54,-45 -77,-126 -50,-175 8,-16 5,-30 -12,-65 -14,-31 -20,-56 -16,-79 4,-26 0,-38 -19,-56 -27,-25 -48,-88 -38,-113 4,-9 3,-16 -2,-14 -21,5 -54,-15 -54,-33 0,-11 -11,-24 -26,-31 -22,-10 -28,-10 -40,6 -12,17 -13,17 -11,-9 1,-16 -4,-30 -13,-35 -39,-20 -68,-29 -100,-32 -31,-3 -35,0 -38,22 -2,17 6,34 23,50 14,13 25,33 25,45 0,28 18,45 49,45 23,1 24,2 8,11 -28,16 -57,1 -65,-34 -3,-18 -5,-36 -3,-42 1,-5 -7,-1 -18,9 -25,23 -27,63 -4,96 10,14 16,39 15,60 -3,42 33,90 68,90 13,0 20,7 20,18 0,30 22,42 76,42 64,0 84,17 83,68 l -1,37 -8,-39 c -9,-48 -24,-58 -77,-51 -37,5 -46,3 -68,-19 -14,-14 -39,-33 -55,-41 -38,-20 -64,-69 -56,-106 7,-38 -15,-39 -43,-3 -30,38 -37,89 -17,119 9,13 16,31 16,40 0,46 66,95 129,95 16,0 31,6 35,15 10,28 26,15 21,-17 l -5,-33 13,35 14,35 -35,6 c -46,8 -71,43 -72,97 0,54 22,97 63,122 43,27 73,25 109,-5 16,-14 37,-25 46,-24 14,0 13,2 -3,8 -73,30 -91,143 -35,214 29,37 111,62 153,48 23,-8 29,-9 20,0 -6,6 -29,13 -52,16 -40,6 -41,6 -41,45 0,62 42,123 100,147 33,13 57,13 101,1 z M 1403,4241 c 29,-17 67,-83 67,-119 0,-27 -8,-28 -26,-4 -12,15 -12,15 -7,-5 3,-13 9,-23 13,-23 4,0 13,-14 20,-30 10,-24 10,-37 1,-56 -6,-14 -11,-37 -10,-52 1,-25 2,-24 9,7 12,51 44,67 60,29 7,-20 8,-18 8,12 -1,46 15,76 52,95 54,28 101,11 124,-44 12,-29 15,-32 15,-13 1,35 -51,82 -89,82 -44,0 -86,-25 -102,-60 -14,-32 -35,-35 -30,-4 5,24 49,72 85,90 63,33 180,10 214,-43 10,-14 22,-22 32,-18 34,10 61,-32 61,-98 0,-41 2,-45 21,-40 12,3 25,0 29,-7 6,-10 13,-9 31,4 31,21 45,20 69,-4 27,-27 28,-90 2,-84 -9,3 -28,0 -42,-6 l -25,-11 24,5 c 38,8 89,-19 112,-59 12,-19 25,-35 31,-35 5,0 6,6 2,13 -5,8 -3,8 9,-2 9,-7 15,-17 12,-21 -3,-5 -1,-20 5,-35 l 10,-27 -26,21 c -15,12 -34,21 -43,21 -9,0 -3,-8 16,-19 34,-21 38,-31 49,-103 4,-34 12,-49 25,-53 11,-4 24,-15 29,-26 9,-15 7,-19 -7,-19 -11,-1 -6,-6 14,-15 33,-14 49,-35 70,-95 20,-55 15,-69 -11,-27 -34,56 -39,57 -15,3 11,-26 19,-49 17,-51 -1,-1 -54,-5 -115,-7 -112,-3 -113,-3 -113,19 0,19 -5,23 -30,23 -23,0 -35,7 -50,33 -11,17 -18,38 -15,44 2,7 -7,24 -20,37 -28,28 -35,13 -8,-16 9,-10 13,-21 10,-24 -12,-12 -56,6 -62,26 -6,19 17,65 27,55 3,-3 8,4 11,16 5,20 5,20 -13,4 -26,-24 -49,-15 -66,23 -7,18 -9,30 -4,27 6,-4 10,8 9,27 -1,18 -3,25 -6,16 -7,-26 -28,-22 -52,9 -23,28 -21,52 7,88 8,11 0,3 -19,-17 -19,-20 -44,-51 -57,-67 -19,-25 -31,-31 -60,-31 -28,0 -33,-3 -24,-12 20,-20 14,-45 -18,-82 -55,-62 -148,-73 -213,-24 -57,43 -64,45 -44,15 23,-35 22,-68 -4,-101 -39,-49 -119,-75 -119,-38 0,10 -13,-4 -31,-31 -18,-30 -35,-47 -43,-44 -9,4 -12,0 -9,-11 3,-15 -4,-17 -56,-14 -51,3 -61,7 -61,22 0,10 13,29 28,42 16,13 27,29 24,36 -6,19 19,44 40,39 10,-3 16,-1 12,4 -8,13 -38,11 -52,-3 -7,-7 -12,-22 -12,-33 0,-13 -10,-26 -25,-33 -14,-7 -27,-23 -31,-39 -3,-15 -7,-32 -8,-38 -1,-5 -11,3 -21,18 -21,33 -32,111 -16,121 6,4 11,23 11,42 0,41 37,84 72,84 13,1 34,9 46,20 22,18 22,21 8,36 -47,46 16,144 92,144 28,0 45,-6 54,-18 8,-12 25,-19 47,-19 23,0 40,-7 51,-21 19,-23 35,-116 24,-134 -4,-7 -3,-8 4,-4 7,4 12,20 12,37 0,23 4,29 20,29 12,0 32,11 45,25 36,36 35,104 -2,143 -16,15 -19,18 -9,5 10,-12 21,-44 24,-71 4,-44 2,-51 -23,-70 -41,-32 -62,-28 -69,13 -7,36 -44,65 -82,65 -10,0 -26,8 -37,18 -12,11 -35,17 -62,17 -36,0 -50,-6 -79,-34 -30,-29 -36,-42 -36,-77 0,-24 5,-46 11,-49 17,-11 -21,-45 -52,-45 -33,0 -79,-50 -79,-86 0,-31 -17,-64 -32,-64 -6,0 -20,7 -30,17 -20,18 -25,87 -8,98 6,3 7,17 4,31 -4,17 -1,31 11,44 10,11 13,20 8,20 -19,0 -35,-29 -32,-58 7,-59 -45,-81 -94,-41 -35,27 -51,87 -37,138 11,44 69,101 100,101 24,0 24,-1 5,43 -34,81 -6,193 57,239 45,32 127,36 172,10 45,-26 59,-12 50,47 -11,71 29,110 126,122 51,7 50,7 -17,5 -65,-3 -71,-2 -63,14 31,57 122,72 193,31 z m 2177,-259 c 0,-35 -3,-40 -41,-56 -25,-11 -49,-32 -61,-52 -32,-55 -56,-40 -38,24 13,50 45,91 84,108 49,21 56,18 56,-24 z m -1787,-364 17,-28 h -36 c -35,0 -36,1 -21,18 10,10 17,25 17,32 0,15 0,15 23,-22 z m 467,-69 c 0,-19 -2,-20 -17,-8 -31,23 -43,42 -43,68 l 1,26 29,-33 c 17,-18 30,-42 30,-53 z m -415,1 c 4,-17 15,-35 26,-40 12,-7 19,-21 19,-38 0,-35 26,-72 50,-72 10,0 34,-16 53,-35 19,-19 42,-35 51,-35 24,0 19,-28 -9,-46 -31,-20 -34,-64 -5,-82 23,-14 26,-52 8,-82 -10,-15 -10,-22 0,-32 9,-9 12,-72 12,-233 v -222 l -25,-11 c -21,-10 -25,-18 -25,-54 0,-29 7,-49 22,-65 l 21,-23 -23,-277 c -12,-153 -25,-281 -29,-285 -3,-3 -30,-8 -59,-10 l -52,-3 v 87 c 0,95 -8,108 -64,108 -49,0 -51,-4 -48,-100 l 4,-90 h -25 c -14,0 -28,3 -30,8 -3,4 -8,150 -12,324 -6,248 -5,321 5,333 19,23 5,43 -37,54 -76,21 -186,8 -214,-25 -11,-14 -10,-19 10,-35 l 24,-20 -7,-187 c -5,-160 -15,-279 -42,-499 -3,-25 -10,-43 -18,-43 -7,0 -22,-10 -33,-22 -37,-43 -61,-120 -73,-238 -10,-106 -22,-146 -39,-135 -12,7 -31,329 -41,710 -6,198 -15,499 -20,668 -11,303 -10,308 10,334 26,34 25,55 -5,83 l -24,23 22,38 c 19,33 27,39 55,39 58,0 126,50 137,101 6,25 9,27 31,18 42,-15 122,-11 162,10 35,18 82,82 82,112 0,10 20,15 74,17 l 74,3 z m 1460,-107 c -4,-38 -8,-86 -9,-109 0,-24 -8,-48 -18,-58 -23,-23 -23,-31 4,-55 l 21,-21 -6,-390 c -4,-241 -11,-398 -17,-410 -8,-14 -21,-20 -47,-20 -35,0 -35,-1 -29,-32 4,-18 8,-126 9,-240 l 2,-206 -26,-4 -26,-4 -6,210 c -12,374 -9,964 6,986 10,17 9,26 -5,51 -23,39 -24,145 -3,173 21,28 19,57 -6,63 -20,6 -19,7 7,20 72,34 109,60 113,78 3,20 18,35 35,35 5,0 5,-29 1,-67 z m -186,-87 c -2,-2 -33,-6 -69,-10 -44,-4 -60,-3 -50,4 14,9 129,15 119,6 z m -21,-108 c 2,-43 -1,-78 -6,-78 -5,0 -24,-3 -41,-6 l -31,-6 v 80 c 0,85 4,92 50,89 24,-2 25,-5 28,-79 z m -781,27 c 49,-21 39,-25 -32,-13 -69,11 -173,3 -221,-17 -34,-14 -46,-7 -21,12 42,34 209,45 274,18 z m 1237,-4 c 36,-15 28,-25 -8,-11 -39,14 -174,12 -221,-5 -40,-14 -57,-12 -39,4 30,30 204,38 268,12 z m -76,-27 22,-6 v -413 -413 l -37,-6 c -21,-3 -67,-8 -102,-12 l -64,-6 7,53 c 3,30 9,219 13,422 6,362 7,367 27,372 66,14 104,17 134,9 z m -1194,-20 c 9,-3 16,-18 16,-33 v -26 h -87 c -49,0 -100,-3 -115,-8 -26,-7 -28,-5 -28,23 0,22 6,33 23,40 25,10 167,13 191,4 z m -1105,-15 c 17,-6 36,-20 42,-32 10,-17 9,-19 -7,-12 -68,27 -129,30 -203,9 -18,-5 -23,-4 -19,7 12,36 118,52 187,28 z m 1161,-80 c 28,-12 49,-24 46,-26 -2,-3 -19,3 -37,12 -46,24 -171,30 -239,12 -61,-17 -74,-15 -38,4 62,34 186,33 268,-2 z M 1114,2993 c -3,-87 -7,-164 -10,-170 -2,-7 -15,-13 -29,-13 h -25 v 170 170 h 35 35 z m 2023,138 c 7,-3 -21,-7 -63,-7 -70,-1 -86,7 -39,19 22,6 83,-1 102,-12 z m -853,-17 c 14,-5 16,-36 16,-235 v -229 h -77 c -43,0 -95,-3 -115,-6 l -38,-7 v 231 230 l 38,10 c 42,11 152,15 176,6 z m 814,-613 c 2,-477 0,-606 -10,-613 -7,-4 -28,-8 -47,-8 h -34 l 5,606 c 5,655 2,627 58,622 l 25,-3 z m 952,444 c 7,-8 10,-22 6,-30 -3,-9 0,-15 9,-15 15,0 45,-49 45,-73 0,-8 -9,-26 -20,-40 -11,-14 -20,-35 -20,-47 0,-12 -4,-30 -10,-40 -8,-15 -6,-17 9,-13 24,6 45,-29 36,-58 -5,-14 -12,-18 -25,-14 -17,5 -17,3 -7,-19 l 12,-25 15,25 c 18,31 54,41 85,24 13,-7 28,-9 34,-6 12,8 61,-36 61,-54 0,-5 5,-10 12,-10 22,0 48,-33 48,-61 0,-41 -10,-59 -37,-70 l -25,-9 23,-19 c 22,-18 22,-19 6,-45 -19,-28 -47,-35 -47,-12 0,8 -12,28 -26,43 l -26,28 21,-29 c 28,-38 29,-101 2,-116 -11,-5 -28,-10 -38,-10 -16,0 -18,-6 -15,-36 4,-29 1,-36 -17,-41 -11,-3 -21,-11 -21,-19 0,-7 -11,-24 -24,-38 -18,-21 -33,-26 -68,-26 -67,0 -78,18 -47,78 l 25,48 -21,17 -20,17 23,16 c 28,20 28,35 1,52 -15,10 -19,20 -15,37 5,20 3,23 -10,18 -20,-7 -44,21 -44,51 0,12 7,34 15,50 19,36 20,33 -10,39 -17,3 -24,0 -22,-7 3,-6 10,-10 16,-8 9,2 9,-3 1,-18 -16,-30 -74,-27 -105,5 -29,28 -34,85 -10,105 20,16 81,5 94,-18 8,-13 10,-9 11,21 0,34 -2,36 -18,26 -49,-30 -152,32 -152,91 0,33 23,60 51,60 12,0 19,7 19,18 0,10 5,23 12,30 7,7 20,12 30,12 10,0 18,7 18,15 0,18 45,49 60,40 5,-3 10,-2 10,4 0,5 -6,11 -12,13 -9,3 -8,12 5,31 13,20 26,27 51,27 18,0 39,-7 46,-15 z m -1086,-40 c 9,-13 16,-27 16,-30 0,-3 -20,-5 -45,-5 -37,0 -45,3 -45,18 0,44 49,56 74,17 z m -131,-22 c -13,-2 -33,-2 -45,0 -13,2 -3,4 22,4 25,0 35,-2 23,-4 z m -13,-73 c 0,-43 -3,-50 -20,-50 -17,0 -20,7 -20,50 0,43 3,50 20,50 17,0 20,-7 20,-50 z m 100,-15 c 0,-42 -3,-55 -15,-55 -11,0 -15,12 -15,48 0,27 3,52 7,55 16,17 23,3 23,-48 z m 80,-22 c 0,-48 -3,-64 -10,-53 -13,20 -13,120 0,120 6,0 10,-29 10,-67 z m -2363,17 c 3,-12 14,-20 27,-20 35,0 76,-50 76,-92 0,-42 -11,-53 -63,-62 -21,-4 -35,-11 -32,-16 4,-6 14,-5 25,2 25,16 53,-7 47,-39 -3,-19 2,-27 25,-39 24,-13 29,-21 27,-47 -2,-18 3,-42 9,-54 24,-44 -27,-103 -75,-86 -12,3 -10,-1 5,-12 13,-9 21,-23 19,-30 -6,-14 23,-42 49,-47 11,-2 25,-16 32,-31 18,-38 -2,-79 -46,-92 -21,-6 -31,-14 -27,-23 5,-15 -11,-53 -29,-64 -16,-11 -64,-10 -71,2 -11,18 -20,10 -21,-20 -1,-35 -22,-63 -41,-56 -11,4 -13,0 -8,-14 6,-18 2,-20 -44,-20 -41,0 -49,3 -45,15 4,9 0,15 -9,15 -20,0 -66,48 -73,77 -10,38 18,60 56,46 26,-10 30,-9 30,6 0,9 5,22 12,29 9,9 9,12 0,12 -7,0 -12,11 -12,25 0,28 28,57 63,65 12,3 23,11 23,18 1,7 2,17 3,22 0,6 11,10 24,11 h 22 l -23,9 c -12,5 -27,21 -34,35 -10,22 -9,27 8,39 17,13 17,14 -9,9 -23,-5 -29,-1 -34,16 -5,19 -7,20 -17,5 -7,-9 -22,-14 -37,-12 -20,2 -24,9 -24,37 0,30 10,43 43,57 1,1 -3,13 -9,28 -11,23 -9,30 10,56 12,17 17,30 12,30 -5,0 -12,-4 -16,-10 -7,-11 -56,5 -67,23 -4,7 -8,24 -8,39 0,32 37,62 64,52 12,-5 16,0 16,20 0,27 39,76 60,76 6,0 18,7 26,15 22,22 55,19 61,-5 z m 406,-142 c -2,-79 -7,-393 -13,-698 -6,-305 -10,-637 -10,-737 v -182 l -35,2 -35,2 5,70 c 2,39 7,162 10,275 3,113 14,358 25,545 16,267 39,776 40,853 0,6 3,12 8,12 4,0 6,-64 5,-142 z m 67,77 c 0,-63 -1,-65 -25,-65 -24,0 -25,2 -25,65 0,63 1,65 25,65 24,0 25,-2 25,-65 z m 1710,15 c 0,-5 -12,-10 -26,-10 -14,0 -23,4 -19,10 3,6 15,10 26,10 10,0 19,-4 19,-10 z m -5,-456 c 0,-400 -1,-429 -17,-432 -17,-3 -18,22 -18,426 0,236 3,432 7,436 25,25 28,-18 28,-430 z m 43,231 c -2,-107 0,-195 5,-195 4,0 7,-9 7,-20 0,-11 -6,-20 -12,-20 -10,0 -14,51 -16,215 -2,151 0,215 8,215 8,0 10,-58 8,-195 z m 70,-17 c -2,-150 -6,-202 -15,-206 -10,-3 -13,41 -13,196 0,109 3,202 7,205 20,20 23,-11 21,-195 z m 70,-5 -2,-208 -6,200 c -5,190 -5,215 6,215 2,0 3,-93 2,-207 z m -1888,-8 v -155 h -27 -28 l 3,155 3,155 h 24 25 z m 1224,132 c 33,-10 16,-12 -123,-12 -88,0 -161,1 -161,2 0,1 15,7 33,12 45,13 204,12 251,-2 z m -807,-7 c -16,-5 -35,-14 -43,-21 -8,-6 -14,-7 -14,-2 0,13 39,32 65,31 14,0 11,-2 -8,-8 z m 103,-238 v -228 h -66 l -67,1 7,134 c 3,74 6,171 6,216 0,75 2,83 23,93 12,6 39,11 60,11 l 37,1 z m 700,207 c 15,-5 -6,-7 -55,-4 -47,3 -111,-1 -155,-9 -41,-7 -77,-12 -78,-11 -8,8 47,30 88,36 50,7 161,0 200,-12 z m -303,-21 c -3,-7 -5,-2 -5,12 0,14 2,19 5,13 2,-7 2,-19 0,-25 z m -880,-15 c -3,-10 -5,-4 -5,12 0,17 2,24 5,18 2,-7 2,-21 0,-30 z m 1273,7 c 0,-5 -2,-10 -4,-10 -3,0 -8,5 -11,10 -3,6 -1,10 4,10 6,0 11,-4 11,-10 z m -119,-25 c 4,-3 5,-209 2,-458 -4,-314 -2,-489 6,-572 10,-106 92,-686 107,-757 l 6,-28 h -232 -232 l 6,43 c 3,23 8,80 11,127 3,47 8,99 11,117 4,27 1,32 -18,35 -14,2 -22,9 -21,18 20,143 52,531 94,1130 15,208 26,320 34,329 20,21 75,31 149,25 38,-2 72,-7 77,-9 z m 1365,-132 c -8,-8 -439,-53 -445,-47 -15,14 36,23 214,38 110,10 207,19 215,20 19,3 26,-2 16,-11 z m 4,-263 c 0,-133 -4,-240 -9,-240 -5,0 -24,7 -42,15 -28,12 -30,14 -11,15 12,0 22,5 22,10 0,6 -9,10 -20,10 -16,0 -20,7 -20,35 0,33 -2,35 -35,35 -35,0 -35,0 -35,-44 v -45 l -52,-5 c -29,-3 -83,-8 -120,-11 l -68,-7 v 215 214 l 173,17 c 94,10 179,19 187,20 8,2 18,4 23,5 4,0 7,-107 7,-239 z M 1157,2003 c -1,-65 -3,-14 -3,112 0,127 2,180 3,118 2,-62 2,-165 0,-230 z m 1277,-233 c 9,-102 28,-252 42,-334 25,-151 94,-664 94,-701 -1,-16 -2,-17 -9,-5 -5,8 -25,139 -45,290 -20,151 -47,356 -61,455 -44,313 -45,335 -49,605 -4,260 -4,261 4,70 4,-107 15,-278 24,-380 z m 826,345 c 0,-184 -2,-215 -15,-215 -13,0 -15,30 -15,209 0,202 1,212 28,220 1,1 2,-96 2,-214 z m -2150,120 v -75 h -31 c -30,0 -31,2 -25,31 3,17 6,51 6,75 0,40 2,44 25,44 24,0 25,-2 25,-75 z m 1650,56 c 0,-12 -32,-19 -130,-27 -113,-9 -95,8 23,22 51,6 95,12 100,13 4,0 7,-3 7,-8 z m 968,-94 c 2,-57 1,-66 -13,-61 -20,8 -23,138 -2,132 7,-3 13,-29 15,-71 z m -793,52 c 4,-6 5,-11 4,-13 -9,-6 -99,7 -99,15 0,13 87,11 95,-2 z m -185,-18 c 0,-15 -11,-20 -62,-25 -35,-4 -73,-10 -85,-13 -18,-4 -23,-1 -23,15 0,21 10,25 95,35 68,9 75,7 75,-12 z m 110,-66 c 0,-25 -4,-45 -10,-45 -5,0 -10,20 -10,45 0,25 5,45 10,45 6,0 10,-20 10,-45 z m -112,-180 c -2,-1 -40,-5 -86,-8 l -83,-6 3,102 3,102 80,10 80,10 3,-104 c 1,-57 1,-105 0,-106 z m -1638,15 v -140 h -30 -30 v 88 c 0,48 3,111 6,140 6,46 9,52 30,52 h 24 z m 483,119 c 21,-5 37,-16 37,-24 0,-18 -2,-18 -50,-4 -28,8 -47,9 -69,1 -31,-11 -37,-7 -23,14 16,24 51,28 105,13 z m 1317,-129 c 0,-123 -1,-130 -20,-130 -19,0 -20,7 -20,130 0,123 1,130 20,130 19,0 20,-7 20,-130 z m -1299,70 c 17,-10 19,-22 19,-120 v -110 h -83 -82 l 10,108 c 5,59 14,113 18,120 10,15 91,16 118,2 z m 213,-7 c -1,-7 -2,-44 -2,-82 -2,-64 -4,-69 -22,-64 -18,5 -20,14 -20,85 0,77 1,79 23,76 12,-2 22,-9 21,-15 z m 2285,13 c -10,-9 -109,-14 -104,-6 4,6 29,10 57,10 28,0 49,-2 47,-4 z m -11,-141 -3,-115 h -37 -38 v 115 115 h 41 40 z m -384,99 c 23,-9 24,-184 1,-184 -12,0 -15,15 -15,79 0,44 -3,86 -6,95 -7,18 -4,19 20,10 z m -1079,-80 c -66,-7 -121,-11 -123,-9 -2,2 16,6 40,9 23,3 54,7 68,10 14,2 50,3 80,3 33,0 7,-5 -65,-13 z m 115,-148 v -133 l -112,-7 c -62,-4 -121,-9 -130,-12 -16,-5 -18,-19 -18,-101 0,-53 -2,-94 -4,-92 -2,2 -10,78 -17,168 -12,174 -11,180 34,181 15,0 17,-6 13,-30 -3,-23 0,-30 12,-31 83,-6 122,30 122,111 0,38 -2,40 -29,40 -26,0 -30,-4 -33,-32 l -3,-33 h -73 c -59,0 -72,3 -70,15 3,12 16,14 66,12 l 62,-4 v 35 c 0,40 6,42 123,45 l 57,2 z m 2023,119 c 1,-5 -13,-11 -30,-13 -31,-3 -42,6 -26,22 10,10 53,3 56,-9 z M 520,1855 c 0,-42 -3,-55 -15,-55 -12,0 -15,13 -15,55 0,42 3,55 15,55 12,0 15,-13 15,-55 z m 2968,30 c -2,-2 -197,-20 -427,-39 -30,-3 -50,-1 -45,4 5,4 74,14 154,20 80,7 181,15 225,19 72,6 102,5 93,-4 z M 1760,1770 c 0,-95 -3,-120 -14,-120 -15,0 -26,68 -26,173 0,60 2,67 20,67 19,0 20,-7 20,-120 z m 240,105 c 0,-8 -9,-15 -20,-15 -12,0 -20,-7 -20,-16 0,-9 -8,-23 -17,-30 -17,-13 -17,-13 2,-14 12,0 16,-3 9,-10 -5,-5 -19,-7 -32,-4 -18,5 -22,13 -22,50 0,42 1,43 38,47 20,2 43,4 50,5 6,1 12,-5 12,-13 z m 2350,6 c 0,-4 -19,-11 -42,-14 -24,-3 -54,-9 -68,-12 -23,-6 -23,-5 -5,6 35,22 115,36 115,20 z m -2464,-49 -6,-47 39,-12 c 22,-7 47,-10 55,-7 18,7 21,-19 10,-75 -6,-30 -7,-31 -65,-31 h -59 v 103 c 0,57 3,107 7,110 18,18 25,3 19,-41 z m 2864,-207 c 0,-163 -4,-255 -10,-255 -6,0 -10,92 -10,255 0,163 4,255 10,255 6,0 10,-92 10,-255 z m -1152,233 c -3,-7 -22,-14 -44,-15 -21,-2 -157,-12 -302,-24 -238,-19 -286,-19 -270,-4 3,4 468,45 601,54 11,0 17,-4 15,-11 z m -2488,-53 c 0,-32 -2,-35 -30,-35 -28,0 -30,3 -30,35 0,32 2,35 30,35 28,0 30,-3 30,-35 z m 3240,-4 c 0,-32 -4,-40 -22,-45 -44,-11 -48,-8 -48,39 0,45 0,45 35,45 34,0 35,-1 35,-39 z m -1442,-103 -3,-133 -62,-3 -63,-3 v 136 135 h 65 66 z m 1352,-18 c 0,-93 -4,-150 -10,-150 -6,0 -10,57 -10,150 0,93 4,150 10,150 6,0 10,-57 10,-150 z m -710,-99 v -238 l -77,-7 c -42,-3 -134,-6 -205,-6 h -128 v 100 100 h -44 -43 l -5,-137 c -5,-117 -3,-141 11,-156 15,-18 31,-18 280,-11 223,6 263,5 259,-7 -4,-11 -37,-15 -154,-16 -230,-4 -414,-14 -414,-23 0,-5 117,-6 260,-3 l 260,6 v -86 -87 h -40 -40 V 900 790 h -80 -80 v 45 45 h 45 45 v 60 60 h -56 -57 l 7,-105 7,-105 h -30 -31 v 155 155 h 25 c 19,0 25,5 25,21 0,21 -2,21 -145,17 l -145,-4 v 322 322 l 63,7 c 81,8 401,32 450,34 l 37,1 z m 38,-3 -1,-243 -9,230 c -7,215 -7,255 7,255 3,0 4,-109 3,-242 z m -1933,222 c 4,-6 -23,-10 -72,-11 -100,0 -154,-10 -163,-29 -28,-55 -42,-112 -60,-238 -11,-78 -20,-145 -20,-148 0,-4 -18,-4 -40,-1 l -39,5 4,-331 c 3,-186 1,-321 -3,-307 -5,14 -11,214 -14,445 -2,231 -3,382 -1,335 5,-132 13,-149 57,-117 14,11 22,44 36,155 19,153 43,215 90,239 30,15 216,18 225,3 z m 2435,-50 c 0,-40 0,-41 -35,-38 -33,2 -35,4 -35,40 0,37 1,38 35,38 34,0 35,-1 35,-40 z M 518,1717 c 2,-46 0,-57 -13,-57 -12,0 -15,13 -15,61 0,81 24,77 28,-4 z m 3482,48 c 0,-8 -4,-15 -9,-15 -13,0 -22,16 -14,24 11,11 23,6 23,-9 z m -2359,-5 c 14,0 33,-6 43,-13 14,-10 -4,-12 -103,-12 -86,0 -121,3 -121,12 0,15 42,22 105,17 28,-2 62,-4 76,-4 z m 1289,-100 -6,-95 -2,105 c -1,57 2,100 6,95 4,-6 5,-53 2,-105 z m -1820,19 v -69 h -30 -30 v 69 c 0,64 2,70 23,73 12,2 25,2 30,0 4,-2 7,-34 7,-73 z m 332,14 c -2,-32 -11,-65 -18,-74 -25,-28 -17,-57 19,-68 l 32,-9 -32,-1 c -42,-1 -53,-23 -53,-105 0,-36 -3,-66 -8,-66 -11,0 6,214 23,280 8,32 15,67 15,79 0,12 6,21 13,21 10,0 13,-14 9,-57 z m 2567,31 c 2,-2 -35,-4 -82,-4 -50,0 -87,4 -87,10 0,9 159,3 169,-6 z m 339,-81 -3,-98 -37,-3 -38,-3 v 63 c 0,35 3,80 6,101 6,34 9,37 41,37 h 34 z m -627,67 c 5,0 9,-32 9,-71 0,-67 -1,-70 -22,-67 -21,3 -23,9 -26,77 -3,64 -1,73 13,67 9,-3 21,-6 26,-6 z m -2086,-7 c 34,-6 25,-9 -65,-18 -58,-6 -107,-9 -109,-8 -2,1 -1,9 2,18 7,17 98,21 172,8 z m 2402,-25 c 26,-27 3,-46 -28,-24 -17,11 -46,16 -101,16 -65,0 -78,3 -78,16 0,24 182,17 207,-8 z m -2427,-18 c 22,-7 19,-8 -16,-9 -23,-1 -63,-4 -90,-7 -35,-5 -46,-3 -39,4 8,9 35,14 110,19 6,1 21,-3 35,-7 z m 1139,-24 c -2,-2 -58,-6 -124,-10 -147,-7 -140,2 11,12 103,7 123,7 113,-2 z m -2134,-7 c -132,-3 -241,-7 -242,-8 -2,0 -3,-6 -3,-12 0,-8 16,-10 50,-5 46,6 50,5 50,-14 0,-25 -34,-27 -85,-6 -40,17 -41,19 -19,40 13,14 49,16 252,14 l 237,-2 z m 1028,4 c -7,-2 -19,-2 -25,0 -7,3 -2,5 12,5 14,0 19,-2 13,-5 z m -80,-10 c -7,-2 -21,-2 -30,0 -10,3 -4,5 12,5 17,0 24,-2 18,-5 z m 414,-35 c -4,-24 -9,-82 -13,-130 l -6,-88 h -64 c -36,0 -64,-4 -64,-10 0,-5 -11,-10 -25,-10 h -25 v 135 134 l 68,4 c 37,2 82,4 101,5 l 33,2 z m 2017,26 c 16,-40 9,-44 -79,-44 h -85 v 30 30 h 79 c 63,0 80,-3 85,-16 z M 1750,1485 v -135 h -40 -40 v 129 130 l 28,4 c 15,2 33,5 40,6 9,1 12,-32 12,-134 z M 520,1415 c 0,-167 -2,-195 -15,-195 -13,0 -15,28 -15,195 0,167 2,195 15,195 13,0 15,-28 15,-195 z m 240,141 v -53 l -70,-7 -70,-7 v -79 c 0,-60 -3,-79 -15,-84 -11,-4 -15,-20 -15,-56 0,-27 -4,-50 -10,-50 -6,0 -10,72 -10,195 v 195 h 95 95 z m 1990,35 c 0,-16 -10,-20 -65,-26 l -65,-7 v -89 c 0,-80 -2,-89 -19,-89 -10,0 -33,-3 -50,-6 l -31,-6 v 115 116 l 58,4 c 154,9 172,8 172,-12 z m -1100,0 c 0,-10 -188,-21 -205,-12 -18,10 40,19 123,20 45,1 82,-3 82,-8 z m -540,-26 c 0,-21 -5,-25 -30,-25 -25,0 -30,4 -30,25 0,21 5,25 30,25 25,0 30,-4 30,-25 z m 2810,-126 v -110 l -42,3 c -37,3 -44,7 -46,27 -3,20 0,23 17,18 12,-3 23,-1 26,3 3,5 -5,10 -17,12 -21,3 -23,9 -26,81 l -3,77 h 46 45 z m -996,95 c 39,-15 9,-24 -80,-24 -85,0 -95,2 -84,15 13,15 131,22 164,9 z m -1814,-84 v -80 h -32 -33 l 3,80 4,80 h 29 29 z m 490,0 v -80 h -95 -96 l 3,73 3,72 75,6 c 41,3 83,6 93,7 15,2 17,-8 17,-78 z m 3110,-50 v -120 h -46 c -27,0 -43,-4 -39,-10 3,-5 24,-10 46,-10 h 39 V 1105 950 h -95 -95 v 160 160 h -195 c -160,0 -195,-2 -195,-14 0,-20 -23,-26 -101,-26 -52,0 -69,3 -69,14 0,7 9,16 20,19 17,4 20,15 22,98 l 3,94 320,23 c 176,12 327,27 335,32 8,5 23,9 33,9 15,1 17,-11 17,-119 z M 464,1501 c 3,-4 3,-11 0,-14 -8,-8 -34,3 -34,14 0,11 27,12 34,0 z m 2666,-16 c 0,-21 -5,-25 -30,-25 -25,0 -30,4 -30,25 0,21 5,25 30,25 25,0 30,-4 30,-25 z m -2205,-4 c -11,-5 -60,-12 -110,-15 -141,-12 -135,-8 -135,-77 0,-33 -4,-59 -10,-59 -8,0 -16,128 -7,131 1,0 45,6 97,13 113,16 195,19 165,7 z m 1980,-11 c -3,-5 -31,-10 -61,-10 -30,0 -54,5 -54,10 0,6 27,10 61,10 37,0 58,-4 54,-10 z m 816,-10 c 5,0 9,-26 9,-59 0,-57 -1,-58 -25,-53 -23,4 -25,8 -25,64 0,51 2,59 16,54 9,-3 20,-6 25,-6 z M 946,1438 c -3,-13 -6,-42 -6,-65 v -43 h -50 c -46,0 -50,2 -56,28 -10,42 -23,52 -69,52 -38,0 -45,-3 -53,-27 -10,-28 -10,-27 -11,10 -1,44 -1,44 104,56 140,15 148,14 141,-11 z m -763,-5 c -13,-2 -33,-2 -45,0 -13,2 -3,4 22,4 25,0 35,-2 23,-4 z m 2657,-318 c 0,-318 0,-325 -20,-325 -20,0 -20,7 -20,325 0,318 0,325 20,325 20,0 20,-7 20,-325 z m 60,0 c 0,-318 0,-325 -20,-325 -20,0 -20,7 -20,325 0,318 0,325 20,325 20,0 20,-7 20,-325 z m 230,270 c 0,-54 0,-55 -30,-55 -30,0 -30,1 -30,55 0,54 0,55 30,55 30,0 30,-1 30,-55 z M 160,1345 c 0,-30 -4,-55 -10,-55 -5,0 -10,25 -10,55 0,30 5,55 10,55 6,0 10,-25 10,-55 z m 608,17 c 3,-28 0,-32 -21,-32 -25,0 -27,8 -11,58 7,24 29,6 32,-26 z m 1952,-157 v -155 h -38 c -31,0 -43,6 -60,29 l -22,30 34,-6 35,-5 3,101 3,101 h -76 c -73,0 -77,1 -81,24 -6,30 3,33 120,35 l 82,1 z m -775,48 c -13,-178 -25,-233 -19,-90 l 4,129 -31,29 -31,29 h 42 43 z m -835,17 v -70 h -35 c -33,0 -35,2 -35,33 0,17 3,49 6,70 6,33 10,37 35,37 h 29 z m 507,59 c 27,-10 83,-56 83,-68 0,-3 -48,-6 -107,-5 h -108 l -3,33 c -3,28 -6,32 -25,27 -12,-3 -29,-6 -38,-6 -10,0 -19,-12 -22,-30 -6,-29 -9,-30 -57,-30 h -50 v 45 45 h 149 c 82,0 162,-5 178,-11 z M 388,1308 c 7,-7 12,-35 12,-64 0,-55 -9,-64 -67,-64 -21,0 -23,4 -23,63 0,35 3,67 7,70 11,11 58,8 71,-5 z m 2722,-23 c 0,-19 -4,-35 -10,-35 -10,0 -14,14 -11,39 2,7 -2,10 -8,6 -7,-3 -8,0 -5,9 12,30 34,18 34,-19 z M 758,1263 c -3,-41 -6,-48 -25,-51 -21,-3 -23,0 -23,47 0,48 2,51 26,51 24,0 25,-2 22,-47 z m 182,-18 c 0,-63 -1,-64 -22,-56 -20,7 -23,17 -26,65 -3,54 -2,56 23,56 24,0 25,-2 25,-65 z m 2704,59 c 9,-3 16,-12 16,-19 0,-11 -8,-11 -37,-3 -25,7 -116,8 -265,3 -204,-6 -228,-5 -228,9 0,14 29,16 249,16 137,0 256,-3 265,-6 z M 147,1173 c -2,-21 -4,-4 -4,37 0,41 2,58 4,38 2,-21 2,-55 0,-75 z m 2423,92 c 0,-8 -9,-15 -20,-15 -11,0 -20,7 -20,15 0,8 9,15 20,15 11,0 20,-7 20,-15 z m 50,0 c 0,-8 -7,-15 -15,-15 -8,0 -15,7 -15,15 0,8 7,15 15,15 8,0 15,-7 15,-15 z m 40,0 c 0,-8 -7,-15 -15,-15 -8,0 -15,7 -15,15 0,8 7,15 15,15 8,0 15,-7 15,-15 z M 660,1235 c 0,-20 -5,-25 -25,-25 -20,0 -25,5 -25,25 0,20 5,25 25,25 20,0 25,-5 25,-25 z m 3054,19 c 12,-5 16,-20 16,-60 0,-47 -2,-54 -20,-54 -18,0 -20,7 -20,60 0,33 2,60 4,60 2,0 11,-3 20,-6 z m 784,-101 c -2,-66 -7,-98 -15,-101 -9,-2 -13,9 -13,37 0,22 -4,43 -10,46 -6,4 -10,-11 -10,-38 0,-46 3,-44 -52,-38 -5,1 -9,22 -10,49 l -1,47 -4,-45 c -5,-55 -12,-63 -47,-54 -25,6 -26,9 -26,80 v 74 h -55 -55 v -106 c 0,-93 2,-105 16,-100 9,3 33,6 55,6 28,0 39,4 39,15 0,12 17,15 95,15 h 95 V 880 c 0,-136 -2,-160 -15,-160 -12,0 -15,19 -15,115 v 115 h -75 -75 v -79 c 0,-44 -3,-82 -7,-84 -5,-3 -43,-2 -85,0 l -78,6 v 228 229 h 175 176 z m -2668,77 c 0,-11 -40,-11 -85,0 -25,6 -20,8 28,9 32,0 57,-3 57,-9 z m 740,-50 c 0,-52 -13,-67 -24,-27 -11,41 -7,77 9,77 11,0 15,-12 15,-50 z m 50,0 c 0,-38 -4,-50 -15,-50 -11,0 -15,12 -15,50 0,38 4,50 15,50 11,0 15,-12 15,-50 z m 40,-5 c 0,-42 -3,-55 -15,-55 -12,0 -15,13 -15,55 0,42 3,55 15,55 12,0 15,-13 15,-55 z m 1290,-20 c 0,-54 -1,-55 -29,-55 -16,0 -43,3 -60,6 -30,6 -31,9 -31,55 v 49 h 60 60 z m 180,30 c 0,-18 -5,-25 -19,-25 -10,0 -46,-3 -80,-6 l -61,-7 v 32 31 h 80 c 79,0 80,0 80,-25 z M 882,1172 c 32,-9 58,-22 58,-29 0,-8 -25,-3 -75,14 -41,13 -75,29 -75,35 0,6 8,7 17,4 9,-4 43,-15 75,-24 z m 918,13 c 0,-13 -33,-15 -257,-13 -194,2 -257,6 -261,16 -3,9 53,12 257,12 227,0 261,-2 261,-15 z M 770,1110 v -80 H 565 c -130,0 -205,-4 -205,-10 0,-6 75,-10 205,-10 H 770 V 985 960 H 565 c -130,0 -205,-4 -205,-10 0,-6 75,-10 205,-10 198,0 205,-1 205,-20 0,-19 -7,-20 -205,-20 -130,0 -205,-4 -205,-10 0,-6 75,-10 205,-10 176,0 205,-2 205,-15 0,-13 -29,-15 -205,-15 -130,0 -205,-4 -205,-10 0,-6 75,-10 205,-10 176,0 205,-2 205,-15 0,-13 -29,-15 -205,-15 H 360 v -25 -25 h 205 c 198,0 205,-1 205,-20 0,-19 -7,-20 -225,-20 H 320 v 25 c 0,22 -4,25 -35,25 -31,0 -35,-3 -35,-25 0,-14 -4,-25 -10,-25 -5,0 -10,16 -10,36 v 36 l 45,-4 45,-3 v 187 188 l 23,1 c 12,0 94,9 182,19 88,10 179,18 203,19 l 42,1 z m 3478,-2 c -3,-70 -6,-83 -20,-86 -16,-3 -18,6 -18,76 0,81 3,92 27,92 11,0 13,-18 11,-82 z m 42,-3 c 0,-69 -3,-85 -15,-85 -12,0 -15,16 -15,85 0,69 3,85 15,85 12,0 15,-16 15,-85 z m -3180,5 v -70 h -35 -35 v 70 70 h 35 35 z m 2480,-15 c 0,-50 -4,-85 -10,-85 -6,0 -10,35 -10,85 0,50 4,85 10,85 6,0 10,-35 10,-85 z m -1695,10 v -50 l -302,-3 -303,-2 v 48 c 0,27 2,51 4,53 3,2 139,4 303,4 h 298 z m 2975,-10 c 0,-30 -4,-55 -10,-55 -5,0 -10,25 -10,55 0,30 5,55 10,55 6,0 10,-25 10,-55 z M 4130,960 V 779 l -82,3 -83,3 -3,172 -2,172 62,4 c 35,2 73,4 86,5 l 22,2 z m -400,150 c 0,-18 7,-20 63,-20 56,0 68,-4 105,-32 l 42,-32 V 907 c 0,-90 -3,-118 -12,-115 -9,3 -14,38 -16,116 l -3,111 -32,27 c -29,24 -37,26 -98,22 -37,-3 -72,-2 -77,1 -15,9 -2,61 14,61 8,0 14,-9 14,-20 z m -544,-47 c -3,-21 -6,-91 -6,-155 V 790 h -25 -25 v 135 135 h -45 -45 V 925 c 0,-128 -1,-135 -20,-135 -19,0 -20,7 -20,155 v 155 h 96 97 z m 749,16 c 12,-19 -5,-23 -22,-6 -16,16 -16,17 -1,17 9,0 20,-5 23,-11 z m -1253,-76 38,-37 v -88 c 0,-52 -4,-88 -10,-88 -6,0 -10,34 -10,83 0,82 -1,84 -35,117 -33,32 -43,50 -28,50 4,0 24,-17 45,-37 z m 1038,27 c 0,-5 -4,-10 -10,-10 -5,0 -10,5 -10,10 0,6 5,10 10,10 6,0 10,-4 10,-10 z M 1110,989 c 0,-23 5,-32 20,-36 19,-5 20,-12 18,-122 l -3,-116 -52,-3 -53,-3 v 155 156 h 35 c 32,0 35,-2 35,-31 z M 1860,865 V 710 h -30 -30 v 85 85 h -145 -145 v -85 -85 h -45 -45 v 155 155 h 220 220 z m 50,0 c 0,-97 -4,-155 -10,-155 -6,0 -10,58 -10,155 0,97 4,155 10,155 6,0 10,-58 10,-155 z m -900,125 c 0,-11 -4,-20 -10,-20 -5,0 -10,9 -10,20 0,11 5,20 10,20 6,0 10,-9 10,-20 z m 2370,-50 c 0,-39 -1,-40 -35,-40 -34,0 -35,1 -35,40 0,39 1,40 35,40 34,0 35,-1 35,-40 z m 340,-60 v -90 h -117 -118 l 1,78 c 0,42 2,83 2,90 2,9 33,12 117,12 h 115 z m -2705,53 c -2,-10 -4,-21 -4,-25 -2,-21 -21,-5 -21,17 0,15 6,25 14,25 8,0 13,-8 11,-17 z m 152,-165 c -2,-35 -3,-7 -3,62 0,69 1,97 3,63 2,-35 2,-91 0,-125 z m 3543,57 V 720 h -30 -30 v 95 95 h -30 -29 l -3,-92 -3,-93 -27,-3 -28,-3 v 105 106 h 90 90 z M 300,900 c 0,-5 -28,-10 -62,-12 l -63,-3 -3,-82 c -2,-46 -7,-83 -12,-83 -11,0 -13,110 -4,159 l 7,31 h 68 c 38,0 69,-4 69,-10 z m 1095,-20 c 4,-6 -13,-10 -44,-10 -28,0 -51,5 -51,10 0,6 20,10 44,10 25,0 48,-4 51,-10 z m 3055,-75 v -85 h -35 -35 v 85 85 h 35 35 z M 1010,785 c 0,-60 -3,-75 -15,-75 -12,0 -15,15 -15,75 0,60 3,75 15,75 12,0 15,-15 15,-75 z m 680,0 v -75 h -70 -70 v 75 75 h 70 70 z m 90,-1 v -75 l -32,3 c -33,3 -33,3 -36,62 -4,75 1,86 38,86 h 30 z m -382,54 c -3,-7 -25,-14 -51,-16 -37,-2 -47,0 -47,12 0,12 12,16 51,16 36,0 49,-4 47,-12 z m -8,-48 c 0,-5 -20,-10 -45,-10 -25,0 -45,5 -45,10 0,6 20,10 45,10 25,0 45,-4 45,-10 z m 2550,-27 c 0,-5 -6,-16 -14,-25 -10,-13 -15,-15 -24,-6 -9,9 -12,9 -12,0 0,-9 -148,-12 -635,-12 h -635 v 25 25 h 660 c 363,0 660,-3 660,-7 z M 1400,745 c 0,-11 -12,-15 -50,-15 -38,0 -50,4 -50,15 0,11 12,15 50,15 38,0 50,-4 50,-15 z m 2920,-5 c 0,-19 -7,-20 -175,-20 -168,0 -175,1 -175,20 0,19 7,20 175,20 168,0 175,-1 175,-20 z"
       id="path1" />
    <path
       d="m 3780,4420 c 22,-5 49,-24 74,-52 36,-40 38,-41 22,-10 -20,38 -70,72 -106,71 -20,-1 -18,-3 10,-9 z"
       id="path2" />
    <path
       d="m 4073,3925 c -12,-25 -18,-45 -14,-45 5,0 17,17 26,38 10,20 23,40 29,44 7,5 6,8 -4,8 -8,0 -25,-20 -37,-45 z"
       id="path3" />
    <path
       d="m 4133,3958 c -12,-6 -25,-18 -28,-26 -5,-13 -3,-13 13,1 26,24 83,22 111,-4 18,-17 22,-30 19,-60 -2,-24 0,-35 6,-29 5,5 9,23 9,40 0,59 -77,105 -130,78 z"
       id="path4" />
    <path
       d="m 3280,3953 c 8,-3 24,-13 35,-22 20,-16 20,-16 1,7 -11,12 -26,22 -35,21 -14,0 -14,-1 -1,-6 z"
       id="path5" />
    <path
       d="m 3973,3878 c -4,-7 -8,-26 -9,-43 -2,-39 -45,-75 -88,-75 -32,0 -57,18 -69,50 -4,12 -6,11 -6,-3 -1,-25 43,-67 71,-67 54,0 117,71 106,121 -4,16 31,24 45,10 5,-5 13,-27 17,-48 l 8,-38 1,41 c 0,22 -4,45 -11,52 -16,16 -55,15 -65,0 z"
       id="path6" />
    <path
       d="m 3607,3763 c -8,-10 -19,-30 -22,-45 -6,-22 -13,-28 -35,-28 -43,0 -72,-30 -74,-76 -1,-27 -8,-44 -23,-57 -13,-10 -23,-29 -23,-41 0,-13 -9,-31 -20,-41 -11,-10 -20,-24 -20,-32 0,-8 11,-2 25,15 14,17 25,39 25,49 0,20 29,53 46,53 5,0 8,17 6,38 -6,61 33,90 93,69 19,-6 21,-4 17,27 -3,27 1,37 23,55 34,26 51,26 94,0 18,-11 41,-18 50,-16 13,4 13,5 -2,6 -11,0 -30,10 -44,21 -32,25 -94,27 -116,3 z"
       id="path7" />
    <path
       d="m 3115,3470 c -3,-5 -2,-10 4,-10 5,0 13,5 16,10 3,6 2,10 -4,10 -5,0 -13,-4 -16,-10 z"
       id="path8" />
    <path
       d="m 1400,4166 c 0,-2 8,-10 18,-17 15,-13 16,-12 3,4 -13,16 -21,21 -21,13 z"
       id="path9" />
    <path
       d="m 1205,4022 c -6,-4 -21,-22 -34,-39 -22,-32 -23,-32 -51,-18 -41,21 -65,19 -97,-11 -25,-22 -25,-24 -3,-10 31,20 79,20 108,0 12,-8 22,-10 22,-5 0,6 7,11 15,11 8,0 15,6 15,14 0,7 9,25 21,40 21,27 22,31 4,18 z"
       id="path10" />
    <path
       d="m 1754,3998 c 24,-34 20,-73 -9,-96 -13,-11 -22,-22 -19,-25 4,-3 10,-21 15,-39 l 8,-33 -2,37 c -1,24 5,44 17,57 29,31 17,121 -15,121 -6,0 -3,-10 5,-22 z"
       id="path11" />
    <path
       d="m 1597,3945 c 17,-8 39,-25 47,-37 9,-12 16,-18 16,-12 0,13 -38,54 -50,54 -4,0 -17,2 -27,5 -10,3 -4,-1 14,-10 z"
       id="path12" />
    <path
       d="m 895,3900 c -4,-17 -5,-34 -2,-36 2,-3 7,10 11,27 8,42 0,50 -9,9 z"
       id="path13" />
    <path
       d="m 1843,3883 c -21,-18 -38,-75 -26,-87 3,-3 13,9 22,27 14,28 21,32 56,32 31,0 40,-4 39,-17 -1,-10 4,-14 12,-11 8,3 21,0 29,-7 29,-24 15,7 -17,37 -43,40 -88,50 -115,26 z"
       id="path14" />
    <path
       d="m 901,3834 c 0,-11 3,-14 6,-6 3,7 2,16 -1,19 -3,4 -6,-2 -5,-13 z"
       id="path15" />
    <path
       d="m 1177,3830 c -14,-11 -29,-30 -32,-41 -5,-16 -13,-19 -38,-14 -18,3 -41,0 -53,-7 -77,-48 -96,-64 -109,-89 -8,-15 -15,-41 -14,-56 1,-26 2,-26 13,8 11,39 42,79 59,79 5,0 21,12 34,26 24,26 60,30 103,10 11,-4 15,1 17,21 2,39 48,76 82,68 35,-9 51,-24 51,-48 0,-16 3,-18 12,-9 7,7 26,12 43,12 40,0 75,-36 86,-87 8,-37 8,-37 4,7 -5,56 -39,90 -90,90 -23,0 -42,8 -59,25 -31,31 -74,33 -109,5 z"
       id="path16" />
    <path
       d="m 1610,3730 c -14,-11 -20,-20 -14,-20 14,0 50,27 44,33 -3,3 -16,-3 -30,-13 z"
       id="path17" />
    <path
       d="m 1297,3549 c -15,-9 -17,-18 -11,-55 6,-43 5,-44 -27,-59 -27,-11 -29,-14 -12,-15 36,0 56,28 50,71 -6,49 12,67 51,50 25,-10 26,-10 8,4 -23,18 -34,18 -59,4 z"
       id="path18" />
    <path
       d="m 4100,2186 c 0,-2 7,-7 16,-10 8,-3 12,-2 9,4 -6,10 -25,14 -25,6 z"
       id="path19" />
    <path
       d="m 576,2702 c -3,-5 8,-6 25,-4 16,2 29,6 29,8 0,8 -49,4 -54,-4 z"
       id="path20" />
    <path
       d="m 526,2592 c -2,-4 11,-6 30,-4 19,2 34,6 34,8 0,8 -59,4 -64,-4 z"
       id="path21" />
    <path
       d="m 711,2433 c -1,-6 -4,-20 -7,-30 -5,-17 -5,-17 6,0 6,10 9,23 6,30 -3,9 -5,9 -5,0 z"
       id="path22" />
    <path
       d="m 630,2102 c 0,-11 -10,-24 -22,-30 -18,-8 -19,-11 -6,-11 9,-1 24,9 32,21 18,26 20,38 6,38 -5,0 -10,-8 -10,-18 z"
       id="path23" />
    <path
       d="m 3443,2283 -33,-4 v -70 -69 l 33,1 c 23,1 26,3 10,6 -21,4 -23,10 -23,64 0,59 0,59 29,59 17,0 33,5 36,10 3,6 0,9 -7,8 -7,0 -28,-3 -45,-5 z"
       id="path24" />
    <path
       d="m 3508,2220 -3,-70 h 38 37 v 70 70 h -34 -34 z m 52,0 c 0,-53 -2,-60 -20,-60 -15,0 -20,7 -20,29 0,17 5,33 10,36 6,3 10,17 10,31 0,13 5,24 10,24 6,0 10,-27 10,-60 z"
       id="path25" />
    <path
       d="m 3190,1675 v -76 l 43,3 42,3 v 70 70 l -42,3 -43,3 z m 80,0 c 0,-54 0,-55 -30,-55 -30,0 -30,1 -30,55 0,54 0,55 30,55 30,0 30,-1 30,-55 z"
       id="path26" />
    <path
       d="m 3170,1445 v -85 h 55 55 v 85 85 h -55 -55 z m 100,40 c 0,-33 -2,-35 -35,-35 -32,0 -35,2 -35,29 0,23 5,31 23,34 45,9 47,8 47,-28 z"
       id="path27" />
    <path
       d="m 4373,1443 -43,-4 v -60 -59 h 70 70 v 65 c 0,73 10,67 -97,58 z m 17,-64 c 0,-47 -2,-50 -22,-47 -20,3 -23,10 -26,51 -3,45 -2,47 22,47 24,0 26,-3 26,-51 z m 70,6 c 0,-41 -2,-45 -25,-45 -23,0 -25,4 -25,45 0,41 2,45 25,45 23,0 25,-4 25,-45 z"
       id="path28" />
    <path
       d="m 4580,1391 v -61 h 45 46 l -3,58 -3,57 -42,3 -43,3 z m 70,-6 c 0,-41 -2,-45 -25,-45 -23,0 -25,4 -25,45 0,41 2,45 25,45 23,0 25,-4 25,-45 z"
       id="path29" />
    <path
       d="m 4233,1433 c -21,-4 -23,-10 -23,-61 v -57 h 35 35 v 63 c 0,64 0,64 -47,55 z m 37,-58 c 0,-42 -2,-45 -25,-45 -24,0 -26,3 -24,45 2,40 5,45 26,45 21,0 23,-5 23,-45 z"
       id="path30" />
    <path
       d="m 4580,1126 v -86 h 45 46 l -3,83 -3,82 -42,3 -43,3 z m 70,-6 c 0,-68 -1,-70 -25,-70 -24,0 -25,2 -25,70 0,68 1,70 25,70 24,0 25,-2 25,-70 z"
       id="path31" />
    <path
       d="M 4010,955 V 820 h 45 45 v 135 135 h -45 -45 z m 34,69 c 12,-94 5,-194 -15,-194 -5,0 -9,54 -9,120 0,121 12,159 24,74 z m 44,-71 c -2,-82 -7,-118 -15,-121 -10,-3 -13,25 -13,117 0,102 2,121 15,121 13,0 15,-17 13,-117 z"
       id="path32" />
    <path
       d="m 2310,4353 c -25,-21 -31,-32 -28,-55 3,-18 -2,-34 -14,-45 -10,-9 -18,-23 -17,-32 0,-14 1,-14 6,-1 3,8 13,23 22,33 9,11 14,31 13,48 -3,23 3,32 30,49 18,11 50,20 72,20 31,0 45,-7 72,-35 18,-19 41,-35 51,-35 23,0 37,-10 51,-35 10,-17 11,-17 12,-3 0,21 -37,48 -67,48 -13,0 -24,8 -28,20 -17,53 -123,67 -175,23 z"
       id="path33" />
    <path
       d="m 2251,4159 c -1,-17 29,-49 45,-49 5,0 1,5 -9,11 -10,6 -22,20 -27,32 -6,15 -9,17 -9,6 z"
       id="path34" />
    <path
       d="m 2572,4079 c -13,-16 -40,-34 -61,-40 l -38,-11 24,-24 c 26,-26 31,-72 9,-80 -12,-5 -11,-11 5,-37 38,-63 21,-118 -44,-148 -46,-20 -39,-26 11,-8 58,20 82,100 46,155 -13,19 -14,28 -5,37 16,16 14,49 -4,74 -15,21 -14,23 19,37 19,8 42,26 52,40 23,37 14,40 -14,5 z"
       id="path35" />
    <path
       d="m 2370,3690 c -9,-6 -10,-10 -3,-10 6,0 15,5 18,10 8,12 4,12 -15,0 z"
       id="path36" />
    <path
       d="m 2702,3410 c 0,-14 2,-19 5,-12 2,6 2,18 0,25 -3,6 -5,1 -5,-13 z"
       id="path37" />
    <path
       d="m 2648,3369 c -13,-7 -18,-21 -17,-47 2,-34 2,-35 6,-7 6,37 18,53 46,58 20,4 20,4 2,5 -11,1 -28,-3 -37,-9 z"
       id="path38" />
    <path
       d="m 2689,3253 c -13,-15 -12,-15 9,-2 27,17 53,4 63,-32 7,-23 7,-23 8,-2 2,45 -53,70 -80,36 z"
       id="path39" />
    <path
       d="m 105,1982 c -19,-14 -65,-88 -65,-106 0,-10 13,-30 29,-46 22,-23 27,-35 23,-57 -5,-25 -4,-27 12,-14 9,8 14,16 11,19 -3,3 1,12 8,20 6,9 7,13 1,9 -6,-3 -23,7 -38,22 -34,35 -33,80 2,97 16,8 19,13 10,17 -22,8 6,29 33,25 18,-2 25,-10 27,-30 2,-16 -1,-28 -7,-28 -6,0 -11,-5 -11,-10 0,-7 6,-7 20,0 25,14 60,-3 60,-29 0,-10 -10,-31 -22,-47 -22,-29 -22,-29 -1,-11 12,11 27,16 32,12 18,-10 12,-54 -8,-67 -15,-9 -18,-19 -14,-45 4,-24 1,-39 -13,-54 -22,-24 -26,-79 -6,-72 15,6 15,16 1,30 -8,8 -5,17 11,33 15,15 21,31 19,54 -2,22 4,39 19,54 26,26 27,41 7,68 -8,10 -15,29 -15,42 0,15 -11,29 -30,40 -16,9 -30,24 -30,33 0,17 -30,49 -46,49 -5,0 -14,-4 -19,-8 z"
       id="path40" />
    <path
       d="m 122,1751 c -10,-6 -10,-10 3,-21 13,-11 15,-9 15,9 0,24 0,24 -18,12 z"
       id="path41" />
    <path
       d="m 102,1708 c -16,-16 -15,-43 3,-58 17,-14 21,0 4,17 -16,16 -3,32 24,27 12,-2 15,-1 7,2 -8,4 -18,11 -21,15 -3,5 -10,4 -17,-3 z"
       id="path42" />
    <path
       d="m 113,1615 c -3,-9 -3,-18 -1,-21 3,-3 8,4 11,16 6,23 -1,27 -10,5 z"
       id="path43" />
    <path
       d="m 171,1534 c 0,-11 3,-14 6,-6 3,7 2,16 -1,19 -3,4 -6,-2 -5,-13 z"
       id="path44" />
  </g>
</svg>
