<?xml version="1.0" encoding="UTF-8" standalone="no"?>
<svg
   version="1.0"
   width="512pt"
   height="412.59122pt"
   viewBox="0 0 512 412.59122"
   preserveAspectRatio="xMidYMid"
   id="svg44"
   xmlns="http://www.w3.org/2000/svg"
   xmlns:svg="http://www.w3.org/2000/svg">
  <defs
     id="defs44" />
  <metadata
     id="metadata1">
Created by potrace 1.16, written by Peter Selinger 2001-2019
</metadata>
  <path
     d="M 344.7,0.99125387 C 337.3,3.6912538 333,9.9912538 333,17.991254 c 0,2.7 -0.5,4.6 -1.1,4.6 -2.2,0 -6.7,4.1 -8.4,7.7 -1,2.1 -1.8,5.8 -1.7,8.4 0.1,4.6 0,4.7 -3.3,5.3 -4.7,0.9 -8.1,3.9 -10.1,9.1 -2.4,6.3 -1.4,12.2 2.5,15.7 l 3,2.7 -4.6,0.7 c -5.8,0.8 -11,5.2 -11.9,10 -0.3,1.9 -1,3.7 -1.5,4 -0.5,0.3 -0.9,2.6 -0.9,5.2 0,4.9 2.7,10.799996 5.5,11.799996 1.1,0.5 1.2,1.1 0.5,2.4 -1.4,2.6 -1.2,6.3 0.4,8.5 1.2,1.6 1.2,2.2 -0.1,4.2 -0.8,1.2 -1.3,3.3 -1.1,4.6 0.1,1.3 -0.5,3.2 -1.5,4.1 -2.1,2.1 -2.1,3 -0.2,5 1.7,1.7 2.2,16.1 0.5,17.1 -0.5,0.3 -1,1.7 -1,3 0,1.3 0.5,2.7 1,3 0.6,0.3 1,5.3 1,11.3 v 10.7 l -1.8,-3.5 c -1.6,-3.2 -2.1,-3.5 -5.9,-3.4 -2.9,0 -4.3,-0.4 -4.3,-1.2 0,-0.7 -0.8,-1.7 -1.7,-2.3 -1.5,-0.8 -1.5,-1.3 -0.5,-3.6 2,-4.4 1.4,-6.4 -3.4,-11 -4.8,-4.8 -7.7,-5.5 -11,-3 -1.8,1.4 -1.7,1.4 0.9,0.4 3.6,-1.6 8.2,0.3 7.4,3.1 -0.3,1.1 0,1.7 0.7,1.4 0.6,-0.2 2,0.2 3,0.9 2.4,1.7 2.5,6.2 0.4,10.5 -1.5,2.9 -1.5,3.1 0.5,3.4 4.2,0.6 2.8,2.5 -2.4,3.2 -4,0.6 -5.6,0.4 -6.7,-0.8 -1.2,-1.2 -1.3,-1.8 -0.3,-2.9 0.9,-1.2 0.8,-1.5 -0.6,-1.3 -1,0 -2.2,-0.9 -2.8,-2.2 -0.5,-1.2 -1.9,-2.2 -3,-2.2 -4.3,0 -5.8,-3.9 -2.8,-7.2 1.3,-1.5 1.4,-1.8 0.1,-1.8 -4.5,0 -7.6,-9 -4.2,-12.4 2.1,-2.2 3.3,-2 4.4,0.6 0.5,1.3 0.9,1.8 0.9,1.2 0.1,-0.7 -0.6,-2.7 -1.4,-4.5 -0.8,-1.9 -1.4,-2.8 -1.5,-2.1 0,0.7 -1.2,2.3 -2.7,3.6 -3.6,3.1 -3.7,8.5 -0.3,12.1 1.8,1.9 2.4,3.5 2.1,6.1 -0.2,3 0.1,3.6 2.8,4.7 1.7,0.7 4.4,3.1 6.1,5.3 2.3,3.1 2.8,4.6 2.4,7.1 -0.4,2.3 -0.2,3.3 0.6,3.3 1,0 1.1,1.7 0.7,6.9 -0.3,3.9 -0.3,7.1 0.1,7.3 0.4,0.2 0.5,8.1 0.4,17.5 l -0.4,17.3 h -3.3 c -2.9,0 -3.4,0.4 -3.7,2.7 -0.3,2.6 -0.7,2.8 -7.8,3.8 -5.9,0.8 -7.6,1.4 -7.8,2.8 -0.2,0.9 0.4,2 1.2,2.3 1.4,0.5 1.6,2.8 1.6,14.4 v 13.9 l -2.7,0.3 c -3.8,0.4 -4.5,3.8 -0.9,3.8 2.1,0 2.6,0.5 2.6,2.5 0,2.4 -0.2,2.5 -4.2,1.9 -2.4,-0.3 -4.8,-0.7 -5.4,-0.9 -1.3,-0.4 -2,-9.5 -3.3,-40.5 -0.8,-18.5 -0.8,-19.5 1,-20.8 3.1,-2.2 1.9,-12.2 -1.6,-12.2 -1.3,0 -1.5,-3 -1.5,-22.8 0,-16.1 0.3,-23.1 1.2,-24 0.9,-0.9 0.8,-1.6 -0.5,-3 -2.1,-2.3 -2.2,-6.5 -0.1,-8.2 2.5,-2.2 1.3,-6.3 -2.3,-8 -2.4,-1.1 -3.3,-2.2 -3.3,-4 0,-3.5 -2.6,-12.8 -4,-14.5 -0.8,-1 -0.5,-2.2 1.5,-5.1 2.2,-3.2 2.5,-4.5 2,-8.8 -0.7,-7.499996 -0.8,-7.599996 -1.6,-7.599996 -0.4,0 0.6,-1.3 2.2,-2.9 1.6,-1.6 2.9,-3.6 2.9,-4.5 0,-2.5 -2.1,-6.4 -3.8,-7.1 -1.3,-0.5 -1.3,-0.3 0.1,1.3 3.2,3.6 1.1,11.2 -3.1,11.2 -1.6,0 -1.5,1.1 0.3,3.4 2.3,3 1.9,11.799996 -0.6,14.999996 -2.6,3.3 -4.3,3.4 -3.5,0.2 0.8,-3.3 -0.5,-6.4 -4.7,-10.7 -2.7,-2.799996 -3.4,-4.199996 -3,-6.199996 0.3,-1.6 -0.3,-4.3 -1.6,-6.8 -2.5,-4.8 -2.1,-8.6 1.2,-11.7 3.2,-3 7.1,-3.7 10.7,-1.9 3.1,1.6 4.3,0.5 1.3,-1.2 -1.6,-0.9 -1.5,-1.3 1.5,-4.4 2.4,-2.5 3.2,-4.1 2.9,-5.8 -0.4,-2.4 -0.4,-2.4 -0.6,0.2 -0.1,3.4 -5.9,8.9 -9.4,8.9 -6.1,0 -10.7,4.6 -10.7,10.7 v 2.7 l -3,-3.4 c -2,-2.5 -2.9,-4.6 -3,-7.1 0,-2.2 -0.9,-4.8 -2.2,-6.4 -2,-2.5 -2.5,-2.7 -7.2,-2.1 -2.8,0.3 -5.6,0.2 -6.2,-0.2 -0.6,-0.4 -1.5,-2.5 -1.8,-4.8 -0.8,-4.5 -4.7,-9.4 -7.5,-9.4 -1,0 -2.6,-0.9 -3.5,-1.9 -2.7,-3 -8.3,-5.3 -13,-5.3 -5.9,0 -11.3,2.5 -15.8,7.4 l -3.8,4.2 0.6,-3.2 c 0.9,-4.7 -2,-11.7 -6.3,-14.9 -2.6,-2 -5,-2.8 -9.1,-3.1 -7.5,-0.5 -11.2,2 -15.9,10.8 -2.8,5.3 -3.3,7.2 -2.9,10.2 0.7,4.3 0.8,4.3 -3,2.3 -4.3,-2.2 -11.9,-1.9 -16.5,0.7 -8,4.5 -11.8,15.1 -9.1,25.1 0.9,3.2 0.8,3.7 -0.9,4.2 -1,0.3 -3.4,2.4 -5.3,4.7 -3.7,4.3 -5.2,9.699996 -4.1,14.799996 0.9,4 6.5,9.8 10.2,10.6 2,0.4 3.3,1.5 4,3.5 0.6,1.6 2.5,3.7 4.2,4.6 2,1.2 3.1,2.6 3.1,4.1 0,1.2 0.7,3.9 1.5,5.9 1.4,3.3 1.4,3.8 0,4.5 -2.4,1.4 -1.8,4.5 1.5,8 l 3,3.1 -0.2,13.6 -0.2,13.6 -0.6,-11 -0.6,-11 -0.2,15 c -0.3,18.7 -1.5,46.4 -4.4,98.2 l -2.2,40.2 -5.5,0.6 c -3.1,0.3 -7.1,0.7 -8.9,1 l -3.2,0.4 v -5.5 -5.4 h 4.3 c 2.4,0 5.2,-0.6 6.2,-1.4 1.8,-1.3 1.8,-1.4 -0.3,-2.5 -1.1,-0.6 -3.9,-1.1 -6.1,-1.1 -3.3,0 -4,-0.4 -4.4,-2.3 l -0.4,-2.2 -0.2,2.2 c -0.1,2.2 -0.5,2.3 -9.6,2.3 H 57 v -11.9 c 0,-7.4 -10.2,-2 -10.2,-2 l 0.4,13.7 -4.8,0.7 c -6.3,1 -8.4,2.1 -8.4,4.5 0,2.4 3,4.4 9,6.1 4,1.2 4.2,1.4 1.8,1.7 -2.4,0.3 -2.7,0.8 -3,4.5 l -0.3,4.2 -7,0.6 -7,0.5 6.8,0.2 6.7,0.2 v 5 5 l -4.3,-0.1 c -2.4,-0.1 -4.9,0.1 -5.5,0.5 -0.9,0.5 -1.2,6.5 -1.2,20.2 v 19.4 h -3.3 c -3.2,0 -3.2,-0.1 -2.9,-4.1 0.3,-2.2 -0.1,-4.6 -0.7,-5.2 -0.7,-0.7 -1.2,-6.2 -1.3,-14.2 -0.2,-9.8 -0.3,-11 -0.5,-4.7 -0.3,6 -0.7,8.2 -1.6,7.9 -0.8,-0.2 -1.3,-4.3 -1.5,-13.5 l -0.3,-13.1 2.6,-0.7 c 1.4,-0.3 2.5,-1 2.5,-1.4 0,-1.6 -3.1,-4 -5.2,-4 -1.6,0 -1.9,-0.5 -1.6,-2.4 3.981938,-21.237 -1.584251,1.91439 -3.4,3.4 -1.8,1.4 -2,2.1 -1,3.2 1.2,1.5 1.7,24.4 0.5,27.4 -0.3,0.8 -1.4,1.4 -2.4,1.4 -2.1,0 -2.4,1.1 -0.8,2.7 0.9,0.9 -0.2,1.8 -4,3.7 -2.8,1.5 -5.1,3.1 -5.1,3.6 0,1.4 0.5,1.3 5,-1 2.2,-1.1 4.2,-2 4.5,-2 0.3,0 0.5,7.9 0.5,17.5 v 17.5 H 5 0 v 10 10 h 255.5 c 169.7,0 255.5,-0.3 255.5,-1 0,-0.7 -74,-1 -220.1,-1 -214.5,0 -220.3,0 -227.7,-1.9 -4.3,-1.1 -11.7,-2.7 -16.7,-3.6 -4.9,-1 -9.6,-2 -10.3,-2.4 -3.2,-1.8 32,-2.1 245.7,-2.3 126.4,-0.1 212.8,-0.5 196.6,-0.9 -15.9,-0.4 -124.3,-0.7 -240.7,-0.7 H 26.1 l -2.7,-2.1 -2.7,-2.1 h 245.7 c 217.6,0 245.6,-0.2 245.6,-1.5 0,-0.8 -0.5,-1.5 -1.1,-1.5 -0.7,0 -1,-4.2 -0.8,-12.7 l 0.2,-12.8 -5.4,-1.6 -5.4,-1.6 -0.3,-5.4 c -0.2,-2.9 -0.8,-5.6 -1.3,-6 -0.5,-0.3 -1.2,-9.4 -1.6,-20.6 l -0.6,-20.1 2.4,-0.5 c 1.3,-0.2 0.4,-0.4 -2.1,-0.4 -2.5,-0.1 -3.7,0.1 -2.7,0.4 1.6,0.4 1.7,2.5 1.7,25.9 v 25.4 l -2.7,-0.6 c -4.3,-1 -4.3,-1.1 -4.3,-7.9 0,-5.9 -0.1,-6.3 -2.1,-5.8 -1.7,0.5 -2,0.2 -1.7,-1.3 0.2,-1 1,-1.8 1.6,-1.7 2.1,0.5 1.3,-1.9 -0.8,-2.4 -1.8,-0.5 -2,-1.4 -2,-7.9 0,-6.8 -0.2,-7.4 -2.1,-7.4 -2,0 -2,-0.2 -1.8,-28.7 l 0.3,-28.8 -3.5,-0.3 c -1.9,-0.2 -4.3,0.4 -5.4,1.1 -1.7,1.3 -1.8,1.8 -0.7,4.1 1.7,3.8 1.7,34.5 0,35.1 -0.7,0.2 -5.3,0.7 -10.3,1.2 l -9,0.8 6,0.6 c 5.5,0.5 5.3,0.6 -3,0.6 -4.9,0.1 -16.4,0.8 -25.5,1.6 -18.8,1.8 -29.9,2.1 -28.5,0.8 0.6,-0.4 11.8,-1.6 25,-2.6 24.9,-1.7 37.2,-3.6 21.7,-3.2 l -8.2,0.2 v -15 c 0,-11.7 0.3,-15.5 1.5,-17.2 1.3,-1.9 1.3,-2.1 -0.8,-2.7 -4.2,-1.1 -10.2,-0.6 -14.3,1.3 -4.8,2.2 -6,3.6 -3.9,4.5 1.2,0.4 1.5,3.1 1.5,15.4 v 14.9 l -3.7,0.6 c -2,0.4 -3.8,0.5 -4,0.4 -0.1,-0.2 -0.5,-11.7 -0.9,-25.7 -0.6,-23 -0.5,-25.6 0.9,-26.9 1.9,-1.5 2.2,-4.6 0.7,-5.6 -0.6,-0.4 0.2,-2.1 2,-4.1 1.6,-1.9 3,-4.5 3,-5.7 0,-1.6 0.9,-2.6 3,-3.4 1.7,-0.6 3.2,-2.1 3.5,-3.5 0.3,-1.3 1.6,-2.8 2.8,-3.3 2.9,-1.3 4.8,-5.2 3.7,-8 -0.6,-1.6 -0.4,-2.7 0.8,-3.9 1,-0.9 1.7,-3.2 1.7,-5.5 0,-3.4 -0.7,-4.6 -5.3,-9.1 -5.2,-5.1 -13.5,-8.9 -16.8,-7.6 -0.9,0.3 -1.4,-0.1 -1.4,-1.3 0,-1 -0.9,-2.6 -2,-3.6 -2.4,-2.1 -2.6,-5.1 -0.5,-7.1 3.2,-3.3 3.1,-9.8 -0.3,-13.2 -0.9,-0.9 -2.2,-2.9 -2.9,-4.4 -2.5,-5.5 -10.2,-4.6 -12.8,1.5 -1.4,3.3 -4.1,6.2 -8.7,9 -1.6,1 -2.8,2.4 -2.8,3.2 0,0.7 -0.9,1.7 -2,2 -3.4,1.1 -5,3.5 -5,7.7 0,3.2 0.6,4.6 3.1,6.9 1.7,1.6 3.5,2.9 4.1,2.9 0.5,0 0,1.2 -1.1,2.6 -2.5,3.1 -2.6,5.5 -0.7,9.3 1.6,2.9 5.3,5.1 9,5.1 1.8,0 2.5,0.7 3,3 0.3,1.8 1.5,3.4 2.9,4.1 1.2,0.6 2.4,2 2.4,3.2 0.1,1.2 1,2.8 2,3.5 1.7,1.2 1.7,1.4 0.1,2.3 -2.1,1.1 -2.4,4.9 -0.6,6.7 1,1 0.9,1.8 -0.4,4 -2,3.3 -2,11.8 -0.1,13.3 0.9,0.8 1.3,4.1 1.3,11.9 0,10.4 -0.1,10.7 -2.5,11.8 -1.5,0.7 -2.5,2 -2.5,3.2 0,1.8 -0.6,2 -6,2 h -6 v -29 c 0,-18.7 0.4,-29 1,-29 2.7,0 0.3,-2.2 -6.6,-6 -7,-3.8 -7.9,-4.1 -12.8,-3.5 l -5.3,0.7 -0.6,-11.4 c -0.4,-6.2 -0.7,-24 -0.7,-39.4 0,-23.8 0.2,-28.3 1.5,-29.4 0.8,-0.7 1.5,-2.1 1.5,-3.2 0,-1 -0.7,-2.1 -1.5,-2.4 -2.8,-1.1 -1.4,-14 1.6,-14.9 1.1,-0.4 2.2,-1.7 2.5,-3.1 0.4,-1.4 1.3,-2.4 2.4,-2.4 0.9,0 2.5,-0.9 3.5,-2 1.8,-1.9 1.8,-1.9 4.6,0.4 6.7,5.7 17.1,5.9 24.7,0.6 3.3,-2.3 5.3,-3 9,-3 10.3,0 21.3,-8.9 22.7,-18.299996 0.7,-4.5 0.4,-4.3 11.7,-11.2 7.1,-4.4 10.5,-8.8 11.7,-14.9 1.5,-8 -0.9,-14.2 -6.5,-17.2 -1.8,-1 -3.7,-2.8 -4.3,-4 -0.5,-1.3 -2.1,-3 -3.4,-3.9 -1.8,-1.1 -2.7,-2.9 -3.2,-6 -1.4,-9.8 -11.3,-17.9 -21.7,-18 -6.4,0 -9.9,1.9 -13.3,7.3 -1.6,2.5 -2.6,3.1 -5.2,2.9 -2.5,-0.2 -3.5,-0.8 -4.4,-2.9 -2.8,-6.8 -12.1,-11.9 -18.7,-10.4 -5.3,1.3 -5.6,1.2 -6.3,-2.3 C 364.9,3.2912538 354,-2.4087462 344.7,0.99125387 Z m 10.4,1.59999993 c 4.7,1.3 8.6,5.5 10.3,11.3000002 1.2,4 1.2,4.8 0,5.8 -3.3,2.7 -1,2.6 2.8,-0.1 4.8,-3.5 9.2,-3.9 14.6,-1.1 4,2 7.8,7.7 8.5,12.6 0.3,1.7 1,2.9 1.7,2.7 2.7,-0.6 9.8,4.8 11.9,9 1.1,2.4 2.1,3.6 2.1,2.8 -0.1,-3.5 -4.6,-9.5 -8.7,-11.5 -2.3,-1.1 -4.2,-2.3 -4.3,-2.8 0,-0.7 4.9,-1.2 7.9,-0.7 0.9,0.1 1.2,-0.4 0.7,-1.5 -0.9,-2.5 1.1,-5.3 5.4,-7.5 6.6,-3.4 13.7,-2 20.2,3.8 4.6,4.1 6.8,8.5 6.8,13.4 0,2.7 0.6,3.6 3.3,4.8 2.5,1.2 3.4,2.4 4.4,6 0.6,2.5 1.2,3.7 1.2,2.7 0.1,-2.4 1.8,-2.1 4.6,0.7 2.5,2.5 4.6,8.4 4,11.3 -0.2,1 -0.6,3 -1,4.5 -1.1,5.5 -9.5,12.8 -14.6,12.8 -1.1,0 -3,1.1 -4.1,2.5 -1.1,1.4 -2.4,2.3 -2.9,2 -0.5,-0.4 -0.9,1.2 -0.9,3.5 0,7.4 -5.7,15.299996 -13.2,18.399996 -4.5,1.9 -11.8,2.1 -11.8,0.4 0,-0.7 -1.2,0 -2.6,1.6 -7.2,7.7 -19.6,8.6 -26.6,1.9 -3.3,-3.2 -3.7,-5.1 -0.6,-2.9 1.2,0.9 2.7,1.6 3.2,1.6 0.6,0 -0.1,-0.7 -1.4,-1.6 -1.4,-1 -3,-2.3 -3.6,-3.1 -0.9,-1.1 -1.3,-0.7 -1.7,1.6 -0.6,3 -5.1,7 -6.4,5.7 -0.4,-0.4 0.2,-0.9 1.3,-1.2 1.4,-0.4 2,-1.4 2.1,-3.7 0.2,-2.6 0,-2.8 -0.7,-1.2 -0.4,1.1 -1.8,2.8 -2.9,3.7 -1.2,1 -2.1,2.6 -2.1,3.6 0,2.5 -2.8,6.2 -4.4,5.6 -0.9,-0.3 -1.1,0.3 -0.8,2.5 0.3,2.6 0,3 -2.7,3.6 -2.6,0.5 -3.1,1.1 -3.1,3.5 v 2.8 l -9.2,0.4 c -6.1,0.3 -9.6,0.1 -10.1,-0.6 -0.4,-0.6 -0.4,-4 -0.1,-7.6 0.4,-3.6 0.8,-9.4 0.9,-13 0.2,-3.6 0.3,-7 0.4,-7.7 0,-0.6 1.5,-2.6 3.3,-4.299996 2.6,-2.7 3.2,-3.9 2.9,-7 -0.1,-2.1 0.4,-5.2 1.3,-6.8 1.6,-3.1 4.8,-5 5.4,-3.3 0.6,1.7 2.2,0.2 2.2,-1.9 0,-2.2 6.1,-7.7 9.6,-8.6 1.4,-0.4 4.3,-0.4 6.5,-0.1 4.7,0.6 4.3,-1 -0.6,-1.9 -2.3,-0.4 -3.5,-1.3 -3.8,-2.7 -0.7,-2.6 0.5,-9.4 2,-12.2 3.3,-6 10.5,-8.9 16.3,-6.5 l 3,1.2 -2,2.5 c -2.9,3.7 -2.4,5 0.5,1.4 5.6,-6.5 14.5,-6.5 22.1,0.2 4.9,4.3 4.7,2.2 -0.3,-2.5 -3.9,-3.7 -10.3,-5.4 -14.9,-4 -2.7,0.8 -4.3,0.7 -6.9,-0.4 -9.1,-3.7 -19.1,0.8 -21,9.5 -0.6,2.7 -0.8,2.7 -5.8,2.3 -4.7,-0.4 -5.7,-0.1 -8.6,2.4 -5.4,4.5 -7.7,12.6 -5,17.5 0.8,1.6 0.5,3 -1.2,6.5 -1.4,3.1 -2,5.6 -1.6,7.9 0.4,2.6 0,3.8 -1.9,5.6 -2.7,2.499996 -4.8,8.799996 -3.8,11.299996 0.4,0.9 0.3,1.6 -0.2,1.4 -2.1,-0.5 -5.4,1.5 -5.4,3.3 0,1.1 -1.1,2.4 -2.6,3.1 -2.2,1 -2.8,1 -4,-0.6 -1.2,-1.7 -1.3,-1.7 -1.1,0.9 0.1,1.6 -0.4,3 -1.3,3.5 -3.9,2 -6.8,2.9 -10,3.2 -3.1,0.3 -3.5,0 -3.8,-2.2 -0.2,-1.7 0.6,-3.4 2.3,-5 1.4,-1.3 2.5,-3.3 2.5,-4.5 0,-2.8 1.8,-4.5 4.9,-4.5 2.3,-0.1 2.4,-0.2 0.8,-1.1 -2.8,-1.6 -5.7,-0.1 -6.5,3.4 -0.3,1.8 -0.5,3.6 -0.3,4.2 0.1,0.5 -0.7,0.1 -1.8,-0.9 -2.5,-2.3 -2.7,-6.3 -0.4,-9.6 1,-1.4 1.6,-3.9 1.5,-5.999996 -0.3,-4.2 3.3,-9 6.8,-9 1.3,0 2,-0.7 2,-1.8 0,-3 2.2,-4.2 7.6,-4.2 6.4,0 8.4,-1.7 8.3,-6.8 l -0.1,-3.7 -0.8,3.9 c -0.9,4.8 -2.4,5.8 -7.7,5.1 -3.7,-0.5 -4.6,-0.3 -6.8,1.9 -1.4,1.4 -3.9,3.3 -5.5,4.1 -3.8,2 -6.4,6.9 -5.6,10.6 0.7,3.799996 -1.5,3.899996 -4.3,0.3 -3,-3.8 -3.7,-8.9 -1.7,-11.9 0.9,-1.3 1.6,-3.1 1.6,-4 0,-4.6 6.6,-9.5 12.9,-9.5 1.6,0 3.1,-0.6 3.5,-1.5 1,-2.8 2.6,-1.5 2.1,1.7 l -0.5,3.3 1.3,-3.5 1.4,-3.5 -3.5,-0.6 c -4.6,-0.8 -7.1,-4.3 -7.2,-9.7 0,-5.4 2.2,-9.7 6.3,-12.2 4.3,-2.7 7.3,-2.5 10.9,0.5 1.6,1.4 3.7,2.5 4.6,2.4 1.4,0 1.3,-0.2 -0.3,-0.8 -7.3,-3 -9.1,-14.3 -3.5,-21.4 2.9,-3.7 11.1,-6.2 15.3,-4.8 2.3,0.8 2.9,0.9 2,0 -0.6,-0.6 -2.9,-1.3 -5.2,-1.6 -4,-0.6 -4.1,-0.6 -4.1,-4.5 0,-6.2 4.2,-12.3000002 10,-14.7000002 3.3,-1.3 5.7,-1.3 10.1,-0.1 z M 140.3,39.491254 c 2.9,1.7 6.7,8.3 6.7,11.9 0,2.7 -0.8,2.8 -2.6,0.4 -1.2,-1.5 -1.2,-1.5 -0.7,0.5 0.3,1.3 0.9,2.3 1.3,2.3 0.4,0 1.3,1.4 2,3 1,2.4 1,3.7 0.1,5.6 -0.6,1.4 -1.1,3.7 -1,5.2 0.1,2.5 0.2,2.4 0.9,-0.7 1.2,-5.1 4.4,-6.7 6,-2.9 0.7,2 0.8,1.8 0.8,-1.2 -0.1,-4.6 1.5,-7.6 5.2,-9.5 5.4,-2.8 10.1,-1.1 12.4,4.4 1.2,2.9 1.5,3.2 1.5,1.3 0.1,-3.5 -5.1,-8.2 -8.9,-8.2 -4.4,0 -8.6,2.5 -10.2,6 -1.4,3.2 -3.5,3.5 -3,0.4 0.5,-2.4 4.9,-7.2 8.5,-9 6.3,-3.3 18,-1 21.4,4.3 1,1.4 2.2,2.2 3.2,1.8 3.4,-1 6.1,3.2 6.1,9.8 0,4.1 0.2,4.5 2.1,4 1.2,-0.3 2.5,0 2.9,0.7 0.6,1 1.3,0.9 3.1,-0.4 3.1,-2.1 4.5,-2 6.9,0.4 2.7,2.7 2.8,9 0.2,8.4 -0.9,-0.3 -2.8,0 -4.2,0.6 l -2.5,1.1 2.4,-0.5 c 3.8,-0.8 8.9,1.9 11.2,5.9 1.2,1.9 2.5,3.5 3.1,3.5 0.5,0 0.6,-0.6 0.2,-1.3 -0.5,-0.8 -0.3,-0.8 0.9,0.2 0.9,0.7 1.5,1.7 1.2,2.1 -0.3,0.5 -0.1,2 0.5,3.5 l 1,2.7 -2.6,-2.1 c -1.5,-1.2 -3.4,-2.1 -4.3,-2.1 -0.9,0 -0.3,0.8 1.6,1.9 3.4,2.1 3.8,3.1 4.9,10.299996 0.4,3.4 1.2,4.9 2.5,5.3 1.1,0.4 2.4,1.5 2.9,2.6 0.9,1.5 0.7,1.9 -0.7,1.9 -1.1,0.1 -0.6,0.6 1.4,1.5 3.3,1.4 4.9,3.5 7,9.5 2,5.5 1.5,6.9 -1.1,2.7 -3.4,-5.6 -3.9,-5.7 -1.5,-0.3 1.1,2.6 1.9,4.9 1.7,5.1 -0.1,0.1 -5.4,0.5 -11.5,0.7 -11.2,0.3 -11.3,0.3 -11.3,-1.9 0,-1.9 -0.5,-2.3 -3,-2.3 -2.3,0 -3.5,-0.7 -5,-3.3 -1.1,-1.7 -1.8,-3.8 -1.5,-4.4 0.2,-0.7 -0.7,-2.4 -2,-3.7 -2.8,-2.8 -3.5,-1.3 -0.8,1.6 0.9,1 1.3,2.1 1,2.4 -1.2,1.2 -5.6,-0.6 -6.2,-2.6 -0.6,-1.9 1.7,-6.5 2.7,-5.5 0.3,0.3 0.8,-0.4 1.1,-1.6 0.5,-2 0.5,-2 -1.3,-0.4 -2.6,2.4 -4.9,1.5 -6.6,-2.3 -0.7,-1.8 -0.9,-3 -0.4,-2.7 0.6,0.4 1,-0.8 0.9,-2.7 -0.1,-1.8 -0.3,-2.5 -0.6,-1.6 -0.7,2.6 -2.8,2.2 -5.2,-0.9 -2.3,-2.799996 -2.1,-5.199996 0.7,-8.799996 0.8,-1.1 0,-0.3 -1.9,1.7 -1.9,2 -4.4,5.1 -5.7,6.699996 -1.9,2.5 -3.1,3.1 -6,3.1 -2.8,0 -3.3,0.3 -2.4,1.2 2,2 1.4,4.5 -1.8,8.2 -5.5,6.2 -14.8,7.3 -21.3,2.4 -5.7,-4.3 -6.4,-4.5 -4.4,-1.5 2.3,3.5 2.2,6.8 -0.4,10.1 -3.9,4.9 -11.9,7.5 -11.9,3.8 0,-1 -1.3,0.4 -3.1,3.1 -1.8,3 -3.5,4.7 -4.3,4.4 -0.9,-0.4 -1.2,0 -0.9,1.1 0.3,1.5 -0.4,1.7 -5.6,1.4 -5.1,-0.3 -6.1,-0.7 -6.1,-2.2 0,-1 1.3,-2.9 2.8,-4.2 1.6,-1.3 2.7,-2.9 2.4,-3.6 -0.6,-1.9 1.9,-4.4 4,-3.9 1,0.3 1.6,0.1 1.2,-0.4 -0.8,-1.3 -3.8,-1.1 -5.2,0.3 -0.7,0.7 -1.2,2.2 -1.2,3.3 0,1.3 -1,2.6 -2.5,3.3 -1.4,0.7 -2.7,2.3 -3.1,3.9 -0.3,1.5 -0.7,3.2 -0.8,3.8 -0.1,0.5 -1.1,-0.3 -2.1,-1.8 -2.1,-3.3 -3.2,-11.1 -1.6,-12.1 0.6,-0.4 1.1,-2.3 1.1,-4.2 0,-4.1 3.7,-8.4 7.2,-8.4 1.3,-0.1 3.4,-0.9 4.6,-2 2.2,-1.8 2.2,-2.1 0.8,-3.6 -4.7,-4.6 1.6,-14.399996 9.2,-14.399996 2.8,0 4.5,0.6 5.4,1.8 0.8,1.2 2.5,1.9 4.7,1.9 2.3,0 4,0.7 5.1,2.1 1.9,2.3 3.5,11.599996 2.4,13.399996 -0.4,0.7 -0.3,0.8 0.4,0.4 0.7,-0.4 1.2,-2 1.2,-3.7 0,-2.3 0.4,-2.9 2,-2.9 1.2,0 3.2,-1.1 4.5,-2.5 3.6,-3.599996 3.5,-10.399996 -0.2,-14.299996 -1.6,-1.5 -1.9,-1.8 -0.9,-0.5 1,1.2 2.1,4.4 2.4,7.1 0.4,4.4 0.2,5.1 -2.3,6.999996 -4.1,3.2 -6.2,2.8 -6.9,-1.3 -0.7,-3.599996 -4.4,-6.499996 -8.2,-6.499996 -1,0 -2.6,-0.8 -3.7,-1.8 -1.2,-1.1 -3.5,-1.7 -6.2,-1.7 -3.6,0 -5,0.6 -7.9,3.4 -3,2.9 -3.6,4.2 -3.6,7.699996 0,2.4 0.5,4.6 1.1,4.9 1.7,1.1 -2.1,4.5 -5.2,4.5 -3.3,0 -7.9,5 -7.9,8.6 0,3.1 -1.7,6.4 -3.2,6.4 -0.6,0 -2,-0.7 -3,-1.7 -2,-1.8 -2.5,-8.7 -0.8,-9.8 0.6,-0.3 0.7,-1.7 0.4,-3.1 -0.4,-1.7 -0.1,-3.1 1.1,-4.4 1,-1.1 1.3,-2 0.8,-2 -1.9,0 -3.5,2.9 -3.2,5.8 0.7,5.9 -4.5,8.1 -9.4,4.1 -3.5,-2.7 -5.1,-8.7 -3.7,-13.8 1.1,-4.399996 6.9,-10.099996 10,-10.099996 2.4,0 2.4,0.1 0.5,-4.3 -3.4,-8.1 -0.6,-19.3 5.7,-23.9 4.5,-3.2 12.7,-3.6 17.2,-1 4.5,2.6 5.9,1.2 5,-4.7 -1.1,-7.1 2.9,-11 12.6,-12.2 5.1,-0.7 5,-0.7 -1.7,-0.5 -6.5,0.3 -7.1,0.2 -6.3,-1.4 3.1,-5.7 12.2,-7.2 19.3,-3.1 z m 217.7,25.9 c 0,3.5 -0.3,4 -4.1,5.6 -2.5,1.1 -4.9,3.2 -6.1,5.2 -3.2,5.5 -5.6,4 -3.8,-2.4 1.3,-5 4.5,-9.1 8.4,-10.8 4.9,-2.1 5.6,-1.8 5.6,2.4 z m -178.7,36.399996 1.7,2.8 h -3.6 c -3.5,0 -3.6,-0.1 -2.1,-1.8 1,-1 1.7,-2.5 1.7,-3.199996 0,-1.5 0,-1.5 2.3,2.199996 z m 46.7,6.9 c 0,1.9 -0.2,2 -1.7,0.8 -3.1,-2.3 -4.3,-4.2 -4.3,-6.8 l 0.1,-2.6 2.9,3.3 c 1.7,1.8 3,4.2 3,5.3 z m -41.5,-0.1 c 0.4,1.7 1.5,3.5 2.6,4 1.2,0.7 1.9,2.1 1.9,3.8 0,3.5 2.6,7.2 5,7.2 1,0 3.4,1.6 5.3,3.5 1.9,1.9 4.2,3.5 5.1,3.5 2.4,0 1.9,2.8 -0.9,4.6 -3.1,2 -3.4,6.4 -0.5,8.2 2.3,1.4 2.6,5.2 0.8,8.2 -1,1.5 -1,2.2 0,3.2 0.9,0.9 1.2,7.2 1.2,23.3 v 22.2 l -2.5,1.1 c -2.1,1 -2.5,1.8 -2.5,5.4 0,2.9 0.7,4.9 2.2,6.5 l 2.1,2.3 -2.3,27.7 c -1.2,15.3 -2.5,28.1 -2.9,28.5 -0.3,0.3 -3,0.8 -5.9,1 l -5.2,0.3 v -8.7 c 0,-9.5 -0.8,-10.8 -6.4,-10.8 -4.9,0 -5.1,0.4 -4.8,10 l 0.4,9 h -2.5 c -1.4,0 -2.8,-0.3 -3,-0.8 -0.3,-0.4 -0.8,-15 -1.2,-32.4 -0.6,-24.8 -0.5,-32.1 0.5,-33.3 1.9,-2.3 0.5,-4.3 -3.7,-5.4 -7.6,-2.1 -18.6,-0.8 -21.4,2.5 -1.1,1.4 -1,1.9 1,3.5 l 2.4,2 -0.7,18.7 c -0.5,16 -1.5,27.9 -4.2,49.9 -0.3,2.5 -1,4.3 -1.8,4.3 -0.7,0 -2.2,1 -3.3,2.2 -3.7,4.3 -6.1,12 -7.3,23.8 -1,10.6 -2.2,14.6 -3.9,13.5 -1.2,-0.7 -3.1,-32.9 -4.1,-71 -0.6,-19.8 -1.5,-49.9 -2,-66.8 -1.1,-30.3 -1,-30.8 1,-33.4 2.6,-3.4 2.5,-5.5 -0.5,-8.3 l -2.4,-2.3 2.2,-3.8 c 1.9,-3.3 2.7,-3.9 5.5,-3.9 5.8,0 12.6,-5 13.7,-10.1 0.6,-2.5 0.9,-2.7 3.1,-1.8 4.2,1.5 12.2,1.1 16.2,-1 3.5,-1.8 8.2,-8.2 8.2,-11.2 0,-1 2,-1.5 7.4,-1.7 l 7.4,-0.3 z m 146,10.7 c -0.4,3.8 -0.8,8.6 -0.9,10.9 0,2.4 -0.8,4.8 -1.8,5.8 -2.3,2.3 -2.3,3.1 0.4,5.5 l 2.1,2.1 -0.6,39 c -0.4,24.1 -1.1,39.8 -1.7,41 -0.8,1.4 -2.1,2 -4.7,2 -3.5,0 -3.5,0.1 -2.9,3.2 0.4,1.8 0.8,12.6 0.9,24 l 0.2,20.6 -2.6,0.4 -2.6,0.4 -0.6,-21 c -1.2,-37.4 -0.9,-96.4 0.6,-98.6 1,-1.7 0.9,-2.6 -0.5,-5.1 -2.3,-3.9 -2.4,-14.5 -0.3,-17.3 2.1,-2.8 1.9,-5.7 -0.6,-6.3 -2,-0.6 -1.9,-0.7 0.7,-2 7.2,-3.4 10.9,-6 11.3,-7.8 0.3,-2 1.8,-3.5 3.5,-3.5 0.5,0 0.5,2.9 0.1,6.7 z m -18.6,8.7 c -0.2,0.2 -3.3,0.6 -6.9,1 -4.4,0.4 -6,0.3 -5,-0.4 1.4,-0.9 12.9,-1.5 11.9,-0.6 z m -2.1,10.8 c 0.2,4.3 -0.1,7.8 -0.6,7.8 -0.5,0 -2.4,0.3 -4.1,0.6 l -3.1,0.6 v -8 c 0,-8.5 0.4,-9.2 5,-8.9 2.4,0.2 2.5,0.5 2.8,7.9 z m -78.1,-2.7 c 4.9,2.1 3.9,2.5 -3.2,1.3 -6.9,-1.1 -17.3,-0.3 -22.1,1.7 -3.4,1.4 -4.6,0.7 -2.1,-1.2 4.2,-3.4 20.9,-4.5 27.4,-1.8 z m 123.7,0.4 c 3.6,1.5 2.8,2.5 -0.8,1.1 -3.9,-1.4 -17.4,-1.2 -22.1,0.5 -4,1.4 -5.7,1.2 -3.9,-0.4 3,-3 20.4,-3.8 26.8,-1.2 z m -7.6,2.7 2.2,0.6 v 41.3 41.3 l -3.7,0.6 c -2.1,0.3 -6.7,0.8 -10.2,1.2 l -6.4,0.6 0.7,-5.3 c 0.3,-3 0.9,-21.9 1.3,-42.2 0.6,-36.2 0.7,-36.7 2.7,-37.2 6.6,-1.4 10.4,-1.7 13.4,-0.9 z m -119.4,2 c 0.9,0.3 1.6,1.8 1.6,3.3 v 2.6 h -8.7 c -4.9,0 -10,0.3 -11.5,0.8 -2.6,0.7 -2.8,0.5 -2.8,-2.3 0,-2.2 0.6,-3.3 2.3,-4 2.5,-1 16.7,-1.3 19.1,-0.4 z m -110.5,1.5 c 1.7,0.6 3.6,2 4.2,3.2 1,1.7 0.9,1.9 -0.7,1.2 -6.8,-2.7 -12.9,-3 -20.3,-0.9 -1.8,0.5 -2.3,0.4 -1.9,-0.7 1.2,-3.6 11.8,-5.2 18.7,-2.8 z m 116.1,8 c 2.8,1.2 4.9,2.4 4.6,2.6 -0.2,0.3 -1.9,-0.3 -3.7,-1.2 -4.6,-2.4 -17.1,-3 -23.9,-1.2 -6.1,1.7 -7.4,1.5 -3.8,-0.4 6.2,-3.4 18.6,-3.3 26.8,0.2 z m -122.6,13.6 c -0.3,8.7 -0.7,16.4 -1,17 -0.2,0.7 -1.5,1.3 -2.9,1.3 H 105 v -17 -17 h 3.5 3.5 z m 202.3,-13.8 c 0.7,0.3 -2.1,0.7 -6.3,0.7 -7,0.1 -8.6,-0.7 -3.9,-1.9 2.2,-0.6 8.3,0.1 10.2,1.2 z m -85.3,1.7 c 1.4,0.5 1.6,3.6 1.6,23.5 v 22.9 h -7.7 c -4.3,0 -9.5,0.3 -11.5,0.6 l -3.8,0.7 v -23.1 -23 l 3.8,-1 c 4.2,-1.1 15.2,-1.5 17.6,-0.6 z m 81.4,61.3 c 0.2,47.7 0,60.6 -1,61.3 -0.7,0.4 -2.8,0.8 -4.7,0.8 h -3.4 l 0.5,-60.6 c 0.5,-65.5 0.2,-62.7 5.8,-62.2 l 2.5,0.3 z m 95.2,-44.4 c 0.7,0.8 1,2.2 0.6,3 -0.3,0.9 0,1.5 0.9,1.5 1.5,0 4.5,4.9 4.5,7.3 0,0.8 -0.9,2.6 -2,4 -1.1,1.4 -2,3.5 -2,4.7 0,1.2 -0.4,3 -1,4 -0.8,1.5 -0.6,1.7 0.9,1.3 2.4,-0.6 4.5,2.9 3.6,5.8 -0.5,1.4 -1.2,1.8 -2.5,1.4 -1.7,-0.5 -1.7,-0.3 -0.7,1.9 l 1.2,2.5 1.5,-2.5 c 1.8,-3.1 5.4,-4.1 8.5,-2.4 1.3,0.7 2.8,0.9 3.4,0.6 1.2,-0.8 6.1,3.6 6.1,5.4 0,0.5 0.5,1 1.2,1 2.2,0 4.8,3.3 4.8,6.1 0,4.1 -1,5.9 -3.7,7 l -2.5,0.9 2.3,1.9 c 2.2,1.8 2.2,1.9 0.6,4.5 -1.9,2.8 -4.7,3.5 -4.7,1.2 0,-0.8 -1.2,-2.8 -2.6,-4.3 l -2.6,-2.8 2.1,2.9 c 2.8,3.8 2.9,10.1 0.2,11.6 -1.1,0.5 -2.8,1 -3.8,1 -1.6,0 -1.8,0.6 -1.5,3.6 0.4,2.9 0.1,3.6 -1.7,4.1 -1.1,0.3 -2.1,1.1 -2.1,1.9 0,0.7 -1.1,2.4 -2.4,3.8 -1.8,2.1 -3.3,2.6 -6.8,2.6 -6.7,0 -7.8,-1.8 -4.7,-7.8 l 2.5,-4.8 -2.1,-1.7 -2,-1.7 2.3,-1.6 c 2.8,-2 2.8,-3.5 0.1,-5.2 -1.5,-1 -1.9,-2 -1.5,-3.7 0.5,-2 0.3,-2.3 -1,-1.8 -2,0.7 -4.4,-2.1 -4.4,-5.1 0,-1.2 0.7,-3.4 1.5,-5 1.9,-3.6 2,-3.3 -1,-3.9 -1.7,-0.3 -2.4,0 -2.2,0.7 0.3,0.6 1,1 1.6,0.8 0.9,-0.2 0.9,0.3 0.1,1.8 -1.6,3 -7.4,2.7 -10.5,-0.5 -2.9,-2.8 -3.4,-8.5 -1,-10.5 2,-1.6 8.1,-0.5 9.4,1.8 0.8,1.3 1,0.9 1.1,-2.1 0,-3.4 -0.2,-3.6 -1.8,-2.6 -4.9,3 -15.2,-3.2 -15.2,-9.1 0,-3.3 2.3,-6 5.1,-6 1.2,0 1.9,-0.7 1.9,-1.8 0,-1 0.5,-2.3 1.2,-3 0.7,-0.7 2,-1.2 3,-1.2 1,0 1.8,-0.7 1.8,-1.5 0,-1.8 4.5,-4.9 6,-4 0.5,0.3 1,0.2 1,-0.4 0,-0.5 -0.6,-1.1 -1.2,-1.3 -0.9,-0.3 -0.8,-1.2 0.5,-3.1 1.3,-2 2.6,-2.7 5.1,-2.7 1.8,0 3.9,0.7 4.6,1.5 z m -108.6,4 c 0.9,1.3 1.6,2.7 1.6,3 0,0.3 -2,0.5 -4.5,0.5 -3.7,0 -4.5,-0.3 -4.5,-1.8 0,-4.4 4.9,-5.6 7.4,-1.7 z m -13.1,2.2 c -1.3,0.2 -3.3,0.2 -4.5,0 -1.3,-0.2 -0.3,-0.4 2.2,-0.4 2.5,0 3.5,0.2 2.3,0.4 z m -1.3,7.3 c 0,4.3 -0.3,5 -2,5 -1.7,0 -2,-0.7 -2,-5 0,-4.3 0.3,-5 2,-5 1.7,0 2,0.7 2,5 z m 10,1.5 c 0,4.2 -0.3,5.5 -1.5,5.5 -1.1,0 -1.5,-1.2 -1.5,-4.8 0,-2.7 0.3,-5.2 0.7,-5.5 1.6,-1.7 2.3,-0.3 2.3,4.8 z m 8,2.2 c 0,4.8 -0.3,6.4 -1,5.3 -1.3,-2 -1.3,-12 0,-12 0.6,0 1,2.9 1,6.7 z m -195.7,12.5 c -0.2,7.9 -0.7,39.3 -1.3,69.8 -0.6,30.5 -1,63.7 -1,73.7 v 18.2 l -3.5,-0.2 -3.5,-0.2 0.5,-7 c 0.2,-3.9 0.7,-16.2 1,-27.5 0.3,-11.3 1.4,-35.8 2.5,-54.5 1.6,-26.7 3.9,-77.6 4,-85.3 0,-0.6 0.3,-1.2 0.8,-1.2 0.4,0 0.6,6.4 0.5,14.2 z m 6.7,-7.7 c 0,6.3 -0.1,6.5 -2.5,6.5 -2.4,0 -2.5,-0.2 -2.5,-6.5 0,-6.3 0.1,-6.5 2.5,-6.5 2.4,0 2.5,0.2 2.5,6.5 z m 171,-1.5 c 0,0.5 -1.2,1 -2.6,1 -1.4,0 -2.3,-0.4 -1.9,-1 0.3,-0.6 1.5,-1 2.6,-1 1,0 1.9,0.4 1.9,1 z m -0.5,45.6 c 0,40 -0.1,42.9 -1.7,43.2 -1.7,0.3 -1.8,-2.2 -1.8,-42.6 0,-23.6 0.3,-43.2 0.7,-43.6 2.5,-2.5 2.8,1.8 2.8,43 z m 4.3,-23.1 c -0.2,10.7 0,19.5 0.5,19.5 0.4,0 0.7,0.9 0.7,2 0,1.1 -0.6,2 -1.2,2 -1,0 -1.4,-5.1 -1.6,-21.5 -0.2,-15.1 0,-21.5 0.8,-21.5 0.8,0 1,5.8 0.8,19.5 z m 7,1.7 c -0.2,15 -0.6,20.2 -1.5,20.6 -1,0.3 -1.3,-4.1 -1.3,-19.6 0,-10.9 0.3,-20.2 0.7,-20.5 2,-2 2.3,1.1 2.1,19.5 z m 7,0.5 -0.2,20.8 -0.6,-20 c -0.5,-19 -0.5,-21.5 0.6,-21.5 0.2,0 0.3,9.3 0.2,20.7 z m -188.8,0.8 v 15.5 h -2.7 -2.8 l 0.3,-15.5 0.3,-15.5 h 2.4 2.5 z m 122.4,-13.2 c 3.3,1 1.6,1.2 -12.3,1.2 -8.8,0 -16.1,-0.1 -16.1,-0.2 0,-0.1 1.5,-0.7 3.3,-1.2 4.5,-1.3 20.4,-1.2 25.1,0.2 z m -80.7,0.7 c -1.6,0.5 -3.5,1.4 -4.3,2.1 -0.8,0.6 -1.4,0.7 -1.4,0.2 0,-1.3 3.9,-3.2 6.5,-3.1 1.4,0 1.1,0.2 -0.8,0.8 z m 10.3,23.8 v 22.8 h -6.6 l -6.7,-0.1 0.7,-13.4 c 0.3,-7.4 0.6,-17.1 0.6,-21.6 0,-7.5 0.2,-8.3 2.3,-9.3 1.2,-0.6 3.9,-1.1 6,-1.1 l 3.7,-0.1 z m 70,-20.7 c 1.5,0.5 -0.6,0.7 -5.5,0.4 -4.7,-0.3 -11.1,0.1 -15.5,0.9 -4.1,0.7 -7.7,1.2 -7.8,1.1 -0.8,-0.8 4.7,-3 8.8,-3.6 5,-0.7 16.1,0 20,1.2 z m -30.3,2.1 c -0.3,0.7 -0.5,0.2 -0.5,-1.2 0,-1.4 0.2,-1.9 0.5,-1.3 0.2,0.7 0.2,1.9 0,2.5 z m -88,1.5 c -0.3,1 -0.5,0.4 -0.5,-1.2 0,-1.7 0.2,-2.4 0.5,-1.8 0.2,0.7 0.2,2.1 0,3 z m 127.3,-0.7 c 0,0.5 -0.2,1 -0.4,1 -0.3,0 -0.8,-0.5 -1.1,-1 -0.3,-0.6 -0.1,-1 0.4,-1 0.6,0 1.1,0.4 1.1,1 z m -11.9,2.5 c 0.4,0.3 0.5,20.9 0.2,45.8 -0.4,31.4 -0.2,48.9 0.6,57.2 1,10.6 9.2,68.6 10.7,75.7 l 0.6,2.8 H 219 195.8 l 0.6,-4.3 c 0.3,-2.3 0.8,-8 1.1,-12.7 0.3,-4.7 0.8,-9.9 1.1,-11.7 0.4,-2.7 0.1,-3.2 -1.8,-3.5 -1.4,-0.2 -2.2,-0.9 -2.1,-1.8 2,-14.3 5.2,-53.1 9.4,-113 1.5,-20.8 2.6,-32 3.4,-32.9 2,-2.1 7.5,-3.1 14.9,-2.5 3.8,0.2 7.2,0.7 7.7,0.9 z m 136.5,13.2 c -0.8,0.8 -43.9,5.3 -44.5,4.7 -1.5,-1.4 3.6,-2.3 21.4,-3.8 11,-1 20.7,-1.9 21.5,-2 1.9,-0.3 2.6,0.2 1.6,1.1 z m 0.4,26.3 c 0,13.3 -0.4,24 -0.9,24 -0.5,0 -2.4,-0.7 -4.2,-1.5 -2.8,-1.2 -3,-1.4 -1.1,-1.5 1.2,0 2.2,-0.5 2.2,-1 0,-0.6 -0.9,-1 -2,-1 -1.6,0 -2,-0.7 -2,-3.5 0,-3.3 -0.2,-3.5 -3.5,-3.5 -3.5,0 -3.5,0 -3.5,4.4 v 4.5 l -5.2,0.5 c -2.9,0.3 -8.3,0.8 -12,1.1 l -6.8,0.7 v -21.5 -21.4 l 17.3,-1.7 c 9.4,-1 17.9,-1.9 18.7,-2 0.8,-0.2 1.8,-0.4 2.3,-0.5 0.4,0 0.7,10.7 0.7,23.9 z m -251.3,12.7 c -0.1,6.5 -0.3,1.4 -0.3,-11.2 0,-12.7 0.2,-18 0.3,-11.8 0.2,6.2 0.2,16.5 0,23 z m 127.7,23.3 c 0.9,10.2 2.8,25.2 4.2,33.4 2.5,15.1 9.4,66.4 9.4,70.1 -0.1,1.6 -0.2,1.7 -0.9,0.5 -0.5,-0.8 -2.5,-13.9 -4.5,-29 -2,-15.1 -4.7,-35.6 -6.1,-45.5 -4.4,-31.3 -4.5,-33.5 -4.9,-60.5 -0.4,-26 -0.4,-26.1 0.4,-7 0.4,10.7 1.5,27.8 2.4,38 z m 82.6,-34.5 c 0,18.4 -0.2,21.5 -1.5,21.5 -1.3,0 -1.5,-3 -1.5,-20.9 0,-20.2 0.1,-21.2 2.8,-22 0.1,-0.1 0.2,9.6 0.2,21.4 z m -215,-12 v 7.5 h -3.1 c -3,0 -3.1,-0.2 -2.5,-3.1 0.3,-1.7 0.6,-5.1 0.6,-7.5 0,-4 0.2,-4.4 2.5,-4.4 2.4,0 2.5,0.2 2.5,7.5 z m 165,-5.6 c 0,1.2 -3.2,1.9 -13,2.7 -11.3,0.9 -9.5,-0.8 2.3,-2.2 5.1,-0.6 9.5,-1.2 10,-1.3 0.4,0 0.7,0.3 0.7,0.8 z m 96.8,9.4 c 0.2,5.7 0.1,6.6 -1.3,6.1 -2,-0.8 -2.3,-13.8 -0.2,-13.2 0.7,0.3 1.3,2.9 1.5,7.1 z m -79.3,-5.2 c 0.4,0.6 0.5,1.1 0.4,1.3 -0.9,0.6 -9.9,-0.7 -9.9,-1.5 0,-1.3 8.7,-1.1 9.5,0.2 z m -18.5,1.8 c 0,1.5 -1.1,2 -6.2,2.5 -3.5,0.4 -7.3,1 -8.5,1.3 -1.8,0.4 -2.3,0.1 -2.3,-1.5 0,-2.1 1,-2.5 9.5,-3.5 6.8,-0.9 7.5,-0.7 7.5,1.2 z m 11,6.6 c 0,2.5 -0.4,4.5 -1,4.5 -0.5,0 -1,-2 -1,-4.5 0,-2.5 0.5,-4.5 1,-4.5 0.6,0 1,2 1,4.5 z m -11.2,18 c -0.2,0.1 -4,0.5 -8.6,0.8 l -8.3,0.6 0.3,-10.2 0.3,-10.2 8,-1 8,-1 0.3,10.4 c 0.1,5.7 0.1,10.5 0,10.6 z m -163.8,-1.5 v 14 h -3 -3 v -8.8 c 0,-4.8 0.3,-11.1 0.6,-14 0.6,-4.6 0.9,-5.2 3,-5.2 h 2.4 z m 48.3,-11.9 c 2.1,0.5 3.7,1.6 3.7,2.4 0,1.8 -0.2,1.8 -5,0.4 -2.8,-0.8 -4.7,-0.9 -6.9,-0.1 -3.1,1.1 -3.7,0.7 -2.3,-1.4 1.6,-2.4 5.1,-2.8 10.5,-1.3 z m 131.7,12.9 c 0,12.3 -0.1,13 -2,13 -1.9,0 -2,-0.7 -2,-13 0,-12.3 0.1,-13 2,-13 1.9,0 2,0.7 2,13 z m -129.9,-7 c 1.7,1 1.9,2.2 1.9,12 v 11 h -8.3 -8.2 l 1,-10.8 c 0.5,-5.9 1.4,-11.3 1.8,-12 1,-1.5 9.1,-1.6 11.8,-0.2 z m 21.3,0.7 c -0.1,0.7 -0.2,4.4 -0.2,8.2 -0.2,6.4 -0.4,6.9 -2.2,6.4 -1.8,-0.5 -2,-1.4 -2,-8.5 0,-7.7 0.1,-7.9 2.3,-7.6 1.2,0.2 2.2,0.9 2.1,1.5 z m 228.5,-1.3 c -1,0.9 -10.9,1.4 -10.4,0.6 0.4,-0.6 2.9,-1 5.7,-1 2.8,0 4.9,0.2 4.7,0.4 z m -1.1,14.1 -0.3,11.5 h -3.7 -3.8 v -11.5 -11.5 h 4.1 4 z m -38.4,-9.9 c 2.3,0.9 2.4,18.4 0.1,18.4 -1.2,0 -1.5,-1.5 -1.5,-7.9 0,-4.4 -0.3,-8.6 -0.6,-9.5 -0.7,-1.8 -0.4,-1.9 2,-1 z m -107.9,8 c -6.6,0.7 -12.1,1.1 -12.3,0.9 -0.2,-0.2 1.6,-0.6 4,-0.9 2.3,-0.3 5.4,-0.7 6.8,-1 1.4,-0.2 5,-0.3 8,-0.3 3.3,0 0.7,0.5 -6.5,1.3 z m 11.5,14.8 v 13.3 l -11.2,0.7 c -6.2,0.4 -12.1,0.9 -13,1.2 -1.6,0.5 -1.8,1.9 -1.8,10.1 0,5.3 -0.2,9.4 -0.4,9.2 -0.2,-0.2 -1,-7.8 -1.7,-16.8 -1.2,-17.4 -1.1,-18 3.4,-18.1 1.5,0 1.7,0.6 1.3,3 -0.3,2.3 0,3 1.2,3.1 8.3,0.6 12.2,-3 12.2,-11.1 0,-3.8 -0.2,-4 -2.9,-4 -2.6,0 -3,0.4 -3.3,3.2 l -0.3,3.3 h -7.3 c -5.9,0 -7.2,-0.3 -7,-1.5 0.3,-1.2 1.6,-1.4 6.6,-1.2 l 6.2,0.4 v -3.5 c 0,-4 0.6,-4.2 12.3,-4.5 l 5.7,-0.2 z m 202.3,-11.9 c 0.1,0.5 -1.3,1.1 -3,1.3 -3.1,0.3 -4.2,-0.6 -2.6,-2.2 1,-1 5.3,-0.3 5.6,0.9 z m -425.3,6 c 0,4.2 -0.3,5.5 -1.5,5.5 -1.2,0 -1.5,-1.3 -1.5,-5.5 0,-8.02706 3,-8.02706 3,0 z m 296.8,-3 c -0.2,0.2 -19.7,2 -42.7,3.9 -3,0.3 -5,0.1 -4.5,-0.4 0.5,-0.4 7.4,-1.4 15.4,-2 8,-0.7 18.1,-1.5 22.5,-1.9 7.2,-0.6 10.2,-0.5 9.3,0.4 z m -172.8,11.5 c 0,9.5 -0.3,12 -1.4,12 -1.5,0 -2.6,-6.8 -2.6,-17.3 0,-6 0.2,-6.7 2,-6.7 1.9,0 2,0.7 2,12 z m 24,-10.5 c 0,0.8 -0.9,1.5 -2,1.5 -1.2,0 -2,0.7 -2,1.6 0,0.9 -0.8,2.3 -1.7,3 -1.7,1.3 -1.7,1.3 0.2,1.4 1.2,0 1.6,0.3 0.9,1 -0.5,0.5 -1.9,0.7 -3.2,0.4 -1.8,-0.5 -2.2,-1.3 -2.2,-5 0,-4.2 0.1,-4.3 3.8,-4.7 2,-0.2 4.3,-0.4 5,-0.5 0.6,-0.1 1.2,0.5 1.2,1.3 z m 235,-0.6 c 0,0.4 -1.9,1.1 -4.2,1.4 -2.4,0.3 -5.4,0.9 -6.8,1.2 -2.3,0.6 -2.3,0.5 -0.5,-0.6 3.5,-2.2 11.5,-3.6 11.5,-2 z m -246.4,4.9 -0.6,4.7 3.9,1.2 c 2.2,0.7 4.7,1 5.5,0.7 1.8,-0.7 2.1,1.9 1,7.5 -0.6,3 -0.7,3.1 -6.5,3.1 H 186 v -10.3 c 0,-5.7 0.3,-10.7 0.7,-11 1.8,-1.8 2.5,-0.3 1.9,4.1 z m 286.4,20.7 c 0,16.3 -0.4,25.5 -1,25.5 -0.6,0 -1,-9.2 -1,-25.5 0,-16.3 0.4,-25.5 1,-25.5 0.6,0 1,9.2 1,25.5 z m -115.2,-23.3 c -0.3,0.7 -2.2,1.4 -4.4,1.5 -2.1,0.2 -15.7,1.2 -30.2,2.4 -23.8,1.9 -28.6,1.9 -27,0.4 0.3,-0.4 46.8,-4.5 60.1,-5.4 1.1,0 1.7,0.4 1.5,1.1 z m -248.8,5.3 c 0,3.2 -0.2,3.5 -3,3.5 -2.8,0 -3,-0.3 -3,-3.5 0,-3.2 0.2,-3.5 3,-3.5 2.8,0 3,0.3 3,3.5 z m 324,0.4 c 0,3.2 -0.4,4 -2.2,4.5 -4.4,1.1 -4.8,0.8 -4.8,-3.9 0,-4.5 0,-4.5 3.5,-4.5 3.4,0 3.5,0.1 3.5,3.9 z m -144.2,10.3 -0.3,13.3 -6.2,0.3 -6.3,0.3 v -13.6 -13.5 h 6.5 6.6 z m 135.2,1.8 c 0,9.3 -0.4,15 -1,15 -0.6,0 -1,-5.7 -1,-15 0,-9.3 0.4,-15 1,-15 0.6,0 1,5.7 1,15 z m -71,9.9 v 23.8 l -7.7,0.7 c -4.2,0.3 -13.4,0.6 -20.5,0.6 H 314 v -10 -10 h -4.4 -4.3 l -0.5,13.7 c -0.5,11.7 -0.3,14.1 1.1,15.6 1.5,1.8 3.1,1.8 28,1.1 22.3,-0.6 26.3,-0.5 25.9,0.7 -0.4,1.1 -3.7,1.5 -15.4,1.6 -23,0.4 -41.4,1.4 -41.4,2.3 0,0.5 11.7,0.6 26,0.3 l 26,-0.6 v 8.6 8.7 h -4 -4 v 11 11 h -8 -8 v -4.5 -4.5 h 4.5 4.5 v -6 -6 h -5.6 -5.7 l 0.7,10.5 0.7,10.5 h -3 -3.1 v -15.5 -15.5 h 2.5 c 1.9,0 2.5,-0.5 2.5,-2.1 0,-2.1 -0.2,-2.1 -14.5,-1.7 l -14.5,0.4 v -32.2 -32.2 l 6.3,-0.7 c 8.1,-0.8 40.1,-3.2 45,-3.4 l 3.7,-0.1 z m 3.8,0.3 -0.1,24.3 -0.9,-23 c -0.7,-21.5 -0.7,-25.5 0.7,-25.5 0.3,0 0.4,10.9 0.3,24.2 z m -193.3,-22.2 c 0.4,0.6 -2.3,1 -7.2,1.1 -10,0 -15.4,1 -16.3,2.9 -2.8,5.5 -4.2,11.2 -6,23.8 -1.1,7.8 -2,14.5 -2,14.8 0,0.4 -1.8,0.4 -4,0.1 l -3.9,-0.5 0.4,33.1 c 0.3,18.6 0.1,32.1 -0.3,30.7 -0.5,-1.4 -1.1,-21.4 -1.4,-44.5 -0.2,-23.1 -0.3,-38.2 -0.1,-33.5 0.5,13.2 1.3,14.9 5.7,11.7 1.4,-1.1 2.2,-4.4 3.6,-15.5 1.9,-15.3 4.3,-21.5 9,-23.9 3,-1.5 21.6,-1.8 22.5,-0.3 z m 243.5,5 c 0,4 0,4.1 -3.5,3.8 -3.3,-0.2 -3.5,-0.4 -3.5,-4 0,-3.7 0.1,-3.8 3.5,-3.8 3.4,0 3.5,0.1 3.5,4 z m -357.2,3.3 c 0.2,4.6 0,5.7 -1.3,5.7 -1.2,0 -1.5,-1.3 -1.5,-6.1 0,-8.1 2.4,-7.7 2.8,0.4 z m 348.2,-4.8 c 0,0.8 -0.4,1.5 -0.9,1.5 -1.3,0 -2.2,-1.6 -1.4,-2.4 1.1,-1.1 2.3,-0.6 2.3,0.9 z m -235.9,0.5 c 1.4,0 3.3,0.6 4.3,1.3 1.4,1 -0.4,1.2 -10.3,1.2 -8.6,0 -12.1,-0.3 -12.1,-1.2 0,-1.5 4.2,-2.2 10.5,-1.7 2.8,0.2 6.2,0.4 7.6,0.4 z m 128.9,10 -0.6,9.5 -0.2,-10.5 c -0.1,-5.7 0.2,-10 0.6,-9.5 0.4,0.6 0.5,5.3 0.2,10.5 z m -182,-1.9 v 6.9 h -3 -3 v -6.9 c 0,-6.4 0.2,-7 2.3,-7.3 1.2,-0.2 2.5,-0.2 3,0 0.4,0.2 0.7,3.4 0.7,7.3 z m 33.2,-1.4 c -0.2,3.2 -1.1,6.5 -1.8,7.4 -2.5,2.8 -1.7,5.7 1.9,6.8 l 3.2,0.9 -3.2,0.1 c -4.2,0.1 -5.3,2.3 -5.3,10.5 0,3.6 -0.3,6.6 -0.8,6.6 -1.1,0 0.6,-21.4 2.3,-28 0.8,-3.2 1.5,-6.7 1.5,-7.9 0,-1.2 0.6,-2.1 1.3,-2.1 1,0 1.3,1.4 0.9,5.7 z m 256.7,-3.1 c 0.2,0.2 -3.5,0.4 -8.2,0.4 -5,0 -8.7,-0.4 -8.7,-1 0,-0.9 15.9,-0.3 16.9,0.6 z m 33.9,8.1 -0.3,9.8 -3.7,0.3 -3.8,0.3 v -6.3 c 0,-3.5 0.3,-8 0.6,-10.1 0.6,-3.4 0.9,-3.7 4.1,-3.7 h 3.4 z m -62.7,-6.7 c 0.5,0 0.9,3.2 0.9,7.1 0,6.7 -0.1,7 -2.2,6.7 -2.1,-0.3 -2.3,-0.9 -2.6,-7.7 -0.3,-6.4 -0.1,-7.3 1.3,-6.7 0.9,0.3 2.1,0.6 2.6,0.6 z m -208.6,0.7 c 3.4,0.6 2.5,0.9 -6.5,1.8 -5.8,0.6 -10.7,0.9 -10.9,0.8 -0.2,-0.1 -0.1,-0.9 0.2,-1.8 0.7,-1.7 9.8,-2.1 17.2,-0.8 z m 240.2,2.5 c 2.6,2.7 0.3,4.6 -2.8,2.4 -1.7,-1.1 -4.6,-1.6 -10.1,-1.6 -6.5,0 -7.8,-0.3 -7.8,-1.6 0,-2.4 18.2,-1.7 20.7,0.8 z m -242.7,1.8 c 2.2,0.7 1.9,0.8 -1.6,0.9 -2.3,0.1 -6.3,0.4 -9,0.7 -3.5,0.5 -4.6,0.3 -3.9,-0.4 0.8,-0.9 3.5,-1.4 11,-1.9 0.6,-0.1 2.1,0.3 3.5,0.7 z m 113.9,2.4 c -0.2,0.2 -5.8,0.6 -12.4,1 -14.7,0.7 -14,-0.2 1.1,-1.2 10.3,-0.7 12.3,-0.7 11.3,0.2 z m -213.4,0.7 c -13.2,0.3 -24.1,0.7 -24.2,0.8 -0.2,0 -0.3,0.6 -0.3,1.2 0,0.8 1.6,1 5,0.5 4.6,-0.6 5,-0.5 5,1.4 0,2.5 -3.4,2.7 -8.5,0.6 -4,-1.7 -4.1,-1.9 -1.9,-4 1.3,-1.4 4.9,-1.6 25.2,-1.4 l 23.7,0.2 z m 102.8,-0.4 c -0.7,0.2 -1.9,0.2 -2.5,0 -0.7,-0.3 -0.2,-0.5 1.2,-0.5 1.4,0 1.9,0.2 1.3,0.5 z m -8,1 c -0.7,0.2 -2.1,0.2 -3,0 -1,-0.3 -0.4,-0.5 1.2,-0.5 1.7,0 2.4,0.2 1.8,0.5 z m 41.4,3.5 c -0.4,2.4 -0.9,8.2 -1.3,13 l -0.6,8.8 h -6.4 c -3.6,0 -6.4,0.4 -6.4,1 0,0.5 -1.1,1 -2.5,1 H 178 v -13.5 -13.4 l 6.8,-0.4 c 3.7,-0.2 8.2,-0.4 10.1,-0.5 l 3.3,-0.2 z m 201.7,-2.6 c 1.6,4 0.9,4.4 -7.9,4.4 H 383 v -3 -3 h 7.9 c 6.3,0 8,0.3 8.5,1.6 z m -224.4,12.9 v 13.5 h -4 -4 v -12.9 -13 l 2.8,-0.4 c 1.5,-0.2 3.3,-0.5 4,-0.6 0.9,-0.1 1.2,3.2 1.2,13.4 z m -123,7 c 0,16.7 -0.2,19.5 -1.5,19.5 -1.3,0 -1.5,-2.8 -1.5,-19.5 0,-16.7 0.2,-19.5 1.5,-19.5 1.3,0 1.5,2.8 1.5,19.5 z m 24,-14.1 v 5.3 l -7,0.7 -7,0.7 v 7.9 c 0,6 -0.3,7.9 -1.5,8.4 -1.1,0.4 -1.5,2 -1.5,5.6 0,2.7 -0.4,5 -1,5 -0.6,0 -1,-7.2 -1,-19.5 v -19.5 h 9.5 9.5 z m 199,-3.5 c 0,1.6 -1,2 -6.5,2.6 l -6.5,0.7 v 8.9 c 0,8 -0.2,8.9 -1.9,8.9 -1,0 -3.3,0.3 -5,0.6 l -3.1,0.6 v -11.5 -11.6 l 5.8,-0.4 c 15.4,-0.9 17.2,-0.8 17.2,1.2 z m -110,0 c 0,1 -18.8,2.1 -20.5,1.2 -1.8,-1 4,-1.9 12.3,-2 4.5,-0.1 8.2,0.3 8.2,0.8 z m -54,2.6 c 0,2.1 -0.5,2.5 -3,2.5 -2.5,0 -3,-0.4 -3,-2.5 0,-2.1 0.5,-2.5 3,-2.5 2.5,0 3,0.4 3,2.5 z m 281,12.6 v 11 l -4.2,-0.3 c -3.7,-0.3 -4.4,-0.7 -4.6,-2.7 -0.3,-2 0,-2.3 1.7,-1.8 1.2,0.3 2.3,0.1 2.6,-0.3 0.3,-0.5 -0.5,-1 -1.7,-1.2 -2.1,-0.3 -2.3,-0.9 -2.6,-8.1 l -0.3,-7.7 h 4.6 4.5 z m -99.6,-9.5 c 3.9,1.5 0.9,2.4 -8,2.4 -8.5,0 -9.5,-0.2 -8.4,-1.5 1.3,-1.5 13.1,-2.2 16.4,-0.9 z m -181.4,8.4 v 8 h -3.2 -3.3 l 0.3,-8 0.4,-8 h 2.9 2.9 z m 49,0 v 8 h -9.5 -9.6 l 0.3,-7.3 0.3,-7.2 7.5,-0.6 c 4.1,-0.3 8.3,-0.6 9.3,-0.7 1.5,-0.2 1.7,0.8 1.7,7.8 z m 311,5 v 12 h -4.6 c -2.7,0 -4.3,0.4 -3.9,1 0.3,0.5 2.4,1 4.6,1 h 3.9 v 15.5 15.5 h -9.5 -9.5 v -16 -16 h -19.5 c -16,0 -19.5,0.2 -19.5,1.4 0,2 -2.3,2.6 -10.1,2.6 -5.2,0 -6.9,-0.3 -6.9,-1.4 0,-0.7 0.9,-1.6 2,-1.9 1.7,-0.4 2,-1.5 2.2,-9.8 l 0.3,-9.4 32,-2.3 c 17.6,-1.2 32.7,-2.7 33.5,-3.2 0.8,-0.5 2.3,-0.9 3.3,-0.9 1.5,-0.1 1.7,1.1 1.7,11.9 z m -424.6,-10.1 c 0.3,0.4 0.3,1.1 0,1.4 -0.8,0.8 -3.4,-0.3 -3.4,-1.4 0,-1.1 2.7,-1.2 3.4,0 z m 266.6,1.6 c 0,2.1 -0.5,2.5 -3,2.5 -2.5,0 -3,-0.4 -3,-2.5 0,-2.1 0.5,-2.5 3,-2.5 2.5,0 3,0.4 3,2.5 z m -220.5,0.4 c -1.1,0.5 -6,1.2 -11,1.5 -14.1,1.2 -13.5,0.8 -13.5,7.7 0,3.3 -0.4,5.9 -1,5.9 -0.8,0 -1.6,-12.8 -0.7,-13.1 0.1,0 4.5,-0.6 9.7,-1.3 11.3,-1.6 19.5,-1.9 16.5,-0.7 z m 198,1.1 c -0.3,0.5 -3.1,1 -6.1,1 -3,0 -5.4,-0.5 -5.4,-1 0,-0.6 2.7,-1 6.1,-1 3.7,0 5.8,0.4 5.4,1 z m 81.6,1 c 0.5,0 0.9,2.6 0.9,5.9 0,5.7 -0.1,5.8 -2.5,5.3 -2.3,-0.4 -2.5,-0.8 -2.5,-6.4 0,-5.1 0.2,-5.9 1.6,-5.4 0.9,0.3 2,0.6 2.5,0.6 z m -277.5,2.2 c -0.3,1.3 -0.6,4.2 -0.6,6.5 v 4.3 h -5 c -4.6,0 -5,-0.2 -5.6,-2.8 -1,-4.2 -2.3,-5.2 -6.9,-5.2 -3.8,0 -4.5,0.3 -5.3,2.7 -1,2.8 -1,2.7 -1.1,-1 -0.1,-4.4 -0.1,-4.4 10.4,-5.6 14,-1.5 14.8,-1.4 14.1,1.1 z m -76.3,0.5 c -1.3,0.2 -3.3,0.2 -4.5,0 -1.3,-0.2 -0.3,-0.4 2.2,-0.4 2.5,0 3.5,0.2 2.3,0.4 z m 265.7,31.8 c 0,31.8 0,32.5 -2,32.5 -2,0 -2,-0.7 -2,-32.5 0,-31.8 0,-32.5 2,-32.5 2,0 2,0.7 2,32.5 z m 6,0 c 0,31.8 0,32.5 -2,32.5 -2,0 -2,-0.7 -2,-32.5 0,-31.8 0,-32.5 2,-32.5 2,0 2,0.7 2,32.5 z m 23,-27 c 0,5.4 0,5.5 -3,5.5 -3,0 -3,-0.1 -3,-5.5 0,-5.4 0,-5.5 3,-5.5 3,0 3,0.1 3,5.5 z m -297,4 c 0,3 -0.4,5.5 -1,5.5 -0.5,0 -1,-2.5 -1,-5.5 0,-3 0.5,-5.5 1,-5.5 0.6,0 1,2.5 1,5.5 z m 60.8,-1.7 c 0.3,2.8 0,3.2 -2.1,3.2 -2.5,0 -2.7,-0.8 -1.1,-5.8 0.7,-2.4 2.9,-0.6 3.2,2.6 z m 195.2,15.7 v 15.5 h -3.8 c -3.1,0 -4.3,-0.6 -6,-2.9 l -2.2,-3 3.4,0.6 3.5,0.5 0.3,-10.1 0.3,-10.1 h -7.6 c -7.3,0 -7.7,-0.1 -8.1,-2.4 -0.6,-3 0.3,-3.3 12,-3.5 l 8.2,-0.1 z m -77.5,-4.8 c -1.3,17.8 -2.5,23.3 -1.9,9 l 0.4,-12.9 -3.1,-2.9 -3.1,-2.9 h 4.2 4.3 z m -83.5,-1.7 v 7 h -3.5 c -3.3,0 -3.5,-0.2 -3.5,-3.3 0,-1.7 0.3,-4.9 0.6,-7 0.6,-3.3 1,-3.7 3.5,-3.7 h 2.9 z m 50.7,-5.9 c 2.7,1 8.3,5.6 8.3,6.8 0,0.3 -4.8,0.6 -10.7,0.5 h -10.8 l -0.3,-3.3 c -0.3,-2.8 -0.6,-3.2 -2.5,-2.7 -1.2,0.3 -2.9,0.6 -3.8,0.6 -1,0 -1.9,1.2 -2.2,3 -0.6,2.9 -0.9,3 -5.7,3 h -5 v -4.5 -4.5 h 14.9 c 8.2,0 16.2,0.5 17.8,1.1 z m -122.9,2.1 c 0.7,0.7 1.2,3.5 1.2,6.4 0,5.5 -0.9,6.4 -6.7,6.4 -2.1,0 -2.3,-0.4 -2.3,-6.3 0,-3.5 0.3,-6.7 0.7,-7 1.1,-1.1 5.8,-0.8 7.1,0.5 z m 272.2,2.3 c 0,1.9 -0.4,3.5 -1,3.5 -1,0 -1.4,-1.4 -1.1,-3.9 0.2,-0.7 -0.2,-1 -0.8,-0.6 -0.7,0.3 -0.8,0 -0.5,-0.9 1.2,-3 3.4,-1.8 3.4,1.9 z m -235.2,2.2 c -0.3,4.1 -0.6,4.8 -2.5,5.1 -2.1,0.3 -2.3,0 -2.3,-4.7 0,-4.8 0.2,-5.1 2.6,-5.1 2.4,0 2.5,0.2 2.2,4.7 z m 18.2,1.8 c 0,6.3 -0.1,6.4 -2.2,5.6 -2,-0.7 -2.3,-1.7 -2.6,-6.5 -0.3,-5.4 -0.2,-5.6 2.3,-5.6 2.4,0 2.5,0.2 2.5,6.5 z m 270.4,-5.9 c 0.9,0.3 1.6,1.2 1.6,1.9 0,1.1 -0.8,1.1 -3.7,0.3 -2.5,-0.7 -11.6,-0.8 -26.5,-0.3 -20.4,0.6 -22.8,0.5 -22.8,-0.9 0,-1.4 2.9,-1.6 24.9,-1.6 13.7,0 25.6,0.3 26.5,0.6 z m -349.7,13.1 c -0.2,2.1 -0.4,0.4 -0.4,-3.7 0,-4.1 0.2,-5.8 0.4,-3.8 0.2,2.1 0.2,5.5 0,7.5 z m 242.3,-9.2 c 0,0.8 -0.9,1.5 -2,1.5 -1.1,0 -2,-0.7 -2,-1.5 0,-0.8 0.9,-1.5 2,-1.5 1.1,0 2,0.7 2,1.5 z m 5,0 c 0,0.8 -0.7,1.5 -1.5,1.5 -0.8,0 -1.5,-0.7 -1.5,-1.5 0,-0.8 0.7,-1.5 1.5,-1.5 0.8,0 1.5,0.7 1.5,1.5 z m 4,0 c 0,0.8 -0.7,1.5 -1.5,1.5 -0.8,0 -1.5,-0.7 -1.5,-1.5 0,-0.8 0.7,-1.5 1.5,-1.5 0.8,0 1.5,0.7 1.5,1.5 z m -200,3 c 0,2 -0.5,2.5 -2.5,2.5 -2,0 -2.5,-0.5 -2.5,-2.5 0,-2 0.5,-2.5 2.5,-2.5 2,0 2.5,0.5 2.5,2.5 z m 305.4,-1.9 c 1.2,0.5 1.6,2 1.6,6 0,4.7 -0.2,5.4 -2,5.4 -1.8,0 -2,-0.7 -2,-6 0,-3.3 0.2,-6 0.4,-6 0.2,0 1.1,0.3 2,0.6 z m 78.4,10.1 c -0.2,6.6 -0.7,9.8 -1.5,10.1 -0.9,0.2 -1.3,-0.9 -1.3,-3.7 0,-2.2 -0.4,-4.3 -1,-4.6 -0.6,-0.4 -1,1.1 -1,3.8 0,4.6 0.3,4.4 -5.2,3.8 -0.5,-0.1 -0.9,-2.2 -1,-4.9 l -0.1,-4.7 -0.4,4.5 c -0.5,5.5 -1.2,6.3 -4.7,5.4 -2.5,-0.6 -2.6,-0.9 -2.6,-8 v -7.4 h -5.5 -5.5 v 10.6 c 0,9.3 0.2,10.5 1.6,10 0.9,-0.3 3.3,-0.6 5.5,-0.6 2.8,0 3.9,-0.4 3.9,-1.5 0,-1.2 1.7,-1.5 9.5,-1.5 h 9.5 v 16 c 0,13.6 -0.2,16 -1.5,16 -1.2,0 -1.5,-1.9 -1.5,-11.5 v -11.5 h -7.5 -7.5 v 7.9 c 0,4.4 -0.3,8.2 -0.7,8.4 -0.5,0.3 -4.3,0.2 -8.5,0 l -7.8,-0.6 v -22.8 -22.9 h 17.5 17.6 z m -266.8,-7.7 c 0,1.1 -4,1.1 -8.5,0 -2.5,-0.6 -2,-0.8 2.8,-0.9 3.2,0 5.7,0.3 5.7,0.9 z m 74,5 c 0,5.2 -1.3,6.7 -2.4,2.7 -1.1,-4.1 -0.7,-7.7 0.9,-7.7 1.1,0 1.5,1.2 1.5,5 z m 5,0 c 0,3.8 -0.4,5 -1.5,5 -1.1,0 -1.5,-1.2 -1.5,-5 0,-3.8 0.4,-5 1.5,-5 1.1,0 1.5,1.2 1.5,5 z m 4,0.5 c 0,4.2 -0.3,5.5 -1.5,5.5 -1.2,0 -1.5,-1.3 -1.5,-5.5 0,-4.2 0.3,-5.5 1.5,-5.5 1.2,0 1.5,1.3 1.5,5.5 z m 129,2 c 0,5.4 -0.1,5.5 -2.9,5.5 -1.6,0 -4.3,-0.3 -6,-0.6 -3,-0.6 -3.1,-0.9 -3.1,-5.5 v -4.9 h 6 6 z m 18,-3 c 0,1.8 -0.5,2.5 -1.9,2.5 -1,0 -4.6,0.3 -8,0.6 l -6.1,0.7 v -3.2 -3.1 h 8 c 7.9,0 8,0 8,2.5 z m -324.8,1.3 c 3.2,0.9 5.8,2.2 5.8,2.9 0,0.8 -2.5,0.3 -7.5,-1.4 -4.1,-1.3 -7.5,-2.9 -7.5,-3.5 0,-0.6 0.8,-0.7 1.7,-0.4 0.9,0.4 4.3,1.5 7.5,2.4 z m 91.8,-1.3 c 0,1.3 -3.3,1.5 -25.7,1.3 -19.4,-0.2 -25.7,-0.6 -26.1,-1.6 -0.3,-0.9 5.3,-1.2 25.7,-1.2 22.7,0 26.1,0.2 26.1,1.5 z m -103,7.5 v 8 H 56.5 c -13,0 -20.5,0.4 -20.5,1 0,0.6 7.5,1 20.5,1 H 77 v 2.5 2.5 H 56.5 c -13,0 -20.5,0.4 -20.5,1 0,0.6 7.5,1 20.5,1 19.8,0 20.5,0.1 20.5,2 0,1.9 -0.7,2 -20.5,2 -13,0 -20.5,0.4 -20.5,1 0,0.6 7.5,1 20.5,1 17.6,0 20.5,0.2 20.5,1.5 0,1.3 -2.9,1.5 -20.5,1.5 -13,0 -20.5,0.4 -20.5,1 0,0.6 7.5,1 20.5,1 17.6,0 20.5,0.2 20.5,1.5 0,1.3 -2.9,1.5 -20.5,1.5 H 36 v 2.5 2.5 h 20.5 c 19.8,0 20.5,0.1 20.5,2 0,1.9 -0.7,2 -22.5,2 H 32 v -2.5 c 0,-2.2 -0.4,-2.5 -3.5,-2.5 -3.1,0 -3.5,0.3 -3.5,2.5 0,1.4 -0.4,2.5 -1,2.5 -0.5,0 -1,-1.6 -1,-3.6 v -3.6 l 4.5,0.4 4.5,0.3 v -18.7 -18.8 l 2.3,-0.1 c 1.2,0 9.4,-0.9 18.2,-1.9 8.8,-1 17.9,-1.8 20.3,-1.9 l 4.2,-0.1 z m 347.8,0.2 c -0.3,7 -0.6,8.3 -2,8.6 -1.6,0.3 -1.8,-0.6 -1.8,-7.6 0,-8.1 0.3,-9.2 2.7,-9.2 1.1,0 1.3,1.8 1.1,8.2 z m 4.2,0.3 c 0,6.9 -0.3,8.5 -1.5,8.5 -1.2,0 -1.5,-1.6 -1.5,-8.5 0,-6.9 0.3,-8.5 1.5,-8.5 1.2,0 1.5,1.6 1.5,8.5 z m -318,-0.5 v 7 h -3.5 -3.5 v -7 -7 h 3.5 3.5 z m 248,1.5 c 0,5 -0.4,8.5 -1,8.5 -0.6,0 -1,-3.5 -1,-8.5 0,-5 0.4,-8.5 1,-8.5 0.6,0 1,3.5 1,8.5 z m -169.5,-1 v 5 l -30.2,0.3 -30.3,0.2 v -4.8 c 0,-2.7 0.2,-5.1 0.4,-5.3 0.3,-0.2 13.9,-0.4 30.3,-0.4 h 29.8 z m 297.5,1 c 0,3 -0.4,5.5 -1,5.5 -0.5,0 -1,-2.5 -1,-5.5 0,-3 0.5,-5.5 1,-5.5 0.6,0 1,2.5 1,5.5 z m -74,13.5 v 18.1 l -8.2,-0.3 -8.3,-0.3 -0.3,-17.2 -0.2,-17.2 6.2,-0.4 c 3.5,-0.2 7.3,-0.4 8.6,-0.5 l 2.2,-0.2 z m -40,-15 c 0,1.8 0.7,2 6.3,2 5.6,0 6.8,0.4 10.5,3.2 l 4.2,3.2 v 11.9 c 0,9 -0.3,11.8 -1.2,11.5 -0.9,-0.3 -1.4,-3.8 -1.6,-11.6 l -0.3,-11.1 -3.2,-2.7 c -2.9,-2.4 -3.7,-2.6 -9.8,-2.2 -3.7,0.3 -7.2,0.2 -7.7,-0.1 -1.5,-0.9 -0.2,-6.1 1.4,-6.1 0.8,0 1.4,0.9 1.4,2 z m -54.4,4.7 c -0.3,2.1 -0.6,9.1 -0.6,15.5 v 11.8 h -2.5 -2.5 v -13.5 -13.5 h -4.5 -4.5 v 13.5 c 0,12.8 -0.1,13.5 -2,13.5 -1.9,0 -2,-0.7 -2,-15.5 v -15.5 h 9.6 9.7 z m 74.9,-1.6 c 1.2,1.9 -0.5,2.3 -2.2,0.6 -1.6,-1.6 -1.6,-1.7 -0.1,-1.7 0.9,0 2,0.5 2.3,1.1 z m -125.3,7.6 3.8,3.7 v 8.8 c 0,5.2 -0.4,8.8 -1,8.8 -0.6,0 -1,-3.4 -1,-8.3 0,-8.2 -0.1,-8.4 -3.5,-11.7 -3.3,-3.2 -4.3,-5 -2.8,-5 0.4,0 2.4,1.7 4.5,3.7 z m 103.8,-2.7 c 0,0.5 -0.4,1 -1,1 -0.5,0 -1,-0.5 -1,-1 0,-0.6 0.5,-1 1,-1 0.6,0 1,0.4 1,1 z m -261,4.1 c 0,2.3 0.5,3.2 2,3.6 1.9,0.5 2,1.2 1.8,12.2 l -0.3,11.6 -5.2,0.3 -5.3,0.3 v -15.5 -15.6 h 3.5 c 3.2,0 3.5,0.2 3.5,3.1 z m 75,12.4 v 15.5 h -3 -3 v -8.5 -8.5 H 165.5 151 v 8.5 8.5 h -4.5 -4.5 v -15.5 -15.5 h 22 22 z m 5,0 c 0,9.7 -0.4,15.5 -1,15.5 -0.6,0 -1,-5.8 -1,-15.5 0,-9.7 0.4,-15.5 1,-15.5 0.6,0 1,5.8 1,15.5 z m -90,-12.5 c 0,1.1 -0.4,2 -1,2 -0.5,0 -1,-0.9 -1,-2 0,-1.1 0.5,-2 1,-2 0.6,0 1,0.9 1,2 z m 237,5 c 0,3.9 -0.1,4 -3.5,4 -3.4,0 -3.5,-0.1 -3.5,-4 0,-3.9 0.1,-4 3.5,-4 3.4,0 3.5,0.1 3.5,4 z m 34,6 v 9 h -11.7 -11.8 l 0.1,-7.8 c 0,-4.2 0.2,-8.3 0.2,-9 0.2,-0.9 3.3,-1.2 11.7,-1.2 H 372 Z m -270.5,-5.3 c -0.2,1 -0.4,2.1 -0.4,2.5 -0.2,2.1 -2.1,0.5 -2.1,-1.7 0,-1.5 0.6,-2.5 1.4,-2.5 0.8,0 1.3,0.8 1.1,1.7 z m 15.2,16.5 c -0.2,3.5 -0.3,0.7 -0.3,-6.2 0,-6.9 0.1,-9.7 0.3,-6.3 0.2,3.5 0.2,9.1 0,12.5 z m 354.3,-5.7 v 10.5 h -3 -3 v -9.5 -9.5 h -3 -2.9 l -0.3,9.2 -0.3,9.3 -2.7,0.3 -2.8,0.3 v -10.5 -10.6 h 9 9 z m -441,-7.5 c 0,0.5 -2.8,1 -6.2,1.2 l -6.3,0.3 -0.3,8.2 c -0.2,4.6 -0.7,8.3 -1.2,8.3 -1.1,0 -1.3,-11 -0.4,-15.9 l 0.7,-3.1 h 6.8 c 3.8,0 6.9,0.4 6.9,1 z m 109.5,2 c 0.4,0.6 -1.3,1 -4.4,1 -2.8,0 -5.1,-0.5 -5.1,-1 0,-0.6 2,-1 4.4,-1 2.5,0 4.8,0.4 5.1,1 z m 305.5,7.5 v 8.5 h -3.5 -3.5 v -8.5 -8.5 h 3.5 3.5 z m -344,2 c 0,6 -0.3,7.5 -1.5,7.5 -1.2,0 -1.5,-1.5 -1.5,-7.5 0,-6 0.3,-7.5 1.5,-7.5 1.2,0 1.5,1.5 1.5,7.5 z m 68,0 v 7.5 h -7 -7 v -7.5 -7.5 h 7 7 z m 9,0.1 v 7.5 l -3.2,-0.3 c -3.3,-0.3 -3.3,-0.3 -3.6,-6.2 -0.4,-7.5 0.1,-8.6 3.8,-8.6 h 3 z m -38.2,-5.4 c -0.3,0.7 -2.5,1.4 -5.1,1.6 -3.7,0.2 -4.7,0 -4.7,-1.2 0,-1.2 1.2,-1.6 5.1,-1.6 3.6,0 4.9,0.4 4.7,1.2 z m -0.8,4.8 c 0,0.5 -2,1 -4.5,1 -2.5,0 -4.5,-0.5 -4.5,-1 0,-0.6 2,-1 4.5,-1 2.5,0 4.5,0.4 4.5,1 z m 255,2.7 c 0,0.5 -0.6,1.6 -1.4,2.5 -1,1.3 -1.5,1.5 -2.4,0.6 -0.9,-0.9 -1.2,-0.9 -1.2,0 0,0.9 -14.8,1.2 -63.5,1.2 H 262 v -2.5 -2.5 h 66 c 36.3,0 66,0.3 66,0.7 z m -254,1.8 c 0,1.1 -1.2,1.5 -5,1.5 -3.8,0 -5,-0.4 -5,-1.5 0,-1.1 1.2,-1.5 5,-1.5 3.8,0 5,0.4 5,1.5 z m 292,0.5 c 0,1.9 -0.7,2 -17.5,2 -16.8,0 -17.5,-0.1 -17.5,-2 0,-1.9 0.7,-2 17.5,-2 16.8,0 17.5,0.1 17.5,2 z"
     id="path1"
     style="fill:#fffafa;stroke:none;stroke-width:0.1" />
  <path
     d="m 378,21.591254 c 2.2,0.5 4.9,2.4 7.4,5.2 3.6,4 3.8,4.1 2.2,1 -2,-3.8 -7,-7.2 -10.6,-7.1 -2,0.1 -1.8,0.3 1,0.9 z"
     id="path2"
     style="fill:#fffafa;stroke:none;stroke-width:0.1" />
  <path
     d="m 407.3,71.091254 c -1.2,2.5 -1.8,4.5 -1.4,4.5 0.5,0 1.7,-1.7 2.6,-3.8 1,-2 2.3,-4 2.9,-4.4 0.7,-0.5 0.6,-0.8 -0.4,-0.8 -0.8,0 -2.5,2 -3.7,4.5 z"
     id="path3"
     style="fill:#fffafa;stroke:none;stroke-width:0.1" />
  <path
     d="m 413.3,67.791254 c -1.2,0.6 -2.5,1.8 -2.8,2.6 -0.5,1.3 -0.3,1.3 1.3,-0.1 2.6,-2.4 8.3,-2.2 11.1,0.4 1.8,1.7 2.2,3 1.9,6 -0.2,2.4 0,3.5 0.6,2.9 0.5,-0.5 0.9,-2.3 0.9,-4 0,-5.9 -7.7,-10.5 -13,-7.8 z"
     id="path4"
     style="fill:#fffafa;stroke:none;stroke-width:0.1" />
  <path
     d="m 328,68.291254 c 0.8,0.3 2.4,1.3 3.5,2.2 2,1.6 2,1.6 0.1,-0.7 -1.1,-1.2 -2.6,-2.2 -3.5,-2.1 -1.4,0 -1.4,0.1 -0.1,0.6 z"
     id="path5"
     style="fill:#fffafa;stroke:none;stroke-width:0.1" />
  <path
     d="m 397.3,75.791254 c -0.4,0.7 -0.8,2.6 -0.9,4.3 -0.2,3.9 -4.5,7.5 -8.8,7.5 -3.2,0 -5.7,-1.8 -6.9,-5 -0.4,-1.2 -0.6,-1.1 -0.6,0.3 -0.1,2.5 4.3,6.7 7.1,6.7 5.4,0 11.7,-7.1 10.6,-12.1 -0.4,-1.6 3.1,-2.4 4.5,-1 0.5,0.5 1.3,2.7 1.7,4.8 l 0.8,3.8 0.1,-4.1 c 0,-2.2 -0.4,-4.5 -1.1,-5.2 -1.6,-1.6 -5.5,-1.5 -6.5,0 z"
     id="path6"
     style="fill:#fffafa;stroke:none;stroke-width:0.1" />
  <path
     d="m 360.7,87.291254 c -0.8,1 -1.9,3 -2.2,4.5 -0.6,2.2 -1.3,2.8 -3.5,2.8 -4.3,0 -7.2,3 -7.4,7.599996 -0.1,2.7 -0.8,4.4 -2.3,5.7 -1.3,1 -2.3,2.9 -2.3,4.1 0,1.3 -0.9,3.1 -2,4.1 -1.1,1 -2,2.4 -2,3.2 0,0.8 1.1,0.2 2.5,-1.5 1.4,-1.7 2.5,-3.9 2.5,-4.9 0,-2 2.9,-5.3 4.6,-5.3 0.5,0 0.8,-1.7 0.6,-3.8 -0.6,-6.099996 3.3,-8.999996 9.3,-6.899996 1.9,0.6 2.1,0.4 1.7,-2.7 -0.3,-2.7 0.1,-3.7 2.3,-5.5 3.4,-2.6 5.1,-2.6 9.4,0 1.8,1.1 4.1,1.8 5,1.6 1.3,-0.4 1.3,-0.5 -0.2,-0.6 -1.1,0 -3,-1 -4.4,-2.1 -3.2,-2.5 -9.4,-2.7 -11.6,-0.3 z"
     id="path7"
     style="fill:#fffafa;stroke:none;stroke-width:0.1" />
  <path
     d="m 311.5,116.59125 c -0.3,0.5 -0.2,1 0.4,1 0.5,0 1.3,-0.5 1.6,-1 0.3,-0.6 0.2,-1 -0.4,-1 -0.5,0 -1.3,0.4 -1.6,1 z"
     id="path8"
     style="fill:#fffafa;stroke:none;stroke-width:0.1" />
  <path
     d="m 140,46.991254 c 0,0.2 0.8,1 1.8,1.7 1.5,1.3 1.6,1.2 0.3,-0.4 -1.3,-1.6 -2.1,-2.1 -2.1,-1.3 z"
     id="path9"
     style="fill:#fffafa;stroke:none;stroke-width:0.1" />
  <path
     d="m 120.5,61.391254 c -0.6,0.4 -2.1,2.2 -3.4,3.9 -2.2,3.2 -2.3,3.2 -5.1,1.8 -4.1,-2.1 -6.5,-1.9 -9.7,1.1 -2.5,2.2 -2.5,2.4 -0.3,1 3.1,-2 7.9,-2 10.8,0 1.2,0.8 2.2,1 2.2,0.5 0,-0.6 0.7,-1.1 1.5,-1.1 0.8,0 1.5,-0.6 1.5,-1.4 0,-0.7 0.9,-2.5 2.1,-4 2.1,-2.7 2.2,-3.1 0.4,-1.8 z"
     id="path10"
     style="fill:#fffafa;stroke:none;stroke-width:0.1" />
  <path
     d="m 175.4,63.791254 c 2.4,3.4 2,7.3 -0.9,9.6 -1.3,1.1 -2.2,2.2 -1.9,2.5 0.4,0.3 1,2.1 1.5,3.9 l 0.8,3.3 -0.2,-3.7 c -0.1,-2.4 0.5,-4.4 1.7,-5.7 2.9,-3.1 1.7,-12.1 -1.5,-12.1 -0.6,0 -0.3,1 0.5,2.2 z"
     id="path11"
     style="fill:#fffafa;stroke:none;stroke-width:0.1" />
  <path
     d="m 159.7,69.091254 c 1.7,0.8 3.9,2.5 4.7,3.7 0.9,1.2 1.6,1.8 1.6,1.2 0,-1.3 -3.8,-5.4 -5,-5.4 -0.4,0 -1.7,-0.2 -2.7,-0.5 -1,-0.3 -0.4,0.1 1.4,1 z"
     id="path12"
     style="fill:#fffafa;stroke:none;stroke-width:0.1" />
  <path
     d="m 89.5,73.591254 c -0.4,1.7 -0.5,3.4 -0.2,3.6 0.2,0.3 0.7,-1 1.1,-2.7 0.8,-4.2 0,-5 -0.9,-0.9 z"
     id="path13"
     style="fill:#fffafa;stroke:none;stroke-width:0.1" />
  <path
     d="m 184.3,75.291254 c -2.1,1.8 -3.8,7.5 -2.6,8.7 0.3,0.3 1.3,-0.9 2.2,-2.7 1.4,-2.8 2.1,-3.2 5.6,-3.2 3.1,0 4,0.4 3.9,1.7 -0.1,1 0.4,1.4 1.2,1.1 0.8,-0.3 2.1,0 2.9,0.7 2.9,2.4 1.5,-0.7 -1.7,-3.7 -4.3,-4 -8.8,-5 -11.5,-2.6 z"
     id="path14"
     style="fill:#fffafa;stroke:none;stroke-width:0.1" />
  <path
     d="m 90.1,80.191254 c 0,1.1 0.3,1.4 0.6,0.6 0.3,-0.7 0.2,-1.6 -0.1,-1.9 -0.3,-0.4 -0.6,0.2 -0.5,1.3 z"
     id="path15"
     style="fill:#fffafa;stroke:none;stroke-width:0.1" />
  <path
     d="m 117.7,80.591254 c -1.4,1.1 -2.9,3 -3.2,4.1 -0.5,1.6 -1.3,1.9 -3.8,1.4 -1.8,-0.3 -4.1,0 -5.3,0.7 -7.7,4.8 -9.6,6.4 -10.9,8.9 -0.8,1.5 -1.5,4.1 -1.4,5.599996 0.1,2.6 0.2,2.6 1.3,-0.8 1.1,-3.899996 4.2,-7.899996 5.9,-7.899996 0.5,0 2.1,-1.2 3.4,-2.6 2.4,-2.6 6,-3 10.3,-1 1.1,0.4 1.5,-0.1 1.7,-2.1 0.2,-3.9 4.8,-7.6 8.2,-6.8 3.5,0.9 5.1,2.4 5.1,4.8 0,1.6 0.3,1.8 1.2,0.9 0.7,-0.7 2.6,-1.2 4.3,-1.2 4,0 7.5,3.6 8.6,8.7 0.8,3.7 0.8,3.7 0.4,-0.7 -0.5,-5.6 -3.9,-9 -9,-9 -2.3,0 -4.2,-0.8 -5.9,-2.5 -3.1,-3.1 -7.4,-3.3 -10.9,-0.5 z"
     id="path16"
     style="fill:#fffafa;stroke:none;stroke-width:0.1" />
  <path
     d="m 161,90.591254 c -1.4,1.1 -2,2 -1.4,2 1.4,0 5,-2.7 4.4,-3.3 -0.3,-0.3 -1.6,0.3 -3,1.3 z"
     id="path17"
     style="fill:#fffafa;stroke:none;stroke-width:0.1" />
  <path
     d="m 129.7,108.69125 c -1.5,0.9 -1.7,1.8 -1.1,5.5 0.6,4.3 0.5,4.4 -2.7,5.9 -2.7,1.1 -2.9,1.4 -1.2,1.5 3.6,0 5.6,-2.8 5,-7.1 -0.6,-4.9 1.2,-6.7 5.1,-5 2.5,1 2.6,1 0.8,-0.4 -2.3,-1.8 -3.4,-1.8 -5.9,-0.4 z"
     id="path18"
     style="fill:#fffafa;stroke:none;stroke-width:0.1" />
  <path
     d="m 410,244.99125 c 0,0.2 0.7,0.7 1.6,1 0.8,0.3 1.2,0.2 0.9,-0.4 -0.6,-1 -2.5,-1.4 -2.5,-0.6 z"
     id="path19"
     style="fill:#fffafa;stroke:none;stroke-width:0.1" />
  <path
     d="m 344.3,235.29125 -3.3,0.4 v 7 6.9 l 3.3,-0.1 c 2.3,-0.1 2.6,-0.3 1,-0.6 -2.1,-0.4 -2.3,-1 -2.3,-6.4 0,-5.9 0,-5.9 2.9,-5.9 1.7,0 3.3,-0.5 3.6,-1 0.3,-0.6 0,-0.9 -0.7,-0.8 -0.7,0 -2.8,0.3 -4.5,0.5 z"
     id="path24"
     style="fill:#fffafa;stroke:none;stroke-width:0.1" />
  <path
     d="m 350.8,241.59125 -0.3,7 h 3.8 3.7 v -7 -7 h -3.4 -3.4 z m 5.2,0 c 0,5.3 -0.2,6 -2,6 -1.5,0 -2,-0.7 -2,-2.9 0,-1.7 0.5,-3.3 1,-3.6 0.6,-0.3 1,-1.7 1,-3.1 0,-1.3 0.5,-2.4 1,-2.4 0.6,0 1,2.7 1,6 z"
     id="path25"
     style="fill:#fffafa;stroke:none;stroke-width:0.1" />
  <path
     d="m 319,296.09125 v 7.6 l 4.3,-0.3 4.2,-0.3 v -7 -7 l -4.2,-0.3 -4.3,-0.3 z m 8,0 c 0,5.4 0,5.5 -3,5.5 -3,0 -3,-0.1 -3,-5.5 0,-5.4 0,-5.5 3,-5.5 3,0 3,0.1 3,5.5 z"
     id="path26"
     style="fill:#fffafa;stroke:none;stroke-width:0.1" />
  <path
     d="m 317,319.09125 v 8.5 h 5.5 5.5 v -8.5 -8.5 h -5.5 -5.5 z m 10,-4 c 0,3.3 -0.2,3.5 -3.5,3.5 -3.2,0 -3.5,-0.2 -3.5,-2.9 0,-2.3 0.5,-3.1 2.3,-3.4 4.5,-0.9 4.7,-0.8 4.7,2.8 z"
     id="path27"
     style="fill:#fffafa;stroke:none;stroke-width:0.1" />
  <path
     d="m 437.3,319.29125 -4.3,0.4 v 6 5.9 h 7 7 v -6.5 c 0,-7.3 1,-6.7 -9.7,-5.8 z m 1.7,6.4 c 0,4.7 -0.2,5 -2.2,4.7 -2,-0.3 -2.3,-1 -2.6,-5.1 -0.3,-4.5 -0.2,-4.7 2.2,-4.7 2.4,0 2.6,0.3 2.6,5.1 z m 7,-0.6 c 0,4.1 -0.2,4.5 -2.5,4.5 -2.3,0 -2.5,-0.4 -2.5,-4.5 0,-4.1 0.2,-4.5 2.5,-4.5 2.3,0 2.5,0.4 2.5,4.5 z"
     id="path28"
     style="fill:#fffafa;stroke:none;stroke-width:0.1" />
  <path
     d="m 458,324.49125 v 6.1 h 4.5 4.6 l -0.3,-5.8 -0.3,-5.7 -4.2,-0.3 -4.3,-0.3 z m 7,0.6 c 0,4.1 -0.2,4.5 -2.5,4.5 -2.3,0 -2.5,-0.4 -2.5,-4.5 0,-4.1 0.2,-4.5 2.5,-4.5 2.3,0 2.5,0.4 2.5,4.5 z"
     id="path29"
     style="fill:#fffafa;stroke:none;stroke-width:0.1" />
  <path
     d="m 423.3,320.29125 c -2.1,0.4 -2.3,1 -2.3,6.1 v 5.7 h 3.5 3.5 v -6.3 c 0,-6.4 0,-6.4 -4.7,-5.5 z m 3.7,5.8 c 0,4.2 -0.2,4.5 -2.5,4.5 -2.4,0 -2.6,-0.3 -2.4,-4.5 0.2,-4 0.5,-4.5 2.6,-4.5 2.1,0 2.3,0.5 2.3,4.5 z"
     id="path30"
     style="fill:#fffafa;stroke:none;stroke-width:0.1" />
  <path
     d="m 458,350.99125 v 8.6 h 4.5 4.6 l -0.3,-8.3 -0.3,-8.2 -4.2,-0.3 -4.3,-0.3 z m 7,0.6 c 0,6.8 -0.1,7 -2.5,7 -2.4,0 -2.5,-0.2 -2.5,-7 0,-6.8 0.1,-7 2.5,-7 2.4,0 2.5,0.2 2.5,7 z"
     id="path31"
     style="fill:#fffafa;stroke:none;stroke-width:0.1" />
  <path
     d="m 401,368.09125 v 13.5 h 4.5 4.5 v -13.5 -13.5 h -4.5 -4.5 z m 3.4,-6.9 c 1.2,9.4 0.5,19.4 -1.5,19.4 -0.5,0 -0.9,-5.4 -0.9,-12 0,-12.1 1.2,-15.9 2.4,-7.4 z m 4.4,7.1 c -0.2,8.2 -0.7,11.8 -1.5,12.1 -1,0.3 -1.3,-2.5 -1.3,-11.7 0,-10.2 0.2,-12.1 1.5,-12.1 1.3,0 1.5,1.7 1.3,11.7 z"
     id="path32"
     style="fill:#fffafa;stroke:none;stroke-width:0.1" />
  <path
     d="m 231,28.291254 c -2.5,2.1 -3.1,3.2 -2.8,5.5 0.3,1.8 -0.2,3.4 -1.4,4.5 -1,0.9 -1.8,2.3 -1.7,3.2 0,1.4 0.1,1.4 0.6,0.1 0.3,-0.8 1.3,-2.3 2.2,-3.3 0.9,-1.1 1.4,-3.1 1.3,-4.8 -0.3,-2.3 0.3,-3.2 3,-4.9 1.8,-1.1 5,-2 7.2,-2 3.1,0 4.5,0.7 7.2,3.5 1.8,1.9 4.1,3.5 5.1,3.5 2.3,0 3.7,1 5.1,3.5 1,1.7 1.1,1.7 1.2,0.3 0,-2.1 -3.7,-4.8 -6.7,-4.8 -1.3,0 -2.4,-0.8 -2.8,-2 -1.7,-5.3 -12.3,-6.7 -17.5,-2.3 z"
     id="path33"
     style="fill:#fffafa;stroke:none;stroke-width:0.1" />
  <path
     d="m 225.1,47.691254 c -0.1,1.7 2.9,4.9 4.5,4.9 0.5,0 0.1,-0.5 -0.9,-1.1 -1,-0.6 -2.2,-2 -2.7,-3.2 -0.6,-1.5 -0.9,-1.7 -0.9,-0.6 z"
     id="path34"
     style="fill:#fffafa;stroke:none;stroke-width:0.1" />
  <path
     d="m 257.2,55.691254 c -1.3,1.6 -4,3.4 -6.1,4 l -3.8,1.1 2.4,2.4 c 2.6,2.6 3.1,7.2 0.9,8 -1.2,0.5 -1.1,1.1 0.5,3.7 3.8,6.3 2.1,11.8 -4.4,14.8 -4.6,2 -3.9,2.6 1.1,0.8 5.8,-2 8.2,-10 4.6,-15.5 -1.3,-1.9 -1.4,-2.8 -0.5,-3.7 1.6,-1.6 1.4,-4.9 -0.4,-7.4 -1.5,-2.1 -1.4,-2.3 1.9,-3.7 1.9,-0.8 4.2,-2.6 5.2,-4 2.3,-3.7 1.4,-4 -1.4,-0.5 z"
     id="path35"
     style="fill:#fffafa;stroke:none;stroke-width:0.1" />
  <path
     d="m 237,94.591254 c -0.9,0.6 -1,1 -0.3,1 0.6,0 1.5,-0.5 1.8,-1 0.8,-1.2 0.4,-1.2 -1.5,0 z"
     id="path36"
     style="fill:#fffafa;stroke:none;stroke-width:0.1" />
  <path
     d="m 270.2,122.59125 c 0,1.4 0.2,1.9 0.5,1.2 0.2,-0.6 0.2,-1.8 0,-2.5 -0.3,-0.6 -0.5,-0.1 -0.5,1.3 z"
     id="path37"
     style="fill:#fffafa;stroke:none;stroke-width:0.1" />
  <path
     d="m 264.8,126.69125 c -1.3,0.7 -1.8,2.1 -1.7,4.7 0.2,3.4 0.2,3.5 0.6,0.7 0.6,-3.7 1.8,-5.3 4.6,-5.8 2,-0.4 2,-0.4 0.2,-0.5 -1.1,-0.1 -2.8,0.3 -3.7,0.9 z"
     id="path38"
     style="fill:#fffafa;stroke:none;stroke-width:0.1" />
  <path
     d="m 268.9,138.29125 c -1.3,1.5 -1.2,1.5 0.9,0.2 2.7,-1.7 5.3,-0.4 6.3,3.2 0.7,2.3 0.7,2.3 0.8,0.2 0.2,-4.5 -5.3,-7 -8,-3.6 z"
     id="path39"
     style="fill:#fffafa;stroke:none;stroke-width:0.1" />
  <path
     d="m 17.1,310.19125 c 0,1.1 0.3,1.4 0.6,0.6 0.3,-0.7 0.2,-1.6 -0.1,-1.9 -0.3,-0.4 -0.6,0.2 -0.5,1.3 z"
     id="path44"
     style="fill:#fffafa;stroke:none;stroke-width:0.1" />
</svg>
