<?xml version="1.0" encoding="UTF-8" standalone="no"?>
<svg
   version="1.0"
   width="511.99951pt"
   height="288.09964pt"
   viewBox="0 0 511.99951 288.09964"
   preserveAspectRatio="xMidYMid"
   id="svg44"
   xmlns="http://www.w3.org/2000/svg"
   xmlns:svg="http://www.w3.org/2000/svg">
  <defs
     id="defs44" />
  <metadata
     id="metadata1">
Created by potrace 1.16, written by Peter Selinger 2001-2019
</metadata>
  <path
     id="path1"
     style="fill:#fffafa;stroke:none;stroke-width:0.1"
     d="m 314.61328,1e-5 c -0.47226,0.004 -0.94423,0.006 -1.4165,0.0117 -2.21003,0.0315 -4.42203,0.0684 -6.62989,0.17285 -0.18963,0.0224 -0.37539,0.0978 -0.56689,0.11573 -0.91334,0.0884 -1.54264,0.0959 -2.05371,0.0469 -0.57127,0.0437 -1.14198,0.0906 -1.7124,0.14795 -0.82396,0.0851 -1.64807,0.17501 -2.47119,0.26953 -0.26127,0.67588 -0.60527,1.32477 -1.06202,1.73584 -2.1,2.1 -2.10068,2.99951 -0.20068,4.99951 1.7,1.7 2.19951,16.100591 0.49951,17.100591 -0.5,0.3 -0.99902,1.7 -0.99902,3 0,1.3 0.49902,2.7 0.99902,3 0.6,0.3 1.00049,5.2998 1.00049,11.2998 v 10.69922 l -1.80029,-3.49952 c -1.6,-3.2 -2.10039,-3.4999 -5.90039,-3.3999 -2.9,0 -4.29932,-0.39971 -4.29932,-1.19971 0,-0.61417 -0.89961,2.3 -6.09961,3 -4,0.6 -5.60019,0.4002 -6.70019,-0.7998 -0.23507,-0.23507 -0.23168,-0.38572 -0.38233,-0.58301 -0.2531,0.0767 -0.50561,0.15495 -0.75879,0.23144 -0.0619,0.0561 -0.1115,0.0905 -0.28711,0.19629 0.70522,1.44987 0.88282,2.66539 0.62842,4.25537 -0.4,2.3 -0.20088,3.29883 0.59912,3.29883 1,0 1.1002,1.70088 0.7002,6.90088 -0.3,3.9 -0.30036,7.09932 0.0996,7.29932 0.4,0.2 0.50136,8.10049 0.40136,17.50049 l -0.40135,17.299809 h -3.29883 c -2.9,0 -3.4002,0.39971 -3.7002,2.69971 -0.3,2.6 -0.70029,2.7998 -7.80029,3.7998 -5.9,0.8 -7.60029,1.40078 -7.80029,2.80078 -0.2,0.9 0.3997,1.99981 1.1997,2.29981 1.4,0.5 1.60108,2.79941 1.60108,14.39941 v 13.8999 l -2.70117,0.3003 c -3.8,0.4 -4.49942,3.7998 -0.89942,3.7998 2.1,0 2.6001,0.50049 2.6001,2.50049 0,2.4 -0.19971,2.4999 -4.19971,1.8999 -2.4,-0.3 -4.80088,-0.69941 -5.40088,-0.89941 -1.3,-0.4 -1.99882,-9.5 -3.29882,-40.5 -0.8,-18.500009 -0.80098,-19.500789 0.99902,-20.800789 3.1,-2.2 1.90039,-12.19922 -1.59961,-12.19922 -1.3,0 -1.5,-3.00029 -1.5,-22.80029 0,-16.1 0.29971,-23.1 1.19971,-24 0.9,-0.9 0.80049,-1.6 -0.49951,-3 -2.1,-2.3 -2.19964,-6.5002 -0.0996,-8.2002 2.5,-2.2 1.29873,-6.29951 -2.30127,-7.99951 l -5.25147,1.16015 c 2.70607,1.33831 1.60637,1.59667 -3.54199,0.78223 l -15.32666,3.38672 c 5.18348,-0.37446 12.54076,-0.35898 14.2207,0.271 0.9,0.3 1.59961,1.79882 1.59961,3.29882 v 2.6001 h -8.69971 c -4.9,0 -10.00048,0.29981 -11.50048,0.79981 -2.6,0.7 -2.79932,0.50019 -2.79932,-2.29981 0,-1.62169 0.33422,-2.63904 1.18652,-3.3457 l -5.18701,1.14551 c 2.3,1.4 2.59981,5.20019 0.79981,8.20019 -1,1.5 -1,2.20069 0,3.20069 0.9,0.9 1.20117,7.1998 1.20117,23.2998 v 22.19971 l -2.5005,1.10009 c -2.1,1 -2.50049,1.80088 -2.50049,5.40088 0,2.9 0.7002,4.89952 2.2002,6.49952 l 2.10058,2.2998 -2.2998,27.700209 c -1.2,15.3 -2.50039,28.1 -2.90039,28.5 -0.3,0.3 -3.00039,0.80048 -5.90039,1.00048 l -5.2002,0.29883 v -8.69971 c 0,-9.5 -0.7999,-10.80029 -6.3999,-10.80029 -4.9,0 -5.10029,0.40049 -4.80029,10.00049 l 0.40136,9 h -2.50048 c -1.4,0 -2.8,-0.2998 -3,-0.7998 -0.3,-0.4 -0.79971,-15.00088 -1.19971,-32.40088 C 169.90049,90.099431 170,82.800601 171,81.600601 c 1.9,-2.3 0.4998,-4.30088 -3.7002,-5.40088 -7.6,-2.1 -18.5999,-0.79951 -21.3999,2.50049 -1.1,1.4 -0.99951,1.89951 1.00049,3.49951 l 2.39941,2.00098 -0.70019,18.698739 c -0.5,16 -1.49971,27.90136 -4.19971,49.90136 -0.3,2.5 -1.00029,4.29932 -1.80029,4.29932 -0.7,0 -2.20029,1.0002 -3.30029,2.2002 -3.7,4.3 -6.09932,11.99931 -7.29932,23.79931 -1,10.6 -2.19941,14.6 -3.89941,13.5 -1.2,-0.7 -3.1001,-32.89951 -4.1001,-70.99951 -0.6,-19.8 -1.50098,-49.899809 -2.00098,-66.799809 -1.1,-30.3 -0.99951,-30.79991 1.00049,-33.39991 2.6,-3.4 2.50049,-5.4998 -0.49951,-8.2998 l -2.40088,-2.29981 2.20019,-3.80127 -4.5996,0.90088 c 0.3,1.5 -0.4001,1.70039 -5.6001,1.40039 -5.1,-0.3 -6.09961,-0.70019 -6.09961,-2.20019 l -4.20557,0.95215 1.80469,1.54687 c -0.0919,0.45936 -0.96028,-0.26087 -1.87354,-1.53076 l -3.225582,0.73096 c 1.4,3.3 1.4,3.8 0,4.5 -2.4,1.4 -1.800006,4.50097 1.500002,8.00097 l 3,3.09961 -0.20069,13.59961 -0.19921,13.59961 L 102,44.600111 l -0.60059,-10.99951 -0.19921,15 c -0.3,18.7 -1.500395,46.40019 -4.400395,98.200199 l -2.200196,40.19971 -5.499023,0.59912 c -3.1,0.3 -7.100391,0.70049 -8.900391,1.00049 l -3.200683,0.3999 v -5.50049 -5.39941 h 4.300781 c 2.4,0 5.199219,-0.60039 6.199219,-1.40039 1.8,-1.3 1.801172,-1.39902 -0.298828,-2.49902 -1.1,-0.6 -3.901075,-1.1001 -6.101075,-1.1001 -3.3,0 -3.998925,-0.39981 -4.398925,-2.29981 l -0.401368,-2.20019 -0.199218,2.20019 c -0.1,2.2 -0.500586,2.29981 -9.600586,2.29981 H 57 v -11.90039 c 0,-3.78883 -2.659328,-4.20444 -5.269043,-3.7251 -0.214852,1.06132 -0.568075,1.62451 -1.230469,1.62451 -0.520554,0 -0.848778,-0.31469 -1.07959,-0.93457 -1.442566,0.51377 -2.620605,1.03565 -2.620605,1.03565 l 0.399902,13.69921 -4.800293,0.7002 c -6.3,1 -8.399414,2.1 -8.399414,4.5 0,2.4 3,4.39961 9,6.09961 4,1.2 4.198828,1.40068 1.798828,1.70068 -2.4,0.3 -2.7,0.8 -3,4.5 l -0.298828,4.19971 -7.000488,0.60059 -7.000488,0.49951 6.799804,0.19922 6.700196,0.20068 v 4.99951 5.00098 l -4.299317,-0.10108 c -2.4,-0.1 -4.900488,0.10098 -5.500488,0.50098 -0.9,0.5 -1.199707,6.5002 -1.199707,20.2002 v 19.39892 h -3.300293 c -3.2,0 -3.200391,-0.1001 -2.900391,-4.1001 0.3,-2.2 -0.09873,-4.59873 -0.69873,-5.19873 -0.7,-0.7 -1.200781,-6.20019 -1.300781,-14.20019 -0.2,-9.8 -0.299512,-11.00069 -0.499512,-4.70069 -0.3,6 -0.699609,8.19991 -1.599609,7.89991 -0.8,-0.2 -1.3,-4.3 -1.5,-13.5 l -0.300293,-13.1001 2.600097,-0.7002 c 1.4,-0.3 2.499024,-0.99892 2.499024,-1.39892 0,-1.6 -3.100196,-4.00049 -5.200196,-4.00049 -1.6,0 -1.899609,-0.49941 -1.599609,-2.39941 3.981938,-21.237 -1.584153,1.91429 -3.399902,3.3999 -1.8,1.4 -2.000489,2.09922 -1.000489,3.19922 1.2,1.5 1.700977,24.3999 0.500977,27.3999 -0.3,0.8 -1.400879,1.40039 -2.4008789,1.40039 -2.1,0 -2.3998047,1.09971 -0.7998047,2.69971 0.9,0.9 -0.1990235,1.80019 -3.9990235,3.70019 -2.8,1.5 -5.1005859,3.10059 -5.1005859,3.60059 0,1.4 0.49951178,1.29951 4.9995117,-1.00049 2.2,-1.1 4.2,-1.99951 4.5,-1.99951 0.3,0 0.5009763,7.89902 0.5009763,17.49902 v 17.50049 H 4.9995117 0 v 10.00049 9.99902 h 255.49951 c 169.7,0 255.50098,-0.29902 255.50098,-0.99902 0,-0.7 -74.0001,-1.00049 -220.1001,-1.00049 -214.499996,0 -220.299706,10e-5 -227.699706,-1.8999 -4.3,-1.1 -11.700684,-2.70059 -16.700684,-3.60059 -4.9,-1 -9.599316,-1.99941 -10.299316,-2.39941 -3.2,-1.8 31.99971,-2.09981 245.699706,-2.29981 126.4,-0.1 212.79961,-0.50088 196.59961,-0.90088 -15.9,-0.4 -124.3002,-0.69873 -240.7002,-0.69873 H 26.100586 l -2.701172,-2.10058 -2.699707,-2.10059 H 266.39941 c 217.6,0 245.6001,-0.2 245.6001,-1.5 0,-0.8 -0.5001,-1.5 -1.1001,-1.5 -0.7,0 -0.9998,-4.20019 -0.7998,-12.70019 l 0.20068,-12.79981 -5.40088,-1.59961 -5.39941,-1.59961 -0.30029,-5.40088 c -0.2,-2.9 -0.79932,-5.6 -1.29932,-6 -0.5,-0.3 -1.20107,-9.40009 -1.60107,-20.60009 l -0.59912,-20.09912 2.39941,-0.49952 c 1.3,-0.2 0.40088,-0.40136 -2.09912,-0.40136 -2.5,-0.1 -3.70117,0.10136 -2.70117,0.40136 1.6,0.4 1.70068,2.49991 1.70068,25.89991 v 25.39892 l -2.69971,-0.59912 c -4.3,-1 -4.30078,-1.0999 -4.30078,-7.8999 0,-5.9 -0.0991,-6.30078 -2.09912,-5.80078 -1.7,0.5 -2.00068,0.20068 -1.70068,-1.29932 0.2,-1 0.99961,-1.80068 1.59961,-1.70068 2.1,0.5 1.30019,-1.89942 -0.79981,-2.39942 -1.8,-0.5 -1.99951,-1.3999 -1.99951,-7.8999 0,-6.8 -0.20059,-7.40039 -2.10059,-7.40039 -2,0 -1.99882,-0.20068 -1.79882,-28.70068 l 0.29882,-28.79883 -3.49951,-0.30029 c -1.9,-0.2 -4.29941,0.40009 -5.39941,1.10009 -1.7,1.3 -1.8002,1.8001 -0.7002,4.1001 1.7,3.8 1.7,34.49912 0,35.09912 -0.7,0.2 -5.30078,0.70117 -10.30078,1.20117 l -9,0.79981 6,0.59912 c 5.5,0.5 5.3,0.60059 -3,0.60059 -4.9,0.1 -16.4,0.7996 -25.5,1.5996 -18.8,1.8 -29.9,2.09981 -28.5,0.79981 0.6,-0.4 11.80049,-1.6001 25.00049,-2.6001 24.9,-1.7 37.2002,-3.59922 21.7002,-3.19922 L 438,184.59963 v -15 c 0,-11.7 0.3,-15.50019 1.5,-17.20019 1.3,-1.9 1.3002,-2.09971 -0.7998,-2.69971 -4.2,-1.1 -10.19981,-0.59922 -14.29981,1.30078 -4.8,2.2 -6.00088,3.6 -3.90088,4.5 1.2,0.4 1.5,3.0999 1.5,15.3999 v 14.90039 l -3.70019,0.59912 c -2,0.4 -3.79903,0.49991 -3.99903,0.39991 -0.1,-0.2 -0.50088,-11.69922 -0.90088,-25.69922 -0.6,-23 -0.49912,-25.60039 0.90088,-26.90039 0.68633,-0.72024 1.11732,-1.26231 1.72266,-1.92627 -0.21436,-2.5e-4 -0.42871,-0.003 -0.64307,-0.003 -2.37157,0.009 -4.74177,0.0619 -7.11181,0.14209 0.0501,0.23178 0.0565,0.58147 0.0483,1.16455 -0.002,0.1382 -0.27189,0.0622 -0.41016,0.0615 -0.24175,-0.001 -1.3499,-0.17799 -1.46924,-0.19629 -0.35361,-0.0541 -0.70562,-0.11042 -1.05908,-0.16552 -1.17724,-0.19293 -2.35353,-0.39444 -3.52441,-0.6211 -1.14122,0.0409 -2.28306,0.0734 -3.42481,0.0967 -0.24936,0.905 -0.27593,1.75698 0.271,2.44776 0.9,0.8 1.30078,4.09892 1.30078,11.89892 0,10.4 -0.10049,10.70078 -2.50049,11.80078 -1.5,0.7 -2.50049,1.99922 -2.50049,3.19922 0,1.8 -0.6,2.00098 -6,2.00098 h -6 v -29.00091 c 4e-5,-18.7 0.40053,-28.99951 1.00053,-28.99951 2.7,0 0.29941,-2.2 -6.60059,-6 -7,-3.800009 -7.8998,-4.099519 -12.7998,-3.499519 l -5.29981,0.70019 -0.59912,-11.40088 c -0.4,-6.2 -0.70019,-23.9999 -0.70019,-39.3999 0,-23.8 0.2,-28.29941 1.5,-29.39941 0.8,-0.7 1.5,-2.10069 1.5,-3.20069 0,-1 -0.7,-2.09941 -1.5,-2.39941 -0.81101,-0.31861 -1.18693,-1.716301 -1.35645,-3.436521 -1.33968,0.005 -2.67993,0.0155 -4.01953,0.041 -5.3092,0.0737 -10.61764,0.16783 -15.92431,0.35303 -3.02737,0.11118 -6.05375,0.24816 -9.08057,0.37354 -0.32907,1.14402 -0.77704,2.126161 -1.31983,2.668941 -2.3,2.3 -2.30009,3.09902 0.39991,5.49902 l 2.10058,2.10059 -0.60058,39 c -0.4,24.1 -1.09922,39.79951 -1.69922,40.99951 -0.8,1.400009 -2.10069,2.000989 -4.70069,2.000989 -3.5,0 -3.50039,0.0992 -2.90039,3.19922 0.4,1.8 0.80088,12.6 0.90088,24 l 0.19922,20.60009 -2.6001,0.39991 -2.60009,0.3999 -0.59912,-21 c -1.2,-37.400009 -0.90088,-96.400109 0.59912,-98.600109 1,-1.7 0.90048,-2.59912 -0.49952,-5.09912 -2.3,-3.9 -2.40029,-14.4998 -0.30029,-17.299801 2.1,-2.8 1.90088,-5.7003 -0.59912,-6.3003 C 313.37604,0.94309 313.52065,0.62935 314.61328,0 Z M 49.420898,158.16506 c 0.735211,-0.26184 1.470339,-0.5357 2.310059,-0.68994 0.174376,-0.86138 0.269531,-1.99289 0.269531,-3.87451 0,-8.02706 -3,-8.02706 -3,0 0,2.37806 0.119147,3.75537 0.42041,4.56445 z m 52.305172,-146.096199 0.0688,-0.0161 -0.29443,-0.25196 c 0.0813,0.12193 0.14479,0.15572 0.22558,0.26807 z m 106.46045,5.68506 5.99268,-1.32422 c -2.22175,0.1605 -4.12933,0.37087 -4.8794,0.6709 -0.44687,0.18401 -0.80934,0.40132 -1.11328,0.65332 z m 21.31934,-4.71094 3.54199,-0.78223 c -0.43955,-0.21738 -0.70411,-0.38484 -1.34765,-0.66064 -6.5,-2.700001 -23.19991,-1.59971 -27.39991,1.80029 -2.5,1.9 -1.30088,2.59971 2.09912,1.19971 4.8,-2 15.2001,-2.80068 22.1001,-1.70068 0.42679,0.0721 0.6236,0.083 1.00635,0.14355 z M 310.65967,3.0879 c 0.95937,0.0563 1.49072,0.18662 1.24072,0.41162 -0.2,0.2 -3.30088,0.60049 -6.90088,1.00049 -4.4,0.4 -5.99951,0.3001 -4.99951,-0.3999 1.05,-0.675 7.78154,-1.18096 10.65967,-1.01221 z m -3.65918,3.31201 c 2.4,0.2 2.49931,0.49991 2.79931,7.899911 0.2,4.3 -0.0991,7.80029 -0.59912,7.80029 -0.5,0 -2.40009,0.30059 -4.10009,0.60059 l -3.10108,0.59912 v -7.99951 c 0,-8.500001 0.40098,-9.200401 5.00098,-8.900401 z m 33.7251,4.100101 c 5.525,-0.25 11.4748,0.2 14.6748,1.5 3.6,1.5 2.8002,2.5001 -0.7998,1.1001 -3.9,-1.4 -17.4001,-1.20049 -22.1001,0.49951 -4,1.4 -5.70088,1.2001 -3.90088,-0.3999 1.5,-1.5 6.60098,-2.44971 12.12598,-2.69971 z m 4.64355,3.80567 c 0.88125,0.0625 1.68018,0.19404 2.43018,0.39404 l 2.20019,0.60059 v 41.2998 41.2998 l -3.70019,0.60059 c -2.1,0.3 -6.69971,0.79971 -10.19971,1.19971 l -6.3999,0.600589 0.70019,-5.301279 c 0.3,-3 0.90078,-21.89921 1.30078,-42.19921 0.6,-36.2 0.69971,-36.69971 2.69971,-37.19971 4.95,-1.05 8.325,-1.48242 10.96875,-1.29492 z m -233.13281,2.8125 c 1.98281,0.13125 3.93808,0.48252 5.66308,1.08252 1.7,0.6 3.60118,1.99921 4.20118,3.19921 1,1.7 0.8998,1.89971 -0.7002,1.19971 -6.8,-2.7 -12.8998,-2.99941 -20.2998,-0.89941 -1.800016,0.5 -2.299906,0.3998 -1.899906,-0.7002 0.899996,-2.7 7.087206,-4.27558 13.035646,-3.88183 z m 107.61328,6.39404 c 4.9,0.0375 10.05039,0.93799 14.15039,2.68799 2.8,1.2 4.89961,2.4001 4.59961,2.6001 -0.2,0.3 -1.9002,-0.29971 -3.7002,-1.19971 -4.6,-2.4 -17.09892,-3.00117 -23.89892,-1.20117 -6.1,1.7 -7.39981,1.50009 -3.79981,-0.39991 3.1,-1.7 7.74893,-2.5248 12.64893,-2.4873 z M 105,24.099621 h 3.49951 3.50098 l -0.60059,15.7002 c -0.3,8.7 -0.70049,16.40097 -1.00049,17.00097 -0.2,0.7 -1.49892,1.29932 -2.89892,1.29932 H 105 v -16.99951 z m 200.75537,0.48047 c 2.73281,-0.005 6.52031,0.59443 7.94531,1.41943 0.7,0.3 -2.10029,0.7002 -6.30029,0.7002 -7,0.1 -8.60088,-0.6999 -3.90088,-1.8999 0.55,-0.15 1.34492,-0.21817 2.25586,-0.21973 z m -85.48096,2.67041 c 3.575,-0.125 6.92549,-2.9e-4 8.12549,0.44971 1.4,0.5 1.59961,3.60049 1.59961,23.50049 v 22.8999 h -7.69922 c -4.3,0 -9.50049,0.29912 -11.50049,0.59912 L 207,75.399911 v -23.09912 -23.00097 l 3.7998,-0.99903 c 2.1,-0.55 5.89961,-0.92529 9.47461,-1.05029 z m 84.88916,0.89209 c 0.52872,-0.004 1.13692,0.0957 1.83692,0.1582 l 2.49902,0.29883 0.30029,60.3999 c 0.2,47.700009 -4.8e-4,60.600799 -1.00048,61.300799 -0.7,0.4 -2.79922,0.7998 -4.69922,0.7998 h -3.3999 l 0.49951,-60.600599 c 0.4375,-57.3125 0.26289,-62.33232 3.96386,-62.35693 z m -12.20361,18.12158 c 1.22754,0.12832 2.50195,0.87393 3.43945,2.33643 0.9,1.3 1.60108,2.7 1.60108,3 0,0.3 -2,0.49951 -4.5,0.49951 -3.7,0 -4.5,-0.30029 -4.5,-1.80029 0,-2.75 1.91357,-4.24951 3.95947,-4.03565 z m -11.96045,4.13526 c 2.5,0 3.49981,0.20136 2.29981,0.40136 -1.3,0.2 -3.3,0.2 -4.5,0 -1.3,-0.2 -0.29981,-0.40136 2.20019,-0.40136 z m -0.99902,2.70117 c 1.7,0 1.99951,0.69951 1.99951,4.99951 0,4.3 -0.29951,4.99951 -1.99951,4.99951 -1.7,0 -2.00098,-0.69951 -2.00098,-4.99951 0,-4.3 0.30098,-4.99951 2.00098,-4.99951 z m 10.73437,1.01514 c 0.87188,-0.0844 1.26563,1.65937 1.26563,5.48437 0,4.2 -0.3,5.50049 -1.5,5.50049 -1.1,0 -1.5,-1.20029 -1.5,-4.80029 0,-2.7 0.30019,-5.20049 0.70019,-5.50049 0.4,-0.425 0.74356,-0.65596 1.03418,-0.68408 z m 8.26465,0.98437 c 0.6,0 1.00049,2.9002 1.00049,6.7002 0,4.8 -0.30049,6.3998 -1.00049,5.2998 -1.3,-2 -1.3,-12 0,-12 z m -195.19922,4.99951 c 0.4,0 0.59951,6.4002 0.49951,14.2002 -0.2,7.9 -0.69931,39.299809 -1.29931,69.799809 -0.6,30.5 -1.00049,63.70069 -1.00049,73.70069 v 18.19921 l -3.499512,-0.19921 -3.500976,-0.20069 0.500976,-6.99902 c 0.2,-3.9 0.699024,-16.20098 0.999024,-27.50098 0.3,-11.3 1.400488,-35.79951 2.500488,-54.49951 1.6,-26.7 3.90049,-77.599329 4.00049,-85.299329 0,-0.6 0.2998,-1.20117 0.7998,-1.20117 z m 4.69922,0 c 2.4,0 2.50049,0.20098 2.50049,6.50098 0,6.3 -0.10049,6.49951 -2.50049,6.49951 -2.4,0 -2.49902,-0.19951 -2.49902,-6.49951 0,-6.3 0.099,-6.50098 2.49902,-6.50098 z m 171.60059,4.00049 c 1,0 1.8999,0.40049 1.8999,1.00049 0,0.5 -1.2001,0.99902 -2.6001,0.99902 -1.4,0 -2.2999,-0.39902 -1.8999,-0.99902 0.3,-0.6 1.5001,-1.00049 2.6001,-1.00049 z m -0.5625,3.03955 c 1.73222,-0.28848 1.96289,7.51006 1.96289,43.560069 0,40 -0.10069,42.89971 -1.70069,43.19971 -1.7,0.3 -1.80029,-2.19912 -1.80029,-42.59912 0,-23.600009 0.3002,-43.199619 0.7002,-43.599619 0.3125,-0.3125 0.59043,-0.51983 0.83789,-0.56104 z M 285,68.100601 c 0.8,0 0.9998,5.8 0.7998,19.5 -0.2,10.7 -4.8e-4,19.500009 0.49952,19.500009 0.4,0 0.70019,0.89951 0.70019,1.99951 0,1.1 -0.59971,1.99951 -1.19971,1.99951 -1,0 -1.3996,-5.09951 -1.5996,-21.499519 -0.2,-15.1 -2e-4,-21.49951 0.7998,-21.49951 z m 14.6001,0.99902 c 0.2,0 0.29922,9.30117 0.19922,20.70117 l -0.19922,20.799329 -0.60059,-19.999519 c -0.5,-19 -0.49941,-21.50098 0.60059,-21.50098 z m -8.22803,0.20947 c 1.39453,-0.49492 1.60322,3.89073 1.42822,19.99073 -0.2,15.000009 -0.6,20.200099 -1.5,20.600099 -1,0.3 -1.30078,-4.0996 -1.30078,-19.599609 0,-10.9 0.3002,-20.20049 0.7002,-20.50049 0.25,-0.25 0.47314,-0.42002 0.67236,-0.49073 z M 106.1001,75.099621 H 108.49951 111 v 15.50098 15.499519 h -2.69971 -2.80078 l 0.30029,-15.499519 z m 114.67529,1.18799 c 5.125,0.0375 10.27402,0.41182 12.62402,1.11182 3.3,1 1.60118,1.20117 -12.29882,1.20117 -8.8,0 -16.1001,-0.10069 -16.1001,-0.20069 0,-0.1 1.49883,-0.6997 3.29883,-1.1997 2.25,-0.65 7.35107,-0.9501 12.47607,-0.9126 z m -67.27588,1.01221 c 1.4,0 1.1002,0.1998 -0.7998,0.7998 -1.6,0.5 -3.49932,1.40059 -4.29932,2.10059 -0.8,0.6 -1.40039,0.69922 -1.40039,0.19922 0,-1.3 3.89951,-3.19961 6.49951,-3.09961 z m 9.50098,1.80029 v 22.800299 22.8003 h -6.60059 l -6.70019,-0.10108 0.70019,-13.39892 c 0.3,-7.4 0.60059,-17.100599 0.60059,-21.600599 0,-7.5 0.1998,-8.30029 2.2998,-9.30029 1.2,-0.6 3.9,-1.1001 6,-1.1001 z m 54.68555,0.62402 c 5.41406,-0.0422 12.38847,0.57657 15.31347,1.47657 1.5,0.5 -0.59902,0.6999 -5.49902,0.3999 -4.7,-0.3 -11.10098,0.0994 -15.50098,0.89941 -4.1,0.7 -7.69883,1.2001 -7.79883,1.1001 -0.8,-0.8 4.69932,-3.00059 8.79932,-3.60059 1.25,-0.175 2.88135,-0.26132 4.68604,-0.27539 z m -15.19043,0.82911 c 0.0609,0.0156 0.13007,0.0976 0.20507,0.24755 0.2,0.7 0.2,1.89903 0,2.49903 -0.3,0.7 -0.50097,0.20029 -0.50097,-1.19971 0,-1.05 0.11308,-1.59375 0.2959,-1.54687 z m -88.00049,1.03564 c 0.0609,-0.008 0.13008,0.0609 0.20508,0.21094 0.2,0.7 0.2,2.1 0,3 -0.3,1 -0.49952,0.40029 -0.49952,-1.19971 0,-1.275 0.11162,-1.98779 0.29444,-2.01123 z m 126.40429,1.51172 c 0.6,0 1.1001,0.39902 1.1001,0.99902 0,0.5 -0.1999,1.00049 -0.3999,1.00049 -0.3,0 -0.8001,-0.50049 -1.1001,-1.00049 -0.3,-0.6 -0.1001,-0.99902 0.3999,-0.99902 z m -23.66748,2.44189 c 1.5875,-0.0422 3.31797,0.008 5.16797,0.15821 3.8,0.2 7.20069,0.69941 7.70069,0.89941 0.4,0.3 0.49921,20.899809 0.19921,45.799809 -0.4,31.4 -0.19941,48.90069 0.60059,57.20069 1,10.6 9.19922,68.60019 10.69922,75.70019 l 0.60059,2.79932 H 219 195.7998 l 0.60059,-4.29932 c 0.3,-2.3 0.8001,-8.00019 1.1001,-12.70019 0.3,-4.7 0.8001,-9.90117 1.1001,-11.70117 0.4,-2.7 0.0997,-3.19952 -1.8003,-3.49952 -1.4,-0.2 -2.20058,-0.90029 -2.10058,-1.80029 2,-14.3 5.1999,-53.09951 9.3999,-112.99951 1.5,-20.8 2.5999,-32.000399 3.3999,-32.900399 1.5,-1.575 4.96992,-2.53066 9.73242,-2.65723 z m 148.95996,13.07666 c 0.95187,0.0563 1.1587,0.50567 0.4087,1.18067 -0.8,0.800009 -43.90049,5.300689 -44.50049,4.700689 -1.5,-1.4 3.5999,-2.2998 21.3999,-3.7998 11,-1.000009 20.69951,-1.900989 21.49951,-2.000989 0.475,-0.075 0.8751,-0.0993 1.19238,-0.0806 z m 0.1084,3.581559 c 0.4,0 0.7002,10.69892 0.7002,23.89892 0,13.3 -0.40088,24 -0.90088,24 -0.5,0 -2.39971,-0.7 -4.19971,-1.5 -2.8,-1.2 -3.0001,-1.4 -1.1001,-1.5 1.2,0 2.2002,-0.49902 2.2002,-0.99902 0,-0.6 -0.89951,-1.00049 -1.99951,-1.00049 -1.6,0 -2.00098,-0.69951 -2.00098,-3.49951 0,-3.3 -0.19951,-3.50098 -3.49951,-3.50098 -3.5,0 -3.49951,3.9e-4 -3.49951,4.40039 v 4.5 l -5.2002,0.49951 c -2.9,0.3 -8.3,0.8001 -12,1.1001 l -6.7998,0.7002 v -21.49951 -21.39991 l 17.2998,-1.70068 c 9.4,-1 17.9002,-1.89951 18.7002,-1.99951 0.8,-0.2 1.7998,-0.39951 2.2998,-0.49951 z m -40.5,3.99902 c 0.1,-0.1 0.19922,9.5999 0.19922,21.3999 0,18.4 -0.2,21.50098 -1.5,21.50098 -1.3,0 -1.5,-3.00039 -1.5,-20.90039 0,-20.2 0.10078,-21.20049 2.80078,-22.00049 z m -217.30078,1.8999 c 2.4,0 2.50049,0.2 2.50049,7.5 v 7.5 h -3.09961 c -3,0 -3.10049,-0.19961 -2.50049,-3.09961 0.3,-1.7 0.60059,-5.1 0.60059,-7.5 0,-4 0.19902,-4.40039 2.49902,-4.40039 z m 166.80029,1.1001 c 0.4,0 0.7002,0.2998 0.7002,0.7998 0,1.2 -3.20049,1.90118 -13.00049,2.70118 -11.3,0.9 -9.50019,-0.8002 2.29981,-2.2002 5.1,-0.6 9.50048,-1.20078 10.00048,-1.30078 z m -34.9497,1.48828 c 0.05,-0.8875 0.25039,3.86211 0.65039,13.41211 0.4,10.7 1.49941,27.79951 2.39941,37.99951 0.9,10.2 2.79971,25.1999 4.19971,33.3999 2.5,15.1 9.3999,66.4001 9.3999,70.1001 -0.1,1.6 -0.19941,1.70098 -0.89941,0.50098 -0.5,-0.8 -2.5,-13.90098 -4.5,-29.00098 -2,-15.1 -4.69961,-35.59951 -6.09961,-45.49951 -4.4,-31.3 -4.4999,-33.49951 -4.8999,-60.49951 -0.2,-13 -0.30049,-19.5251 -0.25049,-20.4126 z m 130.9497,1.61279 c 0.7,0.3 1.3,2.89864 1.5,7.09864 0.2,5.7 0.10069,6.60107 -1.29931,6.10107 -2,-0.8 -2.30069,-13.79971 -0.20069,-13.19971 z m -82.85009,0.82471 c 2.275,0.05 4.65078,0.4252 5.05078,1.0752 0.4,0.6 0.4999,1.09931 0.3999,1.29931 -0.9,0.6 -9.90088,-0.7 -9.90088,-1.5 0,-0.65 2.1752,-0.92451 4.4502,-0.87451 z m -172.83838,0.11719 c 0.0328,0.17656 0.0644,1.00762 0.0894,2.55762 0.2,6.2 0.2,16.49951 0,22.99951 -0.1,6.5 -0.30029,1.3998 -0.30029,-11.2002 0,-9.525 0.1125,-14.88662 0.21094,-14.35693 z m 157.76367,1.05908 c 1.4038,0.0994 1.62451,0.629 1.62451,1.69775 0,1.5 -1.09922,2.00049 -6.19922,2.50049 -3.5,0.4 -7.30049,1.00078 -8.50049,1.30078 -1.8,0.4 -2.2998,0.1 -2.2998,-1.5 0,-2.1 0.99951,-2.50097 9.49951,-3.50097 1.7,-0.225 3.01963,-0.38037 4.04151,-0.4585 0.7664,-0.0586 1.36605,-0.0727 1.83398,-0.0396 z M 285,118.10012 c 0.6,0 1.00049,2 1.00049,4.5 0,2.5 -0.40049,4.5 -1.00049,4.5 -0.5,0 -1.00049,-2 -1.00049,-4.5 0,-2.5 0.50049,-4.5 1.00049,-4.5 z m -10.5,1.5 0.30029,10.40039 c 0.1,5.7 0.1,10.49961 0,10.59961 -0.2,0.1 -4.00009,0.4998 -8.60009,0.7998 l -8.29981,0.60059 0.30029,-10.19971 0.29883,-10.20117 8.00098,-0.99902 z m -165.89941,5.50049 H 111 v 13.99951 13.99951 h -3 -3 v -8.79931 c 0,-4.8 0.30059,-11.09952 0.60059,-13.99952 0.6,-4.6 0.9,-5.20019 3,-5.20019 z m 44.02441,1.2876 c 1.75,-0.2125 3.97529,0.0615 6.67529,0.81152 2.1,0.5 3.7002,1.60088 3.7002,2.40088 0,1.8 -0.20098,1.7999 -5.00098,0.3999 -2.8,-0.8 -4.69941,-0.90107 -6.89941,-0.10107 -3.1,1.1 -3.69981,0.70107 -2.29981,-1.39893 0.8,-1.2 2.07471,-1.8998 3.82471,-2.1123 z m 136.37549,0.71191 c 1.9,0 1.99951,0.70049 1.99951,13.00049 0,12.3 -0.0995,12.99902 -1.99951,12.99902 -1.9,0 -2.00098,-0.69902 -2.00098,-12.99902 0,-12.3 0.10098,-13.00049 2.00098,-13.00049 z m -134.4375,5.0127 c 2.4875,-0.0375 5.1876,0.2873 6.5376,0.9873 1.7,1 1.8999,2.2 1.8999,12 v 10.99951 h -8.29981 -8.20019 l 0.99902,-10.79883 c 0.5,-5.9 1.40029,-11.3 1.80029,-12 0.5,-0.75 2.77569,-1.15048 5.26319,-1.18798 z m 24.44971,0.16552 c 0.31875,-0.0969 0.73759,-0.053 1.28759,0.022 1.2,0.2 2.19912,0.9 2.09912,1.5 -0.1,0.7 -0.19921,4.40019 -0.19921,8.20019 -0.2,6.4 -0.4002,6.8999 -2.2002,6.3999 -1.8,-0.5 -1.99951,-1.40049 -1.99951,-8.50049 0,-5.775 0.056,-7.33095 1.01221,-7.62158 z M 402,135.09963 h 4.1001 4.00049 l -0.3003,11.50049 L 409.5,158.10061 H 405.7998 402 v -11.50049 z m -32.7627,1.08838 c 0.2875,-0.1375 0.96211,0.0627 2.16211,0.5127 2.3,0.9 2.40108,18.3999 0.10108,18.3999 -1.2,0 -1.5,-1.4999 -1.5,-7.8999 0,-4.4 -0.30059,-8.60098 -0.60059,-9.50098 -0.35,-0.9 -0.4501,-1.37422 -0.1626,-1.51172 z M 270,143.39944 c 3.3,0 0.70049,0.50078 -6.49951,1.30078 -6.6,0.7 -12.10029,1.09941 -12.30029,0.89941 -0.2,-0.2 1.60048,-0.59941 4.00048,-0.89941 2.3,-0.3 5.39981,-0.70049 6.79981,-1.00049 1.4,-0.2 4.99951,-0.30029 7.99951,-0.30029 z m 4.99951,2.70117 v 13.39892 13.30079 l -11.20019,0.70019 c -6.2,0.4 -12.09903,0.89971 -12.99903,1.19971 -1.6,0.5 -1.80029,1.9001 -1.80029,10.1001 0,5.3 -0.1999,9.39921 -0.3999,9.19921 -0.2,-0.2 -1.00069,-7.79882 -1.70069,-16.79882 -1.2,-17.4 -1.10009,-18.00108 3.39991,-18.10108 1.5,0 1.70078,0.6 1.30078,3 -0.3,2.3 -3e-4,3.00108 1.1997,3.10108 8.3,0.6 12.20069,-3.00059 12.20069,-11.10059 0,-3.8 -0.20039,-4.00049 -2.90039,-4.00049 -2.6,0 -3.0003,0.40069 -3.3003,3.20069 l -0.30029,3.30029 h -7.29931 c -5.9,0 -7.20049,-0.3 -7.00049,-1.5 0.3,-1.2 1.60058,-1.40117 6.60058,-1.20117 l 6.19922,0.40136 v -3.50097 c 0,-4 0.60029,-4.2 12.30029,-4.5 z m 197.95459,0.14941 c 1.64531,-0.16875 4.12119,0.45059 4.34619,1.35059 0.1,0.5 -1.3,1.09931 -3,1.29931 -3.1,0.3 -4.20009,-0.60019 -2.60009,-2.20019 0.25,-0.25 0.70546,-0.39346 1.2539,-0.44971 z m -125.76709,3.5874 c 1.5375,0.0625 2.06279,0.31319 1.61279,0.76319 -0.2,0.2 -19.70019,1.99941 -42.70019,3.89941 -3,0.3 -5,0.1001 -4.5,-0.3999 0.5,-0.4 7.3999,-1.39951 15.3999,-1.99951 8,-0.7 18.1,-1.4999 22.5,-1.8999 3.6,-0.3 6.15,-0.42579 7.6875,-0.36329 z M 174,150.09963 c 1.9,0 1.99951,0.7 1.99951,12 0,9.5 -0.29892,12 -1.39892,12 -1.5,0 -2.6001,-6.7998 -2.6001,-17.2998 0,-6 0.19951,-6.7002 1.99951,-6.7002 z m 24.7998,0.20069 c 0.6,-0.1 1.19971,0.49931 1.19971,1.29931 0,0.8 -0.89951,1.5 -1.99951,1.5 -1.2,0 -1.99951,0.70108 -1.99951,1.60108 0,0.9 -0.80069,2.3 -1.70069,3 -1.7,1.3 -1.69931,1.29892 0.20069,1.39892 1.2,0 1.59941,0.30049 0.89941,1.00049 -0.5,0.5 -1.89922,0.6999 -3.19922,0.3999 -1.8,-0.5 -2.20019,-1.29951 -2.20019,-4.99951 0,-4.2 0.0998,-4.30068 3.7998,-4.70068 2,-0.2 4.29951,-0.39951 4.99951,-0.49951 z m 234.89502,0.0278 c 0.80469,0.0594 1.30518,0.27236 1.30518,0.67236 0,0.4 -1.89971,1.09893 -4.19971,1.39893 -2.4,0.3 -5.3998,0.90117 -6.7998,1.20117 -2.3,0.6 -2.30098,0.49941 -0.50098,-0.60059 2.625,-1.65 7.78125,-2.85 10.19531,-2.67187 z M 187.84131,151.062 c 0.92812,-0.13125 1.20879,1.53838 0.75879,4.83838 l -0.60059,4.69922 3.90088,1.20117 c 2.2,0.7 4.69902,0.99873 5.49902,0.69873 1.8,-0.7 2.10049,1.9 1.00049,7.5 -0.6,3 -0.69951,3.10108 -6.49951,3.10108 H 186 V 162.7998 c 0,-5.7 0.3002,-10.69951 0.7002,-10.99951 0.45,-0.45 0.83173,-0.69454 1.14111,-0.73829 z M 474,151.10012 c 0.6,0 1.00049,9.2 1.00049,25.5 0,16.3 -0.40049,25.5 -1.00049,25.5 -0.6,0 -1.00049,-9.2 -1.00049,-25.5 0,-16.3 0.40049,-25.5 1.00049,-25.5 z m -115.70068,1.1001 c 1.1,0 1.7,0.4001 1.5,1.1001 -0.3,0.7 -2.19893,1.4 -4.39893,1.5 -2.1,0.2 -15.70068,1.19941 -30.20068,2.39941 -23.8,1.9 -28.6,1.8999 -27,0.3999 0.3,-0.4 46.79961,-4.49941 60.09961,-5.39941 z M 108,155.10061 c 2.8,0 3,0.29951 3,3.49951 0,3.2 -0.2,3.49951 -3,3.49951 -2.8,0 -3,-0.29951 -3,-3.49951 0,-3.2 0.2,-3.49951 3,-3.49951 z m 323.50049,0 c 3.4,0 3.49951,0.0994 3.49951,3.89941 0,3.2 -0.4002,4 -2.2002,4.5 -4.4,1.1 -4.80029,0.80059 -4.80029,-3.89941 0,-4.5 9.8e-4,-4.5 3.50098,-4.5 z m -153.50098,0.99902 h 6.50098 6.59912 l -0.30029,13.20117 -0.29883,13.29932 -6.20069,0.30029 -6.30029,0.3003 v -13.60108 z m 147,0 c 0.6,0 1.00049,5.7 1.00049,15 0,9.3 -0.40049,15 -1.00049,15 -0.6,0 -0.99902,-5.7 -0.99902,-15 0,-9.3 0.39902,-15 0.99902,-15 z m -69.99902,1.00049 v 23.90039 23.79932 l -7.70069,0.70019 c -4.2,0.3 -13.40048,0.60059 -20.50048,0.60059 h -12.79981 v -10.00049 -10.00049 h -4.39892 -4.30079 l -0.49951,13.70069 c -0.5,11.7 -0.2999,14.09912 1.1001,15.59912 1.5,1.8 3.09902,1.80009 27.99902,1.10009 22.3,-0.6 26.29991,-0.4998 25.89991,0.7002 -0.4,1.1 -3.69991,1.50107 -15.39991,1.60107 -23,0.4 -41.39941,1.39981 -41.39941,2.29981 0,0.5 11.69951,0.59883 25.99951,0.29883 l 26.00098,-0.59912 v 8.60009 8.69971 H 351 346.99951 v 10.99951 11.00098 H 339 331.00049 v -4.5 -4.5 h 4.5 4.5 v -6 -6 h -5.6001 -5.69971 l 0.69873,10.5 0.7002,10.5 h -3 H 324 v -15.50098 -15.49951 h 2.50049 c 1.9,0 2.49902,-0.50059 2.49902,-2.10059 0,-2.1 -0.19902,-2.09921 -14.49902,-1.69921 L 300,225.70022 v -32.2002 -32.20019 l 6.30029,-0.7002 c 8.1,-0.8 40.1,-3.1999 45,-3.3999 z m 3.49951,0 c 0.3,0 0.40029,10.90068 0.30029,24.20068 l -0.0996,24.29883 -0.90089,-22.99951 c -0.7,-21.5 -0.6998,-25.5 0.7002,-25.5 z m -203.4624,1.02539 c 5.1375,-0.075 10.01191,0.22412 10.46191,0.97412 0.4,0.6 -2.29971,1.0001 -7.19971,1.1001 -10,0 -15.39931,1.00039 -16.29931,2.90039 -2.8,5.5 -4.2,11.19932 -6,23.79932 -1.1,7.8 -2.00098,14.50078 -2.00098,14.80078 0,0.4 -1.79902,0.39964 -3.99902,0.0996 l -3.90088,-0.49951 0.3999,33.0996 c 0.3,18.6 0.10117,32.1002 -0.29883,30.7002 -0.5,-1.4 -1.10039,-21.40049 -1.40039,-44.50049 -0.2,-23.1 -0.29964,-38.19951 -0.0996,-33.49951 0.5,13.2 1.29971,14.89971 5.69971,11.69971 1.4,-1.1 2.19912,-4.39951 3.59912,-15.49951 1.9,-15.3 4.3,-21.5004 9,-23.9004 1.5,-0.75 6.90059,-1.19941 12.03809,-1.27441 z m 250.46191,1.97461 c 3.4,0 3.50098,0.10049 3.50098,4.00049 0,4 -9.8e-4,4.0998 -3.50098,3.7998 -3.3,-0.2 -3.49951,-0.40049 -3.49951,-4.00049 0,-3.7 0.0995,-3.7998 3.49951,-3.7998 z m -6.40722,1.02393 c 0.528,0.10448 0.9082,0.63281 0.9082,1.47656 0,0.8 -0.40088,1.5 -0.90088,1.5 -1.3,0 -2.19893,-1.60088 -1.39893,-2.40088 0.275,-0.275 0.55606,-0.45029 0.82325,-0.53467 0.20039,-0.0633 0.39235,-0.0758 0.56836,-0.041 z M 50.25,161.12551 c 0.65,0.1 1.349805,2.22393 1.549805,6.27393 0.2,4.6 6.83e-4,5.70117 -1.299317,5.70117 -1.2,0 -1.5,-1.30108 -1.5,-6.10108 0,-4.05 0.599512,-5.97402 1.249512,-5.87402 z m 101.95166,1.41797 c 1.27969,-0.0188 2.72285,0.0317 4.29785,0.15674 2.8,0.2 6.20108,0.3999 7.60108,0.3999 1.4,0 3.29931,0.59932 4.29931,1.29932 1.4,1 -0.39931,1.20117 -10.29931,1.20117 -8.6,0 -12.10108,-0.30117 -12.10108,-1.20117 0,-1.125 2.36309,-1.79971 6.20215,-1.85596 z m 140.59863,0.0571 c 0.4,0.6 0.49922,5.3 0.19922,10.5 l -0.59912,9.49954 -0.20068,-10.5 c -0.1,-5.7 0.20058,-9.99951 0.60058,-9.49951 z m -183.73828,1.1499 c 0.5375,0 0.98779,0.0494 1.23779,0.14941 0.4,0.2 0.7002,3.40079 0.7002,7.30079 v 6.89944 h -3 -3 v -6.89941 c 0,-6.4 0.1998,-7.00079 2.2998,-7.30079 0.6,-0.1 1.22471,-0.14941 1.76221,-0.14941 z m 34.23779,0.3501 c 1,0 1.30088,1.39971 0.90088,5.69971 -0.2,3.2 -1.10029,6.50039 -1.80029,7.40039 -2.5,2.8 -1.7001,5.6998 1.8999,6.7998 l 3.19922,0.89941 -3.19922,0.0996 c -4.2,0.1 -5.2998,2.3 -5.2998,10.5 0,3.6 -0.29981,6.60059 -0.79981,6.60059 -1.1,0 0.59981,-21.40049 2.29981,-28.00049 0.8,-3.2 1.5,-6.6999 1.5,-7.8999 0,-1.2 0.59931,-2.09912 1.29931,-2.09912 z m 288.39991,0.99902 h 3.3999 l -0.30029,9.7002 -0.29883,9.7998 -3.7002,0.30029 -3.7998,0.3003 v -6.3003 c 0,-3.5 0.29912,-8.00009 0.59912,-10.10009 0.6,-3.4 0.9001,-3.7002 4.1001,-3.7002 z m -45.19922,0.5874 c 4.51875,-0.16875 13.64941,0.33868 14.39941,1.01368 0.2,0.2 -3.50019,0.3999 -8.20019,0.3999 -5,0 -8.69971,-0.40049 -8.69971,-1.00049 0,-0.225 0.99424,-0.35684 2.50049,-0.41309 z m -17.83594,1.70655 c 0.21094,-0.1 0.48496,-0.0431 0.83496,0.10693 0.9,0.3 2.1001,0.59912 2.6001,0.59912 0.5,0 0.90088,3.2001 0.90088,7.1001 0,6.7 -0.1002,7.00019 -2.2002,6.70019 -2.1,-0.3 -2.30009,-0.89921 -2.60009,-7.69921 -0.225,-4.8 -0.16846,-6.50713 0.46435,-6.80713 z M 152.3877,168.0747 c 3.2875,-0.15 7.4123,0.0751 11.1123,0.7251 3.4,0.6 2.50049,0.90029 -6.49951,1.80029 -5.8,0.6 -10.6999,0.8998 -10.8999,0.7998 -0.2,-0.1 -0.10079,-0.90029 0.19921,-1.80029 0.35,-0.85 2.8004,-1.3749 6.0879,-1.5249 z m 240.0249,0.9873 c 4.8625,0.1875 10.03808,0.98829 11.28808,2.23829 2.6,2.7 0.29922,4.59941 -2.80078,2.39941 -1.7,-1.1 -4.6001,-1.59961 -10.1001,-1.59961 -6.5,0 -7.80029,-0.29961 -7.80029,-1.59961 0,-1.2 4.55059,-1.62598 9.41309,-1.43848 z M 157.5,172.40041 c 0.6,-0.1 2.09951,0.3002 3.49951,0.7002 2.2,0.7 1.90039,0.79941 -1.59961,0.89941 -2.3,0.1 -6.3,0.4002 -9,0.7002 -3.5,0.5 -4.59941,0.3001 -3.89941,-0.3999 0.8,-0.9 3.49951,-1.39991 10.99951,-1.89991 z m 115.98779,2.39942 c 1.6625,0.025 1.91211,0.25019 1.41211,0.70019 -0.2,0.2 -5.7999,0.60049 -12.3999,1.00049 -14.7,0.7 -13.9999,-0.19971 1.1001,-1.19971 5.15,-0.35 8.22519,-0.52597 9.88769,-0.50097 z M 61.800293,175.3008 85.5,175.50002 l -24,0.7002 c -13.2,0.3 -24.100684,0.6998 -24.200684,0.7998 -0.2,0 -0.298828,0.59971 -0.298828,1.19971 0,0.8 1.599512,1.00098 4.999512,0.50098 4.6,-0.6 4.999512,-0.50108 4.999512,1.39892 0,2.5 -3.399024,2.70059 -8.499024,0.60059 -4,-1.7 -4.099902,-1.90049 -1.899902,-4.00049 1.3,-1.4 4.899707,-1.59893 25.199707,-1.39893 z m 101.200197,0 c 1.4,0 1.89931,0.19952 1.29931,0.49952 -0.7,0.2 -1.90048,0.2 -2.50048,0 -0.7,-0.3 -0.19883,-0.49952 1.20117,-0.49952 z m 35.20019,0.79981 -0.50097,4.19971 c -0.4,2.4 -0.89932,8.20048 -1.29932,13.00048 l -0.60059,8.79932 h -6.3999 c -3.6,0 -6.3999,0.40049 -6.3999,1.00049 0,0.5 -1.10049,0.99902 -2.50049,0.99902 h -2.49902 v -13.5 -13.39892 l 6.7998,-0.39991 c 3.7,-0.2 8.2001,-0.40097 10.1001,-0.50097 z m 184.79883,0 h 7.8999 c 6.3,0 8.00049,0.29961 8.50049,1.59961 1.6,4 0.9001,4.40039 -7.8999,4.40039 h -8.50049 v -3 z M 154.5,176.29983 c 1.7,0 2.40029,0.20097 1.80029,0.50097 -0.7,0.2 -2.1,0.2 -3,0 -1,-0.3 -0.40029,-0.50097 1.19971,-0.50097 z m 19.29932,0.90088 c 0.9,-0.1 1.20117,3.19892 1.20117,13.39892 v 13.5 H 171 166.99951 v -12.89941 -13.00049 l 2.80078,-0.3999 c 1.5,-0.2 3.29903,-0.49912 3.99903,-0.59912 z m -123.298832,0.89941 c 1.3,0 1.5,2.8 1.5,19.5 0,16.7 -0.2,19.5 -1.5,19.5 -1.3,0 -1.5,-2.8 -1.5,-19.5 0,-16.7 0.2,-19.5 1.5,-19.5 z m 6.499512,0 h 9.499512 9.500976 v 5.39941 5.30127 L 69,189.49953 l -7.000488,0.7002 v 7.8999 c 0,6 -0.3,7.90088 -1.5,8.40088 -1.1,0.4 -1.5,2.0001 -1.5,5.6001 0,2.7 -0.399024,4.99951 -0.999024,4.99951 -0.6,0 -1.000488,-7.2 -1.000488,-19.5 z m 215.17529,0.2124 c 2.375,0.1625 2.82422,0.6875 2.82422,1.6875 0,1.6 -0.99951,2.0001 -6.49951,2.6001 l -6.49951,0.7002 v 8.90039 c 0,8 -0.1999,8.89892 -1.8999,8.89892 -1,0 -3.30098,0.30059 -5.00098,0.60059 L 252,202.3008 v -11.50048 -11.6001 l 5.79932,-0.3999 c 7.7,-0.45 12.00097,-0.6503 14.37597,-0.4878 z m -115.37549,0.8877 c 4.5,-0.1 8.2002,0.2998 8.2002,0.7998 0,1 -18.80049,2.09971 -20.50049,1.19971 -1.8,-1 4.00029,-1.89951 12.30029,-1.99951 z M 108,180.09963 c 2.5,0 3,0.40049 3,2.50049 0,2.1 -0.5,2.50049 -3,2.50049 -2.5,0 -3,-0.40049 -3,-2.50049 0,-2.1 0.5,-2.50049 3,-2.50049 z m 274.8999,4.00049 h 4.59961 4.5 v 11.10059 10.99951 l -4.19971,-0.3003 c -3.7,-0.3 -4.3996,-0.6997 -4.5996,-2.6997 -0.3,-2 -7.9e-4,-2.3003 1.69921,-1.8003 1.2,0.3 2.3001,0.0997 2.6001,-0.30029 0.3,-0.5 -0.49922,-0.99971 -1.69922,-1.19971 -2.1,-0.3 -2.30009,-0.89912 -2.60009,-8.09912 z m -98.12109,0.94189 c 1.33142,-0.0413 2.65664,-0.0308 3.84961,0.0396 1.59062,0.0937 2.94697,0.29316 3.77197,0.61816 3.9,1.5 0.89902,2.40088 -8.00098,2.40088 -8.5,0 -9.49941,-0.2 -8.39941,-1.5 0.73125,-0.84375 4.78454,-1.43459 8.77881,-1.5586 z m -179.57813,1.05762 H 108.09961 111 v 8.00098 7.99951 h -3.20068 -3.29883 l 0.29883,-7.99951 z m 53.09912,0.20069 c 1.5,-0.2 1.70069,0.80029 1.70069,7.80029 v 7.99951 h -9.50098 -9.59912 l 0.30029,-7.29932 0.29883,-7.20117 7.5,-0.59912 c 4.1,-0.3 8.30029,-0.60019 9.30029,-0.70019 z m 310.99952,0.89941 c 1.5,-0.1 1.70068,1.10039 1.70068,11.90039 v 12 h -4.59961 c -2.7,0 -4.30088,0.40049 -3.90088,1.00049 0.3,0.5 2.40108,0.99902 4.60108,0.99902 H 471 v 15.50098 15.49951 h -9.49951 -9.50098 v -16.00049 -15.99902 h -19.5 c -16,0 -19.5,0.19892 -19.5,1.39892 0,2 -2.3001,2.6001 -10.1001,2.6001 -5.2,0 -6.89941,-0.29892 -6.89941,-1.39892 0,-0.7 0.89951,-1.59991 1.99951,-1.89991 1.7,-0.4 2.0002,-1.50127 2.2002,-9.80127 l 0.30029,-9.3999 31.99951,-2.2998 c 17.6,-1.2 32.70098,-2.69922 33.50098,-3.19922 0.8,-0.5 2.29883,-0.90088 3.29883,-0.90088 z m -159.29883,0.90088 c 2.5,0 3,0.39902 3,2.49902 0,2.1 -0.5,2.50049 -3,2.50049 -2.5,0 -3,-0.40049 -3,-2.50049 0,-2.1 0.5,-2.49902 3,-2.49902 z M 44.4375,188.13721 C 45.2,188.12471 46.050391,188.4 46.400391,189 c 0.3,0.4 0.3,1.10039 0,1.40039 -0.8,0.8 -3.399903,-0.30039 -3.399903,-1.40039 0,-0.55 0.674512,-0.85029 1.437012,-0.86279 z m 45.174316,2.16357 c 3.0875,-0.125 4.388672,0.0987 2.888672,0.69873 -1.1,0.5 -6.000976,1.2 -11.000976,1.5 -14.1,1.2 -13.5,0.80069 -13.5,7.70069 0,3.3 -0.399024,5.90039 -0.999024,5.90039 -0.8,0 -1.600195,-12.8001 -0.700195,-13.1001 0.1,0 4.500195,-0.60078 9.700195,-1.30078 5.65,-0.8 10.523828,-1.27393 13.611328,-1.39893 z m 195.487794,0.79981 c 3.7,0 5.80088,0.39902 5.40088,0.99902 -0.3,0.5 -3.10108,1.00049 -6.10108,1.00049 -3,0 -5.39941,-0.50049 -5.39941,-1.00049 0,-0.6 2.69961,-0.99902 6.09961,-0.99902 z m 83.66016,1.31543 c 0.21562,-0.0844 0.49082,-0.0415 0.84082,0.0835 0.9,0.3 1.99902,0.60059 2.49902,0.60059 0.5,0 0.90088,2.60039 0.90088,5.90039 0,5.7 -0.10049,5.79981 -2.50049,5.29981 -2.3,-0.4 -2.50049,-0.79991 -2.50049,-6.39991 0,-3.825 0.11338,-5.23125 0.76026,-5.48437 z m -275.696782,0.83349 c 1.8625,0.15 1.886621,0.80079 1.536621,2.05079 -0.3,1.3 -0.599121,4.19951 -0.599121,6.49951 v 4.30078 h -5.000976 c -4.6,0 -5.000098,-0.20078 -5.600098,-2.80078 -1,-4.2 -2.299414,-5.2002 -6.899414,-5.2002 -3.8,0 -4.499805,0.30117 -5.299805,2.70117 -1,2.8 -1.000097,2.69952 -1.100097,-1.00048 -0.1,-4.4 -0.09961,-4.4001 10.40039,-5.6001 7,-0.75 10.7,-1.10069 12.5625,-0.95069 z M 282,195.09963 c 2,0 1.99951,0.70049 1.99951,32.50049 0,31.8 4.9e-4,32.50049 -1.99951,32.50049 -2,0 -1.99951,-0.70049 -1.99951,-32.50049 0,-31.8 -4.9e-4,-32.50049 1.99951,-32.50049 z m 6,0 c 2,0 1.99951,0.70049 1.99951,32.50049 0,31.8 4.9e-4,32.50049 -1.99951,32.50049 -2,0 -1.99951,-0.70049 -1.99951,-32.50049 0,-31.8 -4.9e-4,-32.50049 1.99951,-32.50049 z m 22.00049,0 c 3,0 3,0.10049 3,5.50049 0,5.4 0,5.50049 -3,5.50049 -3,0 -3,-0.10049 -3,-5.50049 0,-5.4 0,-5.50049 3,-5.50049 z m -294.000002,0.30029 c 2.5,0 3.499805,0.19991 2.299805,0.39991 -1.3,0.2 -3.3,0.2 -4.5,0 -1.3,-0.2 -0.299805,-0.39991 2.200195,-0.39991 z M 15,199.10012 c 0.6,0 1.000488,2.50049 1.000488,5.50049 0,3 -0.400488,5.49902 -1.000488,5.49902 -0.5,0 -1.000488,-2.49902 -1.000488,-5.49902 0,-3 0.500488,-5.50049 1.000488,-5.50049 z m 59.352539,0.14355 c 0.928125,-0.35625 2.222754,1.25625 2.447754,3.65625 0.3,2.8 -5.86e-4,3.20069 -2.100586,3.20069 -2.5,0 -2.700098,-0.80078 -1.100098,-5.80078 0.175,-0.6 0.443555,-0.93741 0.75293,-1.05616 z m 197.646971,3.85694 v 15.49951 15.49951 h -3.7998 c -3.1,0 -4.3,-0.59892 -6,-2.89892 l -2.2002,-3 3.3999,0.59912 3.50098,0.50097 0.30029,-10.10009 0.29883,-10.1001 h -7.59961 c -7.3,0 -7.70058,-0.10088 -8.10058,-2.40088 -0.6,-3 0.3,-3.29951 12,-3.49951 z m -85.19971,0.99902 h 4.19971 4.30078 l -0.7998,9.7002 c -1.3,17.8 -2.4999,23.3 -1.8999,9 l 0.3999,-12.89942 -3.10108,-2.90039 z m -78.70019,1.00049 H 111 v 7.00049 6.99902 h -3.49951 c -3.3,0 -3.50098,-0.19883 -3.50098,-3.29883 0,-1.7 0.30059,-4.90048 0.60059,-7.00048 0.6,-3.3 0.99951,-3.7002 3.49951,-3.7002 z m 20.90039,0 h 14.90039 c 8.2,0 16.19932,0.5001 17.79932,1.1001 2.7,1 8.2998,5.5998 8.2998,6.7998 0,0.3 -4.79922,0.59951 -10.69922,0.49951 H 148.5 l -0.30029,-3.29882 c -0.3,-2.8 -0.59903,-3.20118 -2.49903,-2.70118 -1.2,0.3 -2.90127,0.60059 -3.80127,0.60059 -1,0 -1.89873,1.2 -2.19873,3 -0.6,2.9 -0.90117,3 -5.70117,3 H 129 v -4.5 z m 180.20361,1.90723 c 0.9375,-0.0557 1.7959,1.28076 1.7959,3.59326 0,1.9 -0.39902,3.49951 -0.99902,3.49951 -1,0 -1.4001,-1.39941 -1.1001,-3.89941 0.2,-0.7 -0.1998,-1.00059 -0.7998,-0.60059 -0.7,0.3 -0.80098,5.9e-4 -0.50098,-0.89941 0.45,-1.125 1.0415,-1.65996 1.604,-1.69336 z m -274.028317,0.14209 c 1.475,0.1 2.974023,0.50136 3.624023,1.15136 0.7,0.7 1.201172,3.49991 1.201172,6.39991 0,5.5 -0.900195,6.3999 -6.700195,6.3999 -2.1,0 -2.299805,-0.40029 -2.299805,-6.30029 0,-3.5 0.300196,-6.70049 0.700196,-7.00049 0.55,-0.55 1.999609,-0.75039 3.474609,-0.65039 z m 38.424316,0.95068 c 2.4,0 2.500196,0.20068 2.200196,4.70068 -0.3,4.1 -0.600489,4.79912 -2.500489,5.09912 -2.1,0.3 -2.299804,7.9e-4 -2.299804,-4.69921 0,-4.8 0.200097,-5.10059 2.600097,-5.10059 z m 17.900391,0 c 2.4,0 2.500488,0.19951 2.500488,6.49951 0,6.3 -0.100195,6.4001 -2.200195,5.6001 -2,-0.7 -2.300098,-1.69951 -2.600098,-6.49951 -0.3,-5.4 -0.200195,-5.6001 2.299805,-5.6001 z m 246.3999,0 c 13.7,0 25.60049,0.30059 26.50049,0.60059 0.9,0.3 1.59961,1.1999 1.59961,1.8999 0,1.1 -0.8002,1.09883 -3.7002,0.29883 -2.5,-0.7 -11.60048,-0.79883 -26.50048,-0.29883 -20.4,0.6 -22.79883,0.49912 -22.79883,-0.90088 0,-1.4 2.89941,-1.59961 24.89941,-1.59961 z m -82.8999,3 c 1.1,0 1.99951,0.7 1.99951,1.5 0,0.8 -0.89951,1.5 -1.99951,1.5 -1.1,0 -1.99951,-0.7 -1.99951,-1.5 0,-0.8 0.89951,-1.5 1.99951,-1.5 z m 5.50049,0 c 0.8,0 1.5,0.7 1.5,1.5 0,0.8 -0.7,1.5 -1.5,1.5 -0.8,0 -1.5,-0.7 -1.5,-1.5 0,-0.8 0.7,-1.5 1.5,-1.5 z m 3.99902,0 c 0.8,0 1.5,0.7 1.5,1.5 0,0.8 -0.7,1.5 -1.5,1.5 -0.8,0 -1.5,-0.7 -1.5,-1.5 0,-0.8 0.7,-1.5 1.5,-1.5 z m -200.999998,1.99951 c 2,0 2.500488,0.50049 2.500488,2.50049 0,2 -0.500488,2.50049 -2.500488,2.50049 -2,0 -2.499024,-0.50049 -2.499024,-2.50049 0,-2 0.499024,-2.50049 2.499024,-2.50049 z m 305.900388,0 c 0.2,0 1.09951,0.30059 1.99951,0.60059 1.2,0.5 1.60108,2 1.60108,6 0,4.7 -0.20098,5.39941 -2.00098,5.39941 -1.8,0 -1.99951,-0.7 -1.99951,-6 0,-3.3 0.1999,-6 0.3999,-6 z m -354.846677,0.37354 c 0.04687,0.0578 0.09648,0.32763 0.146484,0.82763 0.2,2.1 0.2,5.5 0,7.5 -0.2,2.1 -0.399902,0.39981 -0.399902,-3.70019 0,-3.075 0.112793,-4.80088 0.253418,-4.62744 z m 400.447267,0.62695 h 17.49902 17.6001 l -0.30029,9.7002 c -0.2,6.6 -0.7,9.80009 -1.5,10.10009 -0.9,0.2 -1.29932,-0.90019 -1.29932,-3.70019 0,-2.2 -0.40049,-4.29961 -1.00049,-4.59961 -0.6,-0.4 -0.99902,1.0998 -0.99902,3.7998 0,4.6 0.2998,4.39981 -5.2002,3.79981 -0.5,-0.1 -0.90049,-2.1999 -1.00049,-4.8999 l -0.0996,-4.70069 -0.39991,4.5 c -0.5,5.5 -1.20068,6.30088 -4.70068,5.40088 -2.5,-0.6 -2.6001,-0.90098 -2.6001,-8.00098 v -7.39892 H 425.50049 420 v 10.59961 c 0,9.3 0.19961,10.50049 1.59961,10.00049 0.9,-0.3 3.30049,-0.60059 5.50049,-0.60059 2.8,0 3.89941,-0.4 3.89941,-1.5 0,-1.2 1.70098,-1.5 9.50098,-1.5 H 450 v 16.00049 c 0,13.6 -0.2,15.99902 -1.5,15.99902 -1.2,0 -1.5,-1.89902 -1.5,-11.49902 v -11.50049 h -7.5 -7.5 v 7.8999 c 0,4.4 -0.3002,8.19942 -0.7002,8.39942 -0.5,0.3 -4.30048,0.2 -8.50048,0 l -7.79883,-0.59912 v -22.8003 z m -237.7002,1.1001 c 3.2,0 5.69971,0.29941 5.69971,0.89941 0,1.1 -4.00049,1.1 -8.50049,0 -2.5,-0.6 -1.99922,-0.79941 2.80078,-0.89941 z m 78.19922,0.89941 c 1.1,0 1.5,1.20098 1.5,5.00098 0,5.2 -1.29941,6.69971 -2.39941,2.69971 -1.1,-4.1 -0.70059,-7.70069 0.89941,-7.70069 z m 5.00098,0 c 1.1,0 1.5,1.20098 1.5,5.00098 0,3.8 -0.4,4.99951 -1.5,4.99951 -1.1,0 -1.5,-1.19951 -1.5,-4.99951 0,-3.8 0.4,-5.00098 1.5,-5.00098 z m 3.99902,0 c 1.2,0 1.5,1.30049 1.5,5.50049 0,4.2 -0.3,5.50049 -1.5,5.50049 -1.2,0 -1.5,-1.30049 -1.5,-5.50049 0,-4.2 0.3,-5.50049 1.5,-5.50049 z m 118.5,2.00098 h 6 6 v 5.49902 c 0,5.4 -0.0989,5.50049 -2.89892,5.50049 -1.6,0 -4.3,-0.30059 -6,-0.60059 -3,-0.6 -3.10108,-0.89902 -3.10108,-5.49902 z m 14.00098,0 H 405 c 7.9,0 7.99951,-9.8e-4 7.99951,2.49902 0,1.8 -0.4999,2.50049 -1.8999,2.50049 -1,0 -4.59951,0.30059 -7.99951,0.60059 l -6.09961,0.69873 v -3.19922 z m -243.10108,0.99902 c 22.7,0 26.10059,0.2 26.10059,1.5 0,1.3 -3.30068,1.50078 -25.70068,1.30078 -19.4,-0.2 -25.69912,-0.59961 -26.09912,-1.59961 -0.3,-0.9 5.29921,-1.20117 25.69921,-1.20117 z m -74.386226,0.26367 c 0.3125,-0.0625 0.736523,-0.0138 1.186523,0.13623 0.9,0.4 4.3,1.50088 7.5,2.40088 3.2,0.9 5.800781,2.20039 5.800781,2.90039 0,0.8 -2.5,0.29961 -7.5,-1.40039 -4.1,-1.3 -7.5,-2.90097 -7.5,-3.50097 0,-0.3 0.200196,-0.47364 0.512696,-0.53614 z m -2.513672,0.73682 v 7.99951 8.00098 H 56.500488 c -13,0 -20.500488,0.39902 -20.500488,0.99902 0,0.6 7.500488,1.00049 20.500488,1.00049 h 20.499024 v 2.50049 2.49902 H 56.500488 c -13,0 -20.500488,0.40049 -20.500488,1.00049 0,0.6 7.500488,1.00049 20.500488,1.00049 19.8,0 20.499024,0.0995 20.499024,1.99951 0,1.9 -0.699024,1.99951 -20.499024,1.99951 -13,0 -20.500488,0.40049 -20.500488,1.00049 0,0.6 7.500488,1.00049 20.500488,1.00049 17.6,0 20.499024,0.2 20.499024,1.5 0,1.3 -2.899024,1.5 -20.499024,1.5 -13,0 -20.500488,0.39902 -20.500488,0.99902 0,0.6 7.500488,1.00049 20.500488,1.00049 17.6,0 20.499024,0.2 20.499024,1.5 0,1.3 -2.899024,1.5 -20.499024,1.5 H 36 v 2.50049 2.49902 h 20.500488 c 19.8,0 20.499024,0.10098 20.499024,2.00098 0,1.9 -0.7,1.99951 -22.5,1.99951 h -22.5 v -2.50049 c 0,-2.2 -0.399512,-2.49902 -3.499512,-2.49902 -3.1,0 -3.499512,0.29902 -3.499512,2.49902 0,1.4 -0.400488,2.50049 -1.000488,2.50049 -0.5,0 -1.000488,-1.60059 -1.000488,-3.60059 v -3.59912 l 4.5,0.39991 4.5,0.30029 v -18.7002 -18.7998 l 2.299804,-0.10108 c 1.2,0 9.400684,-0.8999 18.200684,-1.8999 8.8,-1 17.899805,-1.7999 20.299805,-1.8999 z m 346.700688,0 c 1.1,0 1.30009,1.8002 1.10009,8.2002 -0.3,7 -0.60097,8.30009 -2.00097,8.60009 -1.6,0.3 -1.79883,-0.59961 -1.79883,-7.59961 0,-8.1 0.29971,-9.20068 2.69971,-9.20068 z m 3.7998,0 c 1.2,0 1.5,1.60049 1.5,8.50049 0,6.9 -0.3,8.49902 -1.5,8.49902 -1.2,0 -1.5,-1.59902 -1.5,-8.49902 0,-6.9 0.3,-8.50049 1.5,-8.50049 z m -323.50049,1.00049 H 107.50049 111 v 6.99902 7.00049 h -3.49951 -3.50098 v -7.00049 z m 254.00098,0 c 0.6,0 0.99902,3.49902 0.99902,8.49902 0,5 -0.39902,8.50049 -0.99902,8.50049 -0.6,0 -1.00049,-3.50049 -1.00049,-8.50049 0,-5 0.40049,-8.49902 1.00049,-8.49902 z m -198.30029,2.49902 h 29.79931 v 5.00098 4.99951 L 159.30029,233.90041 129,234.09963 v -4.79883 c 0,-2.7 0.1999,-5.10127 0.3999,-5.30127 0.3,-0.2 13.9003,-0.3999 30.3003,-0.3999 z M 486,224.10061 c 0.6,0 1.00049,2.49902 1.00049,5.49902 0,3 -0.40049,5.50049 -1.00049,5.50049 -0.5,0 -1.00049,-2.50049 -1.00049,-5.50049 0,-3 0.50049,-5.49902 1.00049,-5.49902 z m -73.00049,0.99902 v 18 18.10108 l -8.20019,-0.3003 -8.29981,-0.30029 -0.29883,-17.2002 L 396,226.19973 l 6.20068,-0.3999 c 3.5,-0.2 7.29864,-0.39951 8.59864,-0.49951 z m -41.39941,1.00049 c 0.8,0 1.40039,0.89951 1.40039,1.99951 0,1.8 0.69883,2.00098 6.29883,2.00098 5.6,0 6.8,0.39922 10.5,3.19922 l 4.20117,3.20068 v 11.89893 c 0,9 -0.30117,11.80048 -1.20117,11.50048 -0.9,-0.3 -1.39961,-3.80009 -1.59961,-11.60009 l -0.3003,-11.09912 -3.19921,-2.70118 c -2.9,-2.4 -3.69981,-2.59873 -9.79981,-2.19873 -3.7,0.3 -7.20068,0.19893 -7.70068,-0.10107 -1.5,-0.9 -0.19961,-6.09961 1.40039,-6.09961 z m -71.6001,3 h 9.60059 9.69873 l -0.69873,3.7002 c -0.3,2.1 -0.60059,9.09951 -0.60059,15.49951 v 11.80078 h -2.50049 -2.49902 v -13.5 -13.5 h -4.5 -4.5 v 13.5 c 0,12.8 -0.10098,13.5 -2.00098,13.5 -1.9,0 -1.99951,-0.70098 -1.99951,-15.50098 z m 91.19971,1.00049 c 0.9,0 1.9998,0.5001 2.2998,1.1001 1.2,1.9 -0.50019,2.29912 -2.20019,0.59912 -1.6,-1.6 -1.59964,-1.69922 -0.0996,-1.69922 z m -127.5,4.99951 c 0.4,0 2.4,1.7002 4.5,3.7002 l 3.7998,3.70019 v 8.79932 c 0,5.2 -0.39902,8.80078 -0.99902,8.80078 -0.6,0 -1.00049,-3.39981 -1.00049,-8.29981 0,-8.2 -0.0995,-8.40117 -3.49951,-11.70117 -3.3,-3.2 -4.30078,-4.99951 -2.80078,-4.99951 z m 107.2998,0 c 0.6,0 1.00049,0.40049 1.00049,1.00049 0,0.5 -0.40049,0.99902 -1.00049,0.99902 -0.5,0 -0.99902,-0.49902 -0.99902,-0.99902 0,-0.6 0.49902,-1.00049 0.99902,-1.00049 z m -267,1.99951 h 3.50098 c 3.2,0 3.49951,0.20108 3.49951,3.10108 0,2.3 0.49951,3.19912 1.99951,3.59912 1.9,0.5 2.00029,1.20068 1.80029,12.20068 l -0.30029,11.6001 -5.20019,0.29883 -5.29981,0.30029 v -15.49951 z m 38.00098,0 H 163.99951 186 v 15.50098 15.49951 h -3 -3 v -8.50049 -8.49902 h -14.50049 -14.49902 v 8.49902 8.50049 h -4.5 -4.5 v -15.49951 z m 48,0 c 0.6,0 0.99902,5.80098 0.99902,15.50098 0,9.7 -0.39902,15.49951 -0.99902,15.49951 -0.6,0 -1.00049,-5.79951 -1.00049,-15.49951 0,-9.7 0.40049,-15.50098 1.00049,-15.50098 z m -90,1.00049 c 0.6,0 0.99902,0.89951 0.99902,1.99951 0,1.1 -0.39902,2.00098 -0.99902,2.00098 -0.500008,0 -1.00049,-0.90098 -1.00049,-2.00098 0,-1.1 0.500482,-1.99951 1.00049,-1.99951 z m 234.49951,3 c 3.4,0 3.49951,0.10049 3.49951,4.00049 0,3.9 -0.0995,3.99902 -3.49951,3.99902 -3.4,0 -3.49951,-0.099 -3.49951,-3.99902 0,-3.9 0.0995,-4.00049 3.49951,-4.00049 z m 25.99951,1.00049 H 372 v 9 9 h -11.69971 -11.80078 l 0.10108,-7.80029 c 0,-4.2 0.19921,-8.3 0.19921,-9 0.2,-0.9 3.29971,-1.19971 11.69971,-1.19971 z m -260.09912,1.99951 c 0.8,0 1.3001,0.80068 1.1001,1.70068 -0.2,1 -0.3999,2.09903 -0.3999,2.49903 -0.2,2.1 -2.10059,0.50078 -2.10059,-1.69922 0,-1.5 0.600394,-2.50049 1.40039,-2.50049 z M 453,246.09963 h 9 9 v 10.5 10.5 h -3 -3 v -9.49951 -9.49951 h -3 -2.90039 l -0.30029,9.19922 -0.29883,9.30029 -2.70117,0.30029 -2.79932,0.3003 v -10.5 z m -436.700684,2.00098 h 6.80127 c 3.8,0 6.899414,0.39902 6.899414,0.99902 0,0.5 -2.800684,1.00117 -6.200684,1.20117 l -6.298828,0.29883 -0.300293,8.2002 c -0.2,4.6 -0.699707,8.2998 -1.199707,8.2998 -1.1,0 -1.299902,-10.99941 -0.399902,-15.89941 z m 100.270024,0.27978 c 0.0375,0.10782 0.0804,0.56944 0.13037,1.41944 0.2,3.5 0.2,9.10097 0,12.50097 -0.2,3.5 -0.3003,0.69932 -0.3003,-6.20068 0,-5.175 0.0574,-8.04316 0.16993,-7.71973 z m 17.83007,1.71973 c 2.5,0 4.80059,0.40049 5.10059,1.00049 0.4,0.6 -1.30039,0.99902 -4.40039,0.99902 -2.8,0 -5.09912,-0.49902 -5.09912,-0.99902 0,-0.6 1.99892,-1.00049 4.39892,-1.00049 z m 303.60059,0 h 3.49951 3.50098 v 8.50049 8.49902 H 441.49951 438 v -8.49902 z m -338.500488,3 c 1.199998,0 1.499998,1.5 1.499998,7.5 0,6 -0.3,7.5 -1.499998,7.5 -1.2,0 -1.5,-1.5 -1.5,-7.5 0,-6 0.3,-7.5 1.5,-7.5 z m 55.499998,0 H 162 h 7.00049 v 7.5 7.5 H 162 154.99951 v -7.5 z m 20.00098,0 h 3 v 7.59961 7.5 l -3.20069,-0.30029 c -3.3,-0.3 -3.29912,-0.29922 -3.59912,-6.19922 -0.4,-7.5 0.0998,-8.6001 3.79981,-8.6001 z m -39.90088,1.00049 c 3.6,0 4.90068,0.39971 4.70068,1.19971 -0.3,0.7 -2.50058,1.3996 -5.10058,1.5996 -3.7,0.2 -4.69922,3e-4 -4.69922,-1.1997 0,-1.2 1.19912,-1.59961 5.09912,-1.59961 z m -0.59912,4.99951 c 2.5,0 4.5,0.40049 4.5,1.00049 0,0.5 -2,0.99902 -4.5,0.99902 -2.5,0 -4.5,-0.49902 -4.5,-0.99902 0,-0.6 2,-1.00049 4.5,-1.00049 z m 127.5,3 h 66 c 36.3,0 66,0.3002 66,0.7002 0,0.5 -0.60039,1.60048 -1.40039,2.50048 -1,1.3 -1.49942,1.49912 -2.39942,0.59912 -0.9,-0.9 -1.20117,-0.9 -1.20117,0 0,0.9 -14.79951,1.19971 -63.49951,1.19971 h -63.49951 v -2.49902 z M 135,263.10061 c 3.8,0 4.99951,0.4 4.99951,1.5 0,1.1 -1.19951,1.5 -4.99951,1.5 -3.8,0 -4.99951,-0.4 -4.99951,-1.5 0,-1.1 1.19951,-1.5 4.99951,-1.5 z m 279.49951,0 c 16.8,0 17.50049,0.0995 17.50049,1.99951 0,1.9 -0.70049,1.99951 -17.50049,1.99951 -16.8,0 -17.49902,-0.0995 -17.49902,-1.99951 0,-1.9 0.69902,-1.99951 17.49902,-1.99951 z" />
  <path
     d="m 344.3,110.80012 -3.3,0.4 v 7 6.9 l 3.3,-0.1 c 2.3,-0.1 2.6,-0.3 1,-0.6 -2.1,-0.4 -2.3,-1 -2.3,-6.4 0,-5.9 0,-5.9 2.9,-5.9 1.7,0 3.3,-0.5 3.6,-1 0.3,-0.6 0,-0.9 -0.7,-0.8 -0.7,0 -2.8,0.3 -4.5,0.5 z"
     id="path24"
     style="fill:#fffafa;stroke:none;stroke-width:0.1" />
  <path
     d="m 350.8,117.10012 -0.3,7 h 3.8 3.7 v -7 -7 h -3.4 -3.4 z m 5.2,0 c 0,5.3 -0.2,6 -2,6 -1.5,0 -2,-0.7 -2,-2.9 0,-1.7 0.5,-3.3 1,-3.6 0.6,-0.3 1,-1.7 1,-3.1 0,-1.3 0.5,-2.4 1,-2.4 0.6,0 1,2.7 1,6 z"
     id="path25"
     style="fill:#fffafa;stroke:none;stroke-width:0.1" />
  <path
     d="m 319,171.60012 v 7.6 l 4.3,-0.3 4.2,-0.3 v -7 -7 l -4.2,-0.3 -4.3,-0.3 z m 8,0 c 0,5.4 0,5.5 -3,5.5 -3,0 -3,-0.1 -3,-5.5 0,-5.4 0,-5.5 3,-5.5 3,0 3,0.1 3,5.5 z"
     id="path26"
     style="fill:#fffafa;stroke:none;stroke-width:0.1" />
  <path
     d="m 317,194.60012 v 8.5 h 5.5 5.5 v -8.5 -8.5 h -5.5 -5.5 z m 10,-4 c 0,3.3 -0.2,3.5 -3.5,3.5 -3.2,0 -3.5,-0.2 -3.5,-2.9 0,-2.3 0.5,-3.1 2.3,-3.4 4.5,-0.9 4.7,-0.8 4.7,2.8 z"
     id="path27"
     style="fill:#fffafa;stroke:none;stroke-width:0.1" />
  <path
     d="m 437.3,194.80012 -4.3,0.4 v 6 5.9 h 7 7 v -6.5 c 0,-7.3 1,-6.7 -9.7,-5.8 z m 1.7,6.4 c 0,4.7 -0.2,5 -2.2,4.7 -2,-0.3 -2.3,-1 -2.6,-5.1 -0.3,-4.5 -0.2,-4.7 2.2,-4.7 2.4,0 2.6,0.3 2.6,5.1 z m 7,-0.6 c 0,4.1 -0.2,4.5 -2.5,4.5 -2.3,0 -2.5,-0.4 -2.5,-4.5 0,-4.1 0.2,-4.5 2.5,-4.5 2.3,0 2.5,0.4 2.5,4.5 z"
     id="path28"
     style="fill:#fffafa;stroke:none;stroke-width:0.1" />
  <path
     d="m 458,200.00012 v 6.1 h 4.5 4.6 l -0.3,-5.8 -0.3,-5.7 -4.2,-0.3 -4.3,-0.3 z m 7,0.6 c 0,4.1 -0.2,4.5 -2.5,4.5 -2.3,0 -2.5,-0.4 -2.5,-4.5 0,-4.1 0.2,-4.5 2.5,-4.5 2.3,0 2.5,0.4 2.5,4.5 z"
     id="path29"
     style="fill:#fffafa;stroke:none;stroke-width:0.1" />
  <path
     d="m 423.3,195.80012 c -2.1,0.4 -2.3,1 -2.3,6.1 v 5.7 h 3.5 3.5 v -6.3 c 0,-6.4 0,-6.4 -4.7,-5.5 z m 3.7,5.8 c 0,4.2 -0.2,4.5 -2.5,4.5 -2.4,0 -2.6,-0.3 -2.4,-4.5 0.2,-4 0.5,-4.5 2.6,-4.5 2.1,0 2.3,0.5 2.3,4.5 z"
     id="path30"
     style="fill:#fffafa;stroke:none;stroke-width:0.1" />
  <path
     d="m 458,226.50012 v 8.6 h 4.5 4.6 l -0.3,-8.3 -0.3,-8.2 -4.2,-0.3 -4.3,-0.3 z m 7,0.6 c 0,6.8 -0.1,7 -2.5,7 -2.4,0 -2.5,-0.2 -2.5,-7 0,-6.8 0.1,-7 2.5,-7 2.4,0 2.5,0.2 2.5,7 z"
     id="path31"
     style="fill:#fffafa;stroke:none;stroke-width:0.1" />
  <path
     d="m 401,243.60012 v 13.5 h 4.5 4.5 v -13.5 -13.5 h -4.5 -4.5 z m 3.4,-6.9 c 1.2,9.4 0.5,19.4 -1.5,19.4 -0.5,0 -0.9,-5.4 -0.9,-12 0,-12.1 1.2,-15.9 2.4,-7.4 z m 4.4,7.1 c -0.2,8.2 -0.7,11.8 -1.5,12.1 -1,0.3 -1.3,-2.5 -1.3,-11.7 0,-10.2 0.2,-12.1 1.5,-12.1 1.3,0 1.5,1.7 1.3,11.7 z"
     id="path32"
     style="fill:#fffafa;stroke:none;stroke-width:0.1" />
  <path
     d="m 17.1,185.70012 c 0,1.1 0.3,1.4 0.6,0.6 0.3,-0.7 0.2,-1.6 -0.1,-1.9 -0.3,-0.4 -0.6,0.2 -0.5,1.3 z"
     id="path44"
     style="fill:#fffafa;stroke:none;stroke-width:0.1" />
</svg>
