<?xml version="1.0" standalone="no"?>
<!DOCTYPE svg PUBLIC "-//W3C//DTD SVG 20010904//EN"
 "http://www.w3.org/TR/2001/REC-SVG-20010904/DTD/svg10.dtd">
<svg version="1.0" xmlns="http://www.w3.org/2000/svg"
 width="512.000000pt" height="512.000000pt" viewBox="0 0 512.000000 512.000000"
 preserveAspectRatio="xMidYMid meet">
<metadata>
Created by potrace 1.16, written by Peter Selinger 2001-2019
</metadata>
<g transform="translate(0.000000,512.000000) scale(0.100000,-0.100000)"
fill="#FFFAFA" stroke="none">
<path d="M2749 4268 c-52 -55 -108 -107 -125 -114 -44 -18 -166 -151 -207
-225 -20 -35 -52 -104 -71 -154 -66 -163 -76 -175 -129 -141 -29 20 -53 6
-106 -60 -25 -31 -56 -57 -83 -69 -60 -26 -74 -40 -121 -120 -58 -99 -120
-163 -192 -196 -88 -40 -115 -78 -135 -189 -17 -96 -18 -99 -61 -117 -56 -22
-84 -61 -102 -142 -20 -87 -44 -134 -95 -187 -30 -31 -46 -60 -62 -113 -16
-56 -31 -81 -63 -114 -73 -73 -162 -136 -249 -177 -100 -47 -131 -70 -164
-121 -42 -67 -158 -111 -339 -129 -64 -6 -59 -7 52 -8 104 -2 122 -4 117 -17
-5 -12 4 -15 42 -16 27 -1 63 -5 79 -9 l30 -7 -30 -12 c-16 -7 -75 -16 -130
-20 -88 -6 -67 -7 165 -15 146 -5 280 -9 298 -9 18 0 27 -4 21 -8 -17 -10 38
-36 103 -50 60 -13 100 -35 165 -91 37 -32 52 -38 88 -38 38 0 47 -4 66 -32
13 -18 46 -59 75 -90 50 -55 94 -143 94 -188 0 -53 58 -127 150 -190 79 -55
176 -157 199 -212 35 -83 92 -91 129 -18 52 103 87 123 132 75 20 -21 31 -24
82 -22 58 2 60 1 98 -39 30 -33 41 -55 50 -102 13 -66 27 -83 78 -100 39 -13
97 -58 173 -134 32 -32 61 -58 66 -58 4 0 28 14 52 30 24 17 55 30 68 30 38 0
87 25 106 54 10 14 35 35 56 46 36 18 41 25 51 77 11 53 18 63 101 143 l89 86
0 52 c0 67 16 104 80 189 79 106 93 121 117 128 18 5 22 1 28 -25 9 -43 29
-37 42 13 7 23 30 64 53 91 22 27 43 60 46 75 14 62 23 78 62 106 99 72 167
109 221 121 31 6 76 18 101 27 50 17 207 13 176 -5 -9 -5 -14 -13 -11 -19 8
-12 112 -12 120 1 7 11 -54 42 -67 34 -9 -6 -21 34 -13 46 4 6 71 10 173 10
133 0 164 3 154 13 -10 9 -100 12 -377 13 -362 1 -422 5 -409 25 4 7 98 8 298
3 455 -12 439 -13 451 13 8 19 19 23 70 26 l60 3 -73 2 c-56 2 -79 7 -101 23
-28 21 -30 21 -60 3 -24 -14 -33 -16 -43 -6 -7 7 -35 12 -64 12 -67 0 -131 42
-188 122 -37 52 -106 115 -174 160 -14 9 -32 30 -40 45 -7 15 -36 48 -63 73
-72 65 -80 116 -42 253 l16 58 -41 42 c-25 25 -51 67 -65 102 -19 50 -34 68
-97 120 -60 49 -79 72 -94 111 -41 107 -50 124 -82 153 -38 35 -41 45 -90 282
-19 96 -39 178 -44 182 -18 19 -45 -1 -80 -58 -67 -110 -98 -79 -147 145 -13
63 -35 147 -48 186 -28 80 -174 390 -205 435 -36 50 -58 40 -161 -73z m123 7
c-2 -27 -17 -78 -34 -114 -31 -67 -59 -139 -57 -150 0 -3 13 20 29 52 15 32
30 55 33 50 2 -4 12 -41 22 -81 l19 -72 -22 -28 c-42 -51 -54 -91 -47 -153 6
-51 4 -63 -20 -102 -27 -47 -65 -167 -65 -202 1 -11 12 14 25 55 13 41 31 84
38 94 14 19 15 19 51 -3 20 -13 36 -29 36 -37 0 -10 13 -5 41 16 32 23 45 27
60 20 33 -18 31 -30 -10 -94 -40 -61 -41 -65 -41 -149 0 -47 5 -98 12 -112 11
-25 7 -31 -84 -123 -52 -53 -120 -133 -150 -177 -164 -241 -235 -329 -295
-366 -41 -26 -67 -69 -86 -143 -19 -70 -41 -95 -123 -141 -33 -19 -74 -51 -89
-71 -30 -40 -111 -82 -127 -66 -19 19 14 102 67 170 62 79 75 104 115 213 16
45 48 110 69 143 41 63 65 113 121 250 18 43 48 101 67 129 48 71 50 78 8 32
-39 -42 -84 -124 -105 -190 -15 -49 -65 -149 -114 -229 -19 -32 -47 -93 -61
-135 -24 -70 -64 -156 -65 -139 0 4 8 29 19 55 10 26 31 91 46 143 15 52 42
121 61 152 44 72 59 115 80 229 14 76 25 105 66 173 27 44 63 99 80 121 31 41
-2 9 -119 -117 -36 -39 -56 -51 -113 -68 -75 -22 -81 -28 -162 -149 -59 -90
-97 -117 -188 -135 -70 -15 -76 -15 -92 2 -17 16 -16 19 13 62 16 25 39 63 51
85 35 67 -6 23 -57 -62 -51 -83 -72 -131 -145 -326 -83 -225 -130 -289 -244
-337 l-65 -28 55 73 c35 47 65 102 85 155 16 45 28 84 27 86 -2 2 -23 -41 -46
-94 -30 -69 -60 -119 -105 -172 -89 -106 -67 -94 -446 -246 -47 -18 -86 -32
-88 -31 -1 2 12 20 29 41 22 27 59 51 124 81 100 47 263 169 301 227 12 18 29
59 38 92 12 40 29 70 57 99 51 53 75 100 94 188 19 80 38 108 85 124 46 16 68
50 80 125 5 36 20 85 32 110 19 38 32 50 88 76 75 36 158 120 204 206 38 72
48 82 111 113 38 19 67 43 92 77 23 31 43 47 52 44 8 -2 30 -10 48 -18 32 -12
35 -12 61 17 15 17 42 69 61 115 80 205 182 355 270 400 21 11 80 64 132 120
51 55 98 98 103 96 6 -2 9 -25 7 -51z m88 -107 c0 -4 27 -67 61 -139 52 -112
64 -151 84 -260 13 -71 26 -139 29 -151 3 -13 -3 -4 -13 18 -20 44 -48 72 -37
38 3 -11 13 -50 21 -88 9 -39 23 -85 31 -104 17 -42 17 -42 -1 -42 -8 0 -19
-10 -26 -22 -15 -28 -22 -15 -43 82 -28 127 -73 174 -132 135 -14 -9 -28 -14
-31 -11 -12 12 18 159 42 206 14 27 25 60 25 74 0 46 -49 291 -75 371 -4 11
10 -7 29 -40 20 -33 36 -63 36 -67z m372 -661 c-22 -46 -47 -107 -56 -134 -9
-28 -36 -73 -60 -100 -36 -42 -44 -60 -49 -105 -3 -29 -15 -73 -26 -98 -11
-25 -21 -56 -21 -70 0 -27 48 -118 74 -139 13 -11 11 -16 -19 -43 -19 -16 -51
-53 -72 -81 -98 -136 -175 -225 -202 -237 -18 -7 -43 -9 -62 -5 -27 6 -31 5
-26 -9 4 -9 11 -55 17 -102 10 -82 10 -89 -12 -133 -17 -35 -28 -45 -43 -43
-51 7 -82 1 -134 -26 -155 -79 -330 -176 -327 -179 4 -4 153 70 316 157 96 51
104 51 96 1 -3 -22 -9 -48 -12 -58 -5 -15 -4 -15 5 -3 9 12 11 10 11 -12 0
-16 12 -41 29 -60 31 -35 188 -135 197 -125 3 3 -8 13 -25 23 -22 13 -31 26
-31 44 0 14 -16 59 -36 100 -31 64 -35 83 -32 128 3 29 10 58 16 64 14 14 42
-79 42 -144 0 -36 11 -72 45 -144 33 -72 40 -94 27 -88 -9 4 -88 8 -174 8
-101 1 -162 6 -169 13 -8 8 7 10 58 8 64 -4 65 -3 18 4 -135 23 -150 23 -206
7 -52 -16 -64 -16 -158 -1 -83 13 -115 14 -173 5 -92 -14 -102 -23 -17 -14 44
4 73 3 85 -5 18 -11 18 -11 -1 -9 -11 1 -26 -2 -34 -7 -8 -4 -150 -10 -315
-11 -263 -3 -297 -2 -279 11 11 8 42 19 68 25 74 17 124 47 195 120 65 67 110
96 182 119 25 8 54 31 85 68 26 31 68 65 96 79 27 14 81 57 120 95 86 84 131
112 217 134 35 9 80 25 100 36 19 11 26 17 15 13 -11 -4 -42 -11 -70 -17 -126
-24 -157 -37 -211 -89 -60 -57 -68 -49 -33 32 16 37 34 58 75 86 42 29 81 74
168 193 62 86 124 174 138 196 41 64 403 423 445 440 52 22 116 78 149 129 16
25 30 43 32 42 1 -2 -15 -42 -36 -89z m-165 -29 c-3 -7 -5 -2 -5 12 0 14 2 19
5 13 2 -7 2 -19 0 -25z m220 -10 c-3 -8 -6 -5 -6 6 -1 11 2 17 5 13 3 -3 4
-12 1 -19z m-58 -83 c-12 -104 -2 -220 27 -319 26 -86 35 -103 101 -184 78
-95 96 -151 107 -332 7 -104 -8 -69 -23 55 -12 97 -41 162 -111 248 -4 4 4
-23 16 -60 24 -69 35 -152 12 -90 -6 18 -26 36 -59 52 -26 14 -51 25 -54 25
-3 0 -5 -26 -5 -57 0 -42 9 -77 31 -128 34 -77 45 -172 42 -359 -1 -104 -10
-129 -39 -106 -11 10 -14 24 -11 48 6 33 -14 250 -32 352 -5 30 -13 84 -17
120 -9 87 -26 132 -72 188 -22 26 -54 74 -72 106 l-34 60 22 60 c12 34 24 84
28 111 5 40 14 59 49 97 l43 47 5 -27 c3 -15 11 -74 17 -132 21 -185 30 -229
25 -121 -5 101 -24 267 -33 291 -3 8 -4 22 -3 30 4 20 43 111 47 108 1 -2 -2
-39 -7 -83z m111 -165 c18 -85 36 -162 41 -170 10 -16 9 -4 -6 48 -3 12 -2 22
3 22 17 0 42 -37 81 -116 40 -82 69 -117 92 -112 8 2 13 -3 11 -10 -1 -7 13
-19 32 -27 28 -12 37 -24 51 -64 9 -27 34 -74 55 -104 37 -51 50 -87 33 -87
-4 0 -44 36 -89 80 -56 55 -89 80 -106 80 -38 0 -67 28 -102 98 -18 37 -47 89
-65 117 -40 63 -48 94 -56 230 -3 61 -9 126 -12 145 -3 19 -3 33 0 30 3 -3 19
-75 37 -160z m-1292 -311 c-3 -70 -1 -126 4 -123 4 3 8 18 8 33 0 41 20 91 36
91 23 0 17 -52 -16 -137 -16 -43 -39 -116 -51 -162 -19 -73 -28 -91 -64 -125
-30 -29 -48 -60 -64 -106 -12 -36 -41 -105 -66 -155 -38 -77 -43 -84 -38 -50
3 22 18 79 34 126 15 47 39 142 54 212 14 69 37 163 50 208 14 45 25 101 25
123 0 77 11 116 32 116 11 0 16 5 13 10 -4 6 -11 7 -17 4 -7 -4 -8 -2 -4 5 4
6 11 9 16 6 4 -3 13 2 19 9 9 10 9 16 1 21 -8 5 -8 11 1 21 25 30 32 0 27
-127z m-358 -154 c0 -73 -44 -421 -61 -487 -7 -29 -16 -39 -37 -44 -42 -10
-59 -31 -89 -106 -17 -46 -36 -76 -53 -86 -14 -9 -37 -27 -52 -41 -27 -24 -29
-24 -105 -13 -43 7 -109 11 -148 10 l-70 -1 90 -8 c50 -4 118 -10 152 -14 59
-7 64 -6 97 21 19 16 46 37 60 47 14 10 26 23 26 30 0 7 13 40 29 73 29 61 44
72 108 75 5 1 15 6 23 12 8 6 3 -2 -11 -18 -15 -17 -30 -46 -33 -65 -4 -19
-12 -54 -18 -77 -10 -39 -14 -43 -42 -43 -57 -1 -106 -17 -141 -49 l-36 -31
-132 0 c-73 0 -246 -5 -386 -10 -140 -6 -255 -9 -257 -7 -5 5 190 88 316 135
110 41 217 91 285 133 22 14 66 36 99 49 107 43 166 129 250 365 26 72 56 152
68 178 l22 49 23 -27 c13 -14 23 -37 23 -50z m1457 -78 c-4 -80 -11 -138 -23
-165 -9 -24 -19 -41 -22 -38 -2 3 3 24 12 46 10 25 19 87 23 160 3 66 8 120
11 120 3 0 2 -55 -1 -123z m424 -36 c25 -54 30 -73 25 -110 -17 -128 -17 -177
-3 -216 27 -75 27 -80 1 -27 -22 45 -27 72 -33 180 l-7 127 -47 86 c-26 47
-47 90 -47 95 0 23 85 -79 111 -135z m-542 -56 c1 -106 -21 -237 -53 -309 -18
-41 -31 -97 -42 -185 -8 -69 -18 -128 -21 -131 -3 -3 -3 18 1 45 3 28 9 84 13
125 4 52 15 95 35 139 17 37 36 102 44 156 16 99 15 240 -1 239 -5 0 -34 -31
-62 -68 -29 -37 -53 -64 -53 -59 0 8 34 58 95 140 l30 41 6 -27 c4 -14 7 -62
8 -106z m348 8 c-2 -16 -4 -5 -4 22 0 28 2 40 4 28 2 -13 2 -35 0 -50z m63
-274 c48 -174 62 -210 93 -233 25 -18 31 -19 70 -7 96 29 107 28 186 -33 40
-30 86 -58 102 -61 16 -4 38 -19 50 -33 11 -15 28 -30 37 -34 9 -4 -57 -5
-148 -1 l-165 5 -34 35 c-19 19 -57 46 -83 59 -61 31 -84 68 -98 158 -6 39
-22 120 -36 179 -14 59 -27 131 -29 160 -5 51 -5 51 9 -14 8 -36 28 -117 46
-180z m89 84 c-1 -68 -2 -74 -11 -46 -9 28 -3 123 8 123 2 0 4 -35 3 -77z
m-456 -55 c-3 -53 -11 -99 -24 -128 -11 -25 -26 -74 -34 -110 l-15 -65 5 54
c3 29 17 82 30 118 15 38 25 87 25 117 0 44 8 96 15 96 1 0 0 -37 -2 -82z
m254 0 c-2 -13 -4 -3 -4 22 0 25 2 35 4 23 2 -13 2 -33 0 -45z m463 -38 c35
-29 48 -46 41 -53 -7 -7 -15 -6 -27 3 -14 12 -16 11 -12 -10 2 -21 9 -25 35
-26 24 0 47 -13 90 -50 32 -28 70 -59 85 -68 15 -10 48 -47 73 -82 25 -35 55
-71 68 -80 22 -16 22 -16 -12 -10 -18 3 -49 6 -67 6 -37 0 -100 49 -132 102
-12 20 -23 28 -35 24 -33 -8 -47 5 -82 74 -18 37 -46 82 -61 100 -23 26 -29
44 -31 94 -2 43 -1 55 6 40 5 -11 32 -40 61 -64z m-103 18 c-3 -7 -5 -2 -5 12
0 14 2 19 5 13 2 -7 2 -19 0 -25z m-104 -157 c10 -17 14 -31 8 -31 -5 0 -24
24 -41 53 -28 44 -29 49 -9 30 13 -12 32 -36 42 -52z m182 -1 c5 -16 4 -22 -3
-15 -5 6 -12 24 -16 40 -7 34 7 15 19 -25z m-442 -226 c60 -22 88 -26 175 -25
69 0 102 -3 102 -11 0 -8 -34 -9 -122 -3 -158 10 -430 12 -488 3 l-45 -7 32
14 c18 8 74 21 124 30 51 8 94 17 97 20 11 11 56 4 125 -21z m1125 -41 c2 -9
-7 -13 -28 -13 -28 0 -31 2 -20 15 15 18 41 16 48 -2z m-95 -8 c-4 -17 -42
-17 -65 0 -22 16 -22 16 22 13 25 -2 44 -7 43 -13z m-641 -38 c35 -28 80 -51
120 -63 l63 -18 -130 -9 c-151 -9 -275 -4 -325 14 l-35 13 50 13 c47 12 44 12
-51 7 -56 -3 -112 -3 -125 1 -21 7 -19 8 15 20 20 7 73 16 118 20 44 4 108 15
142 25 87 26 96 25 158 -23z m-2864 16 c-38 -2 -98 -2 -135 0 -38 2 -7 3 67 3
74 0 105 -1 68 -3z m321 -24 c-97 -4 -205 -4 -240 0 -46 6 5 8 176 8 l240 0
-176 -8z m906 1 c116 -1 128 -2 111 -15 -17 -13 -87 -15 -460 -14 l-441 1 70
19 c63 17 97 18 330 14 143 -3 319 -5 390 -5z m593 -22 c17 -11 32 -22 32 -25
0 -10 -154 9 -199 24 -36 12 -52 13 -82 4 -21 -6 -41 -17 -45 -23 -5 -7 -2 -9
9 -5 40 15 89 18 122 7 19 -6 75 -15 123 -19 l87 -7 -100 -8 c-56 -5 -187 -5
-300 1 -204 9 -262 4 -189 -16 21 -6 50 -11 64 -11 14 0 55 -7 92 -15 39 -8
139 -15 233 -17 91 -1 165 -6 165 -10 0 -4 -6 -8 -13 -8 -18 0 -72 -61 -61
-69 5 -3 10 -14 12 -23 8 -49 32 -86 60 -91 17 -3 37 -18 47 -34 10 -15 35
-51 56 -79 21 -28 64 -104 95 -170 31 -65 74 -141 97 -167 l40 -49 -5 -102
c-4 -80 -11 -112 -28 -147 l-23 -44 -13 30 c-18 40 -17 74 2 143 13 49 14 63
2 97 -15 44 -8 40 -198 125 -74 33 -146 66 -159 73 -14 7 -61 56 -105 109
-253 306 -293 339 -440 378 -45 12 -146 41 -224 66 -105 32 -163 45 -215 46
-40 1 72 5 248 8 315 5 321 6 395 32 72 26 80 27 230 21 130 -4 160 -8 188
-25z m317 2 l40 -19 -120 0 c-66 -1 -138 -4 -160 -8 -50 -7 -39 7 23 29 64 22
166 22 217 -2z m-1494 -38 c3 -4 18 -29 34 -56 27 -49 22 -51 -25 -12 l-25 21
25 -29 c14 -16 49 -39 78 -52 l52 -24 74 -152 c40 -84 76 -164 81 -178 4 -14
22 -41 40 -60 17 -19 54 -63 81 -98 27 -35 64 -82 81 -104 31 -38 52 -102 39
-115 -3 -3 -25 12 -49 33 -24 21 -79 66 -121 99 -150 117 -146 113 -156 185
-10 81 -20 105 -88 205 -105 154 -130 177 -261 243 -65 33 -136 64 -158 67
-21 3 -47 10 -58 15 -16 7 -12 9 20 10 22 1 48 4 57 8 21 9 271 3 279 -6z
m1546 -59 c-20 -2 -52 -2 -70 0 -17 2 0 4 38 4 39 0 53 -2 32 -4z m-290 -9
c-3 -3 -12 -4 -19 -1 -8 3 -5 6 6 6 11 1 17 -2 13 -5z m57 -41 c-7 -16 -14
-53 -14 -83 0 -61 -16 -130 -30 -130 -18 0 -20 39 -6 106 18 87 31 120 48 127
7 3 14 6 15 6 1 1 -5 -11 -13 -26z m439 20 c-7 -2 -21 -2 -30 0 -10 3 -4 5 12
5 17 0 24 -2 18 -5z m450 0 c-29 -2 -77 -2 -105 0 -29 2 -6 3 52 3 58 0 81 -1
53 -3z m-286 -9 c-3 -3 -12 -4 -19 -1 -8 3 -5 6 6 6 11 1 17 -2 13 -5z m-1387
-27 c102 -29 158 -56 210 -103 53 -48 72 -82 110 -194 31 -92 150 -354 157
-346 2 2 -23 64 -55 137 -33 74 -72 168 -86 209 l-27 75 61 -60 c34 -33 80
-85 103 -115 85 -115 138 -169 202 -205 79 -44 105 -77 150 -189 l35 -86 -17
-95 c-9 -52 -21 -95 -26 -95 -5 0 -25 17 -45 37 -21 21 -40 36 -44 35 -4 -1
-12 8 -18 21 -11 21 -10 21 4 3 9 -11 16 -16 15 -10 0 12 -128 261 -128 251
-1 -4 22 -53 50 -108 48 -96 60 -141 23 -84 -18 27 -81 65 -109 65 -17 0 -19
-12 -6 -58 16 -53 -11 -34 -32 24 -13 35 -39 69 -92 121 -41 39 -91 98 -111
130 -20 32 -61 86 -90 120 -38 43 -77 107 -130 217 -80 164 -121 226 -55 84
95 -206 116 -244 175 -312 95 -111 94 -109 60 -91 -16 8 -42 15 -59 15 -45 0
-53 10 -79 96 -13 43 -37 109 -54 146 -48 102 -101 248 -88 242 6 -3 1 3 -10
13 -25 20 -78 103 -67 103 4 0 -2 7 -13 15 -26 20 -12 19 86 -8z m1139 -26
c21 -13 -41 -24 -91 -16 -28 5 -37 10 -27 16 18 11 100 11 118 0z m155 -13 c3
-13 6 -72 6 -132 0 -101 -2 -112 -27 -155 l-28 -46 -5 45 -5 45 -7 -57 c-5
-48 -54 -165 -64 -155 -2 1 10 42 27 89 25 73 58 284 59 376 0 22 37 13 44
-10z m-1826 -31 c43 -46 140 -183 170 -242 24 -48 34 -126 18 -142 -14 -15
-46 42 -46 82 0 56 -58 173 -117 238 -98 106 -98 106 -75 100 11 -2 33 -19 50
-36z m1963 29 c-6 -8 -16 -33 -20 -57 l-9 -44 -1 39 c-1 24 6 47 16 58 19 21
31 25 14 4z m148 -6 c-11 -6 -16 -27 -18 -71 -2 -66 -20 -121 -42 -135 -10 -6
-10 -3 1 10 9 11 17 52 21 104 7 81 16 102 44 102 6 -1 3 -5 -6 -10z m-602
-157 c-3 -10 -5 -4 -5 12 0 17 2 24 5 18 2 -7 2 -21 0 -30z m50 -94 c34 -51
42 -184 20 -301 -9 -46 -22 -116 -28 -156 -17 -113 -21 -79 -7 64 18 185 13
330 -12 396 -22 57 -26 86 -9 53 6 -11 22 -36 36 -56z m253 -123 c0 -2 -8 -10
-17 -17 -16 -13 -17 -12 -4 4 13 16 21 21 21 13z"/>
<path d="M2656 4038 c-34 -94 -73 -208 -70 -208 13 0 100 237 91 247 -3 2 -12
-15 -21 -39z"/>
<path d="M2715 3854 c-16 -26 -50 -77 -76 -113 -32 -45 -56 -93 -75 -151 -29
-92 -18 -79 -234 -279 -19 -18 -26 -28 -15 -23 24 12 215 178 231 201 6 9 24
54 40 101 17 50 50 115 80 160 57 84 88 140 81 146 -3 3 -17 -16 -32 -42z"/>
<path d="M2253 3508 c-22 -24 -57 -76 -78 -116 -51 -99 -131 -172 -220 -202
-58 -19 -185 -93 -185 -107 0 -3 10 1 23 9 62 41 119 68 182 88 59 20 79 32
126 82 33 33 74 92 98 138 23 43 46 82 51 85 10 6 53 65 48 65 -2 0 -22 -19
-45 -42z"/>
<path d="M2710 3222 c0 -14 -159 -277 -205 -340 -26 -35 -45 -65 -43 -68 10
-9 107 128 174 246 69 121 92 170 80 170 -3 0 -6 -3 -6 -8z"/>
<path d="M1679 3100 c-9 -6 -15 -42 -20 -117 -3 -59 -16 -144 -27 -188 -11
-44 -28 -111 -37 -150 -15 -70 -65 -182 -126 -284 -42 -71 -20 -57 28 17 56
88 111 208 123 270 6 32 22 103 36 158 16 69 24 131 24 192 0 86 1 91 23 94
17 2 19 5 6 10 -9 3 -22 2 -30 -2z"/>
<path d="M2412 2833 c-6 -16 -13 -39 -17 -53 l-6 -25 14 25 c15 26 30 80 23
80 -2 0 -8 -12 -14 -27z"/>
<path d="M1497 2709 c-21 -50 -37 -95 -35 -100 2 -5 20 32 41 82 21 49 37 94
35 99 -2 5 -20 -32 -41 -81z"/>
<path d="M2961 4065 c0 -5 8 -53 19 -105 11 -52 21 -126 21 -165 2 -68 2 -68
8 -20 8 65 -4 167 -28 241 -10 33 -19 55 -20 49z"/>
<path d="M3115 3324 c-14 -33 -38 -71 -52 -86 -15 -16 -22 -28 -17 -28 20 0
63 56 84 109 29 73 17 77 -15 5z"/>
<path d="M3038 3108 c-19 -29 -90 -114 -157 -188 -148 -163 -181 -214 -49 -75
136 143 196 214 225 263 37 62 22 62 -19 0z"/>
<path d="M2738 2473 c-20 -16 -60 -49 -89 -74 -30 -26 -76 -58 -104 -72 -27
-14 -77 -46 -109 -71 -33 -25 -78 -51 -100 -56 -23 -6 -84 -33 -138 -60 -54
-28 -133 -60 -180 -71 -45 -12 -90 -25 -98 -31 -12 -7 -11 -8 5 -4 11 3 54 13
95 22 41 9 118 38 172 65 53 26 117 53 143 60 26 7 70 31 103 56 31 24 82 58
113 74 31 17 87 58 125 93 38 34 80 70 94 79 13 9 20 17 14 17 -6 0 -27 -12
-46 -27z"/>
<path d="M2245 2045 c-109 -31 -259 -84 -236 -85 13 0 70 16 127 35 56 20 131
42 166 50 48 10 55 13 28 14 -19 0 -57 -7 -85 -14z"/>
<path d="M1988 1903 c7 -3 16 -2 19 1 4 3 -2 6 -13 5 -11 0 -14 -3 -6 -6z"/>
<path d="M2028 1903 c6 -2 18 -2 25 0 6 3 1 5 -13 5 -14 0 -19 -2 -12 -5z"/>
<path d="M1522 2259 c-69 -45 -83 -62 -23 -28 39 22 100 68 91 69 -3 0 -33
-18 -68 -41z"/>
<path d="M1238 2044 c-3 -3 -53 -9 -109 -13 l-104 -8 80 -1 c77 -1 238 25 169
27 -17 1 -33 -2 -36 -5z"/>
<path d="M2609 1550 c99 -124 112 -140 122 -140 10 0 -59 84 -134 164 -28 30
-25 23 12 -24z"/>
<path d="M2517 1496 c89 -43 151 -84 228 -154 42 -38 37 -32 -15 19 -72 71
-191 146 -260 163 -14 3 7 -9 47 -28z"/>
<path d="M1941 1179 c-1 -21 29 -108 40 -114 7 -5 -10 53 -34 115 -5 13 -6 13
-6 -1z"/>
<path d="M4203 2290 c-32 -13 -30 -48 3 -61 31 -11 56 -5 75 18 11 13 10 18
-10 34 -26 21 -35 22 -68 9z m60 -25 c1 -5 -13 -11 -30 -13 -31 -3 -42 6 -26
22 10 10 53 3 56 -9z"/>
<path d="M966 1721 c-12 -18 71 -29 109 -15 13 5 14 8 3 15 -17 12 -105 11
-112 0z"/>
<path d="M3917 1644 c-16 -16 18 -34 65 -34 42 0 49 3 46 18 -2 13 -15 18 -53
20 -28 2 -54 0 -58 -4z"/>
<path d="M1083 1607 c-10 -17 21 -27 87 -27 74 0 104 12 74 28 -24 12 -153 12
-161 -1z"/>
<path d="M1360 1540 c0 -5 14 -10 31 -10 17 0 28 4 24 10 -3 6 -17 10 -31 10
-13 0 -24 -4 -24 -10z"/>
<path d="M3868 1473 c7 -3 16 -2 19 1 4 3 -2 6 -13 5 -11 0 -14 -3 -6 -6z"/>
<path d="M3745 1411 c-3 -5 0 -13 5 -16 16 -10 62 4 55 15 -8 13 -52 13 -60 1z"/>
</g>
</svg>