<?xml version="1.0" standalone="no"?>
<!DOCTYPE svg PUBLIC "-//W3C//DTD SVG 20010904//EN"
 "http://www.w3.org/TR/2001/REC-SVG-20010904/DTD/svg10.dtd">
<svg version="1.0" xmlns="http://www.w3.org/2000/svg"
 width="512.000000pt" height="512.000000pt" viewBox="0 0 512.000000 512.000000"
 preserveAspectRatio="xMidYMid meet">
<metadata>
Created by potrace 1.16, written by Peter Selinger 2001-2019
</metadata>
<g transform="translate(0.000000,512.000000) scale(0.100000,-0.100000)"
fill="#000000" stroke="none">
<path d="M125 5034 c-105 -82 -110 -85 -116 -63 -5 16 -7 4 -7 -31 -1 -44 1
-51 10 -35 5 11 64 62 130 114 128 100 130 100 143 33 3 -19 25 -77 47 -129
l40 -94 -39 -82 c-22 -45 -63 -110 -92 -145 l-52 -63 -95 66 c-60 43 -94 61
-94 51 0 -8 34 -38 76 -67 83 -58 83 -62 -8 -73 -51 -7 -78 -19 -66 -32 2 -2
38 3 79 10 40 8 76 13 78 11 2 -3 -4 -25 -14 -51 -13 -35 -29 -53 -63 -75 -25
-16 -54 -31 -64 -35 -10 -3 -18 -12 -18 -20 0 -12 13 -8 57 15 31 17 57 30 59
28 3 -3 -16 -189 -20 -203 -3 -6 -25 -15 -50 -18 -57 -9 -60 -26 -6 -26 28 0
40 -4 40 -14 0 -17 -46 -56 -66 -56 -9 0 -14 -11 -14 -27 0 -25 1 -26 16 -11
15 15 28 10 163 -60 80 -41 148 -77 150 -79 10 -8 -90 -99 -206 -190 -68 -52
-123 -101 -123 -110 0 -18 191 126 276 209 41 40 66 57 76 53 30 -12 60 -272
38 -325 -20 -49 -41 -49 -273 -5 l-117 22 0 -26 c1 -17 25 -56 69 -111 38 -47
68 -86 67 -87 -1 -2 -32 6 -69 16 l-67 18 0 -24 c0 -20 4 -22 24 -17 14 3 49
-1 80 -10 147 -43 158 -116 60 -418 -44 -134 -64 -169 -64 -110 0 37 -29 122
-68 197 -45 87 -41 36 4 -60 32 -67 37 -88 42 -171 5 -92 -10 -198 -29 -210
-5 -2 -16 10 -26 28 l-18 33 -3 -34 c-2 -18 1 -38 7 -44 14 -14 14 -54 1 -62
-18 -11 -11 -27 10 -22 25 7 25 -2 -2 -58 -24 -49 -21 -63 10 -46 29 16 65 14
59 -2 -3 -8 -8 -39 -12 -70 l-7 -57 -31 26 c-45 37 -46 12 -3 -36 20 -22 36
-45 36 -50 0 -5 -16 -20 -35 -32 -19 -13 -35 -29 -35 -36 0 -14 7 -11 53 20
21 15 28 16 31 6 9 -25 34 -173 40 -230 l6 -56 -62 19 c-34 10 -64 17 -66 14
-10 -10 12 -23 69 -40 60 -19 98 -52 84 -75 -3 -5 -40 -10 -81 -10 -43 0 -74
-4 -74 -10 0 -6 28 -10 64 -10 36 0 67 -4 70 -9 4 -6 -67 -114 -100 -150 -2
-2 -10 2 -19 9 -13 11 -15 5 -15 -53 0 -59 2 -65 22 -71 13 -3 56 -38 95 -78
l73 -73 -30 -77 c-33 -87 -67 -158 -76 -158 -3 0 -19 11 -36 25 -30 25 -48 32
-48 17 0 -5 16 -16 35 -25 33 -16 44 -35 28 -50 -4 -4 -19 5 -35 20 -32 30
-37 16 -11 -29 17 -28 17 -30 0 -39 -27 -16 -20 -29 16 -27 l32 3 -3 -95 c-3
-117 -18 -187 -43 -201 -13 -6 -19 -21 -19 -43 0 -29 3 -33 23 -29 19 3 41
-23 149 -169 69 -95 125 -174 124 -175 -1 -1 -68 13 -149 31 -102 23 -147 29
-147 21 0 -11 254 -75 299 -75 11 0 23 -5 26 -10 3 -6 17 -10 31 -10 34 0 30
-16 -8 -36 -75 -38 -192 -119 -177 -122 9 -2 59 24 110 56 52 33 95 59 97 57
1 -1 -6 -26 -18 -54 -23 -60 -24 -64 -9 -59 7 2 19 24 29 48 l17 43 12 -46
c13 -54 36 -66 26 -15 -4 18 -9 41 -12 51 -6 23 -2 22 134 -35 115 -47 169
-58 186 -35 7 9 38 36 71 61 69 53 76 52 134 -24 20 -27 45 -49 56 -49 14 -1
4 15 -39 64 -31 36 -55 69 -53 75 5 15 192 172 195 163 1 -4 -15 -74 -35 -155
-29 -110 -35 -148 -25 -148 7 0 13 2 13 5 0 2 16 66 35 142 19 76 35 139 35
141 0 2 21 -14 48 -35 26 -22 76 -60 112 -85 80 -56 116 -93 100 -103 -6 -4
-48 -19 -93 -35 -62 -22 -75 -29 -51 -29 17 -1 64 10 104 24 40 14 75 25 78
25 2 0 1 -11 -2 -25 -8 -31 9 -33 25 -3 6 13 13 24 14 26 1 2 28 -9 60 -23 82
-36 116 -31 40 6 -33 16 -61 33 -63 38 -4 11 324 178 334 169 11 -12 -14 -61
-76 -153 -35 -51 -53 -85 -45 -85 17 0 51 44 104 134 40 69 40 69 51 42 5 -15
10 -29 10 -32 0 -19 66 -144 76 -144 9 0 2 23 -20 73 -40 88 -60 146 -52 154
6 6 252 -117 299 -149 15 -11 27 -23 27 -27 0 -4 -17 -16 -37 -26 -27 -13 -33
-20 -21 -22 9 -2 30 3 47 11 30 16 61 13 61 -6 0 -5 10 -8 23 -6 15 2 21 9 20
23 -4 44 38 45 100 4 66 -43 83 -30 19 15 -28 21 -52 44 -52 53 0 8 -7 36 -15
61 -13 38 -14 69 -8 152 l8 104 80 32 c44 18 94 33 111 34 35 0 32 6 114 -204
53 -137 63 -205 35 -242 -22 -29 -19 -34 20 -32 30 1 34 4 29 20 -4 13 2 26
17 38 l22 20 26 -40 c14 -22 33 -40 43 -40 15 0 11 8 -17 46 -29 37 -33 49
-24 65 10 19 256 146 265 137 4 -4 -30 -93 -80 -210 -12 -29 -13 -38 -4 -38 7
0 28 37 47 83 62 152 82 188 110 198 60 24 207 58 223 53 15 -4 38 -58 38 -90
0 -6 11 -28 25 -48 l25 -37 -32 -14 c-136 -57 -271 -116 -295 -129 -25 -14
-26 -15 -6 -16 11 0 90 29 173 65 84 36 160 65 168 63 9 -2 27 -31 41 -66 13
-34 30 -62 38 -62 11 0 10 7 -3 38 -31 73 -35 85 -27 93 12 12 283 -102 283
-118 0 -20 102 -16 146 4 34 17 37 17 48 1 9 -13 16 -14 24 -6 8 8 19 7 42 -2
44 -18 49 -5 6 21 l-36 21 -1 96 c0 54 -6 135 -13 182 -7 47 -11 87 -9 90 10
11 188 69 194 62 11 -11 47 -262 55 -379 6 -95 15 -122 27 -90 4 9 7 9 15 -1
5 -8 23 -12 43 -10 31 3 38 11 86 92 29 49 54 94 56 100 11 30 20 -13 20 -99
0 -52 4 -95 8 -95 14 0 22 71 15 138 l-7 67 55 -74 c57 -76 65 -98 44 -119 -8
-8 3 -11 47 -11 52 1 56 3 37 13 -22 12 -21 12 12 24 45 17 104 84 150 172 20
38 41 72 46 75 12 7 110 -42 110 -55 0 -6 -20 -50 -44 -98 -50 -101 -63 -136
-47 -131 6 2 35 51 64 109 28 58 59 106 67 108 9 1 24 -12 35 -30 16 -27 20
-29 23 -15 2 10 -4 27 -13 37 -18 19 -14 50 5 50 5 0 10 10 10 21 0 16 -3 19
-13 12 -28 -23 -86 -24 -132 -4 -25 11 -45 23 -45 26 0 4 17 37 39 73 21 37
55 100 76 139 33 64 39 71 56 62 18 -9 19 -5 18 103 -1 78 -4 101 -9 75 -10
-53 -18 -56 -49 -20 -27 32 -144 233 -139 238 2 2 45 -14 97 -36 106 -44 101
-43 101 -26 0 6 -39 27 -88 45 -145 55 -146 57 -21 54 64 -2 109 0 109 6 0 5
-50 12 -110 14 -61 3 -114 9 -118 12 -3 4 0 17 8 29 8 13 55 87 104 165 48 78
95 142 102 142 9 0 14 12 14 35 0 23 -4 34 -12 32 -7 -1 -13 5 -13 13 0 8 6
14 13 13 8 -2 12 10 12 35 l-1 37 -17 -27 c-9 -16 -22 -28 -28 -28 -6 0 -32
27 -57 60 -52 67 -49 69 42 41 34 -10 61 -15 61 -9 0 13 -62 37 -115 45 -25 3
-45 9 -45 13 0 3 35 13 77 21 43 8 78 20 81 27 4 14 -27 11 -120 -13 -27 -7
-48 -10 -48 -7 0 2 9 19 20 37 15 25 70 159 70 172 0 1 16 -7 35 -19 20 -11
39 -17 43 -13 4 4 -1 12 -12 19 -54 32 -73 57 -79 98 -3 24 -18 83 -32 132
-25 87 -25 89 -7 118 l19 29 52 -71 c29 -38 54 -70 57 -70 15 0 -3 35 -48 94
-54 70 -55 85 -1 86 32 0 53 10 53 25 0 11 -8 11 -32 4 -43 -12 -48 -12 -48 5
0 7 18 30 41 51 47 42 46 58 -2 24 -30 -21 -32 -21 -25 -3 22 58 66 220 65
243 0 14 -3 20 -6 13 -4 -10 -8 -9 -19 5 -19 25 -17 33 6 33 11 0 20 7 20 15
0 9 -9 15 -23 15 -15 0 -49 27 -101 79 -89 90 -91 86 42 97 45 4 82 11 82 15
0 5 -31 9 -69 9 -70 0 -70 0 -67 27 2 18 16 36 43 56 35 25 44 27 63 17 31
-16 40 -2 12 20 -23 19 -23 19 -3 32 12 7 21 23 21 34 0 19 -14 27 -86 53 -47
17 -95 38 -106 45 -18 13 -17 15 19 43 21 16 53 40 71 52 l32 23 35 -21 c28
-16 35 -17 35 -6 0 8 -10 20 -22 26 l-21 11 24 19 c31 23 19 34 -21 20 -40
-13 -69 -2 -167 68 -46 32 -73 58 -73 70 0 18 147 155 239 222 53 40 57 71 4
34 -23 -15 -41 -21 -47 -15 -5 5 -11 62 -14 127 l-4 118 51 20 c28 11 51 25
51 32 0 11 -8 10 -36 -2 -69 -29 -74 -13 -9 30 24 17 45 36 45 43 0 15 -17 7
-69 -32 -19 -14 -38 -26 -41 -26 -10 0 -104 209 -98 216 3 3 51 15 107 27 63
14 101 27 101 35 0 13 -1 13 -132 -19 -42 -10 -81 -19 -87 -19 -10 0 -141 249
-141 269 0 5 21 1 48 -9 97 -37 312 -89 312 -76 0 8 -52 26 -139 49 -142 36
-231 69 -231 85 0 4 35 23 78 42 42 18 95 44 118 57 39 22 42 22 99 8 31 -9
62 -18 66 -21 5 -3 9 1 9 9 0 8 -22 23 -52 33 l-53 19 0 60 0 60 44 22 c24 12
49 24 55 26 6 2 8 8 4 12 -4 4 -28 0 -53 -10 -26 -9 -47 -16 -49 -14 -2 2 -7
34 -12 70 -9 64 -9 66 15 77 23 11 29 8 63 -25 32 -31 38 -34 38 -18 -1 11
-20 37 -44 57 -38 33 -49 37 -99 37 -32 0 -57 -4 -57 -9 0 -4 -19 -11 -43 -14
-24 -4 -97 -20 -162 -36 -66 -16 -121 -28 -123 -25 -2 2 5 16 15 32 33 47 35
53 20 53 -8 0 -30 -23 -48 -52 -59 -89 -84 -90 -126 -3 -24 48 -31 55 -56 55
-25 0 -28 -2 -17 -15 10 -12 7 -23 -15 -60 -45 -77 -68 -71 -103 28 -9 26 -22
47 -29 47 -14 0 1 -50 37 -120 19 -37 20 -45 8 -54 -8 -6 -60 -49 -117 -94
-101 -83 -198 -152 -213 -152 -30 0 25 233 77 326 38 70 43 94 20 94 -8 0 -15
-7 -15 -16 0 -38 -42 -84 -103 -114 -79 -38 -207 -64 -207 -41 0 17 84 103
134 137 41 28 46 34 28 34 -31 0 -102 -51 -144 -103 l-33 -41 -20 69 c-12 38
-27 71 -35 73 -9 3 -11 -1 -6 -14 14 -35 30 -134 23 -141 -9 -8 -70 20 -182
84 -96 55 -93 52 -76 63 8 4 -68 8 -176 9 l-191 0 8 -33 c6 -29 -2 -50 -72
-179 -92 -171 -80 -164 -223 -114 -87 31 -90 33 -87 60 2 16 23 81 48 144 40
106 48 142 25 117 -5 -5 -30 -65 -56 -134 -26 -69 -49 -127 -51 -129 -2 -2
-11 2 -20 9 -13 12 -15 33 -12 137 2 93 0 123 -9 123 -10 0 -13 -32 -13 -125
0 -69 -4 -125 -8 -125 -18 0 -152 101 -152 114 0 8 20 41 44 73 49 64 41 89
-8 27 -69 -85 -62 -80 -80 -64 -10 7 -29 33 -43 57 -13 24 -31 43 -40 43 -11
0 -8 -10 12 -42 50 -81 50 -81 22 -141 -13 -30 -91 -166 -172 -302 -106 -178
-150 -244 -156 -234 -32 51 -71 172 -89 280 -12 68 -30 156 -40 194 -34 133
-35 126 26 189 43 43 50 56 35 56 -11 0 -45 -28 -80 -66 l-61 -66 -87 27 c-49
15 -92 30 -96 35 -5 4 13 20 40 35 61 36 37 46 -27 11 -60 -32 -76 -33 -84 -1
-4 14 -10 25 -15 25 -5 0 -7 -9 -4 -20 4 -15 0 -20 -14 -20 -11 0 -28 9 -38
20 -22 24 -55 29 -35 5 16 -20 -1 -20 -66 0 -56 17 -119 20 -93 5 9 -5 56 -19
104 -32 149 -38 131 -61 -101 -128 -196 -56 -291 -79 -299 -72 -3 3 -5 21 -5
39 0 36 -45 181 -61 197 -19 20 -17 -3 7 -69 14 -38 26 -91 27 -119 l2 -51
-80 5 c-44 3 -142 5 -218 5 -75 0 -137 0 -137 1 0 0 63 52 140 115 86 70 135
115 125 117 -8 2 -76 -47 -150 -108 -128 -105 -184 -144 -193 -135 -3 2 -13
57 -23 121 -11 65 -22 120 -24 123 -15 14 -15 -18 -1 -107 9 -55 16 -110 16
-123 0 -23 0 -23 -18 -4 -24 25 -62 115 -77 180 -10 45 -14 50 -41 53 -23 2
-50 -14 -139 -84z m3295 21 c36 -19 100 -53 143 -75 42 -22 77 -46 77 -52 0
-25 -255 -528 -268 -528 -68 0 -442 291 -442 344 0 30 117 246 163 301 l38 45
112 0 c109 0 114 -1 177 -35z m1496 -7 c-3 -18 -11 -67 -17 -108 -18 -115 -34
-149 -101 -217 -34 -34 -65 -60 -69 -57 -4 2 -51 69 -105 149 -108 162 -108
162 -26 189 49 16 228 61 272 69 51 9 51 8 46 -25z m49 15 c18 -48 24 -126 11
-157 -13 -31 -62 -83 -70 -75 -2 2 2 38 9 79 8 41 16 96 20 123 6 49 18 60 30
30z m-525 -34 c12 -23 19 -43 17 -46 -3 -2 -28 -3 -56 -1 l-52 3 31 43 c18 23
33 42 36 42 2 0 13 -18 24 -41z m-2886 -7 c10 -16 18 -227 8 -217 -5 6 -24 50
-42 98 -30 85 -31 89 -14 108 18 20 39 25 48 11z m196 -47 c10 -4 -7 -26 -60
-75 -41 -38 -81 -69 -87 -70 -9 0 -13 16 -13 48 0 26 -3 70 -6 99 l-7 52 79
-25 c44 -13 86 -26 94 -29z m2198 -92 c-16 -60 -32 -121 -36 -137 -7 -28 -7
-28 -87 63 -44 51 -81 95 -83 99 -1 5 27 13 63 19 37 6 87 22 113 36 26 13 50
25 53 26 3 0 -7 -47 -23 -106z m-2446 12 c45 -128 57 -113 -206 -237 -146 -69
-239 -107 -257 -106 -15 1 -26 5 -23 9 2 4 -1 20 -6 36 -6 16 -17 76 -24 134
-16 123 -26 111 124 150 58 15 157 43 220 62 63 20 122 34 130 33 9 -1 26 -33
42 -81z m310 53 c22 -17 43 -92 72 -259 17 -96 35 -162 61 -224 45 -104 43
-107 -63 -130 -110 -23 -148 -20 -168 11 -23 34 -103 348 -104 403 0 42 3 46
88 127 48 46 90 83 93 84 3 0 12 -6 21 -12z m2663 -2 c19 -13 18 -17 -4 -162
-13 -82 -24 -150 -25 -151 -2 -2 -240 30 -245 33 -2 2 26 64 62 139 47 96 73
138 89 145 35 14 102 12 123 -4z m-2011 -34 c28 -21 68 -48 89 -61 42 -26 43
-30 21 -73 -9 -17 -31 -77 -49 -132 -18 -56 -60 -159 -92 -231 -53 -115 -63
-130 -86 -133 -39 -5 -317 73 -317 88 0 8 238 413 312 533 37 58 54 59 122 9z
m1791 -69 c-19 -39 -44 -92 -55 -117 -11 -26 -26 -49 -34 -52 -8 -3 -55 -2
-103 3 l-88 8 42 27 c23 15 92 68 154 118 62 49 114 88 116 87 1 -2 -13 -35
-32 -74z m379 -82 c42 -63 73 -118 69 -122 -12 -11 -109 -29 -155 -29 -51 0
-79 22 -73 59 18 117 37 228 41 240 5 17 16 3 118 -148z m-830 38 c105 -120
105 -117 -6 -205 -40 -32 -111 -91 -158 -131 -104 -87 -126 -97 -186 -82 -24
6 -44 13 -44 16 0 11 222 441 240 463 l19 25 -10 -39 c-6 -21 -26 -72 -45
-113 -19 -42 -34 -80 -34 -85 0 -35 53 64 97 185 14 37 29 67 32 67 4 0 47
-45 95 -101z m-3003 61 c155 -15 147 -11 154 -78 3 -31 12 -91 20 -132 8 -41
11 -78 7 -82 -7 -6 -175 62 -272 111 -76 39 -260 154 -260 162 0 11 31 18 95
22 108 7 157 7 256 -3z m4180 -68 c-10 -34 -18 -42 -68 -67 -135 -66 -136 -64
-28 45 106 106 119 110 96 22z m-4437 -43 c109 -66 234 -131 341 -174 39 -16
74 -32 79 -36 13 -12 -328 -107 -446 -124 l-47 -7 -15 53 c-43 148 -68 324
-49 342 15 15 44 4 137 -54z m2225 15 c51 -15 95 -34 98 -41 3 -7 -24 -83 -60
-170 -36 -87 -79 -203 -97 -258 -17 -55 -34 -103 -38 -107 -8 -7 -236 82 -253
99 -14 14 8 64 101 233 57 104 91 182 116 269 2 7 12 11 22 8 9 -2 59 -17 111
-33z m-190 -73 c-18 -45 -34 -80 -35 -78 -5 4 34 124 48 150 5 10 12 17 14 14
3 -3 -9 -41 -27 -86z m-2195 0 c4 -32 18 -105 31 -161 14 -56 25 -106 25 -111
0 -5 -49 16 -110 46 -60 30 -110 60 -110 65 0 5 22 37 48 70 27 33 59 82 73
109 13 27 27 47 30 45 4 -2 9 -30 13 -63z m1202 32 c23 -105 78 -315 94 -360
l19 -53 -25 -16 c-13 -9 -104 -49 -202 -89 -97 -40 -199 -82 -225 -94 -27 -11
-51 -21 -53 -21 -8 0 -25 52 -75 234 -28 98 -49 185 -47 193 2 7 93 55 203
106 110 51 214 101 230 110 47 25 74 22 81 -10z m1437 -119 c56 -47 150 -118
209 -158 l108 -71 -43 -11 c-50 -13 -131 -53 -123 -61 3 -3 27 3 53 15 62 26
119 37 127 23 4 -5 -14 -56 -40 -113 -25 -57 -62 -151 -82 -210 l-36 -108
-175 91 c-145 75 -304 162 -319 175 -11 8 151 452 185 507 11 18 41 1 136 -79z
m1015 -11 l72 -54 -52 -62 c-29 -35 -62 -76 -74 -92 -23 -33 -44 -30 -70 10
-16 24 -16 37 -6 136 6 61 14 114 17 119 9 14 34 1 113 -57z m120 52 c6 -5
-32 -75 -40 -75 -10 0 -118 78 -118 85 0 5 152 -5 158 -10z m-272 -114 c-7
-74 -6 -111 2 -133 l11 -30 -47 8 c-26 5 -93 9 -150 9 -56 0 -102 3 -102 6 0
3 12 17 28 31 35 34 265 219 267 215 1 -1 -3 -49 -9 -106z m469 89 c125 -20
139 -27 152 -79 5 -19 -5 -34 -56 -82 -33 -32 -61 -63 -61 -69 0 -17 -20 -11
-58 18 -20 16 -72 54 -114 86 l-77 57 21 45 c26 52 24 52 193 24z m249 -73
c-32 -30 -88 -78 -124 -106 l-65 -53 46 45 c76 75 90 96 78 119 -6 11 -9 21
-7 23 2 2 92 20 122 24 5 0 -17 -23 -50 -52z m57 -123 c-22 -81 -45 -152 -50
-157 -11 -11 -55 16 -126 77 l-40 35 40 33 c22 18 78 67 125 109 48 43 86 71
88 64 2 -7 -15 -80 -37 -161z m142 4 c36 -76 62 -140 58 -142 -15 -10 -210
-40 -216 -34 -4 3 13 78 37 167 23 88 46 157 49 153 3 -4 35 -69 72 -144z
m-482 -45 c7 -7 10 -15 7 -18 -15 -15 -271 -31 -315 -19 l-23 6 22 32 c12 17
44 57 70 88 l49 57 89 -66 c50 -36 95 -72 101 -80z m-3281 113 c6 -8 31 -86
56 -173 24 -87 49 -177 56 -200 7 -23 10 -44 7 -47 -5 -5 -232 30 -290 45
l-37 9 33 88 c46 124 62 159 101 229 35 64 52 75 74 49z m-615 -124 c-3 -9
-19 -61 -35 -114 -16 -54 -34 -107 -40 -117 -18 -34 -38 -12 -56 62 -17 73
-67 247 -80 280 -5 14 21 5 106 -38 90 -45 110 -59 105 -73z m504 53 c-22 -41
-57 -120 -77 -177 -25 -68 -43 -104 -54 -106 -25 -5 -153 83 -236 162 -39 38
-72 71 -72 75 0 4 48 17 108 30 59 13 159 38 222 56 162 46 156 48 109 -40z
m-673 -162 c20 -74 33 -137 31 -140 -8 -7 -149 15 -159 25 -10 10 10 241 22
257 4 6 13 28 20 49 l13 40 19 -48 c10 -27 35 -109 54 -183z m289 28 c45 -43
112 -99 148 -123 l67 -45 -158 -11 c-86 -7 -174 -12 -196 -12 -45 0 -45 -12 4
150 33 110 37 120 47 120 3 0 43 -35 88 -79z m2938 57 c14 -7 17 -23 17 -87 0
-43 3 -105 6 -138 l6 -60 -108 -65 c-108 -65 -169 -98 -178 -98 -15 0 53 194
118 338 24 53 46 105 50 115 5 15 12 17 38 12 18 -4 41 -11 51 -17z m352 7
c96 -17 117 -24 112 -39 -2 -6 -19 -55 -38 -108 -30 -87 -37 -98 -58 -98 -44
0 -252 181 -263 229 -7 31 120 39 247 16z m678 -63 c67 -54 67 -54 67 -106 0
-28 -6 -85 -14 -126 -8 -41 -17 -129 -21 -195 -4 -66 -8 -126 -10 -132 -3 -8
-43 13 -107 55 -57 37 -127 83 -155 101 -29 18 -53 35 -53 37 0 13 48 144 92
249 49 118 99 191 122 178 6 -3 41 -31 79 -61z m-936 19 c13 -22 51 -64 85
-94 35 -31 79 -69 98 -86 l35 -30 -44 -1 c-25 0 -74 -7 -109 -16 -88 -22 -107
-13 -115 58 -16 132 -8 203 23 207 3 1 15 -17 27 -38z m761 6 c-2 -13 -36
-103 -74 -200 -56 -143 -73 -177 -88 -177 -22 0 -194 90 -243 126 -18 14 -33
33 -33 42 1 9 18 62 39 117 l39 100 103 -2 c57 -2 131 1 164 6 98 14 98 14 93
-12z m-2256 -169 c107 -258 106 -255 86 -275 -16 -15 -24 -15 -115 8 l-98 24
0 120 c1 104 19 275 32 298 11 20 26 -7 95 -175z m101 145 l138 -38 -4 -30
c-4 -24 -72 -216 -105 -299 -6 -14 -18 7 -49 85 -23 57 -62 152 -87 212 -25
59 -42 107 -38 107 4 0 69 -17 145 -37z m-223 25 c0 -2 -5 -30 -11 -63 -6 -33
-14 -123 -17 -201 l-7 -140 -132 35 c-72 20 -134 39 -137 42 -3 3 5 33 19 67
14 34 36 99 49 144 l24 83 78 16 c73 15 134 22 134 17z m-248 -43 c9 -9 -10
-80 -49 -181 l-36 -96 -31 6 c-17 3 -107 13 -201 21 -105 10 -172 21 -177 28
-10 16 59 50 243 123 79 31 164 67 189 80 49 25 54 27 62 19z m3228 -129 l49
-105 -81 29 c-102 37 -263 123 -263 140 0 9 35 19 109 32 60 10 112 20 115 23
9 10 23 -13 71 -119z m-2394 58 c136 -55 131 -26 43 -251 -32 -83 -59 -157
-59 -162 0 -6 -3 -11 -7 -11 -11 0 -95 51 -160 97 -73 51 -73 52 -39 173 13
47 29 111 36 143 11 54 13 57 41 57 16 0 81 -21 145 -46z m2186 -78 c57 -29
136 -66 176 -81 39 -16 72 -31 72 -35 0 -9 -98 -72 -190 -123 -36 -20 -99 -59
-140 -87 l-75 -50 -3 101 c-2 89 5 159 34 302 3 15 9 27 14 27 5 0 55 -24 112
-54z m-2433 -83 c-29 -107 -54 -161 -67 -148 -3 3 17 65 44 139 27 74 50 133
52 131 2 -2 -11 -57 -29 -122z m734 -74 c76 -39 141 -78 144 -86 6 -15 -12
-54 -113 -246 l-47 -88 -46 7 c-69 10 -132 36 -281 117 -101 55 -136 78 -138
94 -2 12 26 95 61 185 35 90 67 171 70 181 6 16 18 11 109 -38 57 -31 165 -87
241 -126z m-2812 136 l66 -7 26 -82 c26 -79 33 -116 22 -116 -8 0 -183 88
-233 118 -24 13 -40 28 -35 31 5 3 18 21 29 39 14 24 24 32 39 28 11 -2 50 -8
86 -11z m579 -17 c0 -17 -71 -146 -123 -225 -49 -75 -55 -76 -181 -30 -83 30
-91 35 -112 75 -23 43 -27 66 -25 135 l1 37 93 1 c50 1 124 5 162 9 121 12
185 11 185 -2z m-465 -8 c3 -5 2 -17 -3 -26 -8 -14 -10 -12 -14 10 -5 26 5 35
17 16z m689 -9 c59 -11 113 -24 118 -29 7 -7 -5 -37 -36 -92 -54 -93 -140
-266 -148 -298 -6 -21 -10 -19 -91 32 -47 29 -111 63 -144 76 -32 13 -60 25
-62 26 -2 2 19 38 46 81 27 43 62 101 78 128 59 105 62 106 239 76z m2798 -43
c-5 -82 32 -227 98 -382 34 -80 58 -150 55 -157 -10 -15 -101 -7 -139 12 -33
16 -58 62 -184 330 -45 97 -82 185 -82 196 0 17 12 22 78 36 42 8 100 15 127
14 l50 -2 -3 -47z m113 6 c32 -20 99 -56 147 -80 49 -25 92 -52 95 -60 3 -9 2
-90 -3 -180 -11 -197 -16 -206 -110 -208 l-58 -1 -48 108 c-70 157 -99 250
-105 344 -6 80 -1 113 14 113 4 0 35 -16 68 -36z m-415 -17 c0 -44 -95 -317
-111 -317 -12 0 -169 156 -169 168 0 6 33 28 73 50 39 22 97 57 127 76 59 38
80 44 80 23z m-2135 -12 c97 -9 187 -20 201 -25 l26 -10 -23 -38 c-51 -84
-107 -152 -192 -235 -50 -48 -94 -84 -97 -80 -4 5 -26 89 -48 189 -23 99 -44
188 -48 197 -3 9 -4 17 -1 17 3 0 85 -7 182 -15z m-149 -228 c19 -88 33 -171
30 -183 -8 -30 -40 -38 -125 -31 -79 6 -148 32 -156 57 -3 10 3 42 15 71 17
48 116 234 157 299 l16 24 14 -38 c7 -21 29 -111 49 -199z m2394 48 c45 -99
100 -216 122 -259 31 -62 37 -81 26 -88 -7 -4 -20 -7 -29 -5 -20 5 -309 195
-309 204 0 3 23 73 50 155 28 82 50 156 50 165 0 9 2 14 4 12 2 -2 41 -85 86
-184z m1364 123 c3 -13 7 -71 11 -129 l5 -106 -77 -69 c-43 -38 -87 -76 -97
-84 -18 -14 -19 -13 -13 10 4 14 21 93 38 175 17 83 34 156 38 163 8 13 71 61
83 62 4 0 10 -10 12 -22z m-3181 -28 l117 -32 0 -73 0 -72 -87 -40 c-234 -108
-473 -172 -518 -139 -16 11 -7 23 97 127 71 71 133 143 163 192 58 92 39 89
228 37z m542 -68 c72 -51 75 -55 25 -33 -25 10 -62 26 -84 35 -32 13 -36 18
-26 31 14 16 15 16 85 -33z m2484 -98 c-16 -76 -33 -154 -36 -172 -3 -18 -10
-35 -14 -38 -5 -3 -54 28 -108 68 -68 50 -100 79 -100 93 -1 14 22 36 77 73
75 50 204 123 209 118 2 -1 -11 -65 -28 -142z m-493 60 c65 -41 128 -85 139
-95 20 -20 20 -20 -9 -44 -79 -64 -265 -159 -281 -144 -2 3 -1 84 2 182 4 126
10 177 18 177 6 0 65 -34 131 -76z m-2322 51 c33 -9 68 -18 76 -21 9 -4 -13
-20 -60 -44 l-75 -38 -7 37 c-9 46 -10 81 -2 81 3 0 34 -7 68 -15z m-1526 -58
c51 -18 93 -36 92 -40 0 -4 -38 -44 -84 -89 l-84 -83 -7 70 c-4 38 -11 89 -16
113 -8 35 -6 63 4 62 1 -1 44 -15 95 -33z m1759 -57 l42 -84 -92 -49 c-50 -26
-127 -71 -170 -98 -43 -28 -80 -49 -83 -47 -2 2 -1 62 3 134 l6 129 101 52
c56 28 112 51 126 50 21 -2 32 -16 67 -87z m124 44 c61 -26 107 -50 102 -55
-11 -11 -162 -64 -165 -58 -13 19 -68 141 -68 149 0 16 16 12 131 -36z m864
-71 c73 -233 77 -301 17 -286 -47 11 -165 63 -184 80 -10 9 -18 27 -18 40 0
28 131 283 145 283 2 0 20 -53 40 -117z m147 -48 c4 -7 -9 -46 -29 -88 l-36
-77 -22 88 c-13 48 -34 120 -48 160 l-25 73 76 -72 c43 -40 80 -78 84 -84z
m-2617 34 c159 -80 173 -98 159 -202 -6 -43 -9 -47 -53 -65 -51 -22 -314 -100
-346 -103 -37 -3 -42 1 -80 55 -36 52 -37 57 -31 110 9 68 40 112 137 196 84
73 88 73 214 9z m1158 -123 l-6 -127 -31 -24 c-17 -13 -95 -50 -173 -83 -141
-59 -143 -59 -171 -42 -15 10 -52 48 -82 86 -29 38 -67 83 -82 100 l-29 31 77
12 c96 14 216 54 375 125 68 30 125 53 126 52 2 -1 0 -60 -4 -130z m766 55
c80 -44 169 -85 196 -92 28 -6 57 -14 65 -16 18 -5 -43 -28 -268 -100 -95 -31
-175 -53 -178 -50 -3 3 -1 40 5 83 5 44 13 118 17 167 3 48 9 87 12 87 3 0 71
-36 151 -79z m-186 17 c-7 -107 -26 -264 -33 -283 -7 -18 -11 -16 -49 23 -22
23 -43 55 -47 70 -3 15 -17 61 -30 102 -13 40 -20 78 -16 82 10 10 142 56 163
57 13 1 15 -8 12 -51z m2017 11 c0 -16 -60 -158 -142 -334 -41 -88 -87 -190
-102 -227 -16 -38 -32 -68 -36 -68 -15 0 -33 31 -41 73 -5 23 -6 119 -2 214
l6 171 91 45 c50 25 118 66 151 91 63 47 75 53 75 35z m95 -43 c28 -18 70 -52
95 -74 l45 -41 -45 -40 c-25 -22 -48 -40 -52 -41 -18 -1 -108 186 -108 225 0
11 17 4 65 -29z m-1055 -67 c77 -50 140 -95 140 -99 0 -9 -168 -24 -280 -25
-79 0 -85 1 -88 21 -3 20 71 194 82 194 3 0 68 -41 146 -91z m-1233 -4 c42
-132 25 -176 -93 -247 -169 -99 -348 -188 -377 -186 -27 2 -28 4 -22 38 9 51
74 241 87 258 20 24 255 168 321 197 50 22 59 16 84 -60z m2273 -82 l34 -61
-110 -118 c-114 -122 -224 -227 -232 -220 -5 5 62 161 151 349 36 76 71 153
77 170 l11 32 18 -46 c10 -25 33 -73 51 -106z m-3569 88 l45 -17 -63 -30 -63
-30 0 54 c0 48 2 53 18 47 9 -5 37 -15 63 -24z m188 -103 c-19 -72 -112 -270
-148 -317 l-18 -24 -41 168 c-43 178 -43 182 2 208 25 13 135 35 188 36 l37 1
-20 -72z m96 -114 c22 -107 20 -181 -5 -194 -24 -13 -220 -53 -227 -47 -2 3 7
23 20 44 49 77 105 200 133 288 l28 89 18 -54 c10 -29 25 -86 33 -126z m9 170
c20 -7 201 -233 193 -240 -3 -3 -40 -25 -82 -49 -48 -28 -77 -39 -80 -32 -2 7
-6 46 -9 87 -2 41 -16 112 -29 158 -24 81 -24 88 7 76z m1638 -16 c-5 -7 -58
-74 -118 -148 -94 -117 -112 -135 -136 -134 -41 3 -203 96 -203 118 0 14 34
29 180 75 99 32 203 67 230 79 62 25 59 24 47 10z m116 -17 c31 -15 86 -39
122 -51 36 -13 67 -25 68 -26 2 -1 -19 -74 -47 -161 -28 -87 -53 -170 -57
-185 -3 -16 -10 -28 -14 -28 -17 0 -346 136 -369 152 -17 12 -21 21 -14 30 67
89 239 298 245 298 5 0 34 -13 66 -29z m-2933 -8 c39 -8 107 -17 153 -20 l83
-6 34 -52 c19 -29 35 -57 35 -63 0 -6 -26 -18 -57 -27 -32 -9 -75 -27 -95 -41
-21 -13 -46 -24 -56 -24 -20 0 -90 70 -181 183 l-64 78 39 -6 c22 -4 71 -14
109 -22z m4022 15 c4 -7 8 -99 8 -205 l0 -192 -21 42 c-12 23 -41 98 -64 167
-24 69 -49 135 -57 147 -14 21 -12 22 49 36 80 19 75 19 85 5z m647 -123 c28
-117 28 -148 -1 -159 -21 -9 -23 -6 -89 104 l-55 95 43 37 c67 58 71 55 102
-77z m-879 85 c17 -6 12 -14 -44 -74 -35 -36 -68 -66 -73 -66 -9 0 -11 120 -2
145 5 13 15 15 53 9 25 -4 55 -10 66 -14z m1011 -167 c-39 -28 -72 -50 -74
-48 -7 7 -52 190 -52 212 0 19 12 13 99 -45 l98 -67 -71 -52z m-1160 145 c-3
-13 -6 -45 -7 -73 l-1 -50 -13 30 c-18 38 -19 102 -2 108 24 10 29 7 23 -15z
m283 -139 c26 -74 59 -156 73 -182 15 -26 25 -47 22 -47 -3 0 -57 35 -122 78
-64 43 -140 91 -169 107 l-51 29 81 82 c64 65 85 80 101 75 13 -6 32 -45 65
-142z m-3137 64 c3 -47 17 -97 42 -160 21 -51 36 -100 34 -109 -4 -24 -20 -30
-123 -48 -49 -9 -150 -32 -223 -52 -73 -20 -139 -33 -148 -30 -13 5 -15 15
-10 44 3 20 9 97 12 169 4 79 11 136 18 142 6 5 54 21 106 35 52 14 136 39
185 54 50 16 93 28 96 26 4 -2 8 -34 11 -71z m2798 48 c0 -16 7 -48 15 -71 8
-24 14 -45 12 -47 -5 -4 -269 105 -281 117 -5 5 11 11 35 14 24 3 55 7 69 10
14 2 53 4 88 5 62 1 62 1 62 -28z m-2739 -121 c17 -67 28 -124 26 -126 -10
-10 -58 142 -64 200 -3 33 -3 58 1 55 4 -4 21 -62 37 -129z m2389 120 c47 -9
333 -123 353 -140 5 -5 -13 -32 -40 -62 -44 -50 -255 -294 -278 -323 -28 -35
-50 -27 -133 51 -45 42 -85 86 -88 98 -5 23 4 62 52 221 38 124 55 165 68 165
8 0 37 -4 66 -10z m-1540 -133 l-42 -126 -99 66 c-54 36 -97 68 -95 70 7 7
271 120 274 118 2 -2 -16 -59 -38 -128z m544 118 c4 -10 -1 -15 -14 -15 -20 0
-26 11 -13 23 10 11 20 8 27 -8z m2319 -84 c27 -44 47 -88 45 -97 -4 -20 -213
-143 -297 -175 -62 -23 -156 -31 -156 -13 0 13 340 364 352 364 4 0 30 -36 56
-79z m-2244 33 c14 -12 -19 -1 -35 12 -18 14 -18 14 6 3 14 -6 27 -13 29 -15z
m-39 -14 c36 -18 40 -24 40 -58 0 -92 -70 -271 -152 -388 -24 -33 -48 -69 -54
-79 -10 -19 -11 -19 -41 0 -50 32 -253 217 -279 254 -17 25 -21 39 -14 52 5 9
69 48 142 87 73 38 162 87 198 110 74 46 104 50 160 22z m-1932 -60 c13 -25
11 -142 -4 -233 l-7 -37 -41 62 c-24 36 -65 81 -98 106 -32 24 -58 49 -58 57
0 7 28 27 63 45 76 38 125 38 145 0z m2225 -89 c5 -5 -3 -63 -17 -130 -14 -67
-26 -132 -26 -145 0 -17 -7 -26 -24 -30 -32 -8 -43 -36 -15 -36 15 0 19 -5 15
-15 -3 -8 -8 -38 -12 -67 -4 -29 -15 -70 -26 -90 -15 -31 -24 -38 -47 -38 -26
0 -205 82 -245 113 -19 14 -19 15 1 25 15 8 27 35 43 93 12 45 37 116 55 158
31 73 58 165 70 241 l5 36 108 -54 c59 -29 111 -57 115 -61z m-1005 -60 c34
-17 62 -37 62 -44 0 -27 -83 -173 -161 -282 -81 -113 -99 -131 -99 -99 0 9
-17 49 -39 88 -48 88 -75 166 -97 284 -21 107 -27 96 90 157 l69 35 56 -54
c32 -29 85 -68 119 -85z m-15 73 c84 -57 113 -84 91 -84 -21 0 -147 77 -179
110 -58 60 -23 49 88 -26z m2114 4 c25 -48 27 -63 26 -146 -1 -51 -11 -157
-23 -235 -12 -78 -24 -163 -28 -188 l-7 -47 -85 64 c-47 35 -120 85 -163 112
-43 26 -88 55 -100 64 l-22 16 20 25 c11 14 64 76 118 139 55 62 124 143 155
180 32 37 63 67 69 67 7 1 25 -23 40 -51z m66 31 c59 -31 307 -199 307 -209 0
-19 -98 -135 -229 -270 l-140 -145 -1 37 c0 21 10 95 21 165 12 71 22 178 23
238 1 96 -2 115 -21 152 -13 23 -23 45 -23 48 0 10 21 5 63 -16z m1017 -19 c8
-5 11 -10 5 -10 -5 0 -17 5 -25 10 -8 5 -10 10 -5 10 6 0 17 -5 25 -10z
m-4568 -60 c49 -34 101 -98 136 -166 21 -39 -54 -218 -174 -416 -92 -151 -113
-178 -137 -178 -29 0 -47 18 -47 46 0 12 -7 27 -15 34 -24 20 -18 58 31 212
98 306 115 363 126 435 6 40 14 73 18 73 4 0 32 -18 62 -40z m4614 19 c49 -11
104 -29 123 -38 l34 -18 -35 -21 c-46 -28 -58 -28 -85 6 l-22 27 17 -36 c9
-20 20 -35 24 -33 4 3 9 0 12 -4 7 -12 -115 -119 -150 -133 -43 -16 -74 -4
-74 29 0 27 27 192 36 225 7 22 14 21 120 -4z m-149 -25 c-3 -20 -12 -78 -19
-130 l-12 -94 -52 0 c-28 0 -73 -3 -100 -7 l-49 -6 43 48 c23 27 56 73 74 104
48 86 77 121 100 121 18 0 20 -4 15 -36z m-1889 -116 c73 -72 132 -135 132
-139 0 -20 -62 -71 -167 -138 -61 -39 -116 -71 -122 -71 -20 0 -46 112 -46
195 1 90 41 285 60 285 6 0 71 -59 143 -132z m182 12 c28 -11 45 -25 45 -35 0
-9 -20 -31 -45 -49 l-45 -33 -110 111 -110 112 110 -43 c61 -24 130 -52 155
-63z m-1731 28 c17 -98 55 -210 96 -284 34 -63 39 -86 37 -161 -3 -65 -17 -73
-137 -73 l-103 0 -45 113 c-25 62 -53 142 -62 178 -9 35 -28 101 -43 146 -14
45 -23 85 -20 89 4 3 57 16 119 30 61 13 114 26 117 29 18 17 30 -3 41 -67z
m3320 25 c-74 -123 -137 -187 -226 -231 -43 -21 -54 -23 -67 -13 -18 15 -80
120 -75 125 2 2 42 13 88 25 53 13 122 41 185 75 56 30 105 55 109 56 5 0 -2
-17 -14 -37z m-2778 -19 l24 -26 -42 21 c-47 23 -53 31 -25 31 10 0 29 -12 43
-26z m-1 -92 c19 -18 99 -76 177 -128 141 -94 166 -115 146 -121 -20 -7 -189
-106 -248 -145 l-60 -41 -174 2 c-95 1 -184 6 -197 11 -44 17 -36 35 129 271
37 53 83 131 104 174 l37 78 25 -34 c14 -19 42 -49 61 -67z m100 -17 c41 -35
84 -73 95 -86 32 -36 -161 101 -202 144 l-38 39 35 -17 c19 -10 69 -46 110
-80z m-1038 -22 c-27 -54 -59 -124 -72 -155 -13 -32 -26 -58 -30 -58 -19 0
-281 201 -275 211 9 14 342 96 398 98 l27 1 -48 -97z m109 70 c23 -57 79 -300
86 -367 l6 -69 -44 5 c-31 4 -71 22 -136 64 -51 32 -93 65 -93 72 0 16 103
245 130 290 24 39 37 40 51 5z m2289 -174 c0 -4 -19 -22 -42 -41 -29 -23 -53
-34 -73 -34 l-30 1 -7 92 c-4 51 -12 102 -18 112 -25 48 -4 37 80 -41 50 -45
90 -86 90 -89z m854 -4 c-3 -66 -8 -123 -12 -127 -20 -20 -170 -98 -256 -132
-81 -33 -99 -37 -107 -25 -5 8 -8 17 -6 21 1 4 74 85 163 180 88 95 171 188
184 206 21 29 25 31 31 15 4 -10 5 -72 3 -138z m-1039 128 c11 -31 18 -140 8
-146 -5 -3 -32 8 -61 25 -66 38 -68 61 -10 106 48 37 53 38 63 15z m1141 -58
c45 -80 44 -99 -7 -130 -72 -46 -69 -50 -69 80 0 114 1 116 22 113 14 -2 32
-23 54 -63z m664 58 c-1 -15 -30 -46 -37 -40 -3 4 2 16 12 27 19 21 25 24 25
13z m-4415 -50 c22 -15 69 -50 105 -78 36 -28 91 -69 123 -91 44 -30 57 -44
54 -59 -3 -11 -12 -47 -20 -80 -8 -33 -18 -73 -21 -88 -6 -25 -23 -37 -133
-90 -99 -47 -140 -62 -184 -65 -56 -4 -247 22 -261 36 -4 4 6 28 23 52 65 97
180 309 211 390 29 77 42 99 58 100 3 0 23 -12 45 -27z m1785 -42 c-11 -39
-26 -65 -46 -82 -15 -13 -16 -12 -9 11 7 25 52 100 59 100 3 0 1 -13 -4 -29z
m2440 16 c0 -17 -31 -48 -89 -90 -25 -18 -54 -51 -67 -74 l-22 -42 -53 40
c-30 22 -73 52 -97 66 l-43 26 60 34 c64 36 129 49 249 52 46 1 62 -2 62 -12z
m100 9 c0 -6 -40 -176 -46 -198 -4 -15 -17 -18 -65 -18 l-60 0 19 25 c10 13
25 46 32 72 18 64 38 93 75 109 32 14 45 17 45 10z m-1735 -99 c7 -7 3 -7 -10
-2 -11 4 -36 11 -56 15 -51 10 -63 19 -48 36 9 11 19 9 58 -13 25 -14 51 -31
56 -36z m1822 1 c35 -34 63 -66 63 -70 0 -4 -11 -8 -24 -8 -13 0 -52 -9 -85
-19 -49 -15 -61 -16 -61 -5 0 24 33 164 39 164 3 0 34 -28 68 -62z m-1873 -14
c45 -11 81 -27 102 -47 31 -26 34 -34 34 -82 0 -36 15 -102 45 -196 25 -78 45
-148 45 -155 0 -21 -95 -54 -157 -54 -90 1 -198 33 -257 79 -124 95 -134 112
-151 260 l-7 61 123 80 c68 44 131 78 139 75 8 -2 46 -12 84 -21z m356 -4 c83
-49 201 -129 268 -184 86 -69 83 -81 -32 -117 -85 -26 -91 -27 -112 -11 -131
101 -294 239 -294 250 0 19 81 92 102 92 9 0 40 -14 68 -30z m1280 -28 c-20
-47 -50 -72 -85 -72 -21 0 -19 12 8 51 22 32 86 83 94 75 3 -2 -5 -26 -17 -54z
m-2038 -14 c13 -48 14 -64 5 -70 -19 -12 -37 -9 -43 7 -8 19 5 125 15 125 4 0
14 -28 23 -62z m1791 2 c115 -77 114 -72 32 -146 -38 -35 -72 -64 -75 -64 -4
0 -19 51 -34 113 -15 61 -30 120 -32 130 -9 31 31 19 109 -33z m-102 -90 c16
-63 29 -122 29 -130 0 -16 -199 -184 -207 -176 -2 2 1 24 7 47 7 24 15 105 19
179 l6 135 50 32 c27 18 54 32 59 30 5 -2 22 -54 37 -117z m-1993 25 c54 -30
121 -59 150 -66 45 -9 57 -17 77 -48 13 -21 53 -64 88 -97 60 -55 68 -66 102
-158 20 -54 35 -106 32 -115 -2 -9 -46 -69 -97 -133 -122 -153 -119 -153 -275
-19 -127 109 -131 120 -144 332 -6 97 -18 212 -26 255 -16 87 -18 104 -9 104
3 0 49 -25 102 -55z m-139 21 c15 -18 37 -153 45 -276 4 -52 9 -130 12 -172 6
-90 3 -93 -74 -54 -31 16 -73 54 -122 110 -41 47 -103 109 -138 137 -40 32
-62 57 -60 67 4 19 143 114 243 166 81 41 79 41 94 22z m2810 -25 c12 -16 21
-41 21 -56 0 -28 -70 -258 -90 -295 -13 -25 -26 -19 -117 52 l-63 50 0 57 c0
31 9 85 21 118 l20 61 72 20 c98 28 112 27 136 -7z m-1664 -86 c54 -44 119
-98 143 -121 l45 -41 -111 -56 c-61 -32 -114 -57 -119 -57 -12 0 -103 298
-103 336 0 58 -3 59 145 -61z m806 -95 c-12 -109 -33 -188 -60 -221 -16 -20
-20 -21 -39 -7 -45 31 -252 230 -252 242 0 7 51 33 113 59 61 26 141 64 177
85 l65 38 3 -50 c2 -28 -1 -94 -7 -146z m-3240 136 c44 -30 76 -57 70 -60 -9
-6 -199 -66 -208 -66 -7 0 4 63 23 128 8 28 19 52 25 52 5 0 46 -24 90 -54z
m243 -43 c6 -17 3 -23 -8 -23 -11 0 -16 9 -16 28 0 15 -3 38 -5 52 -5 22 -3
21 9 -5 7 -16 17 -40 20 -52z m3606 22 c-9 -27 -20 -68 -25 -90 l-7 -40 -22
29 c-11 16 -42 55 -68 87 -26 32 -43 59 -38 61 6 2 48 3 94 3 l83 0 -17 -50z
m-2073 -49 c7 -43 15 -86 18 -94 5 -13 3 -13 -12 -1 -65 49 -123 118 -123 147
0 11 58 31 85 29 17 -2 22 -14 32 -81z m1926 32 c46 -55 97 -128 97 -139 0 -4
-28 -12 -62 -19 -34 -6 -89 -20 -122 -30 -70 -22 -76 -20 -112 51 l-24 48 83
70 c45 39 85 71 89 71 3 0 26 -24 51 -52z m-3499 -53 c3 -8 12 -15 21 -15 19
0 19 2 -5 -106 -11 -49 -23 -140 -27 -202 -4 -74 -10 -115 -18 -118 -7 -3 -70
19 -141 48 l-128 53 -17 85 c-10 47 -19 109 -21 139 l-3 54 110 37 c121 41
218 51 229 25z m296 -10 c0 -15 -239 -353 -283 -400 -24 -25 25 334 53 384 10
19 20 21 120 21 61 0 110 -2 110 -5z m230 -25 c74 -12 140 -25 146 -28 8 -5
-28 -79 -102 -212 -138 -249 -130 -236 -138 -229 -4 3 -11 45 -16 92 -9 78
-52 326 -67 385 -5 20 -2 22 18 18 13 -3 85 -15 159 -26z m33 23 c-7 -2 -19
-2 -25 0 -7 3 -2 5 12 5 14 0 19 -2 13 -5z m137 -13 c0 -11 -40 -11 -85 0 -25
6 -20 8 28 9 32 0 57 -3 57 -9z m-335 -185 c14 -77 29 -178 32 -224 6 -79 5
-83 -13 -77 -41 12 -164 35 -256 47 -54 7 -98 16 -98 21 0 5 40 62 88 126 49
64 115 157 148 206 68 103 61 111 99 -99z m2282 153 c-53 -130 -70 -177 -90
-247 l-24 -83 -18 74 c-9 40 -28 101 -40 135 -28 73 -28 74 72 107 80 28 107
31 100 14z m645 -50 c16 -29 25 -55 20 -59 -4 -4 -32 -15 -62 -24 -30 -10 -95
-35 -143 -56 -103 -46 -115 -47 -90 -14 18 25 231 205 242 205 3 0 18 -24 33
-52z m-479 -82 c64 -60 117 -113 117 -117 0 -9 -284 -103 -343 -114 -48 -9
-48 -3 2 145 55 163 78 213 93 204 7 -4 66 -57 131 -118z m-3161 8 c9 -54 20
-109 23 -122 6 -23 4 -24 -22 -17 -92 23 -258 102 -258 123 0 6 47 34 103 61
57 27 107 52 110 55 17 17 29 -10 44 -100z m1133 76 c45 -31 208 -201 207
-216 -1 -4 -45 -21 -99 -36 -53 -16 -154 -51 -223 -78 -153 -59 -180 -67 -180
-49 0 7 46 95 102 196 95 170 103 181 115 160 12 -21 12 -21 13 9 0 28 6 44
17 44 3 0 24 -14 48 -30z m2815 -15 c0 -10 -121 -170 -129 -170 -15 0 -100
110 -92 118 7 7 185 56 209 57 6 0 12 -2 12 -5z m197 -142 c8 -22 -29 -76
-113 -163 -99 -103 -158 -139 -201 -124 -45 15 -55 49 -37 119 20 75 22 79 42
63 14 -12 14 -10 3 10 -14 26 -17 20 71 140 l68 92 81 -62 c45 -35 83 -68 86
-75z m-4877 96 c0 -5 -11 -9 -25 -9 -23 0 -24 2 -15 21 9 16 14 18 26 8 8 -6
14 -15 14 -20z m3525 1 c18 -35 65 -206 65 -237 0 -31 -18 -29 -93 8 -73 37
-217 128 -217 137 0 6 205 117 222 121 4 0 14 -12 23 -29z m-667 -146 c-56
-30 -66 -29 -79 4 -6 15 -21 55 -34 89 l-24 62 90 -67 90 -66 -43 -22z m-2595
122 c37 -7 69 -15 72 -18 3 -2 -25 -17 -61 -31 -73 -30 -79 -29 -133 27 l-35
36 45 0 c24 -1 74 -7 112 -14z m-100 -74 c19 -21 18 -21 -65 -64 -45 -23 -87
-45 -92 -47 -9 -4 -2 96 10 143 3 12 17 27 32 32 23 9 33 6 62 -17 19 -15 43
-36 53 -47z m4316 16 c28 -35 49 -67 47 -73 -11 -31 -122 -165 -135 -165 -9 0
-43 17 -76 37 -33 20 -100 58 -150 84 -72 38 -86 49 -70 55 11 4 52 20 90 37
88 38 216 86 231 87 7 0 35 -28 63 -62z m-4033 -93 c13 -66 29 -144 37 -172
14 -49 14 -52 -1 -44 -17 10 -193 194 -231 243 l-22 27 33 17 c46 24 131 53
147 51 10 -1 21 -39 37 -122z m214 20 l105 -41 12 -54 c21 -89 23 -87 -117
-136 -68 -24 -125 -42 -127 -41 -13 14 -83 314 -83 358 0 5 24 -3 53 -18 28
-14 99 -45 157 -68z m2599 8 c27 -102 51 -211 51 -235 0 -16 -7 -31 -18 -37
-9 -5 -78 -17 -152 -26 -74 -9 -165 -25 -202 -35 -37 -10 -70 -15 -72 -12 -2
4 -9 48 -15 97 -6 50 -17 114 -24 142 -16 60 -18 58 63 98 54 27 57 28 127 16
73 -12 125 -8 178 15 46 20 53 17 64 -23z m244 -108 l71 -32 -64 -36 c-97 -53
-159 -81 -165 -75 -5 5 -65 258 -65 274 0 2 34 -19 76 -47 42 -28 108 -66 147
-84z m-3155 -35 c79 -83 142 -156 139 -163 -9 -25 -359 -138 -399 -130 -22 5
-26 17 -38 121 -6 48 -18 113 -26 146 -15 57 -15 59 8 83 22 24 142 92 163 92
6 1 75 -67 153 -149z m3661 100 c-8 -10 -54 -78 -104 -151 -49 -72 -116 -161
-147 -196 -32 -36 -58 -70 -58 -76 0 -30 -13 12 -40 134 -17 74 -29 147 -28
163 3 26 8 30 73 47 39 10 122 36 185 58 136 47 136 47 119 21z m297 -117 c32
-21 62 -41 66 -44 5 -3 -6 -52 -23 -109 -17 -57 -41 -156 -53 -220 -15 -78
-30 -127 -44 -144 -19 -25 -21 -26 -31 -9 -11 22 -84 380 -101 498 -7 44 -18
95 -26 114 -8 18 -14 36 -14 38 0 7 160 -81 226 -124z m-2156 98 c19 -10 36
-25 38 -34 2 -8 -28 -78 -66 -155 -38 -76 -88 -192 -112 -257 l-43 -118 -55
62 c-30 34 -119 115 -196 180 -157 131 -173 148 -160 160 12 12 376 146 444
164 75 21 109 20 150 -2z m1919 -7 c6 -14 23 -91 36 -169 20 -117 50 -265 92
-462 3 -13 -2 -29 -11 -38 -9 -9 -16 -13 -16 -8 0 11 -23 20 -240 99 -102 37
-196 76 -210 88 -40 33 -28 60 81 180 25 28 76 98 114 156 74 116 123 180 134
180 4 0 13 -12 20 -26z m830 -105 c32 -126 32 -153 -4 -241 -26 -64 -50 -98
-70 -98 -14 0 -225 213 -225 227 0 5 21 24 48 41 26 17 85 69 132 117 47 47
86 81 88 77 1 -5 16 -60 31 -123z m-4008 77 c130 -51 130 -51 71 -65 -28 -7
-72 -13 -98 -14 l-47 -2 -13 55 c-7 30 -13 56 -14 58 -1 6 22 -1 101 -32z
m1904 17 c25 -67 47 -273 29 -273 -3 0 -46 14 -96 30 -49 17 -98 30 -109 30
-10 0 -19 3 -19 6 0 10 171 224 180 224 4 0 11 -8 15 -17z m1706 -40 c-13 -46
-22 -59 -39 -61 -12 -2 -22 2 -22 8 0 9 70 110 76 110 1 0 -6 -26 -15 -57z
m-2211 -151 c82 -179 82 -181 28 -225 -69 -56 -297 -165 -318 -152 -10 6 11
81 52 185 44 113 161 341 169 333 4 -5 35 -68 69 -141z m93 57 c53 -44 97 -83
97 -85 0 -15 -42 -83 -63 -103 l-26 -23 -45 91 c-25 50 -46 97 -46 106 0 8 -4
15 -8 15 -4 0 -8 8 -9 18 -1 9 -4 27 -8 40 -4 12 -3 22 2 22 5 0 52 -36 106
-81z m-1085 25 c120 -21 164 -33 156 -45 -3 -6 -74 -71 -157 -145 -132 -116
-152 -131 -155 -112 -7 55 -52 297 -58 313 -7 17 -2 18 60 11 37 -4 106 -13
154 -22z m2301 9 c5 -10 24 -85 42 -166 l33 -148 -22 -21 -22 -22 -30 29 c-31
30 -42 25 -13 -7 9 -10 14 -20 11 -23 -2 -2 -49 3 -104 13 -97 17 -99 18 -116
52 -19 38 -25 164 -9 189 8 12 195 117 213 120 4 1 11 -7 17 -16z m-2576 -15
c-80 -125 -149 -223 -166 -239 -33 -28 -191 -117 -199 -112 -5 2 -8 33 -8 68
0 75 -16 60 210 202 138 88 181 109 163 81z m-88 -7 c-16 -14 -287 -181 -295
-181 -14 0 -91 73 -83 80 4 4 55 24 113 44 139 48 291 81 265 57z m161 -148
c13 -76 24 -149 24 -163 0 -22 -62 -127 -145 -247 l-15 -22 -142 74 c-146 76
-176 102 -147 130 8 7 57 38 109 68 l95 54 89 132 c58 88 92 129 98 123 6 -6
21 -72 34 -149z m3415 126 c10 -19 9 -20 -13 -14 -12 4 -34 14 -48 21 -25 13
-25 13 12 14 28 0 40 -5 49 -21z m-39 -27 c87 -40 92 -48 78 -119 -7 -32 -25
-100 -42 -151 -16 -51 -26 -97 -22 -104 4 -6 3 -8 -3 -5 -6 4 -50 -4 -98 -18
-48 -14 -89 -24 -90 -23 -11 12 96 448 109 448 2 0 33 -13 68 -28z m-2937 -17
c20 -14 90 -69 154 -123 181 -150 260 -235 248 -266 -7 -17 -87 -49 -339 -136
l-196 -68 -83 106 c-46 59 -100 129 -121 156 -21 27 -38 52 -38 57 0 11 318
298 331 299 3 0 23 -11 44 -25z m1772 -60 c-3 -19 -2 -35 4 -35 5 0 9 8 9 18
0 9 5 24 11 32 8 11 9 3 5 -30 -4 -26 0 -67 9 -100 8 -30 13 -55 12 -57 -2 -1
-27 9 -56 22 -77 36 -246 92 -320 106 -85 16 -66 23 141 49 89 11 164 23 167
25 14 15 23 1 18 -30z m-592 -15 c52 -17 95 -33 95 -36 0 -3 -7 -19 -16 -35
l-15 -30 -40 36 c-23 20 -62 50 -87 66 -25 16 -43 29 -39 29 4 0 50 -14 102
-30z m2085 -205 c0 -8 -23 -18 -57 -25 -32 -6 -98 -20 -147 -31 -49 -10 -91
-18 -92 -16 -2 2 10 43 25 92 16 50 35 119 42 155 l12 64 109 -113 c59 -62
108 -119 108 -126z m-4240 200 l24 -25 -32 11 c-18 6 -32 17 -32 25 0 21 14
17 40 -11z m2081 -14 c24 -16 64 -49 88 -74 l44 -46 -31 -83 c-61 -164 -79
-243 -97 -420 -4 -32 -8 -58 -10 -58 -13 0 -205 124 -206 133 -1 7 -3 68 -5
137 -2 69 -10 166 -19 215 l-15 90 70 68 c82 79 109 85 181 38z m-2151 3 c0
-60 -25 -204 -36 -204 -54 0 -328 72 -339 90 -3 4 21 16 52 25 106 30 268 85
283 95 22 14 40 12 40 -6z m72 -27 c21 -7 40 -16 43 -18 2 -3 -20 -30 -50 -59
-61 -60 -63 -59 -49 44 7 52 5 50 56 33z m2474 -22 c94 -22 275 -92 296 -113
5 -5 12 -27 15 -49 4 -32 -2 -53 -32 -114 -62 -124 -105 -188 -143 -214 l-36
-24 -38 70 c-21 39 -59 100 -85 136 -32 45 -59 102 -90 190 -23 68 -43 129
-43 134 0 15 49 10 156 -16z m-154 -71 c48 -139 70 -187 118 -259 95 -143 118
-192 42 -92 -22 29 -64 81 -94 115 -29 34 -75 104 -102 155 l-48 93 18 37 c10
21 23 36 28 34 6 -2 23 -39 38 -83z m-2252 -47 c0 -50 -3 -59 -23 -68 -29 -13
-86 0 -101 24 -9 15 -1 27 47 74 68 65 77 62 77 -30z m1756 -59 c15 -102 19
-285 5 -306 -6 -10 -27 -3 -92 31 -84 43 -294 176 -287 181 1 2 41 19 88 38
97 39 216 106 244 137 11 12 21 19 24 17 2 -3 10 -46 18 -98z m-2170 49 c43
-14 114 -30 156 -37 88 -14 106 -24 110 -59 3 -20 -12 -35 -86 -88 -50 -34
-97 -63 -106 -63 -18 0 -109 90 -129 127 -9 19 -50 140 -51 152 0 2 6 1 13 -2
7 -3 49 -16 93 -30z m2624 -57 c22 -45 69 -113 103 -153 35 -40 85 -101 111
-136 57 -74 66 -63 -94 -129 -159 -66 -188 -75 -227 -69 -60 10 -64 19 -59
126 2 53 11 125 20 161 24 94 89 280 98 280 4 0 26 -36 48 -80z m661 44 l96
-17 -4 -46 c-2 -25 5 -86 16 -136 10 -49 16 -93 12 -98 -4 -4 -25 -8 -46 -10
-39 -2 -39 -2 -117 106 -58 80 -78 118 -83 151 -7 47 -2 66 18 66 7 0 55 -7
108 -16z m-3382 -72 c44 -163 55 -237 40 -268 -23 -47 -49 -42 -117 21 -33 31
-69 71 -80 90 l-21 34 50 72 c61 88 92 128 100 128 4 1 16 -34 28 -77z m3551
43 c0 -8 -4 -15 -10 -15 -5 0 -10 7 -10 15 0 8 5 15 10 15 6 0 10 -7 10 -15z
m-2424 -122 c54 -70 98 -136 98 -148 1 -18 -4 -20 -54 -17 -104 6 -282 64
-261 85 16 16 13 30 -5 23 -22 -8 -14 10 37 87 48 71 69 97 79 97 4 0 52 -57
106 -127z m2402 95 c28 -70 32 -74 26 -37 -4 22 -1 39 5 44 6 3 8 12 4 18 -4
7 0 6 10 -2 20 -16 23 -35 4 -28 -8 3 19 -28 60 -69 40 -41 73 -80 73 -87 0
-7 -33 -21 -73 -33 -39 -11 -79 -24 -88 -28 -14 -6 -19 2 -28 41 -29 121 -34
213 -12 213 3 0 12 -15 19 -32z m1158 -41 c-13 -34 -38 -91 -55 -126 l-32 -63
-43 6 c-23 4 -65 12 -92 19 l-49 12 -13 74 c-7 40 -11 75 -9 77 6 6 268 62
294 63 l23 1 -24 -63z m149 -90 c0 -5 -31 -17 -70 -27 -38 -10 -82 -23 -96
-28 l-26 -11 37 87 c21 48 40 96 44 106 6 16 15 8 59 -49 29 -37 52 -72 52
-78z m-4411 114 c3 -5 -1 -12 -10 -15 -22 -9 -24 -8 -24 9 0 16 25 21 34 6z
m3394 -52 c94 -34 172 -66 172 -70 0 -5 -30 -9 -67 -10 -38 0 -90 -4 -118 -9
-58 -9 -64 -6 -131 82 -44 57 -50 68 -36 68 4 0 85 -27 180 -61z m-3315 25
c32 -15 36 -23 51 -91 30 -138 20 -155 -52 -85 -49 48 -92 116 -92 146 0 12
38 42 57 46 1 0 18 -7 36 -16z m2778 -215 c-58 -4 -125 -14 -149 -23 l-43 -16
24 29 c13 16 48 75 76 130 l52 100 73 -107 73 -107 -106 -6z m1096 156 c21
-95 17 -131 -24 -190 -21 -30 -40 -54 -43 -54 -19 -1 -150 101 -173 134 l-28
41 40 41 c29 31 55 47 102 62 97 30 112 26 126 -34z m-3677 -27 c52 -27 99
-54 104 -58 9 -9 -30 -28 -119 -60 -71 -25 -85 -11 -106 98 -19 98 -26 97 121
20z m-289 -9 c21 -38 55 -81 91 -112 l58 -51 0 -82 c0 -85 -24 -184 -44 -184
-11 0 -150 152 -261 285 l-64 78 22 17 c30 23 159 110 163 110 1 0 18 -28 35
-61z m1439 33 c0 -49 -60 -235 -95 -295 -6 -9 -36 -26 -68 -37 -54 -19 -59
-19 -99 -3 -24 9 -83 46 -133 83 -49 37 -99 72 -110 78 -24 13 -43 4 225 99
101 36 198 72 215 79 43 19 65 17 65 -4z m-1750 -48 c22 -20 40 -39 40 -43 0
-4 -15 -15 -34 -24 l-35 -16 -10 50 c-18 83 -17 84 39 33z m1925 -37 c50 -32
116 -72 148 -88 31 -16 57 -31 57 -33 0 -7 -191 -68 -196 -63 -7 6 -124 247
-124 253 0 6 3 4 115 -69z m-67 -89 l50 -106 -32 -6 c-17 -3 -68 -8 -113 -12
l-81 -6 34 90 c19 50 39 114 45 143 l11 52 19 -24 c10 -13 40 -72 67 -131z
m2069 104 c8 -5 -6 -27 -41 -68 -28 -33 -60 -72 -71 -87 l-20 -27 -58 80 c-32
44 -58 83 -58 87 1 16 224 30 248 15z m836 -5 c5 -13 -81 -160 -169 -292 -48
-71 -66 -74 -147 -24 -29 18 -76 47 -106 66 -45 27 -51 34 -35 39 76 26 131
60 185 114 64 64 82 75 164 96 66 16 102 17 108 1z m-732 -61 c27 -30 71 -67
97 -83 l47 -28 -87 -3 c-49 -1 -126 -1 -173 0 l-86 3 26 35 c28 38 114 130
122 130 2 0 27 -24 54 -54z m-343 -12 c60 -67 90 -120 77 -133 -10 -9 -324
-201 -329 -201 -2 0 3 23 10 52 17 64 18 130 3 215 -6 35 -8 67 -5 70 12 12
141 52 168 53 20 0 39 -14 76 -56z m-2888 -41 c40 -84 41 -88 30 -137 -22 -96
-18 -94 -62 -42 -51 60 -69 60 -23 0 32 -43 46 -80 27 -72 -24 10 -271 233
-264 239 4 4 43 21 87 37 44 16 94 36 110 45 17 9 35 16 42 17 6 0 30 -39 53
-87z m40 67 c22 -11 75 -29 118 -39 l77 -18 -70 -32 c-112 -51 -108 -52 -139
21 -39 87 -39 88 -32 88 4 0 25 -9 46 -20z m-622 -163 c145 -166 202 -238 202
-256 0 -12 -250 -113 -285 -115 -27 -1 -31 3 -48 54 -10 30 -36 125 -59 210
-22 85 -45 163 -50 173 -17 33 -1 63 44 86 24 11 44 21 44 21 1 0 69 -78 152
-173z m4200 152 l63 -12 -33 -34 c-57 -60 -162 -102 -194 -79 -15 11 -12 19
27 78 28 42 50 65 59 63 8 -2 43 -9 78 -16z m-991 -76 c12 -73 10 -173 -6
-226 l-14 -48 -28 108 c-15 59 -34 129 -42 155 l-15 47 32 4 c17 2 39 5 48 5
13 2 19 -10 25 -45z m-103 -45 c40 -134 57 -209 54 -236 -3 -26 -3 -26 -56 21
-64 57 -100 80 -260 167 l-123 67 58 21 c95 35 124 40 215 41 l87 1 25 -82z
m-2172 37 c15 -13 50 -31 79 -40 103 -34 237 -104 258 -134 l21 -29 -57 -52
c-73 -67 -103 -89 -187 -140 -84 -51 -192 -93 -221 -86 -28 7 -191 194 -187
213 2 8 -4 23 -13 33 -16 17 -16 24 0 93 19 84 6 74 165 143 80 36 98 36 142
-1z m116 -1 c29 -20 51 -39 49 -41 -4 -4 -128 40 -148 52 -5 4 -7 11 -4 16 12
18 51 8 103 -27z m999 -55 c98 -55 133 -84 117 -98 -20 -20 -275 -208 -298
-221 -36 -19 -52 -2 -70 79 -9 38 -28 102 -44 142 l-28 74 105 37 c58 20 110
37 115 37 6 1 52 -22 103 -50z m-1608 -99 c55 -47 100 -90 100 -96 1 -7 -29
-14 -71 -18 -40 -3 -108 -14 -151 -23 -100 -21 -106 -16 -79 69 11 34 24 96
27 136 l7 72 33 -27 c19 -16 79 -66 134 -113z m-695 122 c3 -5 21 -69 40 -143
20 -74 44 -161 55 -194 10 -33 15 -61 10 -63 -16 -6 -263 59 -271 71 -16 24
-7 69 26 135 18 37 38 83 45 102 18 56 49 100 70 100 11 0 22 -4 25 -8z m3065
-59 c177 -94 296 -177 321 -224 9 -15 -4 -25 -88 -70 -53 -29 -124 -69 -157
-89 -33 -20 -85 -50 -116 -67 l-55 -31 0 67 c0 36 -10 108 -23 161 -15 60 -24
124 -24 175 0 73 13 135 29 135 3 0 54 -25 113 -57z m-165 -35 c-5 -55 0 -99
16 -178 34 -161 41 -203 34 -233 l-6 -27 -30 17 c-17 10 -88 81 -158 158 -70
77 -134 146 -143 154 -10 7 -17 23 -17 35 0 18 23 30 153 83 83 34 153 62 154
62 2 1 0 -32 -3 -71z m1270 63 l69 -6 -51 -60 c-125 -148 -115 -139 -155 -131
-43 8 -85 41 -138 109 -45 56 -50 84 -16 90 33 6 212 5 291 -2z m-2186 -93
c16 -40 35 -98 42 -128 6 -30 14 -63 17 -72 8 -30 -24 -21 -126 33 -97 52
-241 146 -241 158 0 3 9 17 19 30 16 20 32 25 127 36 60 7 114 13 121 14 6 0
25 -32 41 -71z m1838 12 c-13 -110 -85 -330 -109 -330 -13 0 -210 110 -241
134 -10 8 -16 21 -13 29 3 8 54 43 114 79 59 36 137 84 173 107 36 22 69 41
74 41 5 0 6 -27 2 -60z m540 20 c36 -22 84 -53 107 -68 l41 -27 -55 -7 c-102
-12 -279 -9 -279 5 1 25 47 92 79 114 19 13 35 23 37 23 2 0 33 -18 70 -40z
m-2691 -10 c-4 -6 -23 -19 -44 -30 -29 -14 -41 -16 -50 -7 -8 8 -1 15 31 28
51 20 72 23 63 9z m2272 -102 c29 -31 53 -61 53 -67 0 -6 -19 -20 -41 -32 -23
-11 -74 -41 -112 -65 -39 -24 -72 -42 -74 -40 -2 2 12 50 31 107 19 57 37 128
41 157 l7 52 21 -27 c11 -16 45 -54 74 -85z m-1412 29 l40 -34 -99 -194 c-113
-223 -145 -279 -155 -279 -4 0 -21 24 -36 53 -25 45 -104 168 -151 234 -15 20
-13 23 41 59 31 20 109 77 172 125 127 97 119 96 188 36z m30 23 c3 -6 -1 -7
-9 -4 -18 7 -21 14 -7 14 6 0 13 -4 16 -10z m-828 -54 c43 -29 102 -66 131
-80 30 -15 52 -30 49 -33 -6 -5 -63 23 -211 102 -63 34 -85 50 -75 56 21 13
22 13 106 -45z m2417 10 c-6 -16 -24 -23 -24 -8 0 10 22 33 27 28 2 -2 1 -11
-3 -20z m-2511 -12 c29 -15 90 -49 136 -77 l85 -51 -45 -39 c-24 -22 -102 -84
-174 -138 -71 -53 -159 -122 -195 -153 -36 -31 -67 -56 -70 -56 -3 0 -44 44
-90 97 -47 53 -103 109 -125 125 -38 28 -39 29 -15 35 85 22 288 153 375 242
21 23 45 41 52 41 8 0 37 -12 66 -26z m-783 -3 c0 -6 -4 -13 -10 -16 -5 -3
-10 1 -10 9 0 9 5 16 10 16 6 0 10 -4 10 -9z m3668 -29 c3 -22 -88 -222 -120
-266 -20 -26 -44 -9 -100 73 -51 75 -129 200 -125 203 3 2 289 15 317 14 18
-1 26 -7 28 -24z m-1873 -117 c31 -82 38 -117 43 -196 6 -117 -1 -133 -68
-153 -89 -27 -270 -50 -283 -37 -13 13 -10 19 140 310 86 167 108 201 118 190
7 -8 30 -59 50 -114z m1383 106 c10 -6 10 -10 -3 -21 -8 -7 -15 -10 -15 -7 0
3 -3 12 -6 21 -7 17 3 20 24 7z m175 -76 c27 -44 71 -111 99 -149 l51 -70 -26
-22 c-14 -12 -52 -32 -83 -44 -66 -24 -275 -82 -280 -77 -2 1 3 27 11 57 8 30
25 117 38 193 22 121 28 142 53 168 21 22 36 29 58 27 26 -3 37 -15 79 -83z
m399 68 c8 -10 41 -63 73 -118 32 -55 71 -119 87 -142 l29 -43 -33 0 c-18 0
-96 7 -173 15 -77 8 -147 15 -156 15 -11 0 3 37 55 145 73 147 87 163 118 128z
m-3777 -3 c3 -5 14 -10 25 -10 18 0 190 -178 190 -197 0 -26 -149 -143 -182
-143 -9 0 -53 35 -96 78 -44 42 -116 109 -160 147 -44 39 -81 75 -81 82 -2 26
289 67 304 43z m1890 -80 c33 -33 57 -60 54 -60 -2 0 -31 27 -64 60 -33 33
-57 60 -54 60 2 0 31 -27 64 -60z m1276 -102 c-26 -143 -46 -227 -59 -240 -5
-5 -31 26 -62 73 -30 45 -68 97 -87 116 -18 20 -30 40 -27 45 16 26 236 150
248 138 5 -5 0 -59 -13 -132z m-1087 -129 c-8 -14 -176 -89 -185 -83 -5 3 -9
38 -9 79 0 83 -14 159 -40 220 -16 37 -6 29 111 -84 71 -68 126 -128 123 -132z
m782 96 c-1 -5 -24 -25 -51 -44 l-48 -35 -49 54 c-50 56 -94 126 -104 166 -5
19 13 11 125 -54 71 -42 129 -81 127 -87z m-3064 41 c217 -197 216 -186 30
-322 -81 -59 -154 -109 -162 -111 -10 -3 -22 8 -33 29 -9 18 -33 62 -52 98
-19 36 -35 78 -35 94 0 16 18 88 41 160 23 72 43 139 46 149 3 9 13 17 22 17
9 0 74 -51 143 -114z m-233 -42 c-23 -77 -44 -145 -48 -152 -10 -17 -161 142
-161 169 0 10 8 24 18 30 23 14 226 97 230 94 2 -2 -16 -65 -39 -141z m3039
96 c13 -27 47 -80 77 -117 30 -37 53 -68 52 -69 -1 0 -63 -47 -137 -104 -242
-187 -261 -200 -275 -200 -8 0 -24 19 -36 43 -12 23 -48 85 -80 138 -33 54
-59 103 -59 111 0 19 393 248 425 248 6 0 20 -22 33 -50z m-1483 25 c66 -14
95 -27 95 -42 0 -19 -69 -147 -122 -226 -96 -142 -294 -347 -335 -347 -23 0
-163 199 -163 231 0 32 46 74 235 214 61 45 137 105 169 133 35 31 66 50 75
48 9 -3 30 -8 46 -11z m-1960 -45 c166 -37 173 -51 52 -111 -121 -61 -260
-112 -253 -92 11 27 26 145 26 200 l0 52 38 -13 c20 -7 82 -23 137 -36z m2154
-52 c22 -29 65 -98 95 -153 53 -94 54 -98 20 -60 -41 45 -174 241 -174 256 0
22 22 6 59 -43z m-10 -78 c39 -58 87 -127 107 -155 32 -45 34 -50 17 -57 -10
-4 -61 -24 -113 -44 -52 -21 -175 -61 -273 -90 l-178 -52 74 77 c41 43 99 111
129 152 62 83 158 245 158 268 0 18 -4 24 79 -99z m1679 -28 c27 -37 58 -80
68 -96 l18 -29 -21 11 c-23 13 -153 157 -153 171 0 13 11 20 26 14 7 -3 36
-35 62 -71z m-3564 -22 l87 -91 -46 -82 c-25 -45 -71 -133 -101 -195 -53 -109
-56 -112 -88 -112 -21 0 -40 8 -53 23 -43 47 -243 329 -257 361 l-14 35 66 20
c37 11 117 45 177 75 61 30 117 55 126 55 9 1 55 -40 103 -89z m889 67 c41
-25 209 -206 202 -218 -7 -10 -188 -83 -319 -128 -84 -29 -122 -38 -131 -31
-7 6 -20 8 -29 4 -14 -5 -16 7 -16 114 l0 121 59 31 c33 18 83 54 113 80 29
27 60 49 68 49 8 1 32 -10 53 -22z m2663 -113 c57 -58 104 -107 104 -109 0 -6
-159 -65 -175 -65 -9 0 -23 16 -31 38 -9 20 -32 72 -52 115 -30 66 -34 80 -22
87 8 5 24 16 35 24 11 8 24 16 29 16 4 0 55 -48 112 -106z m853 51 c69 -8 129
-19 135 -25 8 -8 -5 -41 -44 -117 -91 -178 -103 -193 -148 -193 l-38 0 -92
157 c-86 147 -91 158 -75 175 20 23 90 24 262 3z m-1018 -99 c21 -46 42 -98
45 -114 6 -29 3 -32 -72 -76 -44 -25 -145 -80 -226 -121 l-148 -75 -35 70
c-19 38 -35 74 -35 79 0 5 30 33 68 62 210 166 335 259 348 259 9 0 31 -34 55
-84z m-662 -4 c22 -43 55 -105 75 -138 20 -32 36 -62 36 -66 0 -3 -24 -11 -52
-18 -29 -6 -82 -20 -117 -30 -35 -11 -78 -20 -96 -20 -21 0 -37 -7 -46 -19
-14 -20 -250 -143 -258 -135 -2 2 30 72 72 156 42 84 85 175 96 201 19 46 24
50 123 97 57 27 109 50 115 50 7 0 30 -35 52 -78z m1366 61 c-5 -10 -25 -83
-46 -163 -21 -80 -41 -155 -44 -167 -12 -39 -36 -36 -84 10 -25 24 -81 74
-123 111 -43 37 -78 74 -78 81 0 22 24 34 149 70 68 19 142 44 164 54 55 25
71 26 62 4z m112 -155 c46 -78 81 -143 79 -146 -3 -2 -53 -10 -113 -18 -59 -7
-118 -16 -130 -19 -21 -5 -22 -3 -13 20 6 15 21 72 36 128 41 166 44 177 52
177 4 0 44 -64 89 -142z m-3632 -16 c-1 -64 -4 -123 -9 -130 -14 -24 -198
-172 -206 -167 -15 9 -90 156 -90 176 0 13 46 53 148 129 81 60 149 110 152
110 3 0 5 -53 5 -118z m-416 11 c23 -43 45 -92 48 -110 5 -29 2 -33 -43 -56
-27 -14 -78 -37 -114 -52 -36 -15 -80 -34 -97 -41 l-33 -14 26 57 c31 72 155
293 164 293 4 0 26 -35 49 -77z m2650 12 c13 -22 15 -31 6 -20 -18 22 -53 86
-38 70 6 -5 20 -28 32 -50z m-394 23 c-7 -27 -163 -339 -175 -351 -4 -5 -19
11 -33 35 -29 51 -110 268 -103 276 3 2 56 13 117 23 62 11 126 23 143 28 51
15 58 13 51 -11z m-1281 -29 c22 -8 50 -39 94 -100 34 -49 65 -95 68 -102 3
-10 -18 -24 -68 -46 -40 -18 -117 -57 -170 -87 -134 -74 -137 -74 -190 -27
-24 22 -77 64 -118 95 -81 58 -110 85 -110 97 0 5 60 29 133 55 72 26 173 64
222 85 105 45 100 44 139 30z m2673 -122 c18 -26 57 -63 88 -82 30 -20 55 -41
55 -48 0 -17 -118 -217 -128 -217 -5 0 -20 12 -34 28 -22 23 -27 40 -32 112
-7 81 -32 263 -42 305 -7 26 47 -31 93 -98z m-327 -84 c6 -54 10 -122 8 -151
l-3 -53 -62 -25 -61 -25 -149 60 c-175 70 -203 82 -203 91 0 3 37 24 81 45 45
22 145 75 223 117 163 90 148 95 166 -59z m-1676 20 c-4 -74 -1 -109 11 -142
19 -56 6 -74 -54 -73 -39 1 -193 71 -328 149 -48 28 -52 37 -24 52 33 18 345
110 373 111 l27 0 -5 -97z m2116 -10 c0 -10 -39 19 -70 53 -35 37 -35 37 18
-6 28 -24 52 -45 52 -47z m-3630 -46 c22 -40 40 -79 40 -89 0 -19 -130 -118
-156 -118 -32 0 -255 92 -261 107 -9 23 25 47 132 92 55 23 120 53 145 66 25
12 48 21 52 18 5 -2 26 -37 48 -76z m4034 57 c9 -8 16 -20 16 -25 0 -15 -50
-111 -77 -147 -22 -29 -88 -72 -111 -72 -14 0 -142 172 -142 191 0 23 17 29
150 49 148 23 146 23 164 4z m-1389 -57 c4 -15 4 -27 1 -27 -7 0 -18 25 -31
70 -7 25 -7 25 8 4 9 -11 19 -33 22 -47z"/>
<path d="M4341 291 c-8 -5 -20 -7 -28 -4 -20 8 -15 -15 6 -27 30 -15 38 -12
43 15 6 27 1 30 -21 16z"/>
<path d="M5107 82 c-5 -12 -20 -36 -34 -52 -31 -37 -8 -42 26 -6 15 16 21 33
19 52 -3 28 -4 28 -11 6z"/>
</g>
</svg>